<svg width="398" height="391" viewBox="0 0 398 391" fill="none" xmlns="http://www.w3.org/2000/svg">
<path d="M130.504 368.92C61.1717 368.92 4.96506 312.635 4.96507 243.202C4.96507 173.769 61.1717 117.484 130.505 117.484C199.837 117.484 256.044 173.769 256.044 243.202C256.044 312.635 199.837 368.92 130.504 368.92Z" stroke="white"/>
<path d="M143.772 373.902C66.196 373.902 3.307 310.925 3.307 233.238C3.307 155.55 66.1961 92.5727 143.772 92.5727C221.348 92.5728 284.237 155.55 284.237 233.238C284.237 310.925 221.348 373.902 143.772 373.902Z" stroke="white"/>
<path d="M154.552 378.885C69.6483 378.885 0.819264 309.959 0.819268 224.934C0.819272 139.909 69.6483 70.9834 154.552 70.9834C239.455 70.9834 308.284 139.909 308.284 224.934C308.284 309.959 239.455 378.885 154.552 378.885Z" stroke="white"/>
<path d="M170.307 382.207C78.9922 382.207 4.96569 308.076 4.96569 216.63C4.96569 125.184 78.9922 51.0542 170.307 51.0542C261.622 51.0542 335.648 125.185 335.648 216.63C335.648 308.076 261.622 382.207 170.307 382.207Z" stroke="white"/>
<path d="M185.647 385.528C88.1497 385.528 9.11132 306.379 9.11132 208.742C9.11132 111.105 88.1497 31.9556 185.647 31.9556C283.144 31.9556 362.183 111.105 362.183 208.742C362.183 306.379 283.144 385.528 185.647 385.528Z" stroke="white"/>
<path d="M203.061 389.68C95.9463 389.68 9.11177 302.723 9.11178 195.456C9.11178 88.1879 95.9464 1.23143 203.061 1.23144C310.175 1.23144 397.01 88.1879 397.01 195.456C397.01 302.723 310.175 389.68 203.061 389.68Z" stroke="white"/>
</svg>
