<svg width="286" height="292" viewBox="0 0 286 292" fill="none" xmlns="http://www.w3.org/2000/svg">
<path d="M269.818 196.32C269.818 247.022 228.716 288.124 178.014 288.124C127.313 288.124 86.2109 247.022 86.2109 196.32C86.2109 145.618 127.313 104.517 178.014 104.517C228.716 104.517 269.818 145.618 269.818 196.32Z" stroke="white"/>
<circle cx="170.727" cy="186.604" r="102.734" stroke="white"/>
<path d="M277.105 178.709C277.105 240.814 226.76 291.16 164.655 291.16C102.551 291.16 52.2051 240.814 52.2051 178.709C52.2051 116.605 102.551 66.2593 164.655 66.2593C226.76 66.2593 277.105 116.605 277.105 178.709Z" stroke="white"/>
<path d="M279.534 167.171C279.534 233.971 225.382 288.123 158.583 288.123C91.7828 288.123 37.6309 233.971 37.6309 167.171C37.6309 100.372 91.7828 46.2197 158.583 46.2197C225.382 46.2197 279.534 100.372 279.534 167.171Z" stroke="white"/>
<path d="M281.964 155.937C281.964 227.265 224.141 285.087 152.814 285.087C81.4864 285.087 23.6641 227.265 23.6641 155.937C23.6641 84.6099 81.4864 26.7876 152.814 26.7876C224.141 26.7876 281.964 84.6099 281.964 155.937Z" stroke="white"/>
<path d="M285 143.185C285 221.555 221.468 285.087 143.097 285.087C64.7271 285.087 1.19531 221.555 1.19531 143.185C1.19531 64.8145 64.7271 1.28271 143.097 1.28271C221.468 1.28271 285 64.8145 285 143.185Z" stroke="white"/>
</svg>
