<svg width="30" height="31" viewBox="0 0 30 31" fill="none" xmlns="http://www.w3.org/2000/svg">
<path d="M10.7339 0C10.5688 0 10.4587 0 10.3486 0.0550459C4.18349 2.25688 0.0553604 8.09174 0 14.6425C0 23.1196 6.93578 30.0554 15.4128 30.0554C21.963 30.0554 27.7985 25.8719 29.945 19.7067C30 19.5966 30 19.4866 30 19.3214C30 18.7159 29.5046 18.2205 28.8991 18.2205C28.789 18.2205 28.6239 18.2205 28.5138 18.2755C27.1376 18.771 25.6514 18.9911 24.1651 19.0462C16.8437 19.0462 10.9541 13.1563 10.9541 5.83518C10.9541 4.34894 11.2294 2.91775 11.7248 1.48655C11.7798 1.37646 11.7798 1.26637 11.7798 1.10123C11.8349 0.495727 11.3394 0.0553605 10.7339 0.000314615V0Z" fill="white"/>
</svg>
