<svg width="20" height="20" viewBox="0 0 30 30" fill="none" xmlns="http://www.w3.org/2000/svg">
<path d="M15 9.00014C16.5914 9.00014 18.1174 9.6322 19.2427 10.7575C20.3679 11.8827 21 13.4088 21 15.0001C21 16.5914 20.3679 18.1175 19.2427 19.2427C18.1174 20.368 16.5914 21.0001 15 21.0001C13.4087 21.0001 11.8827 20.368 10.7574 19.2427C9.63213 18.1175 9.00007 16.5914 9.00007 15.0001C9.00007 13.4088 9.63213 11.8827 10.7574 10.7575C11.8827 9.6322 13.4087 9.00014 15 9.00014V9.00014ZM16.5 4.20001V1.49999C16.5 0.964107 16.2142 0.468904 15.7501 0.200959C15.2861 -0.0669862 14.714 -0.0669862 14.2499 0.200959C13.7859 0.468904 13.5001 0.9641 13.5001 1.49999V4.20001C13.5001 4.73589 13.7859 5.2311 14.2499 5.49904C14.714 5.76699 15.286 5.76699 15.7501 5.49904C16.2142 5.2311 16.5 4.7359 16.5 4.20001ZM13.5001 25.8002V28.5002C13.5001 29.0361 13.7859 29.5313 14.2499 29.7992C14.714 30.0672 15.286 30.0672 15.7501 29.7992C16.2142 29.5313 16.5 29.0361 16.5 28.5002V25.8002C16.5 25.2643 16.2142 24.7691 15.7501 24.5011C15.2861 24.2332 14.714 24.2332 14.2499 24.5011C13.7859 24.7691 13.5001 25.2643 13.5001 25.8002ZM22.6365 8.86333C23.0342 8.86333 23.4157 8.70513 23.6969 8.42388L25.6064 6.51586C25.9856 6.13693 26.134 5.58449 25.9954 5.06666C25.8568 4.54883 25.4525 4.14428 24.9349 4.00542C24.4171 3.86655 23.8647 4.01446 23.4855 4.3934L21.576 6.29988C21.294 6.58088 21.1355 6.9628 21.1353 7.36086C21.135 7.75913 21.2932 8.1411 21.5747 8.42261C21.8565 8.70411 22.2384 8.86206 22.6365 8.86181L22.6365 8.86333ZM6.51412 25.6067L8.42362 23.7002C8.80305 23.3208 8.95121 22.7678 8.81235 22.2495C8.67348 21.7312 8.26868 21.3264 7.75034 21.1875C7.232 21.0486 6.67907 21.1968 6.29966 21.5762L4.39319 23.4857C4.10365 23.7652 3.93866 24.1494 3.93515 24.5517C3.93163 24.954 4.09009 25.341 4.3746 25.6253C4.65887 25.9098 5.04581 26.0682 5.44812 26.0647C5.85041 26.0612 6.23459 25.8962 6.51411 25.6067L6.51412 25.6067ZM28.5 13.5003H25.8C25.2641 13.5003 24.7689 13.7861 24.501 14.2501C24.233 14.7142 24.233 15.2862 24.501 15.7503C24.7689 16.2144 25.2641 16.5001 25.8 16.5001H28.5C29.0359 16.5001 29.5311 16.2144 29.799 15.7503C30.067 15.2863 30.067 14.7142 29.799 14.2501C29.5311 13.7861 29.0359 13.5003 28.5 13.5003ZM0 15.0002C0 15.398 0.157951 15.7797 0.439203 16.0609C0.720456 16.3422 1.10212 16.5001 1.49993 16.5001H4.19995C4.73583 16.5001 5.23103 16.2144 5.49898 15.7503C5.76692 15.2863 5.76692 14.7142 5.49898 14.2501C5.23103 13.7861 4.73584 13.5003 4.19995 13.5003H1.49993C1.10216 13.5003 0.720456 13.6583 0.439203 13.9395C0.157951 14.2208 0 14.6024 0 15.0002ZM21.5757 23.7001L23.4852 25.6081C23.8644 25.987 24.4169 26.1349 24.9347 25.9961C25.4523 25.8572 25.8566 25.4527 25.9952 24.9348C26.1338 24.417 25.9854 23.8646 25.6062 23.4856L23.6997 21.5761C23.3203 21.1967 22.7673 21.0485 22.249 21.1874C21.7307 21.3263 21.3259 21.7311 21.187 22.2494C21.0481 22.7678 21.1963 23.3207 21.5757 23.7001L21.5757 23.7001ZM6.51412 4.39364C6.13318 4.0255 5.58622 3.88588 5.07546 4.02575C4.56444 4.16588 4.16543 4.5649 4.02528 5.07593C3.88541 5.5867 4.02503 6.13363 4.39317 6.51459L6.29964 8.42409C6.67908 8.80352 7.23205 8.95168 7.75033 8.81282C8.2686 8.67395 8.67341 8.26915 8.81234 7.75081C8.95126 7.23247 8.80304 6.67954 8.4236 6.30013L6.51412 4.39364Z" fill="#FFFF00"/>
</svg>
