<svg width="604" height="468" viewBox="0 0 604 468" fill="none" xmlns="http://www.w3.org/2000/svg">
<path d="M443.11 297.894C446.864 295.21 450.798 292.789 454.886 290.647C476.082 279.756 495.929 268.576 512.484 251.419C532.092 231.096 545.836 203.649 545.839 174.853C545.842 146.057 530.338 116.548 504.824 104.61C473.072 89.7452 436.748 103.879 402.2 107.442C357.661 112.034 313.381 98.4773 269.431 89.1171C225.48 79.757 177.713 74.9924 137.785 95.5998C105.646 112.207 81.98 145.04 75.7932 181.629C69.6065 218.218 81.05 257.685 105.767 285.007C141.423 324.429 197.512 335.045 249.521 337.545C287.842 339.399 326.251 338.068 364.352 333.565C381.52 331.533 397.589 328.04 412.753 319.501C423.671 313.362 432.983 304.999 443.11 297.894Z" stroke="#E0E0E0" stroke-width="2.6" stroke-miterlimit="10"/>
<path d="M207.101 334.03C180.328 330.862 153.386 324.392 129.732 310.231C106.078 296.07 85.884 273.424 78.0034 245.736C70.1227 218.048 76.3518 185.409 96.621 166.945C121.857 143.967 159.247 147.621 192.107 141.582C234.469 133.816 271.626 108.67 309.628 87.6463C347.63 66.6221 390.409 48.9918 432.895 57.89C467.102 65.0551 497.921 90.1584 513.637 123.65C529.353 157.141 529.589 198.229 514.241 231.246C492.115 278.905 443.255 304.455 395.947 321.098C361.117 333.353 325.295 342.582 288.879 348.68C275.512 350.914 261.87 352.726 248.419 350.609C234.967 348.493 221.51 341.986 213.179 330.337L207.101 334.03Z" fill="#F5F5F5"/>
<path d="M0 387.422H603.637" stroke="#102048" stroke-width="5" stroke-miterlimit="10"/>
<path d="M498.751 27.7227H319.586V200.043H498.751V27.7227Z" fill="white"/>
<g opacity="0.6">
<path opacity="0.6" d="M370.432 135.513C354.242 125.413 347.582 108.64 347.524 92.4741C347.476 78.8868 353.373 62.1079 372.863 65.0941C385.964 67.102 396.922 75.1125 409.479 78.6512C419.646 81.5167 430.44 80.6803 440.736 80.161C456.872 79.3668 474.424 88.7451 476.13 99.5093C478.415 113.936 476.299 129.921 463.584 138.324C441.313 153.052 395.487 151.141 370.432 135.513Z" stroke="#1F3C88" stroke-width="2.5" stroke-miterlimit="10" stroke-dasharray="19.91 19.91"/>
</g>
<path d="M383.987 152.129C365.131 149.188 352.431 136.379 346.033 121.521C340.658 109.033 339.502 91.2936 358.603 86.3991C371.444 83.105 384.663 86.1757 397.604 84.506C408.082 83.1563 417.68 78.1652 426.953 73.6361C441.485 66.5767 458.334 63.6721 467.111 77.5613C474.907 89.9167 473.274 106.886 464.874 119.601C450.145 141.875 413.163 156.679 383.987 152.129Z" fill="#EBEBEB"/>
<path d="M358.028 47.4121C358.978 43.3871 356.485 39.3541 352.461 38.4041C348.436 37.4541 344.403 39.9469 343.453 43.9719C342.503 47.9969 344.995 52.0299 349.02 52.9799C353.045 53.9298 357.078 51.437 358.028 47.4121Z" fill="#F85052"/>
<path d="M352.38 48.8948L350.743 46.6816L349.091 48.8948H347.443L349.928 45.652L347.549 42.5088H349.212L350.779 44.6012L352.343 42.5088H353.959L351.567 45.6278L354.067 48.8948H352.38Z" fill="white"/>
<path d="M377.303 47.5505C378.323 43.5429 375.902 39.4666 371.894 38.4458C367.887 37.425 363.81 39.8463 362.79 43.8539C361.769 47.8615 364.19 51.9379 368.198 52.9586C372.205 53.9794 376.282 51.5581 377.303 47.5505Z" fill="#F85052"/>
<path d="M373.06 44.8789H367.03V46.5215H373.06V44.8789Z" fill="white"/>
<path d="M438.418 133.507C419.676 144.241 410.579 141.291 407.62 139.628C404.682 141.291 395.585 144.241 376.843 133.507C358.89 123.217 369.355 101.094 376.426 87.6334C380.267 80.3204 383.229 72.6028 389.965 67.3339C396.306 62.3761 403.405 60.8452 411.732 61.2559C423.179 61.8205 430.284 68.6383 433.795 76.8179C436.588 83.3247 440.057 89.4088 443.107 95.7828C445.966 101.752 448.27 108.25 448.485 114.877C448.753 122.589 445.426 129.497 438.418 133.507Z" fill="#6F3428"/>
<path d="M442.895 132.202C431.422 119.288 410.286 121.982 408.03 122.311C405.781 121.982 384.642 119.291 373.165 132.202C364.521 141.925 364.632 180.736 364.632 180.736C364.632 179.779 404.842 179.495 408.03 179.477C411.219 179.459 451.428 179.779 451.428 180.736C451.428 180.736 451.54 141.925 442.895 132.202Z" fill="#F85052"/>
<path d="M390.222 93.2432C385.717 93.7021 381.967 104.675 394.147 104.904L397.061 101.453L390.222 93.2432Z" fill="#E28B6D"/>
<path d="M425.944 93.2432C431.023 93.5089 434.631 104.675 422.448 104.904L419.534 101.453L425.944 93.2432Z" fill="#E28B6D"/>
<path d="M397.888 109.642H418.188V122.439C418.188 125.129 417.119 127.708 415.217 129.61C413.315 131.512 410.735 132.581 408.045 132.581V132.581C405.356 132.581 402.776 131.512 400.874 129.61C398.972 127.708 397.903 125.129 397.903 122.439V109.642H397.888Z" fill="#F9B384"/>
<path d="M418.118 112.355C411.445 123.225 404.67 123.035 397.801 112.73L418.118 112.355Z" fill="#E28B6D"/>
<path d="M427.596 85.1156C427.497 86.109 427.379 87.0842 427.255 88.0504C425.141 104.132 419.661 116.735 407.732 116.735C395.488 116.735 391.224 104.657 388.987 87.8482C388.797 86.4773 388.634 85.0582 388.471 83.621L412.553 73.9951L427.596 85.1156Z" fill="#F9B384"/>
<path d="M386.514 92.8666C392.646 94.9349 404.35 88.0144 404.35 88.0144C403.444 85.3815 404.724 82.7908 407.284 80.2243C407.13 82.8331 407.734 86.9214 410.068 88.428C410.068 88.428 411.647 88.8025 414.093 88.2771C413.489 85.2969 413.93 82.6851 415.748 80.5625C415.748 80.5625 418.496 88.0506 419.848 89.7445C421.563 91.8853 427.726 95.1191 433.242 92.4137L422.976 69.1642L395.774 68.5996L383.464 80.0009L386.514 92.8666Z" fill="#6F3428"/>
<path d="M401.029 95.746C401.924 95.746 402.65 94.7537 402.65 93.5297C402.65 92.3057 401.924 91.3135 401.029 91.3135C400.133 91.3135 399.407 92.3057 399.407 93.5297C399.407 94.7537 400.133 95.746 401.029 95.746Z" fill="#6F3428"/>
<path d="M414.649 95.746C415.544 95.746 416.27 94.7537 416.27 93.5297C416.27 92.3057 415.544 91.3135 414.649 91.3135C413.753 91.3135 413.027 92.3057 413.027 93.5297C413.027 94.7537 413.753 95.746 414.649 95.746Z" fill="#6F3428"/>
<path d="M409.969 99.5053C409.969 101.658 410.141 103.352 408.353 103.4C406.654 103.446 406.735 101.658 406.735 99.5053C406.735 97.3524 407.46 95.6133 408.353 95.6133C409.247 95.6133 409.969 97.3615 409.969 99.5053Z" fill="#E28B6D"/>
<path d="M403.362 107.025L413.592 106.744C413.592 106.744 409.32 114.927 403.362 107.025Z" fill="white"/>
<path opacity="0.3" d="M418.088 105.545C420.481 105.545 422.421 103.605 422.421 101.212C422.421 98.8188 420.481 96.8789 418.088 96.8789C415.695 96.8789 413.755 98.8188 413.755 101.212C413.755 103.605 415.695 105.545 418.088 105.545Z" fill="#F85052"/>
<path opacity="0.3" d="M403.767 102.373C404.149 100.01 402.543 97.7859 400.181 97.4041C397.819 97.0224 395.594 98.6279 395.212 100.99C394.83 103.353 396.436 105.577 398.798 105.959C401.161 106.341 403.385 104.735 403.767 102.373Z" fill="#F85052"/>
<g opacity="0.4">
<path opacity="0.4" d="M396.062 132.521C396.803 133.365 397.703 134.054 398.71 134.55C399.71 135.076 400.764 135.493 401.853 135.795C404.035 136.405 406.299 136.668 408.562 136.577C410.813 136.5 413.028 135.988 415.084 135.067C417.136 134.112 418.926 132.675 420.302 130.879L420.745 131.181C420.155 132.231 419.417 133.191 418.553 134.031C417.668 134.862 416.677 135.572 415.606 136.145C413.439 137.256 411.051 137.866 408.616 137.929C406.202 138.028 403.791 137.675 401.506 136.891C400.363 136.502 399.268 135.984 398.242 135.348C397.196 134.71 396.304 133.85 395.627 132.829L396.062 132.521Z" fill="#6F3428"/>
</g>
<g opacity="0.4">
<path opacity="0.4" d="M384.582 148.995C384.669 151.295 384.675 153.593 384.663 155.891C384.651 158.189 384.606 160.483 384.542 162.781C384.479 165.079 384.376 167.371 384.24 169.662L384.011 173.102C383.905 174.246 383.824 175.393 383.691 176.538L383.163 176.519C383.102 175.369 383.096 174.222 383.066 173.071V169.623C383.066 167.328 383.129 165.031 383.208 162.736C383.286 160.441 383.38 158.146 383.534 155.855C383.688 153.563 383.836 151.268 384.062 148.979L384.582 148.995Z" fill="#6F3428"/>
</g>
<g opacity="0.4">
<path opacity="0.4" d="M432.497 147.839C432.883 150.14 433.188 152.443 433.475 154.753C433.762 157.063 434.012 159.37 434.248 161.683C434.483 163.996 434.683 166.312 434.852 168.627L435.072 172.109C435.114 173.271 435.184 174.434 435.199 175.599L434.674 175.651C434.465 174.503 434.308 173.35 434.13 172.199L433.674 168.739C433.372 166.432 433.143 164.123 432.922 161.795C432.702 159.467 432.497 157.166 432.352 154.85C432.207 152.534 432.05 150.209 431.986 147.878L432.497 147.839Z" fill="#6F3428"/>
</g>
<path d="M319.586 27.7227V172.705V192.075L342.09 172.705H498.751V27.7227H319.586Z" stroke="#E0E0E0" stroke-width="3.5" stroke-miterlimit="10"/>
<path opacity="0.15" d="M73.4715 420.871C89.3134 420.871 102.156 418.426 102.156 415.409C102.156 412.393 89.3134 409.947 73.4715 409.947C57.6295 409.947 44.7871 412.393 44.7871 415.409C44.7871 418.426 57.6295 420.871 73.4715 420.871Z" fill="#1F3C88"/>
<path d="M60.3125 404.777C54.1076 404.777 47.1992 395.692 47.1992 389.535C47.1992 383.276 52.1873 378.186 58.3197 378.186C64.4521 378.186 69.4462 383.276 69.4462 389.535C69.4462 395.429 66.9642 404.777 60.3125 404.777ZM58.3197 381.96C54.2676 381.96 50.9735 385.357 50.9735 389.535C50.9735 394.143 56.5594 401.009 60.3125 401.009C63.7637 401.009 65.6689 394.228 65.6689 389.535C65.6689 385.357 62.3717 381.96 58.3197 381.96V381.96Z" fill="#F85052"/>
<path d="M81.7713 414.596H65.4394C64.1312 414.596 62.8708 414.104 61.9082 413.218C60.9457 412.332 60.3513 411.117 60.243 409.813L56.8643 369.108H91.0228L86.9587 409.898C86.8306 411.185 86.2289 412.378 85.2703 413.246C84.3117 414.114 83.0647 414.595 81.7713 414.596Z" fill="#F85052"/>
<path d="M60.8258 320.31C59.6815 324.138 59.1712 328.082 59.8204 331.874C60.143 333.765 60.682 335.611 61.4267 337.379C62.2086 339.146 63.1495 340.839 64.2378 342.436C65.3519 344.047 66.5757 345.58 67.9003 347.023C68.2204 347.37 68.5676 347.799 68.9178 348.23C69.2681 348.662 69.6244 349.055 69.9444 349.498L70.8503 350.893C71.1357 351.378 71.3859 351.883 71.5991 352.403C71.8392 352.92 72.0283 353.459 72.1637 354.012C72.3258 354.573 72.4271 355.149 72.4656 355.731C72.5019 356.022 72.5019 356.317 72.4656 356.609L72.4053 357.488C72.363 357.79 72.2845 358.061 72.2211 358.348C72.1676 358.635 72.0846 358.915 71.9735 359.185L71.6444 359.985C71.5085 360.239 71.3636 360.483 71.2216 360.728C71.0833 360.974 70.9248 361.208 70.7476 361.428C70.5874 361.657 70.4108 361.874 70.2192 362.077C69.4875 362.906 68.6208 363.606 67.6557 364.146L67.0277 363.146C68.4227 361.917 69.57 360.263 69.9565 358.557C70.0213 358.349 70.0608 358.134 70.0743 357.917C70.0954 357.699 70.1407 357.488 70.1467 357.273L70.1196 356.624C70.1258 356.408 70.1004 356.193 70.0441 355.984C69.9834 355.552 69.8761 355.128 69.724 354.719C69.5915 354.3 69.4165 353.895 69.2017 353.511C68.9942 353.106 68.7654 352.712 68.5163 352.331L67.7071 351.198C67.4051 350.833 67.073 350.492 66.762 350.136L65.7595 349.046C65.0439 348.276 64.3283 347.506 63.6731 346.675C62.9937 345.862 62.3558 345.014 61.7618 344.136C60.5667 342.361 59.5627 340.464 58.7666 338.478C57.9895 336.464 57.4878 334.354 57.275 332.206C56.8342 327.895 57.8578 323.571 59.7479 319.872L60.8258 320.31Z" fill="#D3DFFF"/>
<path d="M75.6605 319.144C77.8685 320.932 79.485 323.345 80.2983 326.067C80.6977 327.451 80.901 328.884 80.9022 330.324C80.8913 331.747 80.7253 333.165 80.407 334.552C80.0789 335.909 79.6375 337.236 79.0875 338.519L78.7312 339.395C78.6255 339.669 78.4957 339.941 78.4051 340.216L78.2028 341.028C78.1183 341.306 78.1092 341.569 78.0488 341.84C78.0058 342.103 77.9876 342.369 77.9945 342.635C77.9903 342.892 78.0125 343.149 78.0609 343.401C78.1002 343.652 78.1608 343.898 78.2421 344.138C78.3408 344.373 78.4569 344.6 78.5893 344.818C79.1147 345.723 80.1201 346.466 81.1739 346.931L80.9414 348.088C79.4079 347.94 77.981 347.238 76.9286 346.113C76.6623 345.807 76.4219 345.48 76.21 345.135C76.0155 344.776 75.8518 344.401 75.7209 344.014C75.5934 343.631 75.5074 343.235 75.4642 342.834C75.4068 342.444 75.3866 342.05 75.4038 341.656C75.4074 341.272 75.4386 340.889 75.4974 340.509L75.7209 339.41C75.8145 339.051 75.9413 338.715 76.05 338.365C76.1587 338.015 76.2764 337.659 76.3851 337.387C76.8348 336.23 77.209 335.045 77.5053 333.839C77.7867 332.657 77.9665 331.453 78.0428 330.24C78.0944 329.041 78.0154 327.84 77.8073 326.659C77.3906 324.286 76.2764 322.048 74.812 319.929L75.6605 319.144Z" fill="#D3DFFF"/>
<path opacity="0.15" d="M416.156 415.74C416.156 408.663 353.092 402.923 275.294 402.923C197.496 402.923 134.433 408.66 134.433 415.74C134.433 421.477 175.923 426.344 233.11 427.975C239.339 438.193 228.944 450.412 220.975 454.82C206.986 455.518 196.944 457.076 198.526 460.394C206.002 476.095 269.545 459.389 269.545 459.389C269.545 459.389 294.392 460.935 294.392 458.571C294.392 457.484 290.017 456.49 282.819 455.735L283.35 455.705L256.526 428.446C262.667 428.522 268.923 428.561 275.294 428.561C353.092 428.561 416.156 422.821 416.156 415.74Z" fill="#1F3C88"/>
<path d="M428.599 321.583C426.742 352.221 411.298 382.838 385.98 399.686C355.801 419.774 313.605 415.33 279.238 417.887C249.527 420.101 219.589 422 189.863 418.838C165.512 416.242 140.949 406.595 129.318 382.953C117.663 359.256 116.401 327.773 128.056 303.79C131.756 296.246 136.667 289.359 142.595 283.403C143.546 282.428 144.536 281.477 145.538 280.55C146.219 279.922 146.908 279.306 147.607 278.702C148.679 277.772 149.781 276.866 150.898 275.984C151.269 275.682 151.638 275.411 152.015 275.127C152.393 274.843 152.764 274.559 153.141 274.278C153.519 273.997 153.896 273.72 154.28 273.448L155.14 272.844C155.617 272.502 156.1 272.17 156.589 271.848C160.927 268.928 165.485 266.348 170.222 264.133C174.779 261.984 179.481 260.154 184.293 258.659C199.927 253.807 216.253 252.086 232.386 249.966C266.617 245.473 301.47 243.927 335.972 243.963C364.128 243.963 395.832 248.191 414.658 272.346C425.293 285.991 429.662 304.131 428.599 321.583Z" fill="#455A64"/>
<path d="M370.635 269.834C370.635 269.834 377.882 263.013 381.747 259.064C385.612 255.115 377.196 254.988 373.06 259.906C368.923 264.825 370.635 269.834 370.635 269.834Z" fill="#F9B384"/>
<path d="M170.228 264.125C165.491 266.34 160.933 268.919 156.596 271.839C156.106 272.164 155.623 272.496 155.146 272.836L154.286 273.44C153.902 273.712 153.525 273.992 153.147 274.27C152.77 274.548 152.393 274.829 152.021 275.119C151.65 275.408 151.275 275.689 150.904 275.976C149.802 276.855 148.724 277.751 147.658 278.672L147.613 278.697C146.912 279.3 146.223 279.916 145.545 280.544C144.542 281.471 143.552 282.423 142.601 283.398C142.627 283.806 142.783 284.196 143.045 284.51C143.308 284.824 143.664 285.046 144.062 285.143C149.726 286.29 152.565 291.695 157.13 294.769C160.521 297.049 164.525 297.674 168.359 296.366C164.232 305.122 161.955 313.785 163.736 323.571C164.285 326.532 165.214 329.409 166.502 332.131C161.197 328.206 156.085 319.751 153.984 311.188C153.84 310.605 153.471 310.102 152.957 309.791C152.443 309.48 151.827 309.386 151.244 309.529C150.66 309.673 150.158 310.042 149.847 310.556C149.535 311.07 149.441 311.686 149.584 312.269C152.187 322.867 158.812 333.052 165.696 337.028C167.224 337.924 168.9 338.538 170.645 338.84C172.006 340.593 173.533 342.21 175.204 343.671L185.38 346.515L193.683 292.921L170.228 264.125Z" fill="#35464F"/>
<path d="M199.722 300.115C178.683 291.92 164.078 283.206 155.596 277.406C152.907 275.56 150.804 272.981 149.537 269.975C148.269 266.97 147.891 263.663 148.446 260.449L159.295 197.211C159.84 194.004 161.178 190.985 163.187 188.428C165.197 185.87 167.813 183.856 170.799 182.567C186.551 175.796 203.136 171.157 220.115 168.771C226.468 168.385 232.841 168.511 239.173 169.148C246.206 169.843 262.299 174.583 272.529 177.763C275.382 178.648 277.999 180.167 280.182 182.206C282.366 184.245 284.06 186.752 285.138 189.538C289.428 200.595 296.397 219.264 298.619 229.355C306.295 264.205 305.036 261.627 305.036 261.627L312.962 315.221L228.796 319.937L207.282 310.124L199.722 300.115Z" fill="#F85052"/>
<path d="M251.819 108.571C251.819 108.571 244.364 93.2866 224.55 100.268C210.208 97.1545 199.263 114.139 209.831 137.255L229.738 141.881L251.819 108.571Z" fill="#102048"/>
<path d="M241.251 151.788V178.827C241.251 181.87 240.042 184.788 237.89 186.94C235.738 189.092 232.82 190.301 229.777 190.301C225.659 190.3 221.709 188.663 218.797 185.751C215.885 182.839 214.249 178.89 214.248 174.772V151.788H241.251Z" fill="#F9B384"/>
<path d="M241.251 163.004V177.754C229.224 177.815 221.247 162.265 221.247 162.265L241.251 163.004Z" fill="#E28B6D"/>
<path d="M253.135 148.39C252.41 152.134 251.375 155.966 249.889 159.342C247.292 165.266 243.328 169.78 237.274 169.91C223.107 170.211 212.177 150.848 212.177 150.848L214.441 124.428L225.196 112.351L254.838 130.651C254.798 136.603 254.228 142.539 253.135 148.39Z" fill="#F9B384"/>
<path d="M213.97 143.107C213.97 143.107 216.893 131.216 227.084 123.48C227.084 123.48 241.9 142.823 257.562 133.481C273.223 124.139 266.433 105.741 251.807 108.571L235.01 106.687L213.97 113.384L210.383 129.897L213.97 143.107Z" fill="#102048"/>
<path opacity="0.4" d="M228.841 280.13C214.568 249.29 196.575 264.01 192.173 252.687C186.001 236.82 187.173 218.87 187.14 213.435L178.543 261.839C178.543 261.839 197.738 263.65 204.833 275.221L228.841 280.13Z" fill="#1F3C88"/>
<path d="M187.577 212.608C187.043 216.751 186.412 220.875 185.766 224.987C185.12 229.1 184.386 233.215 183.703 237.331C183.021 241.446 182.233 245.541 181.427 249.635L180.198 255.77C179.754 257.811 179.34 259.856 178.86 261.888L178.238 261.779C178.486 259.705 178.8 257.642 179.081 255.574L180.032 249.387C180.68 245.269 181.375 241.156 182.118 237.05C182.888 232.95 183.598 228.84 184.416 224.749C185.234 220.658 186.04 216.566 186.958 212.493L187.577 212.608Z" fill="#1F3C88"/>
<path d="M270.968 204.953C272.109 210.331 273.166 215.723 274.198 221.122C275.231 226.521 276.197 231.928 277.2 237.333C278.202 242.738 279.096 248.158 280.008 253.578L281.324 261.73C281.732 264.447 282.167 267.165 282.532 269.882L281.952 269.985C281.348 267.301 280.835 264.604 280.277 261.911L278.7 253.819C277.684 248.421 276.69 243.016 275.72 237.605C274.793 232.188 273.812 226.783 272.933 221.358C272.055 215.932 271.164 210.509 270.379 205.068L270.968 204.953Z" fill="#1F3C88"/>
<path opacity="0.4" d="M274.956 229.915C275.961 239.728 274.452 290.554 250.801 291.309L251.051 302.381L288.29 300.116L274.956 229.915Z" fill="#1F3C88"/>
<path d="M226.329 289.925C243.126 282.753 246.336 283.019 248.597 283.131C256.336 283.508 267.468 298.983 267.468 298.983L267.281 301.812H224.819L226.329 289.925Z" fill="#E28B6D"/>
<path d="M290.932 299.047H238.66V306.973H290.932V299.047Z" fill="white"/>
<path d="M362.014 306.978H271.182L291.563 225.805H382.395L362.014 306.978Z" fill="#E0E0E0"/>
<path d="M371.97 291.812C371.402 295.635 371.215 301.248 359.373 300.541L355.882 298.748L359.183 295.124L366.308 291.501L371.97 291.812Z" fill="#F9B384"/>
<path d="M373.087 281.495C373.087 281.495 379.567 289.949 373.054 292.567C368.633 294.288 363.926 295.153 359.183 295.116C362.202 286.622 372.015 287.19 372.015 287.19L373.087 281.495Z" fill="#F9B384"/>
<path d="M373.274 276.024C373.274 276.024 382.206 284.328 373.902 286.656C362.178 289.941 358.555 290.176 358.555 290.176C357.927 283.95 369.564 279.91 369.564 279.91L373.274 276.024Z" fill="#F9B384"/>
<path d="M371.45 268.789C371.45 268.789 383.655 276.211 372.205 280.362C360.756 284.514 358.05 284.451 358.05 284.451C357.422 278.225 369.69 276.087 369.69 276.087L371.45 268.789Z" fill="#F9B384"/>
<path d="M358.05 284.451C358.05 284.451 371.357 282.567 375.318 279.357" stroke="#E28B6D" stroke-width="2.5" stroke-miterlimit="10"/>
<path d="M358.555 290.176C358.555 290.176 372.393 288.225 376.735 285.206" stroke="#E28B6D" stroke-width="2.5" stroke-miterlimit="10"/>
<path d="M359.183 295.115C359.183 295.115 367.392 295.399 372.015 293.135" stroke="#E28B6D" stroke-width="2.5" stroke-miterlimit="10"/>
<path d="M230.293 414.099C231.676 413.344 253.567 418.124 277.849 400.135L246.522 391.203L230.293 414.099Z" fill="#102048"/>
<path d="M369.388 310.192C370.43 308.706 371.33 306.517 370.016 305.264C368.648 303.95 366.414 305.104 364.98 306.342C362.476 308.514 360.153 310.887 358.035 313.437L305.15 323.266L232.685 340.878L245.146 356.781C281.379 359.423 302.013 360.102 324.689 356.102C336.247 354.061 346.577 351.959 354.279 345.679C356.112 344.169 357.848 341.654 356.655 339.61C355.849 338.23 354.173 337.864 352.489 337.88C356.359 336.97 360.117 335.631 363.691 333.888C365.285 333.118 367.057 331.91 367.012 330.144C366.988 328.876 365.961 327.804 364.784 327.351C363.606 326.898 362.308 326.934 361.049 327.025C356.218 327.396 351.464 328.452 346.93 330.159C355.176 324.383 363.576 318.413 369.388 310.192ZM346.803 330.228C346.803 330.21 346.803 330.204 346.827 330.189C346.853 330.181 346.878 330.171 346.903 330.159C346.872 330.18 346.833 330.204 346.803 330.228V330.228Z" fill="#35464F"/>
<path d="M248.032 317.1C248.032 317.1 318.611 283.509 341.634 285.019C364.657 286.529 363.902 315.213 355.221 327.668C346.54 340.123 326.159 356.73 251.052 351.823L248.032 317.1Z" fill="#102048"/>
<path d="M283.35 455.706C279.53 456.787 274.111 457.05 266.653 455.863C266.653 455.863 256.991 458.37 247.479 460.341C241.042 461.676 234.677 462.757 231.425 462.657C231.144 462.657 230.867 462.636 230.58 462.612C224.336 462.168 216.47 458.913 212.297 454.263C212.297 454.263 212.282 454.233 212.267 454.227C211.158 453.034 210.311 451.622 209.782 450.081C207.518 443.031 212.303 434.48 238.219 436.237C238.219 436.237 246.77 434.229 248.787 427.934C250.804 421.638 235.954 391.454 235.954 391.454L257.09 377.111L277.849 400.134C277.849 400.134 280.995 420.893 280.995 427.686C280.995 427.686 289.796 440.268 291.058 445.803C291.865 449.336 290.098 453.795 283.35 455.706Z" fill="#D3DFFF"/>
<path d="M164.515 264.528C166.931 263.595 169.401 262.843 171.895 262.149C173.145 261.808 174.401 261.491 175.681 261.243C176.318 261.113 176.964 261.002 177.619 260.914C177.948 260.869 178.275 260.835 178.616 260.808C178.969 260.788 179.323 260.795 179.676 260.826C182.393 261.128 184.845 261.965 187.288 262.868C189.73 263.77 192.094 264.827 194.428 265.95C196.762 267.074 199.048 268.29 201.292 269.574C203.535 270.857 205.736 272.228 207.88 273.68C212.137 276.621 216.235 279.849 219.758 283.644L219.311 284.091C217.415 282.376 215.439 280.756 213.384 279.233C211.346 277.693 209.239 276.25 207.08 274.879C202.782 272.112 198.326 269.601 193.734 267.357C191.445 266.225 189.117 265.177 186.75 264.241C184.383 263.36 181.961 262.412 179.552 262.086C179.265 262.046 178.975 262.029 178.685 262.034C178.383 262.034 178.081 262.073 177.779 262.107C177.157 262.173 176.532 262.264 175.907 262.372C174.657 262.59 173.404 262.843 172.157 263.124C169.666 263.692 167.181 264.35 164.742 265.105L164.515 264.528Z" fill="#1F3C88"/>
<path d="M177.076 363.336C185.567 362.768 193.912 363.375 199.972 361.258C206.452 358.994 223.373 360.504 223.373 360.504L214.076 347.104L176.333 356.542L177.076 363.336Z" fill="#35464F"/>
<path d="M177.454 338.612C168.773 324.648 168.773 297.095 179.718 284.64C192.228 270.407 218.971 265.014 232.935 281.621C246.9 298.228 272.565 358.993 277.849 400.133C277.849 400.133 249.542 390.697 230.293 414.097C230.293 414.097 205.006 356.351 199.722 335.215L185.38 346.538L177.454 338.612Z" fill="#1F3C88"/>
<path d="M199.722 335.217C199.722 335.217 195.948 333.834 190.664 337.355C190.664 337.355 149.397 336.476 140.215 345.785C131.033 355.094 138.075 367.549 151.538 368.935C162.834 370.094 184.752 361.332 191.524 358.484C192.896 357.904 194.356 357.558 195.842 357.461L207.014 356.73L199.722 335.217Z" fill="#D3DFFF"/>
<path d="M216.189 143.877C216.189 143.877 213.421 134.704 207.331 136.996C201.24 139.287 204.486 151.229 216.503 154.55L216.189 143.877Z" fill="#F9B384"/>
<path d="M209.716 194.456C212.686 196.596 215.913 198.354 219.321 199.691C222.714 200.966 226.295 201.772 229.889 201.684C233.485 201.636 237.022 200.757 240.224 199.118L241.432 198.514C241.827 198.296 242.19 198.022 242.57 197.78C243.343 197.307 244.079 196.775 244.771 196.189L245.831 195.328L246.362 194.897C246.538 194.749 246.688 194.595 246.855 194.42C247.497 193.773 248.15 193.131 248.814 192.493L249.267 192.874C248.663 193.59 248.059 194.304 247.455 195.014C247.301 195.189 247.153 195.374 246.99 195.543L246.48 196.026L245.448 197.004C244.757 197.647 244.018 198.237 243.237 198.767C242.851 199.042 242.482 199.344 242.081 199.592L240.843 200.298C237.499 202.172 233.736 203.169 229.904 203.197C226.098 203.189 222.335 202.404 218.844 200.89C215.391 199.408 212.19 197.399 209.354 194.936L209.716 194.456Z" fill="#1F3C88"/>
<path d="M193.465 311.118L196.735 322.562C197.85 326.369 198.888 330.195 200.057 333.984C201.225 337.774 202.33 341.575 203.523 345.349C204.127 347.236 204.71 349.13 205.365 350.996C205.667 351.932 205.969 352.883 206.31 353.813C206.651 354.743 206.977 355.676 207.297 356.615L206.751 356.844C205.907 355.032 205.115 353.205 204.375 351.361C203.632 349.51 202.955 347.638 202.261 345.769C200.92 342.019 199.734 338.22 198.611 334.407C197.487 330.593 196.446 326.753 195.501 322.891C194.555 319.029 193.641 315.161 192.886 311.254L193.465 311.118Z" fill="#102048"/>
<path opacity="0.1" d="M283.35 455.705C279.53 456.786 274.111 457.049 266.653 455.862C266.653 455.862 250.674 459.957 240.577 461.56C250.958 459.483 266.055 446.65 264.355 438.537C279.265 443.444 283.32 450.899 283.35 455.705Z" fill="#1F3C88"/>
<path opacity="0.4" d="M243.216 457.124C241.29 459.495 238.421 461.101 235.411 461.91C233.833 462.328 232.212 462.564 230.58 462.611C224.336 462.167 216.47 458.912 212.298 454.262C212.298 454.262 212.282 454.232 212.267 454.226C211.825 453.625 211.422 452.997 211.06 452.345C213.217 454.371 215.658 456.073 218.306 457.396C219.6 458.039 220.941 458.584 222.316 459.027C222.986 459.283 223.69 459.434 224.384 459.631C225.08 459.813 225.786 459.954 226.498 460.053C232.111 461.004 238.098 460.416 243.216 457.124Z" fill="#1F3C88"/>
<path d="M213.472 145.179C213.302 144.355 212.967 143.574 212.488 142.884C212.045 142.186 211.481 141.573 210.824 141.072C210.181 140.622 209.483 140.399 208.894 140.716C208.306 141.033 207.786 141.776 207.358 142.528L206.941 142.383C207.122 141.477 207.451 140.502 208.39 139.852C208.874 139.533 209.462 139.411 210.033 139.514C210.556 139.613 211.05 139.829 211.479 140.145C212.259 140.735 212.891 141.499 213.324 142.377C213.801 143.224 214.012 144.195 213.928 145.164L213.472 145.179Z" fill="#E28B6D"/>
<path d="M249.382 144.948C249.116 146.249 248.135 147.149 247.19 146.959C246.245 146.769 245.695 145.555 245.961 144.241C246.227 142.928 247.205 142.04 248.15 142.233C249.095 142.427 249.645 143.647 249.382 144.948Z" fill="#102048"/>
<path d="M234.667 144.373C234.881 143.061 234.283 141.872 233.332 141.717C232.381 141.562 231.436 142.5 231.222 143.811C231.008 145.123 231.606 146.312 232.557 146.467C233.509 146.622 234.453 145.685 234.667 144.373Z" fill="#102048"/>
<path d="M240.915 146.151C241.006 147.223 241.048 148.288 241.06 149.333C241.12 149.753 241.317 150.141 241.622 150.435C242.017 150.829 242.383 151.251 242.718 151.697C242.906 151.971 243.039 152.279 243.11 152.603C243.179 152.918 243.201 153.242 243.174 153.563C243.125 154.206 242.883 154.818 242.479 155.321C242.265 155.573 242 155.778 241.703 155.924C241.402 156.063 241.072 156.132 240.74 156.127C240.14 156.09 239.563 155.881 239.08 155.523L239.288 155.133C239.735 155.312 240.219 155.38 240.698 155.333C240.901 155.306 241.095 155.235 241.267 155.124C241.438 155.014 241.584 154.866 241.691 154.693C242.153 154.004 242.22 152.929 241.776 152.277C241.543 151.906 241.172 151.555 240.792 151.093C240.354 150.603 240.106 149.972 240.094 149.315C240.176 148.219 240.308 147.144 240.475 146.075L240.915 146.151Z" fill="#E28B6D"/>
<path d="M228.747 139.83C229.356 139.22 230.073 138.726 230.861 138.375C231.683 137.997 232.584 137.824 233.488 137.871C234.407 137.929 235.29 138.254 236.03 138.804C236.731 139.328 237.31 139.999 237.727 140.769L237.377 141.041C236.802 140.513 236.179 140.042 235.514 139.634C234.876 139.266 234.164 139.047 233.43 138.991C231.966 138.879 230.477 139.459 229.022 140.18L228.747 139.83Z" fill="#102048"/>
<path d="M244.107 141.123C244.398 140.325 244.991 139.674 245.759 139.311C246.506 138.933 247.336 138.747 248.174 138.771C249.011 138.784 249.83 139.009 250.556 139.426C251.281 139.838 251.853 140.474 252.187 141.238L251.815 141.479C250.842 140.499 249.525 139.935 248.144 139.909C246.809 139.879 245.393 140.247 244.521 141.328L244.107 141.123Z" fill="#102048"/>
<path d="M233.802 158.847L243.814 159.562C243.814 159.562 238.231 166.969 233.802 158.847Z" fill="white"/>
<path opacity="0.4" d="M253.135 148.39C252.41 152.134 251.375 155.966 249.889 159.342C248.703 158.779 247.744 157.829 247.169 156.648C246.595 155.468 246.439 154.127 246.728 152.846C247.017 151.565 247.733 150.421 248.759 149.601C249.784 148.782 251.058 148.335 252.371 148.336C252.627 148.334 252.882 148.353 253.135 148.39V148.39Z" fill="#F85052"/>
<path opacity="0.4" d="M229.893 158.131C232.841 156.893 234.227 153.5 232.989 150.553C231.751 147.605 228.358 146.219 225.411 147.457C222.464 148.695 221.078 152.088 222.315 155.035C223.553 157.982 226.946 159.368 229.893 158.131Z" fill="#F85052"/>
<path d="M82.4956 81.7673C86.4057 77.4336 88.588 71.8148 88.6281 65.978C88.6682 60.1412 86.5633 54.4929 82.7132 50.1059C78.863 45.7189 73.5357 42.8987 67.7431 42.1808C61.9504 41.463 56.0959 42.8976 51.2913 46.2121C46.4868 49.5266 43.0668 54.4902 41.681 60.1603C40.2952 65.8303 41.04 71.8118 43.7739 76.9689C46.5079 82.1259 51.0407 86.0993 56.5114 88.1344C61.982 90.1695 68.0096 90.1245 73.4493 88.0081L86.2357 93.2272L82.4956 81.7673Z" fill="white" stroke="#E0E0E0" stroke-width="3.5" stroke-miterlimit="10"/>
<path d="M56.2232 66.3831C56.2232 67.5121 55.308 68.4273 54.179 68.4273C53.05 68.4273 52.1348 67.5121 52.1348 66.3831C52.1348 65.2541 53.05 64.3389 54.179 64.3389C55.308 64.3389 56.2232 65.2541 56.2232 66.3831Z" fill="#E0E0E0" stroke="#E0E0E0"/>
<path d="M66.8589 66.3831C66.8589 67.5121 65.9437 68.4273 64.8147 68.4273C63.6857 68.4273 62.7705 67.5121 62.7705 66.3831C62.7705 65.2541 63.6857 64.3389 64.8147 64.3389C65.9437 64.3389 66.8589 65.2541 66.8589 66.3831Z" fill="#E0E0E0" stroke="#E0E0E0"/>
<path d="M77.4952 66.3831C77.4952 67.5121 76.5799 68.4273 75.451 68.4273C74.322 68.4273 73.4067 67.5121 73.4067 66.3831C73.4067 65.2541 74.322 64.3389 75.451 64.3389C76.5799 64.3389 77.4952 65.2541 77.4952 66.3831Z" fill="#E0E0E0" stroke="#E0E0E0"/>
<path d="M24.2 246.8H121.5V153.3H24.2V246.8Z" fill="white"/>
<path d="M24.2 160.3H121.5V153.3H24.2V160.3Z" fill="#F5F5F5"/>
<path d="M116.4 246.8H121.5V232H24.2V246.8H103.7" fill="#EBEBEB"/>
<path d="M109.1 158.4C108.382 158.4 107.8 157.818 107.8 157.1C107.8 156.382 108.382 155.8 109.1 155.8C109.818 155.8 110.4 156.382 110.4 157.1C110.4 157.818 109.818 158.4 109.1 158.4Z" fill="white"/>
<path d="M117 158.4C116.282 158.4 115.7 157.818 115.7 157.1C115.7 156.382 116.282 155.8 117 155.8C117.718 155.8 118.3 156.382 118.3 157.1C118.3 157.818 117.718 158.4 117 158.4Z" fill="white"/>
<path d="M113 158.4C112.282 158.4 111.7 157.818 111.7 157.1C111.7 156.382 112.282 155.8 113 155.8C113.718 155.8 114.3 156.382 114.3 157.1C114.3 157.818 113.718 158.4 113 158.4Z" fill="white"/>
<path d="M33.6999 176.7C30.2757 176.7 27.4999 173.924 27.4999 170.5C27.4999 167.076 30.2757 164.3 33.6999 164.3C37.1241 164.3 39.8999 167.076 39.8999 170.5C39.8999 173.924 37.1241 176.7 33.6999 176.7Z" fill="#F5F5F5"/>
<path d="M32.4999 172.2H35.8999C35.8999 171.4 35.2999 170.7 34.4999 170.5C34.8999 170.4 35.1999 170 35.1999 169.6C35.1999 169 34.6999 168.6 34.1999 168.6C33.5999 168.6 33.1999 169 33.1999 169.6C33.1999 170 33.4999 170.4 33.8999 170.5C33.0999 170.7 32.4999 171.4 32.4999 172.2V172.2Z" fill="#E0E0E0"/>
<path d="M31.9996 170.8C31.9996 170.8 32.0996 170.8 32.0996 170.7V169.1C32.0996 169 31.9996 169 31.9996 169C31.8996 169 31.7996 169 31.7996 169.1V170.7C31.7996 170.8 31.8996 170.8 31.9996 170.8Z" fill="#E0E0E0"/>
<path d="M31.1999 170H32.6999C32.7999 170 32.8999 170 32.8999 169.9C32.8999 169.8 32.7999 169.7 32.6999 169.7H31.1999C31.0999 169.7 30.9999 169.8 30.9999 169.9C30.9999 170 31.0999 170 31.1999 170Z" fill="#E0E0E0"/>
<path d="M70.4998 213.3C61.4976 213.3 54.1998 206.002 54.1998 197C54.1998 187.998 61.4976 180.7 70.4998 180.7C79.5021 180.7 86.7998 187.998 86.7998 197C86.7998 206.002 79.5021 213.3 70.4998 213.3Z" fill="#F5F5F5"/>
<path d="M63.5 204.3H77.5C77.5 200.9 74.9 198 71.6 197.5C73.2 197 74.4 195.5 74.4 193.7C74.4 191.5 72.6 189.7 70.4 189.7C68.2 189.7 66.4 191.5 66.4 193.7C66.4 195.5 67.6 197 69.2 197.5C66 198.1 63.5 200.9 63.5 204.3V204.3Z" fill="#E0E0E0"/>
<path d="M55.5001 243.599C52.9596 243.599 50.9001 241.54 50.9001 238.999C50.9001 236.459 52.9596 234.399 55.5001 234.399C58.0406 234.399 60.1001 236.459 60.1001 238.999C60.1001 241.54 58.0406 243.599 55.5001 243.599Z" fill="#E0E0E0"/>
<path d="M55.5002 237.999H56.6002C56.9316 237.999 57.2002 238.268 57.2002 238.599V239.699C57.2002 240.03 56.9316 240.299 56.6002 240.299H55.5002C55.1689 240.299 54.9002 240.03 54.9002 239.699V238.599C54.9002 238.268 55.1689 237.999 55.5002 237.999Z" fill="white"/>
<path d="M54.7002 239.499V238.699L54.1002 238.099C54.0002 237.999 53.9002 238.099 53.9002 238.199V239.999C53.9002 240.099 54.0002 240.099 54.1002 240.099L54.7002 239.499Z" fill="white"/>
<path d="M72.7001 242.3C74.4001 240.5 74.4001 237.6 72.7001 235.9C70.9001 234.1 68.0001 234.1 66.2001 235.9C64.4001 237.6 64.4001 240.5 66.2001 242.3C68.0001 244.1 70.9001 244.1 72.7001 242.3Z" fill="#E0E0E0"/>
<path d="M71.7003 239.7C71.7003 239.634 71.7336 239.567 71.8003 239.5C71.8003 239.4 71.8003 239.2 71.7003 239.1C71.6003 239 71.3003 238.3 69.8003 238.3C68.3003 238.2 67.4003 238.7 67.3003 238.9C67.2003 239.1 67.1003 239.2 67.1003 239.4C67.1003 239.4 67.1003 239.434 67.1003 239.5L67.2003 239.8C67.3003 239.9 67.4003 239.9 67.5003 239.9L68.4003 239.6C68.4669 239.6 68.5003 239.534 68.5003 239.4V239.2C68.5003 239 68.6003 238.934 68.8003 239C69.6003 238.934 70.0669 238.934 70.2003 239C70.4003 239 70.5003 239.1 70.5003 239.3V239.4C70.5003 239.5 70.5003 239.6 70.6003 239.6L71.4003 239.8C71.5003 239.9 71.7003 239.8 71.7003 239.7V239.7Z" fill="white"/>
<path d="M83.4 243.699C80.8595 243.699 78.8 241.64 78.8 239.099C78.8 236.559 80.8595 234.499 83.4 234.499C85.9405 234.499 88 236.559 88 239.099C88 241.64 85.9405 243.699 83.4 243.699Z" fill="#E0E0E0"/>
<path d="M84.7998 239.499C85.0998 239.499 85.2998 239.299 85.2998 239.099C85.2998 238.799 85.0998 238.599 84.7998 238.599C84.5998 238.599 84.3998 238.799 84.3998 239.099C84.3998 239.299 84.5998 239.499 84.7998 239.499Z" fill="white"/>
<path d="M83.3999 239.499C83.6999 239.499 83.8999 239.299 83.8999 239.099C83.8999 238.799 83.6999 238.599 83.3999 238.599C83.1999 238.599 82.9999 238.799 82.9999 239.099C82.9999 239.299 83.1999 239.499 83.3999 239.499Z" fill="white"/>
<path d="M81.8999 239.499C82.1999 239.499 82.3999 239.299 82.3999 239.099C82.3999 238.799 82.1999 238.599 81.8999 238.599C81.6999 238.599 81.4999 238.799 81.4999 239.099C81.4999 239.299 81.6999 239.499 81.8999 239.499Z" fill="white"/>
<path d="M114 173.1C112.343 173.1 111 171.756 111 170.1C111 168.443 112.343 167.1 114 167.1C115.657 167.1 117 168.443 117 170.1C117 171.756 115.657 173.1 114 173.1Z" fill="#E0E0E0"/>
<path d="M97.7002 169.599C97.7002 169.799 100.2 169.899 103.2 169.899C106.2 169.899 108.7 169.799 108.7 169.599C108.7 169.499 106.2 169.399 103.2 169.399C100.2 169.399 97.7002 169.499 97.7002 169.599Z" fill="#E0E0E0"/>
<path d="M47.6996 218.4C47.6996 218.5 57.5996 218.7 69.8996 218.7C82.0996 218.7 92.0996 218.5 92.0996 218.4C92.0996 218.3 82.0996 218.1 69.8996 218.1C57.5996 218.1 47.6996 218.3 47.6996 218.4Z" fill="#E0E0E0"/>
<path d="M24.1998 246.8C24.1998 246.733 24.1998 246.6 24.1998 246.4C24.1998 246.067 24.1998 245.633 24.1998 245.1C24.1998 243.967 24.2331 242.3 24.2998 240.1C24.2998 235.7 24.2998 229.2 24.2998 221.1C24.2998 204.7 24.3998 181.4 24.3998 153.3L24.1998 153.5C52.3998 153.5 85.7998 153.5 121.5 153.6L121.3 153.3C121.3 187.5 121.3 219.6 121.3 246.8L121.5 246.6C92.3998 246.7 68.0998 246.7 51.0998 246.7C42.5998 246.8 35.8998 246.8 31.2998 246.8C28.9665 246.8 27.1998 246.8 25.9998 246.8C25.3998 246.8 24.9664 246.8 24.6998 246.8C24.4998 246.8 24.3331 246.8 24.1998 246.8C24.3331 246.8 24.4665 246.833 24.5998 246.9C24.9331 246.9 25.3998 246.9 25.9998 246.9C27.1998 246.9 28.9331 246.9 31.1998 246.9C35.6998 246.9 42.3998 246.9 50.8998 247C67.9998 247 92.3998 247 121.5 247.1H121.8V246.8C121.8 219.6 121.8 187.5 121.8 153.3V153H121.5C85.7998 153.1 52.3998 153.1 24.1998 153.1H23.9998V153.3C23.9998 181.4 24.0998 204.8 24.0998 221.2C24.0998 229.4 24.0998 235.8 24.1998 240.2C24.1998 242.333 24.1998 243.967 24.1998 245.1C24.1998 245.7 24.1998 246.133 24.1998 246.4C24.1998 246.6 24.1998 246.733 24.1998 246.8V246.8Z" fill="#EBEBEB"/>
<path d="M213.8 55.6C198.447 55.6 186 43.1535 186 27.8C186 12.4465 198.447 0 213.8 0C229.154 0 241.6 12.4465 241.6 27.8C241.6 43.1535 229.154 55.6 213.8 55.6Z" fill="#F5F5F5"/>
<path d="M211.2 21.7002H222.5C223.218 21.7002 223.8 22.2822 223.8 23.0002V34.3002C223.8 35.0182 223.218 35.6002 222.5 35.6002H211.2C210.482 35.6002 209.9 35.0182 209.9 34.3002V23.0002C209.9 22.2822 210.482 21.7002 211.2 21.7002Z" fill="white"/>
<path d="M208.7 31.0995V26.3995L205.2 22.5995C204.7 22.0995 203.9 22.4995 203.9 23.0995V33.7995C203.9 34.4995 204.7 34.7995 205.1 34.3995L208.7 31.0995Z" fill="white"/>
</svg>
