<svg width="583" height="416" viewBox="0 0 583 416" fill="none" xmlns="http://www.w3.org/2000/svg">
<path d="M511.504 272.404C639.181 268.57 584.696 439.788 436.208 398.695C363.386 378.546 332.654 382.943 281.02 400.551C134.276 450.598 151.482 362.789 46.5424 365.676C-7.42218 367.161 -23.0314 302.353 46.3289 279.6C74.6264 270.316 111.367 273.694 261.335 272.02C411.304 270.346 471.474 273.608 511.504 272.404Z" fill="#ECEFF2"/>
<path d="M357.337 0.120976C357.337 0.120976 346.142 0.348118 342.419 8.93412C338.696 17.5201 336.145 15.1692 335.441 19.6326C334.737 24.0959 332 24.021 330.898 26.8307C329.796 29.6405 332.056 32.5229 328.399 35.0079C324.742 37.4928 326.571 41.1066 326.571 41.1066C326.571 41.1066 332.056 41.8471 334.167 41.1066C336.277 40.3662 340.674 38.3287 343.609 39.9709C346.544 41.6132 352.229 39.8187 354.512 39.6461C356.795 39.4735 365.051 40.7205 367.94 39.2895C370.83 37.8585 374.3 38.4536 375.613 39.4076C376.926 40.3616 384.522 37.7381 386.303 38.8125C388.083 39.8869 390.148 37.7381 390.148 37.7381C390.148 37.7381 390.337 32.6092 387.616 30.9397C384.894 29.2702 386.303 23.0011 383.209 21.6632C380.115 20.3253 381.428 13.8836 379.177 13.0477C376.926 12.2118 379.529 8.76377 374.634 7.16014C372.338 6.41738 369.583 -0.978396 357.337 0.120976Z" fill="#31313C"/>
<path d="M381.679 75.952C381.679 75.952 425.19 78.6028 427.386 67.6999C431.198 48.7426 407.536 23.5615 407.536 23.5615L395.534 23.2617L402.374 53.6988C401.838 53.7715 377.027 52.7335 377.027 52.7335L381.679 75.952Z" fill="#B28A5F"/>
<path d="M427.755 67.8123C425.447 78.8537 383.451 76.421 381.664 76.312L381.359 76.2938L376.562 52.3462L377.032 52.3643C383.335 52.6278 399.065 53.2729 401.902 53.3297L395.06 22.8926L407.705 23.2083L407.819 23.3287C412.042 27.9991 415.855 33.0238 419.217 38.3474C424.214 46.2974 429.754 57.8816 427.762 67.7805L427.755 67.8123ZM381.995 75.6078C385.857 75.8123 424.925 77.6294 427.003 67.6579V67.6283C430.601 49.7272 409.114 25.8341 407.356 23.9215L395.999 23.6376L402.813 53.9998L402.418 54.052C401.891 54.1224 382.515 53.3183 377.471 53.1094L381.995 75.6078Z" fill="#31313B"/>
<path d="M362.105 290.754V299.067C362.489 299.047 362.875 299.031 363.266 299.031C373.081 299.031 381.035 305.806 381.035 314.161H345.497C345.497 314.161 339.607 312.314 345.497 290.765C346.657 286.497 362.105 290.754 362.105 290.754Z" fill="#31313C"/>
<path d="M354.067 305.904C354.119 305.903 354.17 305.887 354.213 305.857C354.257 305.828 354.29 305.786 354.31 305.738C355.691 302.583 357.735 301.013 359.209 300.252C360.111 299.766 361.098 299.458 362.117 299.344C362.19 299.337 362.258 299.302 362.305 299.246C362.353 299.19 362.377 299.117 362.371 299.044C362.371 299.008 362.364 298.972 362.35 298.938C362.335 298.905 362.315 298.875 362.289 298.849C362.262 298.824 362.232 298.805 362.198 298.791C362.164 298.778 362.128 298.772 362.092 298.774C362.037 298.774 356.606 299.135 353.824 305.497C353.794 305.565 353.791 305.642 353.815 305.713C353.84 305.783 353.89 305.841 353.955 305.876C353.99 305.894 354.028 305.903 354.067 305.904V305.904Z" fill="#ECEFF2"/>
<path d="M301.237 290.753V299.066C301.623 299.046 302.01 299.03 302.4 299.03C312.213 299.03 320.17 305.806 320.17 314.16H284.631C284.631 314.16 278.471 313.706 284.631 290.764C285.771 286.489 301.237 290.753 301.237 290.753Z" fill="#31313C"/>
<path d="M293.201 305.903C293.254 305.902 293.305 305.886 293.348 305.857C293.391 305.827 293.425 305.786 293.445 305.737C294.826 302.582 296.87 301.012 298.344 300.252C299.246 299.765 300.233 299.457 301.251 299.343C301.325 299.336 301.392 299.301 301.44 299.245C301.487 299.189 301.511 299.116 301.506 299.043C301.506 299.007 301.499 298.97 301.485 298.937C301.471 298.903 301.45 298.872 301.423 298.847C301.397 298.822 301.366 298.802 301.331 298.789C301.297 298.777 301.261 298.771 301.224 298.773C301.172 298.773 295.741 299.134 292.958 305.496C292.928 305.564 292.925 305.641 292.949 305.711C292.973 305.782 293.023 305.84 293.088 305.876C293.123 305.893 293.162 305.903 293.201 305.903V305.903Z" fill="#ECEFF2"/>
<path d="M384.217 131.886L367.067 294.593C367.067 294.593 357.38 295 354.184 294.593C347.177 293.703 342.645 291.615 342.645 291.615C342.645 291.615 341.282 266.752 342.872 229.555C343.878 206.044 344.137 182.748 344.137 182.748C344.137 182.748 335.297 199.556 324.574 230.153C318.12 248.576 304.694 294.593 304.694 294.593C304.694 294.593 296.099 295.077 291.676 294.593C285.925 293.964 280.281 291.29 280.281 291.29C280.281 291.29 288.485 245.071 303.895 182.405C310.116 157.103 320.169 119.291 320.169 119.291L384.217 131.886Z" fill="#455A64"/>
<path d="M355.088 61.0037L361.902 61.7714C363.099 61.7714 376.414 56.1088 377.591 52.2314C379.451 46.0872 370.079 44.6063 366.968 44.2814C366.692 44.2425 366.44 44.1038 366.26 43.8915C366.08 43.6792 365.984 43.4081 365.991 43.1298V34.5938C365.991 32.0112 364.008 29.8965 361.582 29.8965H359.083C356.658 29.8965 354.675 32.0112 354.675 34.5938V42.9981C354.682 43.3288 354.579 43.6525 354.384 43.9194C354.189 44.1862 353.911 44.3813 353.593 44.4745C351.608 45.0083 347.592 46.2462 347.774 47.4932C348.396 51.784 353.743 61.0037 355.088 61.0037Z" fill="#B28A5F"/>
<path d="M349.249 46.3841C349.282 46.3844 349.315 46.379 349.347 46.3682L354.769 44.551C354.837 44.5263 354.895 44.4807 354.936 44.4208C354.977 44.3608 354.998 44.2896 354.996 44.2171V34.6249C354.996 32.2263 356.813 30.2774 359.084 30.2774H361.583C363.834 30.2774 365.671 32.2263 365.671 34.6249V44.2239C365.67 44.3023 365.694 44.3789 365.742 44.4412C365.789 44.5036 365.857 44.5479 365.933 44.5669L370.18 45.5187C370.224 45.5275 370.268 45.5274 370.312 45.5185C370.355 45.5095 370.396 45.4919 370.432 45.4666C370.469 45.4414 370.499 45.409 370.523 45.3715C370.546 45.334 370.562 45.2921 370.569 45.2484C370.588 45.1599 370.572 45.0674 370.525 44.9904C370.477 44.9133 370.402 44.8576 370.314 44.835L366.328 43.94V34.6272C366.328 31.8447 364.202 29.5801 361.59 29.5801H359.091C356.479 29.5801 354.355 31.8515 354.355 34.6272V43.9696L349.163 45.7026C349.075 45.7318 349.003 45.7939 348.96 45.8758C348.918 45.9576 348.909 46.0528 348.935 46.141C348.955 46.2097 348.996 46.2704 349.052 46.3141C349.109 46.3579 349.178 46.3824 349.249 46.3841V46.3841Z" fill="#31313C"/>
<path d="M311.55 142.736C347.425 161.298 389.687 142.779 389.687 142.779L389.301 75.1044C389.301 75.1044 327.452 62.9409 326.135 68.2901C320.62 90.6091 311.55 142.736 311.55 142.736Z" fill="#F85052"/>
<path d="M316.141 62.6063C316.141 62.6063 318.435 74.1043 334.766 82.7948C341.429 86.3382 354.528 83.6784 354.528 83.6784L355.373 83.5716L382.535 88.964C382.535 88.964 387.623 78.6426 389.294 77.4319C402.444 67.9147 396.381 47.6376 396.381 47.6376C396.381 47.6376 388.695 47.256 370.003 44.5167C368.327 44.2714 370.98 48.2464 370.371 51.7171C370.319 52.0215 370.253 52.319 370.174 52.6143C369.753 54.2043 368.936 55.658 367.461 56.5757C367.208 56.7341 366.942 56.8723 366.666 56.9891C365.583 57.4434 364.213 57.6705 362.492 57.5365C361.75 57.4811 361.014 57.3726 360.288 57.2117C360.018 57.1526 359.752 57.0845 359.493 57.0095C350.95 54.5836 349.762 45.4934 349.762 45.4934C349.762 45.4934 328.002 47.5104 316.141 62.6063Z" fill="#F85052"/>
<path d="M350.9 27.887C354.643 36.0414 362.184 40.2958 367.74 37.3907C373.296 34.4855 374.014 24.1596 371.022 17.368C367.404 9.15228 359.74 4.95923 354.182 7.86439C348.624 10.7695 347.156 19.7326 350.9 27.887Z" fill="#B28A5F"/>
<path d="M361.932 20.3604C361.97 20.3463 362.003 20.3238 362.03 20.2947C362.058 20.2655 362.078 20.2305 362.089 20.1923C362.111 20.1271 362.107 20.0561 362.078 19.9936C362.05 19.9312 361.998 19.882 361.935 19.8561C361.857 19.8288 360.142 19.0043 358.755 20.7987C358.712 20.8539 358.692 20.9226 358.698 20.9918C358.703 21.0609 358.734 21.1257 358.784 21.1735C358.835 21.2134 358.9 21.2326 358.965 21.2271C359.03 21.2216 359.09 21.192 359.134 21.144C359.893 20.5829 360.824 20.3049 361.767 20.3581C361.82 20.3797 361.879 20.3805 361.932 20.3604V20.3604Z" fill="#31313C"/>
<path d="M361.932 23.735C361.97 23.7215 362.003 23.6995 362.03 23.6707C362.058 23.6419 362.078 23.6072 362.089 23.5692C362.111 23.5041 362.107 23.433 362.078 23.3706C362.05 23.3081 361.998 23.259 361.935 23.2331C361.857 23.2058 360.142 22.3813 358.755 24.1757C358.712 24.2308 358.692 24.2996 358.698 24.3687C358.703 24.4379 358.734 24.5026 358.784 24.5505C358.835 24.5904 358.9 24.6095 358.965 24.604C359.03 24.5986 359.09 24.5689 359.134 24.521C359.892 23.9589 360.824 23.6807 361.767 23.735C361.82 23.7559 361.879 23.7559 361.932 23.735Z" fill="#31313C"/>
<path d="M363.94 27.7453H363.977C364.36 27.6746 364.723 27.5182 365.038 27.2877C365.352 27.0573 365.611 26.7587 365.794 26.4143C365.82 26.3587 365.825 26.2951 365.807 26.2362C365.789 26.1773 365.749 26.1273 365.696 26.0963C365.643 26.0716 365.582 26.0685 365.527 26.0875C365.471 26.1066 365.425 26.1463 365.399 26.1985V26.1985C365.247 26.4791 365.034 26.7219 364.776 26.9087C364.518 27.0955 364.22 27.2216 363.906 27.2774C363.876 27.2828 363.847 27.2942 363.822 27.311C363.796 27.3278 363.774 27.3495 363.757 27.375C363.74 27.4004 363.729 27.4291 363.723 27.4591C363.717 27.4892 363.718 27.5201 363.725 27.55C363.732 27.6027 363.758 27.6511 363.797 27.6868C363.837 27.7225 363.887 27.7432 363.94 27.7453Z" fill="#31313C"/>
<path d="M360.453 37.977C356.503 36.5346 352.832 32.8186 350.636 28.0304L350.91 27.8873L350.636 28.0304C346.822 19.7283 348.364 10.5404 354.059 7.57165C356.33 6.38597 358.96 6.29965 361.679 7.31725C365.627 8.79595 369.23 12.5006 371.313 17.2298C374.402 24.2462 373.584 34.7084 367.885 37.684C366.681 38.3144 365.341 38.6404 363.983 38.6334C362.777 38.623 361.582 38.4008 360.453 37.977ZM354.32 8.15768C348.923 10.9788 347.506 19.7647 351.176 27.7442C353.305 32.3779 356.843 35.9736 360.641 37.3592C363.14 38.2677 365.543 38.1769 367.608 37.0979C370.088 35.801 371.751 32.8504 372.285 28.7913C372.78 25.0367 372.205 20.8186 370.747 17.5069C368.732 12.9345 365.264 9.35472 361.466 7.93281C360.357 7.5048 359.179 7.27939 357.991 7.26728C356.713 7.26073 355.453 7.56639 354.32 8.15768V8.15768Z" fill="#31313C"/>
<path d="M361.648 4.29785C361.648 4.29785 364.215 15.6822 351.379 31.0008C351.379 31.0008 347.517 25.0201 347.424 16.5613C347.331 8.10249 361.648 4.29785 361.648 4.29785Z" fill="#31313C"/>
<path d="M358.141 10.2905C358.141 10.2905 367.088 16.5255 371.39 15.5852C371.39 15.5852 367.983 8.40745 363.972 6.61983C359.961 4.83222 359.177 5.48412 359.177 5.48412L358.141 10.2905Z" fill="#31313C"/>
<path d="M351.729 30.7968C353.142 31.594 354.727 31.3487 355.268 30.2494C355.809 29.15 354.85 27.4941 353.692 26.815C352.292 25.9927 350.696 26.2607 350.153 27.3601C349.61 28.4595 350.316 29.9927 351.729 30.7968Z" fill="#B28A5F"/>
<path d="M407.309 60.523C407.299 60.5699 407.279 60.6142 407.251 60.6532C407.224 60.6923 407.188 60.7253 407.147 60.7502C407.062 60.8006 406.961 60.8175 406.863 60.7978C406.766 60.7781 406.68 60.7231 406.62 60.6434C406.51 60.5513 406.395 60.4648 406.275 60.3845C405.255 59.6621 402.868 57.9677 401.998 53.7519C401.989 53.7046 401.99 53.6559 402 53.6089C402.011 53.5619 402.031 53.5175 402.059 53.4786C402.087 53.4396 402.123 53.4069 402.165 53.3824C402.206 53.3579 402.252 53.3422 402.3 53.3362C402.399 53.3171 402.502 53.3372 402.587 53.3923C402.671 53.4473 402.732 53.5331 402.754 53.6315C403.561 57.5679 405.782 59.1397 406.729 59.8121C406.927 59.9302 407.104 60.078 407.256 60.2504C407.283 60.2899 407.302 60.3345 407.311 60.3813C407.32 60.4282 407.319 60.4764 407.309 60.523V60.523Z" fill="#31313B"/>
<path d="M328.199 53.7529C328.199 53.7529 295.322 74.8272 285.782 101.857C278 123.904 276.817 139.563 276.817 139.563L289.537 143.683C289.537 143.683 302.525 104.951 307.647 100.11C313.155 94.9089 337.716 76.2855 337.718 76.3332L328.199 53.7529Z" fill="#B28A5F"/>
<path d="M276.992 139.154C276.951 139.133 276.917 139.1 276.895 139.059C276.874 139.019 276.864 138.972 276.87 138.927C276.87 138.888 277.192 134.87 278.46 128.251C280.243 119.053 282.714 110.003 285.853 101.176C290.814 87.1677 302.114 74.7952 310.721 66.877C320.033 58.3137 328.292 52.985 328.374 52.9305C328.403 52.9124 328.435 52.9004 328.469 52.8954C328.502 52.8903 328.536 52.8922 328.569 52.9009C328.601 52.9109 328.631 52.9279 328.656 52.9507C328.68 52.9735 328.7 53.0015 328.712 53.0327L338.232 75.6016C338.253 75.6541 338.256 75.712 338.242 75.7668C338.228 75.8215 338.196 75.8703 338.152 75.9059C337.907 76.1013 313.621 95.5629 308.133 99.8649C302.714 104.115 290.189 142.738 290.057 143.129C290.036 143.192 289.991 143.246 289.932 143.279C289.905 143.295 289.874 143.305 289.843 143.309C289.811 143.312 289.779 143.309 289.748 143.299L277.029 139.177L276.992 139.154ZM328.374 53.4938C322.253 57.6387 316.451 62.2353 311.016 67.245C302.457 75.1155 291.22 87.413 286.296 101.316C283.168 110.114 280.705 119.134 278.927 128.301C277.824 134.1 277.442 137.886 277.362 138.749L289.678 142.74C290.85 139.129 302.475 103.672 307.849 99.4652C313.099 95.3471 335.606 77.3165 337.707 75.6334L328.374 53.4938Z" fill="#111111"/>
<path d="M288.988 150.867C290.512 143.599 291.52 138.002 291.52 138.002L279.343 128.008L277.71 136.996C276.309 139.51 275.212 143.399 275.212 143.399C275.212 143.399 274.578 154.252 273.553 155.942C271.8 158.838 273.553 159.96 274.916 158.972C273.637 162.786 277.91 159.844 277.91 159.844C277.91 159.844 277.878 163.163 279.838 161.55C280.995 160.598 283.659 154.411 284.747 151.783C285.365 151.685 284.574 154.795 284.22 155.792C283.168 158.729 283.286 160.303 284.529 159.99C285.449 159.756 288.436 153.507 288.988 150.867Z" fill="#B28A5F"/>
<path d="M283.805 160.18C283.711 160.131 283.629 160.065 283.561 159.984C282.925 159.233 283.446 157.259 283.995 155.714C285.013 152.87 284.702 151.369 284.697 151.355C284.684 151.29 284.695 151.223 284.729 151.166C284.762 151.109 284.816 151.066 284.879 151.046C284.909 151.038 284.94 151.035 284.971 151.039C285.002 151.043 285.032 151.053 285.059 151.069C285.086 151.085 285.109 151.106 285.128 151.132C285.146 151.157 285.159 151.186 285.165 151.217C285.181 151.283 285.519 152.859 284.443 155.866C283.421 158.728 283.791 159.482 283.929 159.644C283.97 159.694 284.098 159.844 284.484 159.746C285.131 159.582 288.136 153.783 288.754 150.826C290.26 143.639 291.275 138.024 291.284 137.97C291.295 137.905 291.33 137.847 291.382 137.808C291.434 137.768 291.499 137.75 291.564 137.756C291.595 137.76 291.626 137.771 291.653 137.788C291.68 137.805 291.703 137.827 291.721 137.853C291.739 137.88 291.752 137.91 291.757 137.941C291.763 137.972 291.762 138.005 291.754 138.036C291.754 138.092 290.73 143.714 289.222 150.91C288.702 153.409 285.706 159.944 284.575 160.223C284.322 160.307 284.046 160.292 283.805 160.18V160.18Z" fill="#111111"/>
<path d="M273.23 159.516H273.212C272.819 159.302 272.045 158.514 273.33 155.843C274.216 154.003 274.377 151.073 274.534 148.213C274.593 146.593 274.738 144.976 274.968 143.371C275.625 139.496 278.025 135.805 278.128 135.648C278.144 135.621 278.166 135.597 278.192 135.578C278.218 135.56 278.247 135.547 278.278 135.539C278.31 135.532 278.342 135.531 278.373 135.537C278.405 135.542 278.435 135.554 278.462 135.571C278.514 135.609 278.549 135.667 278.559 135.731C278.57 135.795 278.555 135.86 278.518 135.914C278.493 135.952 276.077 139.67 275.438 143.432C275.212 145.019 275.07 146.616 275.013 148.218C274.854 151.116 274.689 154.112 273.757 156.047C272.86 157.91 273.012 158.832 273.453 159.073C273.971 159.343 275.013 158.866 275.647 157.815C276.783 155.916 277.873 152.3 278.334 150.755C278.409 150.474 278.498 150.198 278.6 149.926C278.614 149.898 278.633 149.874 278.657 149.853C278.681 149.833 278.708 149.818 278.737 149.808C278.767 149.798 278.798 149.794 278.829 149.797C278.86 149.799 278.89 149.807 278.918 149.822C278.946 149.836 278.971 149.855 278.991 149.878C279.011 149.902 279.027 149.929 279.036 149.959C279.046 149.988 279.05 150.02 279.047 150.051C279.045 150.082 279.037 150.112 279.023 150.14C278.995 150.203 278.898 150.532 278.795 150.882C278.325 152.445 277.228 156.107 276.052 158.065C275.329 159.275 274.039 159.938 273.23 159.516Z" fill="#111111"/>
<path d="M274.874 161.176C274.647 161.056 273.945 160.529 274.703 158.873C274.716 158.845 274.735 158.819 274.758 158.798C274.78 158.777 274.807 158.76 274.836 158.75C274.866 158.739 274.897 158.734 274.928 158.735C274.959 158.736 274.99 158.743 275.018 158.756C275.046 158.769 275.072 158.788 275.093 158.81C275.114 158.833 275.131 158.86 275.142 158.889C275.152 158.918 275.157 158.95 275.156 158.981C275.155 159.012 275.148 159.042 275.135 159.071C274.749 159.916 274.737 160.536 275.108 160.731C275.803 161.095 277.638 160.132 279.053 157.737C280.159 155.859 281.445 151.786 281.459 151.745C281.476 151.683 281.518 151.629 281.574 151.597C281.631 151.565 281.698 151.556 281.761 151.573C281.792 151.581 281.821 151.596 281.846 151.616C281.872 151.637 281.892 151.662 281.906 151.692C281.921 151.721 281.929 151.752 281.93 151.785C281.931 151.817 281.925 151.849 281.913 151.879C281.861 152.047 280.595 156.052 279.457 157.98C277.947 160.538 275.869 161.697 274.874 161.176Z" fill="#111111"/>
<path d="M278.489 162.141C277.676 161.714 277.667 160.042 277.669 159.849C277.67 159.783 277.695 159.72 277.74 159.672C277.785 159.624 277.846 159.595 277.912 159.59C277.943 159.59 277.973 159.597 278.002 159.609C278.03 159.621 278.056 159.639 278.077 159.661C278.098 159.683 278.115 159.71 278.125 159.738C278.136 159.767 278.141 159.798 278.139 159.829C278.139 160.238 278.235 161.442 278.712 161.691H278.725C278.952 161.8 279.277 161.691 279.688 161.346C281.571 159.797 284.667 151.286 284.699 151.202C284.719 151.14 284.763 151.089 284.821 151.059C284.878 151.029 284.946 151.022 285.008 151.041C285.038 151.052 285.065 151.07 285.088 151.092C285.112 151.114 285.13 151.14 285.143 151.17C285.156 151.199 285.163 151.231 285.163 151.263C285.164 151.295 285.158 151.327 285.147 151.356C285.017 151.711 281.967 160.09 279.972 161.73C279.404 162.198 278.912 162.339 278.51 162.148L278.489 162.141Z" fill="#111111"/>
<path d="M313.145 59.3729C313.145 59.3729 315.041 85.3035 337.708 88.9628C355.638 91.8566 347.493 58.5938 347.493 58.5938L349.764 45.4922C328.15 47.9499 313.145 59.3729 313.145 59.3729Z" fill="#F85052"/>
<path d="M365.201 31.8267C363.825 31.7947 362.495 31.3209 361.41 30.4752C361.383 30.4535 361.362 30.4269 361.346 30.3969C361.33 30.3668 361.321 30.3339 361.318 30.3001C361.315 30.2663 361.319 30.2323 361.329 30.2C361.339 30.1676 361.356 30.1377 361.378 30.1118C361.399 30.0855 361.426 30.0637 361.456 30.0477C361.487 30.0317 361.52 30.0219 361.554 30.0187C361.588 30.0155 361.622 30.0191 361.654 30.0292C361.687 30.0394 361.717 30.0558 361.743 30.0777C361.764 30.0959 363.86 31.8063 366.391 31.1566C366.455 31.1457 366.522 31.1594 366.577 31.1951C366.632 31.2307 366.671 31.2858 366.688 31.3492C366.704 31.4127 366.696 31.4799 366.665 31.5376C366.634 31.5954 366.582 31.6394 366.52 31.6609C366.089 31.7707 365.646 31.8264 365.201 31.8267Z" fill="#31313C"/>
<path d="M442.263 28.7237H442.013L419.085 28.0627L369.311 26.6204C366.751 26.4909 364.755 24.7056 364.755 22.5477C364.761 22.0331 364.874 21.5253 365.086 21.0562C365.298 20.5872 365.604 20.167 365.986 19.822C366.832 19.0485 367.91 18.5779 369.052 18.4841L418.197 14.491L440.482 12.6738L442.24 28.4739L442.263 28.7237Z" fill="#CDD3D7"/>
<path d="M442.236 29.7406C442.14 29.8292 442.043 29.9155 441.943 30.0018L411.787 29.2341C409.409 26.8514 408.003 23.9008 408.003 20.7072C408.003 18.0791 408.955 15.6192 410.611 13.5022L442.265 11.4238L442.236 29.7406Z" fill="#CCD4DA"/>
<path d="M441.312 30.032C446.044 30.032 449.88 25.8655 449.88 20.726C449.88 15.5864 446.044 11.4199 441.312 11.4199C436.58 11.4199 432.744 15.5864 432.744 20.726C432.744 25.8655 436.58 30.032 441.312 30.032Z" fill="#31313C"/>
<path d="M441.313 28.1538C445.1 28.1538 448.17 24.8192 448.17 20.7058C448.17 16.5924 445.1 13.2578 441.313 13.2578C437.525 13.2578 434.455 16.5924 434.455 20.7058C434.455 24.8192 437.525 28.1538 441.313 28.1538Z" fill="#1F6A58"/>
<path d="M402.086 11.7557C402.393 12.955 402.52 15.2083 401.777 16.637C401.035 18.0657 399.279 17.8272 399.052 15.1379C398.945 13.9136 398.7 12.2395 398.838 11.5331C399.172 9.81816 401.584 9.78863 402.086 11.7557Z" fill="#B28A5F"/>
<path d="M401.909 16.805C401.55 17.4297 400.982 17.7636 400.407 17.6795C399.558 17.5569 398.974 16.6142 398.847 15.1605C398.822 14.8607 398.788 14.5336 398.752 14.1997C398.643 13.1503 398.524 12.0646 398.638 11.5058C398.702 11.1224 398.894 10.772 399.183 10.512C399.471 10.252 399.84 10.0978 400.228 10.0748C401.027 10.0248 401.97 10.5086 402.272 11.7034C402.574 12.8982 402.726 15.1969 401.947 16.7164L401.909 16.805ZM399.201 11.0947C399.121 11.2363 399.064 11.3896 399.031 11.5489C398.933 12.0532 399.049 13.1594 399.151 14.1361C399.188 14.47 399.222 14.7994 399.249 15.1015C399.378 16.6006 399.974 17.2139 400.485 17.2888C400.903 17.3502 401.327 17.0617 401.598 16.5461C402.333 15.131 402.168 12.8823 401.891 11.7965C401.638 10.8085 400.882 10.4064 400.244 10.445C400.03 10.4575 399.822 10.5235 399.64 10.637C399.458 10.7505 399.307 10.9078 399.201 11.0947V11.0947Z" fill="#31313C"/>
<path d="M399.522 12.0831C400.397 13.446 401.492 16.2126 401.192 18.3296C400.892 20.4465 398.666 20.9281 397.258 17.6663C396.617 16.1831 395.617 14.1978 395.49 13.2529C395.19 10.9565 398.1 9.84351 399.522 12.0831Z" fill="#B28A5F"/>
<path d="M401.128 19.358C401.008 19.5885 400.837 19.7884 400.628 19.9424C400.419 20.0964 400.177 20.2003 399.922 20.2461C398.85 20.4165 397.766 19.492 397.023 17.7703C396.867 17.4069 396.687 17.0116 396.505 16.6119C395.933 15.3467 395.34 14.0406 395.238 13.2933C395.15 12.7658 395.248 12.224 395.517 11.7614C395.785 11.2987 396.206 10.944 396.708 10.7584C397.564 10.4427 398.875 10.5653 399.756 11.9464C400.617 13.291 401.78 16.1053 401.46 18.3518C401.415 18.7054 401.302 19.047 401.128 19.358ZM395.979 11.9759C395.768 12.3505 395.688 12.7843 395.751 13.2093C395.844 13.8907 396.449 15.2218 396.98 16.3893C397.164 16.7913 397.344 17.1888 397.503 17.5545C398.266 19.324 399.215 19.8464 399.849 19.7442C400.403 19.6556 400.819 19.1013 400.935 18.2973C401.232 16.1917 400.09 13.4455 399.299 12.2098C398.577 11.0741 397.541 10.9674 396.873 11.215C396.494 11.3532 396.176 11.6233 395.979 11.9759V11.9759Z" fill="#31313C"/>
<path d="M396.287 13.1105C397.16 14.4733 398.257 17.2399 397.957 19.3569C397.657 21.4739 395.431 21.9554 394.02 18.6936C393.38 17.2104 392.383 15.2252 392.253 14.2803C391.944 11.9839 394.856 10.8709 396.287 13.1105Z" fill="#B28A5F"/>
<path d="M397.884 20.3834C397.764 20.6137 397.593 20.8134 397.384 20.9674C397.175 21.1213 396.933 21.2253 396.678 21.2715C395.605 21.4419 394.522 20.5174 393.777 18.7957C393.62 18.4323 393.443 18.037 393.261 17.6373C392.687 16.3721 392.094 15.066 391.994 14.3187C391.906 13.7912 392.004 13.2494 392.272 12.7867C392.541 12.324 392.962 11.9694 393.463 11.7838C394.318 11.4681 395.63 11.5907 396.512 12.9717C397.37 14.3142 398.536 17.1307 398.215 19.3772C398.17 19.7307 398.058 20.0724 397.884 20.3834V20.3834ZM392.732 13.0013C392.523 13.3763 392.443 13.8097 392.505 14.2347C392.596 14.9161 393.2 16.2471 393.734 17.4147C393.918 17.8167 394.097 18.2142 394.254 18.5799C395.019 20.3493 395.969 20.8718 396.603 20.7696C397.157 20.681 397.572 20.1267 397.686 19.3227C397.986 17.217 396.843 14.4709 396.053 13.2352C395.331 12.0995 394.293 11.9928 393.625 12.2403C393.246 12.3798 392.93 12.6496 392.732 13.0013V13.0013Z" fill="#31313C"/>
<path d="M392.839 14.1107C393.577 15.2624 394.504 17.5951 394.25 19.3827C393.995 21.1703 392.117 21.5792 390.927 18.8239C390.386 17.5724 389.544 15.8961 389.437 15.0965C389.176 13.159 391.631 12.2209 392.839 14.1107Z" fill="#B28A5F"/>
<path d="M394.225 20.2709C394.12 20.4706 393.971 20.6438 393.789 20.7772C393.607 20.9106 393.397 21.0008 393.175 21.0409C392.251 21.1886 391.319 20.3981 390.677 18.9285C390.545 18.6219 390.395 18.288 390.241 17.9495C389.757 16.882 389.255 15.7758 389.168 15.1398C389.093 14.6853 389.178 14.2187 389.409 13.8203C389.641 13.4219 390.004 13.1166 390.436 12.9569C391.172 12.6844 392.301 12.7888 393.059 13.9745L392.832 14.1108L393.059 13.9745C393.786 15.1102 394.772 17.4998 394.502 19.4078C394.464 19.7102 394.37 20.0028 394.225 20.2709V20.2709ZM389.875 14.0381C389.705 14.3485 389.642 14.706 389.695 15.0557C389.773 15.6236 390.281 16.7457 390.731 17.736C390.886 18.0767 391.038 18.4174 391.17 18.7218C391.808 20.1937 392.589 20.6298 393.109 20.539C393.564 20.4663 393.895 20.012 393.988 19.351C394.24 17.5838 393.28 15.2783 392.614 14.238C392.019 13.3045 391.165 13.2091 390.613 13.4112C390.3 13.526 390.039 13.7482 389.875 14.0381V14.0381Z" fill="#31313C"/>
<path d="M246.473 312.937V320.735C246.089 320.715 245.7 320.701 245.31 320.701C235.495 320.701 227.538 327.061 227.538 334.902H263.081C263.081 334.902 269.053 334.902 263.081 312.93C261.993 308.924 246.473 312.937 246.473 312.937Z" fill="#83AAC6"/>
<path d="M254.51 327.166C254.549 327.166 254.588 327.158 254.623 327.141C254.656 327.126 254.684 327.105 254.708 327.079C254.732 327.053 254.751 327.023 254.763 326.989C254.775 326.956 254.78 326.921 254.779 326.886C254.777 326.85 254.768 326.816 254.753 326.784C251.97 320.812 246.542 320.476 246.487 320.474C246.416 320.47 246.346 320.495 246.294 320.543C246.241 320.591 246.209 320.657 246.205 320.728C246.202 320.799 246.227 320.869 246.274 320.922C246.322 320.975 246.389 321.006 246.46 321.01C246.51 321.01 251.627 321.342 254.267 327.011C254.288 327.057 254.323 327.096 254.366 327.124C254.409 327.151 254.459 327.166 254.51 327.166V327.166Z" fill="#ECEFF2"/>
<path d="M188.591 310.478L185.127 320.733C184.743 320.713 184.357 320.699 183.966 320.699C174.149 320.699 166.195 327.059 166.195 334.9H201.738C201.738 334.9 206.901 334.9 201.738 312.929C200.786 308.895 188.591 310.478 188.591 310.478Z" fill="#83AAC6"/>
<path d="M256.104 138.061C256.104 138.061 258.634 176.168 268.335 314.151C268.335 314.151 260.99 315.741 254.777 316.349C249.339 316.888 243.052 316.349 243.052 316.349C243.052 316.349 224.395 178.644 223.99 185.079C220.876 235.019 207.107 312.836 207.107 312.836C207.107 312.836 204.031 315.334 193.194 316.349C191.061 316.549 184.62 316.349 184.62 316.349L187.055 149.381L256.104 138.061Z" fill="#31313B"/>
<path d="M195.809 51.497C184.89 51.9104 136.838 71.4061 135.453 74.5315C131.221 84.0829 142.267 90.6587 153.938 90.7927C172.304 90.9949 189.942 85.3413 189.942 85.3413C189.942 85.3413 203.539 51.204 195.809 51.497Z" fill="#F85052"/>
<path d="M218.393 48.016C207.354 47.2959 179.098 55.8047 181.546 70.3327C184.381 87.1413 185.428 107.884 185.339 118.142C185.228 131.173 185.264 159.87 185.264 159.87C185.264 159.87 209.873 175.713 260.051 152.813C260.051 152.813 259.095 116.972 255.268 90.5939C251.622 65.4764 245.821 49.8058 218.393 48.016Z" fill="#F85052"/>
<path d="M202.859 42.8232L204.988 41.29C205.996 40.5644 207.25 40.2688 208.476 40.4682C209.701 40.6676 210.797 41.3456 211.523 42.3531L217.138 50.1498C217.863 51.1568 218.159 52.4107 217.959 53.6356C217.76 54.8605 217.082 55.956 216.075 56.6812L213.945 58.2157C212.938 58.9409 211.684 59.2364 210.459 59.0372C209.234 58.8379 208.138 58.1602 207.413 57.1532L201.798 49.3564C201.439 48.8578 201.181 48.2933 201.04 47.6951C200.899 47.0968 200.877 46.4767 200.975 45.8699C201.074 45.2632 201.291 44.6819 201.614 44.1591C201.938 43.6363 202.361 43.1824 202.859 42.8232Z" fill="white"/>
<path d="M216.445 56.8797C216.4 56.9161 216.352 56.9501 216.302 56.9865L214.174 58.5197C213.087 59.3033 211.733 59.6238 210.41 59.4109C209.087 59.198 207.903 58.4691 207.116 57.384L201.497 49.5885C200.715 48.5005 200.396 47.1472 200.608 45.8243C200.821 44.5015 201.549 43.3167 202.633 42.5289L204.763 40.9957C205.852 40.2138 207.206 39.8955 208.529 40.1105C209.852 40.3255 211.036 41.0564 211.821 42.1427L217.438 49.9383C218.201 51.0025 218.522 52.3207 218.335 53.6167C218.148 54.9128 217.467 56.0862 216.434 56.8911L216.445 56.8797ZM215.864 56.3755C216.788 55.706 217.409 54.6978 217.591 53.5715C217.774 52.4452 217.503 51.2924 216.838 50.3653L211.221 42.5698C210.551 41.6465 209.544 41.0257 208.418 40.8431C207.292 40.6605 206.14 40.931 205.213 41.5953L203.085 43.1285C202.161 43.7976 201.54 44.8052 201.357 45.931C201.174 47.0567 201.444 48.2092 202.108 49.1364L207.727 56.932C208.397 57.855 209.404 58.4757 210.529 58.6587C211.654 58.8417 212.806 58.5721 213.733 57.9087L215.864 56.3755Z" fill="#31313B"/>
<path d="M208.854 59.8147C208.854 59.8147 196.77 115.408 201.933 143.299L211.103 156.43L219.398 142.738C219.398 142.738 212.107 120.864 213.515 59.4717L208.854 59.8147Z" fill="#FFF3F3"/>
<path d="M254.198 122.721C251.375 123.286 246.553 124.538 243.695 124.168C241.483 124.072 233.02 123.87 233.317 125.655C233.626 127.582 238.996 128.408 242.61 128.672C240.938 130.528 239.012 133.769 238.585 135.657C238.13 137.63 238.905 139.184 240.452 139.377C240.304 141.481 240.979 142.389 241.658 142.723C243.343 143.55 244.708 142.064 245.313 139.62C245.435 141.074 245.313 142.119 245.744 143.089C246.141 143.831 246.817 144.386 247.623 144.631C248.32 144.781 249.213 143.661 249.512 142.746C249.876 141.564 250.104 140.345 250.194 139.111C250.228 138.505 250.23 138.9 250.505 138.294C251.504 138.294 254.101 137.951 254.566 137.908C256.306 137.742 257.873 135.582 258.8 133.908C261.926 128.254 256.854 122.192 254.198 122.721Z" fill="white"/>
<path d="M240.522 139.63C240.484 139.638 240.445 139.638 240.406 139.63C240.372 139.626 240.339 139.614 240.308 139.597C240.278 139.58 240.252 139.556 240.231 139.529C240.21 139.501 240.194 139.469 240.185 139.436C240.177 139.402 240.174 139.367 240.179 139.333C240.861 134.613 244.649 131.264 244.811 131.124C244.863 131.078 244.931 131.055 245.001 131.06C245.07 131.065 245.134 131.097 245.18 131.15C245.225 131.202 245.248 131.27 245.243 131.34C245.238 131.409 245.206 131.473 245.154 131.519C245.117 131.553 241.347 134.883 240.699 139.408C240.694 139.458 240.674 139.505 240.643 139.544C240.611 139.584 240.57 139.613 240.522 139.63V139.63Z" fill="#060633"/>
<path d="M245.519 139.21C245.481 139.219 245.441 139.219 245.403 139.21C245.369 139.206 245.335 139.195 245.305 139.177C245.275 139.16 245.249 139.137 245.228 139.11C245.206 139.082 245.191 139.051 245.182 139.017C245.173 138.984 245.171 138.949 245.176 138.915C245.471 137.03 246.325 135.278 247.627 133.883C247.677 133.836 247.743 133.81 247.812 133.812C247.881 133.813 247.946 133.841 247.995 133.89C248.043 133.939 248.07 134.005 248.071 134.074C248.071 134.142 248.045 134.209 247.997 134.258C246.784 135.575 245.984 137.22 245.696 138.987C245.691 139.037 245.671 139.085 245.64 139.124C245.609 139.164 245.567 139.194 245.519 139.21V139.21Z" fill="#060633"/>
<path d="M254.782 138.081C253.451 138.471 252.049 138.555 250.68 138.326C250.607 138.316 250.54 138.277 250.496 138.217C250.451 138.158 250.432 138.083 250.443 138.01C250.453 137.936 250.493 137.87 250.552 137.825C250.611 137.781 250.686 137.762 250.76 137.772C253.188 138.117 255.173 137.668 256.665 136.437C259.305 134.249 259.514 130.288 259.516 130.249C259.525 130.179 259.56 130.114 259.614 130.069C259.668 130.023 259.737 129.999 259.808 130.002C259.879 130.005 259.946 130.035 259.996 130.086C260.046 130.136 260.075 130.203 260.077 130.274C260.077 130.447 259.85 134.517 257.024 136.861C256.364 137.411 255.603 137.826 254.782 138.081V138.081Z" fill="#060633"/>
<path d="M233.778 125.271C233.686 125.384 233.625 125.52 233.599 125.664C233.574 125.808 233.587 125.957 233.635 126.095C233.844 126.906 238.43 127.86 242.741 128.31C242.791 128.313 242.839 128.331 242.88 128.36C242.92 128.39 242.951 128.431 242.968 128.478C242.986 128.523 242.991 128.572 242.982 128.619C242.973 128.666 242.951 128.71 242.919 128.746C242.869 128.8 238.01 134.238 238.785 137.377C238.989 138.204 239.566 138.783 240.552 139.144C240.612 139.167 240.662 139.211 240.693 139.268C240.723 139.324 240.732 139.39 240.717 139.453C240.717 139.467 240.381 140.877 241.031 141.847C241.211 142.102 241.443 142.315 241.712 142.471C241.982 142.628 242.281 142.725 242.591 142.756C242.767 142.785 242.947 142.778 243.119 142.734C243.291 142.69 243.453 142.611 243.593 142.502C244.549 141.797 244.992 139.978 245.138 139.251C245.167 139.058 245.192 138.94 245.197 138.926C245.211 138.86 245.251 138.802 245.307 138.765C245.364 138.727 245.432 138.713 245.499 138.724C245.566 138.736 245.626 138.773 245.666 138.828C245.705 138.884 245.722 138.952 245.712 139.019C245.712 139.042 245.692 139.156 245.658 139.335C245.503 140.351 245.204 143.651 247.552 144.332C247.693 144.382 247.843 144.399 247.991 144.38C248.139 144.362 248.28 144.309 248.404 144.226C248.824 143.939 249.372 143.115 249.594 140.8C249.846 138.177 251.161 136.712 251.216 136.644C251.263 136.592 251.328 136.561 251.397 136.558C251.467 136.554 251.535 136.579 251.586 136.625C251.638 136.672 251.669 136.737 251.672 136.807C251.675 136.876 251.651 136.944 251.604 136.996C251.604 137.009 250.351 138.408 250.119 140.857C249.924 142.879 249.437 144.16 248.697 144.666C248.581 144.746 248.454 144.808 248.32 144.85C248.024 144.942 247.707 144.942 247.411 144.85C246.048 144.457 245.24 143.294 245.065 141.486L245.051 141.345C244.814 141.963 244.423 142.511 243.916 142.935C243.72 143.087 243.495 143.196 243.255 143.257C243.015 143.317 242.765 143.328 242.521 143.287C241.656 143.153 241.01 142.774 240.602 142.152C239.991 141.243 240.093 140.055 240.172 139.569C239.148 139.14 238.514 138.449 238.283 137.525C237.56 134.602 241.079 130.145 242.208 128.812C239.963 128.557 233.517 127.701 233.147 126.259C233.077 126.04 233.064 125.808 233.106 125.582C233.149 125.357 233.247 125.146 233.392 124.968C234.258 123.919 237.085 123.574 242.301 123.885C243.515 123.962 244.734 123.962 245.949 123.885C248.179 123.733 251.023 123.31 253.217 121.364C253.974 120.687 254.708 120.012 255.418 119.34L255.902 119.585C254.714 120.721 253.858 121.495 253.567 121.757C250.968 124.071 247.355 124.314 245.994 124.407C244.757 124.485 243.517 124.485 242.28 124.407C237.358 124.085 234.507 124.382 233.778 125.271Z" fill="#060633"/>
<path d="M246.283 51.6301C267.021 57.2132 297.969 86.501 291.711 101.293C284.75 117.745 263.671 133.32 263.671 133.32C263.671 133.32 250.848 127.923 248.631 122.812C248.631 122.812 269.774 100.379 269.529 99.1642C268.332 93.1699 241.313 82.5624 241.313 82.5624L224.856 49.42C224.856 49.42 238.094 49.4245 246.283 51.6301Z" fill="#F85052"/>
<path d="M207.814 58.4015L213.568 56.8115C213.568 56.8115 215.18 60.707 213.304 61.6361C211.428 62.5651 208.046 63.4964 206.751 60.5208C205.456 57.5452 207.814 58.4015 207.814 58.4015Z" fill="#FE9961"/>
<path d="M210.208 57.7506C210.208 57.7506 212.707 59.6699 213.533 60.608C214.194 61.3644 216.127 64.5262 216.127 64.5262C216.127 64.5262 227.939 57.4371 224.861 49.4258C224.861 49.4258 220.275 45.2963 214.412 45.7143C214.401 45.7143 216.127 53.3894 210.208 57.7506Z" fill="#EAAB57"/>
<path d="M205.386 53.6909C205.386 53.6909 207.966 57.466 210.208 57.7477C210.208 57.7477 206.406 61.3819 206.556 64.9004C206.556 64.9004 196.532 62.5335 195.81 51.499C195.81 51.499 197.218 50.1361 199.035 49.7545C200.202 49.5069 201.954 48.7119 201.954 48.7119L205.386 53.6909Z" fill="#EAAB57"/>
<path d="M214.233 35.7646C212.188 45.1138 205.04 51.4625 198.271 49.9452C191.503 48.4279 188.157 38.0247 189.724 30.2746C191.621 20.8936 198.916 14.5768 205.685 16.0941C212.454 17.6114 216.279 26.4177 214.233 35.7646Z" fill="white"/>
<path d="M203.044 50.1657C201.461 50.6189 199.79 50.6696 198.183 50.3134C191.232 48.7575 187.734 38.2226 189.349 30.1999C190.444 24.7848 193.452 20.0239 197.397 17.4663C200.105 15.7082 202.996 15.1086 205.76 15.7264C212.72 17.2846 216.681 26.3112 214.594 35.8467C213.388 41.3503 210.308 46.1408 206.353 48.6621C205.33 49.3237 204.215 49.8304 203.044 50.1657V50.1657ZM201.052 16.6032C199.9 16.9345 198.806 17.4384 197.806 18.0978C194.028 20.5486 191.141 25.1392 190.083 30.3498C189.32 34.1227 189.742 38.5928 191.219 42.3112C192.809 46.3225 195.337 48.8983 198.349 49.5797C200.847 50.1385 203.48 49.6024 205.951 48.0261C209.74 45.6115 212.697 40.9983 213.86 35.6854C215.859 26.5543 212.154 17.9297 205.599 16.4623C204.097 16.1308 202.537 16.1792 201.059 16.6032H201.052Z" fill="#31313B"/>
<path d="M198.982 32.1889C198.943 32.2063 198.9 32.2142 198.857 32.2118C198.814 32.2095 198.772 32.1969 198.735 32.1752C198.702 32.1577 198.674 32.1339 198.651 32.1052C198.628 32.0766 198.611 32.0437 198.601 32.0084C198.59 31.9731 198.587 31.9361 198.592 31.8997C198.596 31.8632 198.607 31.8279 198.625 31.7959C198.669 31.7164 199.516 29.788 201.931 30.165C202.004 30.1763 202.07 30.2155 202.115 30.2744C202.16 30.3332 202.18 30.4072 202.171 30.4808C202.151 30.6329 202.012 30.7079 201.858 30.7079C200.325 30.8374 199.15 31.9935 199.112 32.0708C199.083 32.1234 199.037 32.165 198.982 32.1889V32.1889Z" fill="#31313B"/>
<path d="M192.368 31.445C192.327 31.4327 192.289 31.411 192.257 31.3814C192.225 31.3518 192.201 31.3152 192.186 31.2746C192.16 31.2053 192.163 31.1286 192.193 31.061C192.223 30.9934 192.279 30.9404 192.348 30.9135C192.432 30.8817 194.324 29.9549 195.925 31.8039C195.974 31.8595 195.999 31.9318 195.995 32.0056C195.991 32.0794 195.959 32.1488 195.905 32.1991C195.848 32.2431 195.777 32.2654 195.705 32.262C195.633 32.2587 195.564 32.23 195.512 32.1809C194.258 31.2883 192.613 31.4132 192.543 31.4382C192.487 31.4596 192.426 31.462 192.368 31.445V31.445Z" fill="#31313B"/>
<path d="M202.49 33.3675C202.633 34.0194 202.369 34.6327 201.899 34.7304C201.429 34.828 200.931 34.3896 200.788 33.7377C200.645 33.0858 200.911 32.4725 201.381 32.3749C201.851 32.2772 202.349 32.7179 202.49 33.3675Z" fill="#31313B"/>
<path d="M194.387 33.7086C194.53 34.3605 194.266 34.9738 193.796 35.0715C193.326 35.1692 192.828 34.7308 192.685 34.0766C192.542 33.4224 192.808 32.8114 193.278 32.7137C193.748 32.6161 194.244 33.0567 194.387 33.7086Z" fill="#31313B"/>
<path d="M197.683 39.0507C197.658 39.0576 197.633 39.0622 197.608 39.0643C197.162 39.0986 196.713 39.0328 196.296 38.8716C195.879 38.7105 195.503 38.4582 195.195 38.133C195.133 38.0568 195.103 37.9592 195.112 37.8612C195.121 37.7631 195.167 37.6724 195.242 37.6084C195.317 37.5443 195.414 37.512 195.512 37.5184C195.61 37.5247 195.702 37.5693 195.768 37.6424C195.998 37.8787 196.277 38.0614 196.585 38.1772C196.894 38.293 197.224 38.3392 197.553 38.3125C197.646 38.3067 197.737 38.3352 197.81 38.3926C197.883 38.45 197.932 38.5323 197.948 38.6237C197.964 38.7151 197.946 38.8091 197.897 38.8879C197.848 38.9667 197.772 39.0247 197.683 39.0507V39.0507Z" fill="#31313B"/>
<path d="M208.543 30.1167C208.543 30.1167 204.763 22.3825 197.413 25.3149C182.662 31.1979 177.424 17.7351 187.893 15.4887C193.846 14.2121 197.926 9.41035 205.862 10.0259C226.614 11.6363 225.374 38.2915 211.795 42.7345C211.795 42.7345 210.812 36.1678 210.516 34.9162C210.221 33.6647 208.543 30.1167 208.543 30.1167Z" fill="#31313B"/>
<path d="M211.969 36.6029C210.701 37.7386 209.016 37.8862 208.196 36.9549C207.376 36.0236 207.969 34.1747 209.011 33.2275C210.261 32.0804 211.964 31.9441 212.784 32.8777C213.604 33.8113 213.234 35.4785 211.969 36.6029Z" fill="white"/>
<path d="M196.991 42.8777C196.585 42.882 196.18 42.85 195.78 42.7823C195.714 42.7679 195.657 42.7285 195.619 42.6724C195.582 42.6162 195.568 42.5478 195.581 42.4815C195.593 42.4153 195.631 42.3566 195.686 42.3177C195.741 42.2789 195.809 42.263 195.875 42.2735C195.909 42.2735 199.373 42.9004 201.15 40.6244C201.171 40.5975 201.197 40.5751 201.226 40.5583C201.256 40.5415 201.288 40.5306 201.322 40.5264C201.356 40.5222 201.39 40.5247 201.423 40.5337C201.456 40.5427 201.486 40.5581 201.513 40.579C201.54 40.5998 201.562 40.6258 201.579 40.6554C201.596 40.6849 201.607 40.7175 201.611 40.7513C201.615 40.785 201.613 40.8193 201.604 40.8521C201.595 40.8849 201.579 40.9156 201.559 40.9424C200.739 41.9941 199.476 42.6437 197.908 42.8254C197.604 42.8606 197.297 42.8781 196.991 42.8777Z" fill="#31313B"/>
<path d="M180.557 22.1724C180.557 22.1724 190.94 20.437 190.983 20.9549C191.117 22.4927 188.905 22.529 188.905 22.529L180.557 22.1724Z" fill="white"/>
<path d="M188.914 22.7987L180.557 22.4398C180.489 22.4391 180.424 22.4126 180.375 22.3659C180.326 22.3191 180.297 22.2554 180.292 22.1877C180.288 22.12 180.31 22.0533 180.353 22.001C180.397 21.9487 180.458 21.9148 180.525 21.906C184.262 21.2814 190.611 20.2956 191.142 20.7067C191.177 20.7339 191.207 20.7682 191.228 20.8073C191.25 20.8463 191.263 20.8894 191.267 20.9338C191.291 21.1355 191.271 21.3398 191.209 21.5333C191.148 21.7267 191.046 21.9049 190.91 22.0559C190.254 22.7669 188.962 22.7964 188.914 22.7987ZM183.235 22.015L188.93 22.2581C188.93 22.2581 190.022 22.2308 190.52 21.688C190.66 21.5359 190.741 21.3383 190.747 21.1315C189.99 21.0542 186.729 21.4722 183.226 22.015H183.235Z" fill="#31313B"/>
<path d="M189.337 22.433C187.697 22.1763 185.845 22.0991 183.999 22.0037C180.755 21.8379 178.043 22.6851 175.924 23.0553C173.062 23.546 165.537 31.1439 165.537 31.1439C165.537 31.1439 157.63 39.2393 157.505 39.848L165.314 46.2512L172.919 35.0689C173.479 35.0853 174.039 35.0218 174.581 34.8804C180.714 33.2654 182.588 24.1252 185.4 24.5522C188.212 24.9792 193.468 25.0724 194.077 23.4051C194.168 23.1553 191.136 22.7237 189.337 22.433Z" fill="white"/>
<path d="M165.316 46.5224C165.253 46.5218 165.193 46.5002 165.145 46.4611L157.336 40.0579C157.298 40.0267 157.269 39.9856 157.253 39.9392C157.236 39.8927 157.233 39.8427 157.243 39.7945C157.368 39.1766 162.951 33.4072 165.345 30.9563C165.656 30.6429 172.966 23.288 175.88 22.7792C176.393 22.6929 176.945 22.5748 177.531 22.4498C179.312 22.0705 181.527 21.5981 184.014 21.7253L184.443 21.7457C186.095 21.7987 187.743 21.9359 189.381 22.1568L189.958 22.2454C193.533 22.7996 194.154 22.97 194.306 23.2267C194.329 23.2655 194.344 23.3092 194.348 23.3544C194.352 23.3996 194.346 23.4453 194.331 23.4879C194.02 24.3419 192.759 24.8507 190.587 25.0234C188.843 25.1355 187.092 25.0639 185.363 24.8098C184.309 24.6486 183.262 26.2863 182.051 28.1852C180.343 30.8632 178.215 34.1954 174.653 35.1312C174.134 35.2651 173.6 35.3323 173.063 35.3311L165.543 46.393C165.521 46.4238 165.494 46.4498 165.462 46.4694C165.429 46.4889 165.394 46.5016 165.356 46.5065L165.316 46.5224ZM157.843 39.7808L165.25 45.8569L172.689 34.9177C172.714 34.8809 172.748 34.8509 172.787 34.8303C172.827 34.8097 172.871 34.7992 172.916 34.7996C173.452 34.8166 173.987 34.7562 174.506 34.6201C177.863 33.7388 179.928 30.5043 181.586 27.9058C182.949 25.7638 184.032 24.0762 185.434 24.2874C188.386 24.7417 192.879 24.6917 193.72 23.4947C193.097 23.2903 191.033 22.9723 189.858 22.7905L189.279 22.702C187.661 22.4842 186.032 22.3485 184.4 22.2954L183.968 22.2749C181.554 22.1523 179.466 22.5975 177.624 22.9882C177.034 23.1154 176.477 23.2335 175.953 23.3221C173.206 23.7923 165.786 31.2721 165.711 31.3357C162.944 34.1886 158.544 38.7973 157.843 39.7808Z" fill="#31313B"/>
<path d="M180.636 24.3798C181.508 24.2685 184.309 23.9687 184.866 23.9777C186.21 24.0027 188.414 24.3548 189.986 24.6206C191.557 24.8863 192.879 25.4474 192.854 25.6631C192.679 27.1078 189.354 26.8852 186.776 26.9874C184.857 27.0623 182.058 27.0737 181.64 26.9874L180.636 24.3798Z" fill="white"/>
<path d="M183.602 27.3166C182.927 27.3355 182.252 27.3097 181.58 27.2394C181.516 27.2184 181.462 27.1742 181.429 27.1155C181.396 27.0568 181.386 26.9878 181.401 26.9221C181.416 26.8564 181.455 26.7987 181.511 26.7604C181.566 26.722 181.634 26.7057 181.701 26.7147C182.057 26.7965 184.708 26.7988 186.764 26.7147C187.188 26.6988 187.631 26.6897 188.079 26.6829C190.071 26.6466 192.32 26.6057 192.567 25.7176C192.32 25.5381 191.311 25.1156 189.939 24.8839C188.254 24.5977 186.15 24.2684 184.86 24.2457C184.335 24.2457 181.617 24.5251 180.667 24.6432C180.632 24.6475 180.596 24.6449 180.562 24.6355C180.528 24.626 180.497 24.61 180.469 24.5883C180.441 24.5666 180.418 24.5396 180.4 24.5088C180.383 24.4781 180.372 24.4443 180.367 24.4092C180.363 24.3742 180.366 24.3386 180.375 24.3046C180.384 24.2705 180.4 24.2387 180.422 24.2108C180.444 24.183 180.471 24.1597 180.502 24.1423C180.532 24.1249 180.566 24.1137 180.601 24.1094C181.451 24.0004 184.281 23.696 184.869 23.7073C186.196 23.7301 188.324 24.064 190.03 24.3524C190.062 24.3524 193.21 24.9248 193.121 25.6948C192.946 27.1349 190.477 27.1781 188.088 27.2212C187.634 27.2212 187.204 27.2371 186.786 27.253C185.88 27.2917 184.644 27.3166 183.602 27.3166Z" fill="#31313B"/>
<path d="M180.252 27.0398C180.227 27.0398 183.886 26.8127 185.088 27.0194C188.129 27.5441 189.061 28.4572 188.818 28.7298C187.814 29.8496 184.361 29.443 183.487 29.3771C181.374 29.2204 179.171 30.3788 179.171 30.3788L180.252 27.0398Z" fill="white"/>
<path d="M179.176 30.6575C179.115 30.6575 179.057 30.6373 179.009 30.6002C178.962 30.5631 178.928 30.5112 178.913 30.4527C178.899 30.3942 178.904 30.3325 178.929 30.2774C178.953 30.2224 178.995 30.177 179.048 30.1487C179.142 30.101 181.342 28.9562 183.507 29.1174L183.78 29.1401C184.752 29.2242 187.668 29.474 188.566 28.6086C188.425 28.3928 187.587 27.7341 185.043 27.2935C183.921 27.0981 180.5 27.2935 180.273 27.3162L180.243 27.0482L180.034 26.8755C180.118 26.771 180.139 26.7461 182.206 26.687C183.628 26.6461 184.609 26.6711 185.127 26.762C187.768 27.2162 188.911 27.9681 189.086 28.4723C189.117 28.5477 189.126 28.6302 189.112 28.7106C189.099 28.7909 189.063 28.8658 189.008 28.9266C188.114 29.9261 185.715 29.8579 183.723 29.6853L183.457 29.6648C181.447 29.5127 179.312 30.6257 179.291 30.637C179.255 30.652 179.215 30.6589 179.176 30.6575V30.6575Z" fill="#31313B"/>
<path d="M163.439 30.7842C163.439 30.7842 129.354 72.5149 135.23 81.9276C141.326 91.6948 160.304 66.0958 157.692 72.5149C156.686 74.9862 173.045 38.8796 173.297 38.2935C173.297 38.2935 172.842 35.536 169.989 33.5553C166.096 30.8546 163.439 30.7842 163.439 30.7842Z" fill="#F85052"/>
<path d="M159.566 70.1259C159.491 70.1261 159.417 70.1042 159.354 70.0629C159.29 70.0217 159.24 69.9629 159.21 69.8937C159.18 69.8245 159.17 69.7479 159.183 69.6734C159.195 69.5988 159.229 69.5296 159.28 69.474C162.049 66.4621 162.26 61.7944 162.263 61.7512C162.264 61.7 162.275 61.6495 162.296 61.6028C162.317 61.5561 162.347 61.514 162.385 61.4791C162.422 61.4441 162.466 61.4171 162.514 61.3994C162.562 61.3818 162.614 61.374 162.665 61.3764C162.768 61.3806 162.865 61.4254 162.936 61.5012C163.006 61.577 163.043 61.6775 163.039 61.7807C163.039 61.9829 162.812 66.7779 159.859 70.0033C159.822 70.0433 159.777 70.075 159.726 70.0961C159.676 70.1173 159.621 70.1274 159.566 70.1259V70.1259Z" fill="#EAAB57"/>
<path d="M85.0061 169.834C85.9655 161.13 80.6842 153.407 73.2102 152.583C65.7361 151.759 58.8995 158.147 57.9402 166.85C56.9808 175.554 62.262 183.277 69.7361 184.101C77.2102 184.925 84.0468 178.537 85.0061 169.834Z" fill="#C6CBCE"/>
<path d="M200.247 344.528H208.174C208.154 344.918 208.14 345.309 208.14 345.707C208.14 355.678 214.598 363.76 222.564 363.76V327.644C222.564 327.644 211.527 322.42 196.313 328.214C192.367 329.725 200.247 344.528 200.247 344.528Z" fill="#F85052"/>
<path d="M214.701 336.363C214.7 336.323 214.692 336.284 214.676 336.247C214.644 336.182 214.589 336.132 214.521 336.107C214.453 336.083 214.378 336.086 214.312 336.115C211.148 337.592 209.574 339.791 208.811 341.374C208.318 342.356 208.01 343.421 207.903 344.515C207.9 344.587 207.926 344.657 207.974 344.71C208.022 344.763 208.09 344.795 208.161 344.799C208.197 344.801 208.233 344.796 208.266 344.784C208.3 344.773 208.331 344.754 208.357 344.73C208.384 344.706 208.405 344.677 208.42 344.645C208.435 344.613 208.444 344.578 208.445 344.542C208.445 344.49 208.784 339.293 214.544 336.611C214.591 336.588 214.63 336.553 214.658 336.509C214.686 336.465 214.7 336.415 214.701 336.363V336.363Z" fill="#ECEFF2"/>
<path d="M144.547 266.119C144.547 266.119 125.07 323.908 133.958 343.347C142.846 362.786 201.024 348.901 201.024 348.901C201.024 348.901 203.613 338.759 197.565 325.492L164.69 321.339C164.69 321.339 193.465 272.188 181.705 256.263C172.997 244.468 145.444 252.345 144.547 266.119Z" fill="#1D272D"/>
<path d="M71.9821 196.591C73.6221 202.551 64.0957 206.699 64.0957 206.699C73.1383 229.047 77.4063 253.606 89.6288 254.428C103.741 255.375 120.452 218.583 120.452 218.583L100.836 206.999L92.2205 230.446C92.2205 230.446 84.2092 223.31 79.5141 214.203C76.5817 208.498 71.9821 196.591 71.9821 196.591Z" fill="white"/>
<path d="M90.1852 254.693C89.9944 254.693 89.8081 254.693 89.6196 254.673C80.3635 254.05 75.6049 240.104 70.0853 223.952C68.1659 218.325 66.1807 212.508 63.8661 206.789C63.8412 206.729 63.8408 206.663 63.8651 206.603C63.8894 206.543 63.9363 206.496 63.9956 206.471C64.0887 206.43 73.3085 202.339 71.7434 196.656C71.7254 196.594 71.732 196.528 71.762 196.471C71.7919 196.414 71.8427 196.371 71.9038 196.351C71.9648 196.331 72.0313 196.336 72.0891 196.364C72.1469 196.392 72.1916 196.441 72.2136 196.502C72.2591 196.62 76.8337 208.461 79.7343 214.089C83.8706 222.112 90.6803 228.679 92.1136 230.012L100.602 206.911C100.613 206.877 100.633 206.845 100.659 206.819C100.685 206.794 100.717 206.775 100.752 206.764C100.786 206.752 100.822 206.747 100.858 206.75C100.894 206.753 100.929 206.764 100.961 206.782L120.577 218.366C120.629 218.398 120.668 218.447 120.686 218.505C120.704 218.564 120.7 218.627 120.675 218.682C117.71 225.006 114.323 231.123 110.537 236.992C102.86 248.742 96.0114 254.693 90.1852 254.693ZM64.4204 206.823C66.6918 212.486 68.6634 218.232 70.5532 223.793C76.0046 239.777 80.7201 253.58 89.6468 254.18C89.8195 254.18 89.9944 254.198 90.1693 254.198C103.305 254.198 118.789 221.576 120.134 218.682L100.968 207.359L92.452 230.528C92.4379 230.565 92.4148 230.599 92.3847 230.626C92.3546 230.653 92.3185 230.672 92.2794 230.682C92.24 230.692 92.1986 230.693 92.1589 230.683C92.1193 230.674 92.0826 230.655 92.0523 230.627C91.9728 230.555 83.9524 223.359 79.2937 214.312C77.0359 209.935 73.7764 201.819 72.3999 198.339C72.2568 200.288 71.037 202.239 68.8065 204.068C67.4574 205.155 65.9852 206.079 64.4204 206.823V206.823Z" fill="#31313A"/>
<path d="M111.803 148.451C111.803 148.451 117.69 142.318 127.021 146.148C136.352 149.978 145.42 170.028 128.128 177.382C110.835 184.737 87.6347 160.079 111.803 148.451Z" fill="#31313A"/>
<path d="M133.992 200.997L127.032 203.759C125.772 204.12 110.251 202.889 107.982 199.643C104.391 194.512 113.867 190.312 117.067 189.078C117.338 188.984 117.562 188.792 117.697 188.539C117.831 188.286 117.865 187.992 117.792 187.715L115.521 179.811C114.839 177.417 116.363 174.861 118.928 174.132L121.558 173.38C124.111 172.649 126.76 174.01 127.446 176.404L129.674 184.183C129.773 184.504 129.979 184.782 130.256 184.971C130.534 185.161 130.867 185.25 131.203 185.226C133.435 185.121 137.992 185.058 138.133 186.266C138.601 190.441 135.416 200.592 133.992 200.997Z" fill="white"/>
<path d="M136.247 185.42C136.321 185.4 136.387 185.356 136.434 185.295C136.482 185.235 136.509 185.161 136.511 185.084C136.51 185.039 136.5 184.994 136.481 184.953C136.463 184.912 136.436 184.874 136.403 184.844C136.369 184.813 136.33 184.79 136.287 184.775C136.245 184.76 136.199 184.754 136.154 184.757L130.248 184.95L127.773 176.305C127.034 173.727 124.197 172.269 121.447 173.057L118.816 173.809C116.066 174.597 114.43 177.336 115.168 179.914L117.637 188.539L113.683 190.583C113.602 190.623 113.54 190.693 113.511 190.778C113.481 190.863 113.487 190.956 113.526 191.037C113.574 191.117 113.65 191.176 113.74 191.201C113.83 191.225 113.926 191.214 114.008 191.169L118.228 189.009C118.3 188.974 118.357 188.915 118.391 188.843C118.424 188.77 118.432 188.689 118.412 188.611L115.866 179.717C115.23 177.495 116.64 175.137 119 174.456L121.631 173.702C124 173.02 126.444 174.279 127.082 176.5L129.628 185.395C129.65 185.468 129.696 185.531 129.759 185.575C129.822 185.618 129.897 185.639 129.974 185.634L136.147 185.431C136.181 185.43 136.214 185.427 136.247 185.42V185.42Z" fill="#31313C"/>
<path d="M190.338 258.725C141.686 293.448 122.636 263.969 122.636 263.969C122.584 263.889 122.544 263.803 122.515 263.713C119.667 236.608 105.707 217.748 105.707 217.748C105.707 217.748 166.554 204.742 169.654 209.08C184.982 230.543 190.338 258.725 190.338 258.725Z" fill="#F85052"/>
<path d="M176.112 223.314C178.965 230.846 131.29 231.214 114.213 226.363C100.149 222.365 95.4648 211.51 95.4648 211.51C95.4648 211.51 97.7749 200.286 113.913 190.22C115.483 189.241 113.872 193.97 115.435 197.002C115.573 197.267 115.724 197.525 115.89 197.774C116.755 199.119 118.002 200.221 119.796 200.625C120.107 200.697 120.423 200.745 120.741 200.77C122.009 200.873 123.508 200.661 125.284 200.018C126.048 199.744 126.794 199.422 127.517 199.053C127.787 198.915 128.048 198.771 128.303 198.626C136.653 193.804 136.01 184.748 136.01 184.748C138.173 184.338 140.358 184.052 142.554 183.891H142.697C148.02 183.467 153.334 184.807 157.82 187.704C162.306 190.6 165.713 194.893 167.517 199.919C170.088 207.085 173.229 215.703 176.112 223.314Z" fill="#F85052"/>
<path d="M129.627 169.053C127.848 177.735 121.036 183.951 114.408 182.934C107.78 181.916 104.291 172.567 105.64 165.373C107.271 156.669 114.231 150.477 120.859 151.493C127.487 152.508 131.408 160.374 129.627 169.053Z" fill="white"/>
<path d="M116.823 165.172C116.782 165.172 116.742 165.163 116.706 165.144C116.669 165.126 116.638 165.099 116.614 165.066C116.595 165.037 116.581 165.006 116.575 164.972C116.568 164.938 116.568 164.904 116.575 164.87C116.582 164.837 116.596 164.805 116.615 164.777C116.635 164.749 116.66 164.725 116.689 164.707C117.203 164.319 117.826 164.102 118.469 164.088C119.113 164.073 119.745 164.261 120.276 164.625C120.305 164.643 120.33 164.667 120.349 164.695C120.369 164.723 120.382 164.754 120.389 164.788C120.395 164.821 120.395 164.856 120.388 164.889C120.38 164.923 120.366 164.954 120.346 164.982C120.301 165.035 120.239 165.071 120.171 165.085C120.102 165.099 120.031 165.09 119.969 165.059C118.581 164.575 117.05 165.084 116.989 165.125C116.94 165.158 116.882 165.175 116.823 165.172V165.172Z" fill="#31313C"/>
<path d="M108.482 165.562C108.441 165.561 108.401 165.551 108.365 165.533C108.328 165.514 108.297 165.488 108.273 165.455C108.253 165.427 108.239 165.395 108.232 165.361C108.225 165.328 108.225 165.293 108.232 165.26C108.239 165.226 108.252 165.194 108.272 165.166C108.292 165.138 108.317 165.114 108.346 165.096C108.86 164.707 109.483 164.49 110.127 164.475C110.771 164.461 111.403 164.649 111.934 165.014C111.963 165.032 111.988 165.056 112.007 165.083C112.027 165.111 112.04 165.143 112.046 165.176C112.053 165.21 112.052 165.244 112.045 165.277C112.037 165.31 112.023 165.341 112.003 165.368C111.958 165.422 111.897 165.458 111.829 165.473C111.761 165.487 111.69 165.478 111.628 165.448C110.238 164.962 108.709 165.473 108.648 165.514C108.598 165.545 108.541 165.561 108.482 165.562V165.562Z" fill="#31313C"/>
<path d="M119.535 167.413C119.687 168.004 119.444 168.58 118.989 168.701C118.535 168.821 118.04 168.442 117.886 167.851C117.731 167.261 117.976 166.686 118.431 166.563C118.885 166.441 119.38 166.834 119.535 167.413Z" fill="#31313C"/>
<path d="M111.655 168.186C111.81 168.777 111.564 169.354 111.11 169.474C110.656 169.595 110.161 169.213 110.008 168.625C109.856 168.036 110.097 167.457 110.554 167.337C111.01 167.216 111.505 167.596 111.655 168.186Z" fill="#31313C"/>
<path d="M114.939 172.793C114.993 172.778 115.04 172.745 115.072 172.699C115.105 172.654 115.12 172.598 115.116 172.543C115.112 172.512 115.102 172.483 115.087 172.456C115.071 172.43 115.051 172.407 115.026 172.389C115.001 172.37 114.973 172.357 114.944 172.35C114.914 172.343 114.883 172.342 114.853 172.347C114.522 172.396 114.184 172.372 113.863 172.278C113.542 172.183 113.246 172.019 112.995 171.798C112.948 171.754 112.888 171.73 112.824 171.73C112.761 171.73 112.7 171.754 112.654 171.798C112.631 171.817 112.613 171.842 112.6 171.869C112.587 171.896 112.579 171.925 112.578 171.955C112.576 171.985 112.58 172.015 112.59 172.043C112.6 172.072 112.616 172.098 112.636 172.12C112.941 172.394 113.303 172.597 113.695 172.715C114.088 172.833 114.502 172.862 114.907 172.802L114.939 172.793Z" fill="#31313C"/>
<path d="M118.138 174.355C118.118 175.045 117.945 175.722 117.632 176.336C117.202 177.152 116.405 177.926 114.936 178.081C114.32 178.15 113.699 178 113.182 177.658C111.924 176.847 111.444 175.16 111.444 175.16C113.708 175.487 116.017 175.209 118.138 174.355V174.355Z" fill="#31313A"/>
<path d="M117.638 176.337C117.208 177.152 116.411 177.927 114.942 178.081C114.326 178.15 113.705 178.001 113.188 177.659C114.022 176.843 115.802 175.478 117.638 176.337Z" fill="#EF866C"/>
<path d="M114.348 183.246C107.566 182.205 103.923 172.759 105.317 165.329C106.255 160.318 109.065 155.789 112.831 153.24C115.425 151.478 118.221 150.764 120.924 151.178C127.716 152.22 131.766 160.263 129.955 169.102C129.081 173.365 126.989 177.186 124.063 179.852C122.545 181.283 120.715 182.343 118.719 182.948C117.301 183.363 115.81 183.464 114.348 183.246V183.246ZM129.299 169.004C131.041 160.506 127.225 152.793 120.795 151.805C118.274 151.419 115.65 152.091 113.208 153.751C109.588 156.213 106.882 160.566 105.974 165.42C105.341 169.115 105.819 172.915 107.348 176.338C108.988 179.939 111.521 182.169 114.478 182.623C117.572 183.098 120.815 181.956 123.609 179.407C126.403 176.858 128.452 173.138 129.299 169.004V169.004Z" fill="#31313C"/>
<path d="M112.053 150.437C112.053 150.437 112.368 161.758 129.949 172.079C129.949 172.079 132.448 165.372 130.283 157.51C128.119 149.649 112.053 150.437 112.053 150.437Z" fill="#31313A"/>
<path d="M127.003 146.063C127.003 146.063 127.073 138.935 137.088 137.043C147.103 135.151 148.516 150.199 155.696 148.005C162.876 145.811 171.875 150.474 171.5 157.752C171.5 157.752 177.331 162.976 171.561 169.079C165.792 175.182 154.805 173.179 153.617 167.532C153.617 167.532 146.176 172.352 143.107 166.169C140.039 159.987 138.14 140.714 128.977 148.107L127.003 146.063Z" fill="#31313A"/>
<path d="M117.334 154.933C117.334 154.933 109.566 163.407 104.787 163.832C104.787 163.832 106.458 156.157 110.222 153.29C113.986 150.424 114.969 150.792 114.969 150.792L117.334 154.933Z" fill="#31313A"/>
<path d="M129.524 171.995C128.248 173.16 126.515 173.412 125.652 172.556C124.788 171.699 125.363 169.875 126.401 168.899C127.657 167.715 129.411 167.481 130.263 168.338C131.114 169.194 130.812 170.832 129.524 171.995Z" fill="white"/>
<path d="M71.0097 185.812C70.45 185.812 69.8909 185.776 69.3357 185.706C61.0427 184.647 55.2528 176.004 56.4317 166.439C57.0495 161.404 59.5299 156.865 63.2346 153.985C66.3033 151.6 69.9899 150.542 73.6173 151.005C81.9103 152.063 87.7002 160.706 86.5236 170.271C85.9035 175.307 83.4231 179.845 79.7093 182.723C77.2348 184.694 74.1728 185.781 71.0097 185.812V185.812ZM58.61 166.707C57.581 175.075 62.5169 182.621 69.6151 183.516C72.6565 183.902 75.7661 183.003 78.3714 180.979C81.6173 178.462 83.7933 174.455 84.343 169.999C85.372 161.631 80.4362 154.085 73.3379 153.19C70.2965 152.802 67.1869 153.703 64.5816 155.727C61.3357 158.251 59.1597 162.255 58.61 166.714V166.707Z" fill="#31313C"/>
<path d="M70.7917 184.004L68.5536 183.723C67.5777 183.601 66.6875 184.293 66.5653 185.269L62.6138 216.813C62.4916 217.789 63.1836 218.68 64.1595 218.802L66.3975 219.082C67.3734 219.204 68.2636 218.512 68.3859 217.536L72.3373 185.992C72.4595 185.016 71.7675 184.126 70.7917 184.004Z" fill="#31313C"/>
<path d="M117.086 343.349V351.276C116.695 351.256 116.302 351.242 115.904 351.242C105.933 351.242 97.8511 357.702 97.8511 365.668H133.967C133.967 365.668 139.761 358.566 133.967 343.349C132.459 339.408 117.086 343.349 117.086 343.349Z" fill="#F85052"/>
<path d="M125.25 357.806C125.29 357.806 125.329 357.797 125.365 357.779C125.431 357.748 125.481 357.693 125.506 357.626C125.531 357.558 125.527 357.483 125.497 357.418C124.023 354.252 121.824 352.678 120.241 351.917C119.259 351.422 118.194 351.114 117.1 351.008C117.063 351.003 117.025 351.006 116.989 351.017C116.953 351.027 116.919 351.045 116.891 351.069C116.862 351.094 116.838 351.123 116.822 351.157C116.805 351.191 116.795 351.227 116.793 351.265C116.791 351.302 116.797 351.34 116.811 351.375C116.824 351.41 116.844 351.442 116.871 351.469C116.897 351.496 116.928 351.517 116.963 351.531C116.998 351.545 117.035 351.552 117.073 351.551C117.125 351.551 122.322 351.889 125.004 357.647C125.026 357.695 125.06 357.735 125.104 357.763C125.147 357.791 125.198 357.806 125.25 357.806Z" fill="#ECEFF2"/>
<path d="M190.249 258.351C190.249 258.351 120.429 250.242 102.054 261.166C83.6777 272.089 109.572 344.277 109.572 344.277C109.572 344.277 114.51 349.177 136.534 345.025L133.14 294.615C133.14 294.615 172.436 299.839 184.588 289.295C195.661 279.696 190.249 258.351 190.249 258.351Z" fill="#263238"/>
<path d="M154.362 246.888C151.51 247.083 146.606 247.71 143.83 246.952C141.656 246.561 133.34 245.225 133.413 247.074C133.49 249.071 138.678 250.625 142.222 251.39C140.352 253.048 138.067 256.081 137.422 257.936C136.741 259.881 137.318 261.571 138.824 261.964C138.428 264.076 138.985 265.089 139.616 265.518C141.179 266.581 142.703 265.257 143.589 262.858C143.537 264.351 143.296 265.393 143.603 266.434C143.809 267.133 144.607 268.005 145.274 268.251C145.942 268.496 146.955 267.479 147.362 266.59C147.863 265.433 148.234 264.223 148.468 262.983C148.573 262.375 148.529 262.777 148.87 262.197C149.858 262.325 152.459 262.329 152.925 262.347C154.66 262.413 156.332 260.33 157.577 258.856C158.174 258.129 157.045 246.706 154.362 246.888Z" fill="white"/>
<path d="M138.871 262.216C138.833 262.225 138.793 262.225 138.755 262.216C138.687 262.195 138.63 262.149 138.596 262.087C138.561 262.025 138.552 261.952 138.571 261.884C139.8 257.184 143.938 254.295 144.113 254.161C144.142 254.142 144.174 254.128 144.208 254.122C144.242 254.115 144.277 254.116 144.311 254.123C144.345 254.13 144.377 254.144 144.406 254.164C144.434 254.184 144.458 254.209 144.477 254.238C144.516 254.297 144.531 254.369 144.518 254.439C144.505 254.509 144.464 254.57 144.406 254.611C144.365 254.638 140.252 257.514 139.075 262.018C139.064 262.067 139.039 262.112 139.002 262.147C138.966 262.182 138.92 262.206 138.871 262.216Z" fill="#31313C"/>
<path d="M143.845 262.459C143.807 262.468 143.768 262.468 143.729 262.459C143.662 262.439 143.605 262.393 143.57 262.331C143.536 262.269 143.527 262.196 143.545 262.128C144.05 260.272 145.1 258.61 146.56 257.358C146.587 257.337 146.618 257.321 146.651 257.312C146.685 257.303 146.72 257.301 146.754 257.306C146.788 257.311 146.821 257.323 146.85 257.341C146.88 257.359 146.905 257.382 146.925 257.41C146.968 257.466 146.987 257.537 146.979 257.607C146.97 257.677 146.935 257.741 146.88 257.785C145.518 258.974 144.534 260.536 144.05 262.278C144.036 262.324 144.009 262.365 143.973 262.397C143.937 262.429 143.893 262.451 143.845 262.459Z" fill="#31313C"/>
<path d="M150.574 247.721C150.574 247.721 165.424 238.787 171.973 228.037C173.418 225.663 150.242 205.257 150.242 205.257L155.753 197.825L163.11 191.062C163.11 191.062 197.12 211.637 192.72 228.541C188.048 246.503 157.888 258.66 157.888 258.66L150.574 247.721Z" fill="white"/>
<path d="M172.021 228.318C171.952 228.331 171.881 228.317 171.823 228.279C171.759 228.238 171.714 228.174 171.697 228.1C171.679 228.027 171.691 227.949 171.73 227.884C174.122 223.893 177.427 222.523 177.565 222.467C177.6 222.453 177.637 222.447 177.674 222.448C177.711 222.449 177.747 222.458 177.781 222.473C177.814 222.488 177.845 222.51 177.87 222.537C177.896 222.564 177.915 222.596 177.929 222.63C177.957 222.7 177.956 222.778 177.927 222.847C177.898 222.916 177.843 222.971 177.774 223C177.742 223.014 174.494 224.363 172.207 228.188C172.187 228.222 172.16 228.251 172.127 228.273C172.095 228.295 172.059 228.31 172.021 228.318V228.318Z" fill="#31313C"/>
<path d="M153.115 262.551C151.747 262.771 150.348 262.669 149.026 262.253C148.954 262.231 148.893 262.182 148.857 262.116C148.82 262.05 148.811 261.972 148.831 261.899C148.839 261.863 148.855 261.83 148.877 261.8C148.899 261.771 148.926 261.746 148.958 261.727C148.989 261.709 149.025 261.697 149.061 261.693C149.097 261.688 149.134 261.691 149.169 261.701C151.525 262.383 153.537 262.185 155.152 261.131C158.014 259.266 158.694 255.275 158.7 255.237C158.706 255.201 158.719 255.166 158.738 255.135C158.757 255.103 158.782 255.076 158.812 255.055C158.842 255.034 158.876 255.019 158.912 255.011C158.948 255.003 158.985 255.003 159.021 255.01C159.094 255.025 159.159 255.067 159.201 255.129C159.244 255.191 159.261 255.267 159.248 255.341C159.221 255.514 158.528 259.616 155.457 261.62C154.746 262.083 153.95 262.4 153.115 262.551V262.551Z" fill="#31313C"/>
<path d="M158.017 258.633C157.952 258.644 157.885 258.632 157.828 258.599C157.771 258.565 157.728 258.513 157.706 258.451C157.679 258.381 157.68 258.303 157.71 258.235C157.74 258.166 157.795 258.111 157.865 258.083C163.557 255.746 169.017 252.88 174.174 249.522C187.936 240.484 191.932 232.068 192.858 226.601C195.389 211.701 163.484 191.364 163.162 191.167C163.098 191.126 163.053 191.062 163.036 190.989C163.018 190.916 163.03 190.839 163.069 190.774C163.087 190.742 163.111 190.714 163.141 190.692C163.17 190.67 163.203 190.654 163.239 190.645C163.275 190.636 163.312 190.634 163.348 190.64C163.384 190.646 163.419 190.659 163.45 190.679C169.055 194.332 174.378 198.402 179.373 202.853C189.778 212.248 194.501 220.275 193.408 226.703C191.691 236.816 182.16 244.959 174.467 250.008C169.283 253.387 163.792 256.269 158.067 258.617C158.051 258.624 158.034 258.63 158.017 258.633V258.633Z" fill="#31313C"/>
<path d="M145.93 268.533C145.621 268.586 145.304 268.541 145.022 268.404C143.727 267.82 143.066 266.532 143.107 264.677C143.107 264.627 143.107 264.579 143.107 264.531C142.8 265.12 142.348 265.62 141.794 265.985C141.583 266.112 141.347 266.193 141.102 266.223C140.858 266.253 140.61 266.23 140.374 266.158C139.998 266.063 139.646 265.889 139.343 265.647C139.039 265.405 138.791 265.102 138.614 264.756C138.119 263.743 138.359 262.564 138.496 262.08C137.539 261.508 136.994 260.717 136.876 259.745C136.511 256.683 140.511 252.631 141.782 251.43C139.597 250.871 133.342 249.14 133.151 247.627C133.108 247.399 133.121 247.163 133.189 246.94C133.258 246.718 133.38 246.515 133.544 246.351C134.525 245.401 137.358 245.442 142.464 246.442C143.652 246.684 144.855 246.849 146.064 246.934C148.283 247.08 151.136 247.032 153.521 245.344C163.615 238.226 169.723 231.019 171.743 227.882C171.952 227.557 171.836 225.731 161.521 215.893C155.954 210.578 150.112 205.506 150.053 205.445C150 205.397 149.967 205.332 149.961 205.261C149.956 205.191 149.977 205.121 150.021 205.065C150.042 205.038 150.069 205.016 150.1 205C150.13 204.984 150.163 204.974 150.197 204.972C150.232 204.969 150.266 204.973 150.299 204.984C150.331 204.995 150.361 205.013 150.387 205.036C150.446 205.086 156.292 210.165 161.871 215.484C173.308 226.401 172.481 227.684 172.17 228.168C166.834 236.459 155.134 244.847 153.81 245.776C150.973 247.777 147.379 247.541 146.028 247.452C144.796 247.365 143.572 247.197 142.362 246.95C137.569 246.001 134.721 245.926 133.896 246.723C133.794 246.831 133.72 246.962 133.681 247.105C133.641 247.248 133.637 247.398 133.669 247.543C133.78 248.395 138.191 249.974 142.391 251.007C142.439 251.02 142.482 251.045 142.516 251.08C142.551 251.115 142.575 251.158 142.587 251.206C142.598 251.254 142.597 251.304 142.582 251.351C142.568 251.398 142.541 251.44 142.505 251.473C142.45 251.523 137.01 256.388 137.401 259.664C137.505 260.531 138.007 261.197 138.936 261.694C138.994 261.726 139.038 261.777 139.061 261.839C139.084 261.901 139.084 261.969 139.061 262.03C139.061 262.044 138.562 263.43 139.089 264.502C139.234 264.779 139.438 265.023 139.685 265.216C139.932 265.409 140.217 265.547 140.522 265.622C140.691 265.674 140.87 265.69 141.046 265.668C141.221 265.646 141.391 265.587 141.542 265.494C142.566 264.908 143.22 263.121 143.45 262.403C143.502 262.212 143.541 262.099 143.545 262.083C143.566 262.018 143.612 261.964 143.672 261.933C143.733 261.902 143.803 261.896 143.868 261.917C143.933 261.939 143.988 261.986 144.02 262.047C144.053 262.108 144.061 262.179 144.043 262.246C144.043 262.269 144.006 262.382 143.952 262.56C143.679 263.57 142.984 266.875 145.228 267.891C145.36 267.958 145.506 267.994 145.654 267.994C145.802 267.994 145.948 267.958 146.08 267.891C146.534 267.664 147.168 266.891 147.67 264.574C148.231 261.944 149.703 260.629 149.764 260.574C149.79 260.552 149.82 260.534 149.853 260.523C149.886 260.513 149.92 260.508 149.955 260.511C149.989 260.514 150.022 260.523 150.053 260.539C150.083 260.555 150.11 260.577 150.132 260.604C150.177 260.658 150.2 260.728 150.195 260.799C150.19 260.87 150.158 260.936 150.105 260.983C150.091 260.983 148.701 262.248 148.181 264.695C147.75 266.719 147.125 267.957 146.328 268.37C146.204 268.444 146.07 268.499 145.93 268.533V268.533Z" fill="#31313C"/>
<path d="M136.922 202.416C136.922 202.416 135.591 183.776 145.592 183.79C165.14 183.806 172.937 195.754 172.937 195.754C172.937 195.754 165.757 210.791 155.634 212.676L136.922 202.416Z" fill="#F85052"/>
<path d="M74.1579 204.514C74.1579 204.514 76.8405 200.035 74.5032 195.917C72.1658 191.799 72.1545 188.421 69.9989 188.855C67.8433 189.289 73.1789 197.212 67.9546 201.121L74.1579 204.514Z" fill="white"/>
<path d="M74.1586 204.771C74.1115 204.771 74.0652 204.758 74.0246 204.734C73.9658 204.699 73.9236 204.641 73.907 204.574C73.8904 204.508 73.9008 204.437 73.936 204.378C73.961 204.335 76.5095 199.978 74.279 196.042C73.5656 194.743 72.9506 193.392 72.4391 192.001C71.5942 189.832 71.1717 188.882 70.0519 189.107C70.0063 189.113 69.9625 189.129 69.9234 189.153C69.8843 189.178 69.8507 189.21 69.8247 189.248C69.5749 189.627 69.802 190.724 70.0519 191.887C70.6265 194.638 71.4942 198.795 68.1053 201.318C68.078 201.339 68.047 201.353 68.014 201.362C67.981 201.37 67.9467 201.372 67.9131 201.367C67.8794 201.362 67.8471 201.35 67.8179 201.333C67.7887 201.315 67.7633 201.292 67.743 201.265C67.7227 201.238 67.708 201.207 67.6997 201.174C67.6914 201.141 67.6897 201.106 67.6947 201.073C67.6996 201.039 67.7111 201.007 67.7286 200.978C67.7461 200.948 67.7691 200.923 67.7964 200.903C70.9196 198.577 70.1246 194.77 69.5454 191.994C69.2455 190.558 69.0275 189.523 69.3977 188.962C69.4608 188.866 69.5427 188.785 69.6384 188.722C69.7341 188.66 69.8416 188.618 69.9542 188.598C71.5442 188.278 72.1279 189.761 72.9275 191.812C73.4339 193.18 74.0413 194.508 74.7446 195.785C77.1273 199.987 74.5175 204.457 74.3948 204.644C74.3708 204.684 74.3361 204.718 74.2945 204.74C74.2528 204.763 74.2058 204.773 74.1586 204.771V204.771Z" fill="#31313C"/>
<path d="M64.4021 208.052C65.8035 207.789 68.2181 206.855 69.3447 205.463C70.4713 204.071 69.3674 202.472 66.4464 203.503C65.1176 203.973 63.2504 204.518 62.5849 204.984C60.9563 206.115 62.1034 208.484 64.4021 208.052Z" fill="white"/>
<path d="M69.515 205.601C68.3156 207.082 65.8239 208.006 64.4429 208.265C63.0619 208.524 62.0806 207.836 61.7422 207.032C61.5796 206.636 61.562 206.195 61.6925 205.788C61.8229 205.38 62.0931 205.032 62.4554 204.804C62.9869 204.433 64.1748 204.036 65.3242 203.652C65.6899 203.532 66.0488 203.411 66.3736 203.295C67.9636 202.739 69.2197 202.866 69.7648 203.638C70.1328 204.159 70.0624 204.87 69.5854 205.512L69.515 205.601ZM62.1465 206.862C62.4168 207.504 63.205 208.052 64.3611 207.836C65.6286 207.598 68.0567 206.7 69.1765 205.324C69.5876 204.815 69.674 204.268 69.4037 203.891C69.0743 203.425 68.143 203.134 66.5144 203.709C66.1873 203.825 65.833 203.936 65.4605 204.068C64.3906 204.424 63.1891 204.829 62.7007 205.163C62.5467 205.268 62.4109 205.398 62.2987 205.546C62.1597 205.733 62.0724 205.953 62.0457 206.184C62.019 206.414 62.0537 206.648 62.1465 206.862V206.862Z" fill="#31313C"/>
<path d="M63.4942 205.404C65.3477 205.617 68.7662 205.404 70.8309 204.107C72.8956 202.81 72.3096 200.425 68.2165 200.579C66.3562 200.648 63.7963 200.604 62.7469 200.922C60.2007 201.697 60.4596 205.056 63.4942 205.404Z" fill="white"/>
<path d="M70.9807 204.349C68.7911 205.712 65.2863 205.896 63.4623 205.687C61.5907 205.473 60.8229 204.251 60.7366 203.27C60.6503 202.289 61.2091 201.09 62.665 200.649C63.4941 200.397 65.1477 200.363 66.7536 200.329C67.2624 200.329 67.7598 200.308 68.2164 200.292C70.3765 200.211 71.8711 200.835 72.2163 201.96C72.2907 202.232 72.2989 202.519 72.2405 202.795C72.182 203.072 72.0585 203.33 71.8802 203.55C71.6321 203.869 71.3271 204.14 70.9807 204.349V204.349ZM61.3045 203.213C61.3726 203.981 61.9859 204.94 63.5282 205.115C65.2045 205.308 68.6275 205.137 70.6786 203.858C71.4622 203.37 71.8393 202.705 71.6598 202.123C71.4554 201.458 70.4469 200.776 68.2277 200.858C67.7734 200.876 67.2669 200.885 66.7581 200.896C65.2704 200.926 63.5782 200.962 62.8309 201.192C62.3619 201.322 61.9471 201.599 61.6475 201.982C61.3828 202.337 61.2612 202.778 61.3067 203.218L61.3045 203.213Z" fill="#31313C"/>
<path d="M62.9829 201.757C64.8341 201.971 68.2549 201.746 70.3174 200.46C72.3799 199.175 71.7984 196.778 67.7052 196.931C65.8427 197.001 63.2827 196.958 62.2333 197.276C59.6871 198.048 59.9437 201.41 62.9829 201.757Z" fill="white"/>
<path d="M70.4673 200.702C68.2799 202.065 64.7728 202.251 62.9511 202.042C61.0795 201.829 60.3117 200.607 60.2254 199.626C60.1391 198.644 60.6956 197.445 62.1539 197.004C62.9829 196.752 64.6365 196.718 66.2424 196.684C66.749 196.684 67.2464 196.664 67.703 196.648C69.8631 196.566 71.3577 197.188 71.7029 198.315C71.7788 198.588 71.7878 198.874 71.7293 199.151C71.6708 199.428 71.5464 199.686 71.3668 199.905C71.1208 200.226 70.8155 200.497 70.4673 200.702V200.702ZM60.791 199.567C60.8614 200.334 61.4724 201.293 63.0147 201.468C64.691 201.661 68.1164 201.488 70.1652 200.212C70.9511 199.723 71.3259 199.058 71.1487 198.476C70.9443 197.808 69.9358 197.127 67.7166 197.211C67.2623 197.229 66.7558 197.238 66.2447 197.25C64.7569 197.279 63.0647 197.316 62.3174 197.543C61.849 197.674 61.4349 197.952 61.1363 198.335C60.8697 198.69 60.7464 199.132 60.791 199.573V199.567Z" fill="#31313C"/>
<path d="M62.3447 197.926C63.9075 198.105 66.7944 197.926 68.5366 196.831C70.2788 195.736 69.7859 193.721 66.331 193.851C64.7592 193.91 62.5991 193.873 61.7133 194.141C59.5645 194.796 59.7826 197.624 62.3447 197.926Z" fill="white"/>
<path d="M68.6893 197.075C66.8313 198.231 63.858 198.388 62.3134 198.21L62.3452 197.927L62.3134 198.21C60.7075 198.026 60.0419 196.975 59.9715 196.13C59.8784 195.108 60.5462 194.199 61.6319 193.87C62.3361 193.656 63.7353 193.627 65.0891 193.599C65.5161 193.599 65.9363 193.581 66.3225 193.568C68.1669 193.497 69.4457 194.036 69.7433 195.005C69.8093 195.243 69.8174 195.493 69.7668 195.734C69.7162 195.975 69.6084 196.2 69.4525 196.391C69.2427 196.664 68.9839 196.896 68.6893 197.075ZM60.5394 196.078C60.5962 196.709 61.1118 197.497 62.377 197.643C63.7875 197.804 66.6654 197.661 68.3872 196.589C69.03 196.187 69.3412 195.646 69.1958 195.174C69.0277 194.628 68.1919 194.07 66.3429 194.138C65.9545 194.154 65.532 194.16 65.1004 194.17C63.8466 194.197 62.4269 194.226 61.7978 194.417C61.4109 194.523 61.0689 194.752 60.8233 195.069C60.606 195.358 60.5047 195.718 60.5394 196.078V196.078Z" fill="#31313C"/>
<path d="M96.7632 239.622C96.7307 239.621 96.6987 239.614 96.6689 239.6C96.6392 239.587 96.6124 239.568 96.5901 239.544C96.5677 239.521 96.5502 239.493 96.5386 239.463C96.527 239.432 96.5215 239.4 96.5224 239.367C96.6473 234.736 92.0817 230.586 92.0363 230.543C92.0122 230.521 91.9926 230.495 91.9786 230.466C91.9647 230.437 91.9566 230.405 91.9549 230.373C91.9532 230.341 91.9579 230.308 91.9688 230.278C91.9796 230.247 91.9964 230.219 92.0181 230.195C92.0397 230.171 92.0659 230.151 92.0952 230.137C92.1245 230.123 92.1563 230.115 92.1888 230.113C92.2213 230.111 92.2538 230.115 92.2846 230.126C92.3153 230.137 92.3436 230.153 92.3679 230.175C92.5633 230.352 97.138 234.522 97.0176 239.381C97.0167 239.414 97.0094 239.446 96.9962 239.475C96.9829 239.505 96.9639 239.532 96.9403 239.554C96.9167 239.576 96.8889 239.594 96.8585 239.606C96.8281 239.617 96.7957 239.623 96.7632 239.622V239.622Z" fill="#31313A"/>
<path d="M467.629 161.257C471.839 161.257 475.252 156.895 475.252 151.513C475.252 146.131 471.839 141.769 467.629 141.769C463.419 141.769 460.006 146.131 460.006 151.513C460.006 156.895 463.419 161.257 467.629 161.257Z" fill="#CECED6"/>
<path d="M456.098 158.782C456.098 158.782 474.994 193.165 461.413 204.924C451.021 213.923 416.459 194.889 416.459 194.889L418.231 177.658L448.505 185.585L447.015 158.834L456.098 158.782Z" fill="white"/>
<path d="M463.232 203.412C467.361 198.163 467.675 189.236 464.109 177.373C461.108 167.394 456.386 158.747 456.336 158.658C456.298 158.602 456.241 158.561 456.175 158.545C456.109 158.529 456.04 158.538 455.98 158.57C455.921 158.603 455.876 158.657 455.854 158.721C455.832 158.785 455.836 158.855 455.863 158.917C456.052 159.26 474.503 193.239 461.24 204.728C451.459 213.195 419.282 196.114 416.747 194.745L418.469 178.004L448.438 185.85C448.479 185.861 448.522 185.862 448.564 185.853C448.605 185.843 448.644 185.825 448.676 185.797C448.71 185.77 448.737 185.736 448.754 185.696C448.772 185.657 448.779 185.613 448.776 185.57L447.284 158.817C447.282 158.782 447.273 158.748 447.258 158.716C447.243 158.684 447.221 158.656 447.195 158.632C447.169 158.609 447.138 158.591 447.105 158.579C447.072 158.567 447.036 158.562 447.001 158.564C446.966 158.566 446.932 158.575 446.9 158.59C446.868 158.605 446.84 158.627 446.816 158.653C446.793 158.679 446.774 158.71 446.763 158.743C446.751 158.777 446.746 158.812 446.748 158.847L448.218 185.232L418.301 177.409C418.262 177.398 418.222 177.395 418.183 177.402C418.143 177.409 418.106 177.424 418.074 177.448C418.042 177.47 418.015 177.498 417.995 177.532C417.975 177.565 417.962 177.602 417.958 177.641L416.186 194.872C416.183 194.924 416.195 194.975 416.221 195.021C416.247 195.066 416.285 195.102 416.331 195.126C422.345 198.341 428.568 201.149 434.957 203.53C448.247 208.389 457.217 208.925 461.601 205.12C462.197 204.604 462.743 204.032 463.232 203.412V203.412Z" fill="#111111"/>
<path d="M451.399 194.126C451.399 194.126 448.705 189.161 448.505 185.588L451.399 194.126Z" fill="white"/>
<path d="M451.512 194.368C451.45 194.397 451.38 194.401 451.315 194.379C451.25 194.358 451.195 194.312 451.163 194.252C451.051 194.048 448.437 189.194 448.237 185.603C448.232 185.566 448.235 185.528 448.246 185.493C448.256 185.457 448.274 185.424 448.297 185.395C448.321 185.367 448.351 185.343 448.384 185.327C448.417 185.31 448.453 185.3 448.49 185.298C448.527 185.296 448.565 185.302 448.599 185.315C448.634 185.328 448.666 185.348 448.693 185.374C448.72 185.399 448.741 185.43 448.755 185.465C448.769 185.499 448.776 185.536 448.775 185.573C448.968 189.044 451.608 193.946 451.635 193.996C451.652 194.027 451.663 194.061 451.667 194.096C451.671 194.131 451.668 194.167 451.658 194.201C451.648 194.235 451.631 194.267 451.609 194.294C451.587 194.322 451.559 194.345 451.528 194.361L451.512 194.368Z" fill="#111111"/>
<path d="M466.84 161.205L452.349 158.093V144.53L466.854 141.818L466.84 161.205Z" fill="#E0E0E1"/>
<path d="M344.242 344.946H336.315C336.335 345.337 336.349 345.73 336.349 346.125C336.349 356.097 329.891 364.178 321.925 364.178V328.063C321.925 328.063 332.962 322.838 348.176 328.635C352.119 330.143 344.242 344.946 344.242 344.946Z" fill="#F85052"/>
<path d="M329.789 336.781C329.789 336.742 329.798 336.703 329.814 336.668C329.845 336.602 329.901 336.552 329.969 336.527C330.037 336.503 330.112 336.506 330.177 336.536C333.342 338.01 334.916 340.209 335.679 341.792C336.172 342.775 336.48 343.839 336.587 344.934C336.59 345.006 336.564 345.076 336.516 345.129C336.468 345.183 336.4 345.215 336.329 345.22C336.257 345.223 336.186 345.197 336.133 345.149C336.08 345.1 336.048 345.033 336.045 344.961C336.045 344.909 335.706 339.711 329.946 337.029C329.899 337.007 329.859 336.972 329.832 336.928C329.804 336.884 329.789 336.833 329.789 336.781V336.781Z" fill="#ECEFF2"/>
<path d="M465.832 341.861V349.788C466.223 349.768 466.616 349.754 467.013 349.754C476.983 349.754 485.067 356.212 485.067 364.178H448.951C448.951 364.178 443.156 357.075 448.951 341.861C450.459 337.92 465.832 341.861 465.832 341.861Z" fill="#F85052"/>
<path d="M457.671 356.315C457.632 356.316 457.593 356.307 457.558 356.29C457.493 356.26 457.442 356.204 457.417 356.137C457.393 356.069 457.396 355.994 457.426 355.929C458.9 352.763 461.099 351.188 462.682 350.425C463.665 349.932 464.729 349.624 465.823 349.517C465.895 349.515 465.965 349.541 466.019 349.589C466.072 349.637 466.104 349.704 466.11 349.776C466.113 349.848 466.087 349.918 466.039 349.971C465.99 350.024 465.923 350.056 465.851 350.06C465.799 350.06 460.602 350.398 457.919 356.158C457.897 356.205 457.862 356.245 457.818 356.273C457.774 356.301 457.723 356.315 457.671 356.315V356.315Z" fill="#ECEFF2"/>
<path d="M406.025 267.617C406.025 267.617 462.488 249.61 480.864 260.533C499.24 271.456 473.346 343.642 473.346 343.642C473.346 343.642 465.264 348.639 443.24 344.476L452.049 293.718C452.049 293.718 404.917 310.325 392.892 294.127C384.151 282.35 392.235 267.031 406.025 267.617Z" fill="#263238"/>
<path d="M408.996 270.689C408.996 270.689 431.368 338.269 422.48 357.71C413.592 377.151 343.932 354.376 343.932 354.376C343.932 354.376 340.663 339.18 346.712 325.912L387.965 330.455C387.965 330.455 360.079 276.756 371.838 260.831C380.549 249.04 408.099 256.909 408.996 270.689Z" fill="#1E2A31"/>
<path d="M444.181 184.64C444.181 184.64 404.038 152.688 371.318 183.066C358.096 195.343 365.853 284.728 365.853 284.728C416.19 291.627 438.225 259.663 438.225 259.663C438.225 259.663 439.563 229.853 435.593 201.362C439.159 198.603 443.329 193.535 444.181 184.64Z" fill="#F85052"/>
<path d="M399.786 174.708L402.367 174.618C404.882 174.531 406.85 172.421 406.762 169.906L406.439 160.597C406.351 158.082 404.242 156.114 401.727 156.201L399.146 156.291C396.631 156.378 394.663 158.488 394.75 161.003L395.074 170.312C395.161 172.827 397.271 174.795 399.786 174.708Z" fill="white"/>
<path d="M399.635 175.019C398.368 175.014 397.152 174.52 396.242 173.639C395.332 172.757 394.798 171.558 394.752 170.292L394.429 160.979C394.388 159.682 394.862 158.422 395.747 157.473C396.632 156.524 397.857 155.965 399.154 155.916L401.734 155.828C403.03 155.788 404.29 156.262 405.237 157.148C406.185 158.034 406.743 159.258 406.79 160.554L407.113 169.867C407.154 171.164 406.68 172.425 405.795 173.373C404.91 174.322 403.685 174.882 402.388 174.93L399.808 175.019H399.635ZM401.907 156.507H401.759L399.179 156.598C398.062 156.64 397.007 157.122 396.245 157.939C395.483 158.756 395.075 159.842 395.111 160.959L395.433 170.272C395.472 171.389 395.954 172.446 396.771 173.209C397.589 173.973 398.676 174.38 399.794 174.342L402.375 174.251C403.491 174.209 404.546 173.727 405.308 172.91C406.071 172.092 406.478 171.007 406.443 169.89L406.12 160.577C406.08 159.484 405.617 158.449 404.829 157.691C404.041 156.932 402.989 156.509 401.895 156.511L401.907 156.507Z" fill="#060633"/>
<path d="M391.209 155.009C395.586 163.222 403.97 167.297 409.932 164.11C415.895 160.924 416.313 150.314 412.806 143.472C408.563 135.188 400.045 131.184 394.082 134.371C388.12 137.557 386.832 146.798 391.209 155.009Z" fill="white"/>
<path d="M405.498 165.539C404.306 165.531 403.122 165.347 401.984 164.992C397.621 163.665 393.48 159.995 390.909 155.172C386.452 146.809 387.804 137.344 393.923 134.075C396.356 132.774 399.231 132.583 402.236 133.523C406.6 134.886 410.666 138.552 413.108 143.318C416.742 150.391 416.203 161.146 410.093 164.41C408.679 165.162 407.1 165.55 405.498 165.539V165.539ZM391.509 154.863C394.007 159.531 397.987 163.079 402.184 164.356C404.935 165.192 407.561 165.008 409.775 163.824C412.437 162.402 414.146 159.318 414.586 155.141C414.993 151.279 414.214 146.975 412.506 143.64C410.143 139.032 406.23 135.495 402.037 134.184C399.209 133.298 396.515 133.471 394.243 134.684C388.456 137.778 387.229 146.829 391.518 154.863H391.509Z" fill="#060633"/>
<path d="M398.121 137.764C398.121 137.764 401.555 141.666 399.07 143.619C396.585 145.573 394.455 142.897 394.455 142.897C394.455 142.897 400.047 147.967 396.681 150.704C393.314 153.441 389.9 147.002 389.9 147.002L390.477 140.583L398.121 137.764Z" fill="#EF866C"/>
<path d="M397.933 140.535C397.933 140.535 406.046 146.936 413.765 139.695C413.765 139.695 417.801 132.949 407.268 129.767C407.268 129.767 404.227 128.735 401.422 129.51C401.422 129.51 405.39 127.693 402.728 125.839C400.066 123.986 395.325 125.555 391.271 129.462C391.271 129.462 392.677 125.499 388.999 125.828C385.322 126.157 381.958 129.374 382.362 135.345C382.362 135.345 381.472 133.864 380.091 134.11C378.71 134.355 379.709 136.177 380.999 136.563C380.999 136.563 377.531 135.543 377.413 137.081C377.295 138.618 380.559 138.162 380.559 138.162C380.559 138.162 374.312 151.956 387.041 155.734C387.041 155.734 383.602 160.694 390.805 158.325C390.805 158.325 391.346 162.118 393.787 158.882C393.787 158.882 392.945 158.069 393.308 153.453C393.488 151.288 397.933 140.535 397.933 140.535Z" fill="#455A64"/>
<path d="M406.695 156.511C405.837 156.509 404.988 156.339 404.196 156.009C404.138 155.984 404.091 155.937 404.066 155.878C404.042 155.819 404.041 155.752 404.065 155.693C404.076 155.664 404.094 155.637 404.117 155.614C404.139 155.592 404.166 155.574 404.195 155.561C404.224 155.549 404.256 155.543 404.288 155.543C404.319 155.543 404.351 155.549 404.38 155.561C407.419 156.817 410.077 155.087 410.104 155.068C410.158 155.038 410.221 155.028 410.281 155.043C410.341 155.057 410.394 155.093 410.428 155.145C410.462 155.196 410.475 155.259 410.465 155.32C410.454 155.381 410.421 155.435 410.372 155.473C409.264 156.147 407.992 156.506 406.695 156.511Z" fill="#060633"/>
<path d="M404.674 157.08C404.631 157.08 404.589 157.069 404.553 157.047C404.516 157.026 404.486 156.995 404.465 156.958C403.813 155.822 404.038 154.932 404.047 154.895C404.055 154.865 404.069 154.836 404.088 154.811C404.107 154.785 404.131 154.764 404.159 154.748C404.186 154.732 404.216 154.721 404.248 154.717C404.279 154.713 404.311 154.715 404.342 154.723C404.373 154.731 404.402 154.745 404.427 154.764C404.452 154.783 404.473 154.807 404.49 154.835C404.506 154.862 404.516 154.892 404.52 154.924C404.525 154.955 404.523 154.987 404.515 155.018C404.515 155.048 404.337 155.759 404.885 156.717C404.901 156.745 404.911 156.775 404.915 156.807C404.919 156.838 404.917 156.87 404.908 156.901C404.9 156.931 404.885 156.96 404.866 156.985C404.846 157.01 404.822 157.031 404.794 157.046C404.758 157.069 404.716 157.081 404.674 157.08V157.08Z" fill="#060633"/>
<path d="M403.49 146.536C403.544 146.516 403.589 146.48 403.621 146.433C403.653 146.386 403.669 146.33 403.667 146.273C403.665 146.216 403.646 146.161 403.611 146.116C403.577 146.071 403.529 146.038 403.475 146.021C403.391 145.996 401.489 145.217 400.047 147.107C400.003 147.164 399.983 147.236 399.992 147.308C400 147.379 400.036 147.445 400.092 147.49C400.151 147.529 400.221 147.546 400.29 147.538C400.359 147.53 400.424 147.498 400.472 147.447C401.639 146.502 403.247 146.521 403.318 146.539C403.374 146.557 403.435 146.557 403.49 146.536V146.536Z" fill="#31313B"/>
<path d="M401.616 149.698C401.654 150.345 402.07 150.849 402.524 150.833C402.979 150.817 403.342 150.263 403.306 149.614C403.269 148.964 402.851 148.462 402.397 148.478C401.943 148.494 401.579 149.053 401.616 149.698Z" fill="#31313B"/>
<path d="M409.324 147.905C409.36 148.552 409.778 149.056 410.232 149.041C410.686 149.025 411.052 148.468 411.013 147.821C410.975 147.173 410.559 146.667 410.105 146.685C409.651 146.703 409.289 147.257 409.324 147.905Z" fill="#31313B"/>
<path d="M393.56 155.206C395.045 155.93 396.674 155.635 397.194 154.549C397.714 153.464 396.669 151.892 395.45 151.276C393.975 150.529 392.336 150.847 391.815 151.933C391.295 153.018 392.072 154.483 393.56 155.206Z" fill="white"/>
<path d="M449.221 162.131L409.743 153.851C407.093 153.851 404.926 151.58 404.926 148.822C404.926 146.058 407.093 143.796 409.743 143.796L450.057 140.843C452.708 140.843 457.346 146.067 457.346 148.825C457.337 151.589 451.872 162.131 449.221 162.131Z" fill="#DADADF"/>
<path d="M449.732 162.187C454.344 162.187 458.082 157.408 458.082 151.513C458.082 145.618 454.344 140.84 449.732 140.84C445.121 140.84 441.382 145.618 441.382 151.513C441.382 157.408 445.121 162.187 449.732 162.187Z" fill="#D9D9E1"/>
<path d="M449.732 160.934C453.739 160.934 456.987 156.781 456.987 151.657C456.987 146.534 453.739 142.381 449.732 142.381C445.726 142.381 442.478 146.534 442.478 151.657C442.478 156.781 445.726 160.934 449.732 160.934Z" fill="#19324E"/>
<path d="M467.629 160.113C471.287 160.113 474.252 156.321 474.252 151.645C474.252 146.968 471.287 143.177 467.629 143.177C463.971 143.177 461.005 146.968 461.005 151.645C461.005 156.321 463.971 160.113 467.629 160.113Z" fill="#19324E"/>
<path d="M439.37 167.714C439.37 167.714 433.805 218.367 415.066 225.656C400.72 231.228 375.019 204.148 375.019 204.148L384.952 186.546L409.256 202.901C409.256 202.901 425.069 180.254 428.44 171.755C428.916 170.627 428.929 169.357 428.474 168.22L439.37 167.714Z" fill="white"/>
<path d="M410.736 226.95C405.132 226.95 397.995 223.77 389.441 217.451C384.226 213.538 379.319 209.23 374.763 204.565C374.71 204.509 374.677 204.438 374.667 204.362C374.658 204.286 374.673 204.209 374.711 204.142L384.644 186.541C384.668 186.498 384.701 186.461 384.74 186.431C384.78 186.401 384.825 186.38 384.873 186.369C384.921 186.357 384.971 186.356 385.02 186.365C385.068 186.374 385.114 186.393 385.155 186.421L409.159 202.575C411.008 199.911 424.994 179.634 428.105 171.793C428.539 170.757 428.552 169.594 428.142 168.549C428.121 168.507 428.109 168.461 428.106 168.414C428.103 168.367 428.11 168.32 428.125 168.276C428.14 168.232 428.164 168.191 428.195 168.155C428.226 168.12 428.264 168.092 428.306 168.071C428.349 168.05 428.394 168.038 428.441 168.035C428.488 168.033 428.535 168.039 428.58 168.054C428.624 168.07 428.665 168.093 428.7 168.125C428.735 168.156 428.764 168.193 428.785 168.236C429.033 168.843 429.158 169.493 429.154 170.148C429.15 170.804 429.017 171.452 428.762 172.056C425.414 180.499 409.696 203.048 409.537 203.275C409.483 203.352 409.402 203.405 409.309 203.423C409.217 203.44 409.121 203.42 409.044 203.368L385.069 187.241L375.456 204.276C377.789 206.675 401.6 230.684 414.931 225.507C420.199 223.463 427.767 216.342 433.9 194.044C437.584 180.642 439.001 167.986 439.015 167.859C439.028 167.766 439.076 167.683 439.15 167.625C439.224 167.568 439.316 167.542 439.409 167.552C439.502 167.562 439.587 167.608 439.646 167.679C439.706 167.751 439.735 167.843 439.728 167.936C439.712 168.063 438.29 180.788 434.59 194.234C429.593 212.367 423.076 223.113 415.19 226.175C413.766 226.708 412.256 226.97 410.736 226.95V226.95Z" fill="#111111"/>
<path d="M423.418 159.167C423.043 156.471 423.084 153.55 424.428 153.779C425.36 153.938 426.175 157.482 427.136 158.904C427.054 156.58 427.116 154.172 427.47 152.139C427.867 149.868 429.387 147.208 430.97 146.938C433.03 146.586 431.54 150.465 431.54 150.465C433.285 146.034 438.911 145.014 435.22 149.518C438.025 146.597 440.496 147.726 439.199 149.25C438.85 149.664 438.452 150.222 438.139 150.561C438.184 150.533 439.854 149.298 440.41 150.363C440.985 151.474 439.86 152.058 439.311 155.033C438.175 161.148 442.618 158.781 439.374 167.885L431.652 169.402C431.652 169.402 428.899 168.748 428.912 168.687L428.147 168.192C428.147 168.192 428.092 168.219 428.081 168.144C427.455 167.099 426.765 166.094 426.014 165.134C424.408 163.181 423.736 161.443 423.418 159.167Z" fill="white"/>
<path d="M436.51 155.441C436.689 153.265 436.798 151.647 438.75 149.776C440.794 147.825 438.268 146.289 435.463 149.208L436.51 155.441Z" fill="white"/>
<path d="M436.51 155.799H436.481C436.434 155.796 436.388 155.783 436.346 155.761C436.304 155.74 436.267 155.71 436.237 155.674C436.206 155.639 436.183 155.597 436.169 155.552C436.155 155.507 436.15 155.46 436.154 155.413V155.331C436.333 153.169 436.474 151.47 438.498 149.519C438.952 149.065 439.193 148.624 439.111 148.315C439.082 148.229 439.03 148.153 438.961 148.094C438.892 148.035 438.808 147.996 438.718 147.981C438.137 147.829 436.999 148.124 435.718 149.46C435.65 149.526 435.559 149.564 435.464 149.564C435.37 149.564 435.279 149.526 435.211 149.46C435.178 149.427 435.151 149.387 435.133 149.344C435.115 149.3 435.105 149.254 435.105 149.207C435.105 149.159 435.115 149.113 435.133 149.069C435.151 149.026 435.178 148.986 435.211 148.953C436.706 147.397 438.1 147.068 438.909 147.279C439.123 147.324 439.321 147.426 439.481 147.575C439.641 147.724 439.758 147.914 439.817 148.124C439.906 148.46 439.917 149.155 439.009 150.025C437.178 151.781 437.053 153.292 436.883 155.381V155.463C436.877 155.557 436.835 155.644 436.765 155.707C436.695 155.77 436.604 155.803 436.51 155.799Z" fill="#111111"/>
<path d="M427.338 161.225C427.338 161.225 426.856 157.999 427.47 152.139C427.749 149.474 430.096 147.078 430.97 146.937C432.149 146.746 432.333 148.137 431.481 150.64C430.945 152.259 430.648 153.948 430.6 155.653L427.338 161.225Z" fill="white"/>
<path d="M427.338 161.582C427.252 161.582 427.169 161.551 427.104 161.494C427.039 161.438 426.996 161.36 426.984 161.275C426.963 161.141 426.505 157.936 427.116 152.101C427.399 149.375 429.807 146.761 430.913 146.584C431.114 146.536 431.324 146.544 431.52 146.606C431.717 146.668 431.892 146.783 432.029 146.938C432.549 147.556 432.483 148.839 431.82 150.756C431.299 152.338 431.009 153.987 430.959 155.651C430.959 155.698 430.95 155.745 430.931 155.788C430.913 155.832 430.887 155.871 430.854 155.904C430.82 155.937 430.781 155.963 430.737 155.981C430.694 155.999 430.647 156.008 430.6 156.008V156.008C430.553 156.008 430.506 155.998 430.463 155.98C430.419 155.962 430.38 155.936 430.347 155.902C430.314 155.869 430.288 155.83 430.27 155.786C430.252 155.742 430.243 155.696 430.243 155.649C430.291 153.904 430.598 152.177 431.152 150.522C431.786 148.678 431.742 147.699 431.49 147.399C431.454 147.356 431.354 147.238 431.036 147.29C430.395 147.392 428.101 149.625 427.836 152.176C427.236 157.911 427.697 161.139 427.702 161.171C427.715 161.265 427.69 161.36 427.634 161.436C427.577 161.512 427.493 161.563 427.399 161.577L427.338 161.582Z" fill="#111111"/>
<path d="M433.593 154.958C433.593 154.958 433 152.232 435.21 149.518C438.901 145.002 433.059 146.138 431.531 150.465L433.593 154.958Z" fill="white"/>
<path d="M433.594 155.315C433.512 155.315 433.433 155.287 433.369 155.236C433.306 155.184 433.262 155.113 433.244 155.033C433.219 154.913 432.642 152.094 434.934 149.289C436.011 147.972 436.129 147.292 436.029 147.097C435.965 146.979 435.734 146.981 435.636 146.988C434.591 147.061 432.647 148.383 431.87 150.581C431.855 150.626 431.831 150.668 431.8 150.703C431.77 150.739 431.732 150.768 431.69 150.789C431.648 150.81 431.602 150.823 431.555 150.826C431.507 150.829 431.46 150.824 431.415 150.809C431.371 150.794 431.329 150.77 431.294 150.739C431.258 150.708 431.229 150.671 431.208 150.628C431.187 150.586 431.174 150.54 431.171 150.493C431.167 150.446 431.173 150.399 431.188 150.354C432.076 147.835 434.312 146.373 435.581 146.286C436.263 146.236 436.551 146.575 436.656 146.779C436.981 147.404 436.585 148.405 435.481 149.755C433.417 152.28 433.932 154.868 433.937 154.893C433.956 154.985 433.939 155.082 433.887 155.162C433.836 155.241 433.755 155.297 433.662 155.317C433.639 155.319 433.616 155.319 433.594 155.315V155.315Z" fill="#111111"/>
<path d="M439.371 167.884C442.615 158.78 438.539 161.204 439.307 155.032C439.664 152.161 440.981 151.473 440.407 150.362C439.85 149.285 437.865 150.766 437.865 150.766L439.371 167.884Z" fill="white"/>
<path d="M439.37 168.242C439.329 168.242 439.288 168.235 439.25 168.222C439.16 168.191 439.085 168.127 439.043 168.042C439 167.957 438.993 167.858 439.023 167.768C440.885 162.543 440.279 161.228 439.634 159.836C439.157 158.8 438.614 157.628 438.941 154.991C439.076 153.939 439.383 152.916 439.849 151.963C440.174 151.243 440.304 150.934 440.09 150.53C440.069 150.484 440.038 150.443 439.999 150.411C439.959 150.379 439.913 150.357 439.863 150.346C439.386 150.237 438.462 150.78 438.087 151.059C438.01 151.112 437.916 151.133 437.825 151.118C437.733 151.103 437.65 151.053 437.595 150.979C437.539 150.904 437.515 150.811 437.526 150.719C437.538 150.627 437.585 150.543 437.657 150.484C437.803 150.378 439.095 149.435 440.024 149.649C440.176 149.682 440.318 149.749 440.44 149.844C440.562 149.94 440.662 150.062 440.731 150.201C441.108 150.93 440.842 151.516 440.504 152.258C440.069 153.146 439.786 154.099 439.665 155.08C439.363 157.515 439.838 158.541 440.297 159.536C441.003 161.062 441.671 162.507 439.711 168.009C439.686 168.078 439.639 168.138 439.578 168.18C439.517 168.222 439.444 168.244 439.37 168.242V168.242Z" fill="#111111"/>
<path d="M428.528 168.49C428.528 168.49 427.59 167.089 426 165.133C424.41 163.177 423.729 161.442 423.418 159.166C423.043 156.47 423.084 153.549 424.428 153.778C425.435 153.949 425.959 157.64 427.025 158.775L428.528 168.49Z" fill="white"/>
<path d="M428.527 168.85C428.469 168.849 428.411 168.835 428.359 168.807C428.307 168.779 428.263 168.739 428.23 168.691C428.23 168.677 427.283 167.278 425.731 165.361C424.18 163.444 423.419 161.686 423.074 159.214C422.847 157.558 422.599 154.642 423.555 153.713C423.677 153.591 423.827 153.501 423.992 153.451C424.157 153.401 424.331 153.393 424.5 153.427C425.254 153.554 425.672 154.728 426.156 156.089C426.488 157.016 426.862 158.067 427.292 158.528C427.357 158.598 427.391 158.69 427.388 158.784C427.385 158.879 427.344 158.969 427.275 159.034C427.205 159.098 427.113 159.133 427.018 159.13C426.924 159.127 426.834 159.086 426.769 159.017C426.233 158.446 425.861 157.37 425.477 156.327C425.175 155.478 424.716 154.19 424.375 154.131C424.317 154.117 424.257 154.119 424.2 154.135C424.143 154.152 424.092 154.183 424.05 154.226C423.539 154.721 423.433 156.641 423.778 159.117C424.107 161.477 424.809 163.101 426.276 164.909C427.866 166.853 428.816 168.277 428.825 168.293C428.851 168.332 428.869 168.376 428.879 168.422C428.888 168.468 428.888 168.515 428.879 168.561C428.87 168.607 428.852 168.651 428.826 168.69C428.8 168.729 428.766 168.762 428.727 168.788C428.668 168.828 428.599 168.849 428.527 168.85Z" fill="#111111"/>
<path d="M427.339 161.45C427.283 161.45 427.229 161.43 427.187 161.393C427.145 161.357 427.118 161.306 427.111 161.25L426.807 158.493C426.804 158.463 426.806 158.433 426.815 158.404C426.823 158.375 426.837 158.348 426.856 158.325C426.894 158.278 426.949 158.247 427.009 158.241C427.069 158.234 427.13 158.252 427.177 158.289C427.224 158.327 427.255 158.383 427.261 158.443L427.566 161.2C427.571 161.259 427.554 161.319 427.516 161.365C427.479 161.411 427.425 161.441 427.366 161.448L427.339 161.45Z" fill="#111111"/>
<path d="M409.392 211.098C409.329 211.098 409.267 211.082 409.212 211.05C409.158 211.019 409.112 210.974 409.081 210.919C407.243 207.716 408.835 203.144 408.903 202.951C408.935 202.861 409.002 202.787 409.088 202.745C409.175 202.704 409.274 202.699 409.365 202.731C409.455 202.763 409.529 202.829 409.57 202.916C409.612 203.002 409.617 203.101 409.585 203.192C409.569 203.235 408.036 207.648 409.708 210.562C409.755 210.645 409.767 210.742 409.742 210.834C409.718 210.925 409.658 211.003 409.576 211.051C409.52 211.083 409.456 211.099 409.392 211.098V211.098Z" fill="#111111"/>
<path d="M377.417 216.522C377.417 216.522 363.179 196.351 373.401 186.634C383.622 176.917 394.491 185.498 394.491 185.498C394.491 185.498 394.561 206.257 377.417 216.522Z" fill="#F85052"/>
<path d="M422.275 142.34C421.771 142.689 421.487 142.932 421.487 142.932H436.424C430.712 137.404 424.445 140.838 422.275 142.34Z" fill="#D2D2D8"/>
</svg>
