<svg width="669" height="429" viewBox="0 0 669 429" fill="none" xmlns="http://www.w3.org/2000/svg">
<g clip-path="url(#clip0_1_12640)">
<path d="M448.99 165.331C452.148 165.331 454.707 162.77 454.707 159.611C454.707 156.452 452.148 153.891 448.99 153.891C445.833 153.891 443.273 156.452 443.273 159.611C443.273 162.77 445.833 165.331 448.99 165.331Z" fill="#E0E0E0"/>
<path d="M433.049 147.62C441.734 138.49 456.356 138.38 465.151 147.4C468.119 150.37 463.502 154.88 460.644 151.91C454.157 145.42 443.823 145.64 437.556 152.24C434.698 155.32 430.081 150.7 433.049 147.62V147.62Z" fill="#E0E0E0"/>
<path d="M413.48 120.889C423.485 112.199 435.468 106.699 448.881 106.699C462.183 106.589 475.266 111.539 484.941 120.669C488.019 123.529 483.401 128.039 480.323 125.179C471.858 117.259 460.424 113.079 448.881 113.079C437.227 113.189 426.783 117.919 417.988 125.509C414.909 128.149 410.292 123.639 413.48 120.889V120.889Z" fill="#E0E0E0"/>
<path d="M421.176 135.74C428.212 128.15 438.217 123.53 448.551 123.31C459.105 123.09 469.439 127.6 476.805 135.08C479.663 138.05 475.156 142.67 472.188 139.7C466.031 133.32 457.346 129.58 448.441 129.8C439.756 130.02 431.62 133.98 425.684 140.36C422.935 143.33 418.318 138.82 421.176 135.74V135.74Z" fill="#E0E0E0"/>
<path d="M12.7529 247.61L46.724 217.58L64.9739 230.89L103.782 190.85L160.841 247.39L12.7529 247.61Z" fill="#EBEBEB"/>
<path d="M487.358 247.61L539.03 219.23L608.621 235.73L652.157 190.85L709.215 247.39L487.358 247.61Z" fill="#EBEBEB"/>
<path d="M587.623 141.349C586.963 137.719 589.821 133.979 593.23 132.439C596.638 130.899 600.596 130.789 604.333 130.679C608.071 130.459 612.029 129.909 615.107 127.709C618.186 125.399 619.945 121.549 623.353 119.679C627.86 117.149 633.467 119.019 638.744 118.689C644.681 118.359 649.958 114.949 655.235 112.309C660.512 109.559 666.889 107.469 672.386 109.779C679.751 112.969 682.72 122.649 690.306 125.289C693.714 126.499 697.562 125.949 701.19 126.279C708.885 126.829 719.11 132.879 718.12 140.139L587.623 141.349Z" fill="#EBEBEB"/>
<path d="M14.8421 30.6891C14.1825 27.2791 16.821 23.8691 20.0092 22.4391C23.1975 20.8991 26.8254 20.8991 30.3435 20.6791C33.7516 20.5691 37.4895 20.1291 40.3479 18.0391C43.2063 15.8391 44.8554 12.3191 47.9337 10.5591C52.1114 8.13914 57.3884 10.0091 62.2258 9.67914C67.7227 9.23914 72.56 6.15914 77.5073 3.62914C82.4545 1.20914 88.3912 -0.770857 93.4484 1.42914C100.265 4.28914 103.013 13.3091 110.049 15.7291C113.237 16.9391 116.755 16.3891 120.164 16.6091C127.31 17.2691 136.874 22.7691 135.885 29.4791L14.8421 30.6891Z" fill="#F5F5F5"/>
<path d="M270.56 59.9492C270.12 57.8592 271.769 55.7692 273.748 54.8892C275.727 54.0092 278.036 53.8992 280.125 53.7892C282.323 53.6792 284.632 53.4592 286.391 52.1392C288.15 50.8192 289.14 48.6192 291.118 47.5192C293.757 46.0892 296.945 47.1892 299.914 46.9692C303.322 46.7492 306.4 44.7692 309.478 43.2292C312.447 41.6892 316.075 40.4792 319.263 41.9092C323.55 43.6692 325.2 49.2792 329.597 50.7092C331.576 51.4792 333.775 51.1492 335.864 51.2592C340.261 51.6992 346.198 55.1092 345.648 59.2892L270.56 59.9492Z" fill="#F5F5F5"/>
<path d="M583.116 40.0405C582.786 37.9505 584.325 35.8605 586.304 34.9805C588.283 33.9905 590.592 33.9905 592.791 33.8805C594.879 33.7705 597.188 33.4405 598.947 32.2305C600.706 30.9105 601.806 28.6005 603.674 27.6105C606.313 26.0705 609.501 27.1705 612.47 27.0605C615.988 26.8405 618.956 24.8605 622.034 23.3205C625.113 21.7805 628.741 20.5705 631.929 21.8905C636.106 23.6505 637.865 29.2605 642.153 30.8005C644.132 31.4605 646.331 31.1305 648.42 31.3505C652.927 31.6805 658.754 35.2005 658.204 39.2705L583.116 40.0405Z" fill="#F5F5F5"/>
<path d="M520.121 22.3305C520.121 22.4405 519.461 22.2205 518.362 22.0005C517.262 21.7805 515.613 21.5605 513.634 21.7805C511.765 22.1105 509.456 22.8805 507.368 24.6405C505.389 26.2905 503.63 28.7105 502.97 31.6805V31.7905L502.64 32.7805L502.31 31.7905C501.101 29.0405 499.122 26.7305 496.923 25.3005C494.725 23.8705 492.416 23.3205 490.437 23.1005C486.479 22.8805 484.061 24.0905 484.061 23.9805C484.061 23.8705 484.61 23.5405 485.71 23.2105C486.809 22.8805 488.458 22.5505 490.437 22.6605C492.526 22.7705 494.945 23.3205 497.253 24.7505C499.562 26.2905 501.761 28.6005 502.97 31.5705H502.2L502.31 31.4605C502.97 28.3805 504.839 25.7405 506.928 24.0905C509.127 22.3305 511.545 21.5605 513.634 21.3405C515.723 21.1205 517.372 21.3405 518.471 21.6705C519.571 22.0005 520.121 22.3305 520.121 22.3305V22.3305Z" fill="#E0E0E0"/>
<path d="M81.2451 118.25C81.3551 118.36 80.6954 118.91 79.706 120.12C78.7165 121.22 77.2873 122.98 75.8581 125.29C72.9997 129.91 70.0314 137.17 70.1413 145.53C70.1413 145.603 70.1413 145.677 70.1413 145.75H69.4817C68.2723 137.61 63.9847 131.01 60.1369 127.27C56.3989 123.42 53.3207 121.88 53.4306 121.77C53.4306 121.77 53.6138 121.843 53.9803 121.99C54.3101 122.21 54.8598 122.43 55.5194 122.87C56.7288 123.64 58.5977 124.96 60.5766 126.94C62.5555 128.81 64.6444 131.34 66.4034 134.53C68.1624 137.72 69.5916 141.57 70.1413 145.75H69.4817C69.4817 145.677 69.4817 145.603 69.4817 145.53C69.3717 136.95 72.45 129.58 75.4184 125.07C76.9575 122.76 78.3867 121 79.4861 119.9C80.0358 119.35 80.4756 118.91 80.8054 118.69C81.0985 118.397 81.2451 118.25 81.2451 118.25V118.25Z" fill="#E0E0E0"/>
<path d="M734.611 245.191C734.611 245.411 572.781 245.521 373.352 245.521C173.813 245.521 11.9834 245.411 11.9834 245.191C11.9834 245.081 173.813 244.971 373.352 244.971C572.781 244.971 734.611 245.081 734.611 245.191Z" fill="#455A64"/>
<path d="M264.073 257.949C264.073 258.059 219.328 258.169 164.139 258.169C108.949 258.169 64.2041 258.059 64.2041 257.949C64.2041 257.729 108.949 257.619 164.139 257.619C219.328 257.619 264.073 257.729 264.073 257.949Z" fill="#263238"/>
<path d="M226.694 267.631C226.694 267.741 205.146 267.961 178.651 267.961C152.045 267.961 130.607 267.741 130.607 267.631C130.607 267.521 152.045 267.301 178.651 267.301C205.146 267.301 226.694 267.521 226.694 267.631Z" fill="#263238"/>
<path d="M211.412 186.669C202.287 172.479 203.496 152.569 214.051 139.479C224.715 126.499 243.954 121.329 259.675 127.379C275.396 133.539 286.17 150.259 285.291 167.089C284.411 183.809 271.878 199.319 255.607 203.719C239.337 208.119 220.757 200.969 211.522 186.889" fill="#F85052"/>
<path d="M150.946 245.299L198.77 186.889L226.914 213.729L294.526 136.069L326.519 122.869L389.953 198.769L412.601 189.969L449.76 222.309L464.162 211.639L505.939 244.529L150.946 245.299Z" fill="#455A64"/>
<path d="M30.0133 371.8C29.7934 365.09 31.2226 358.49 33.9711 352.44C34.8506 350.35 36.1699 348.15 38.3686 347.49C40.1277 347.05 42.2165 347.82 43.5358 349.14C44.965 350.46 45.6246 352.33 46.0644 354.2C47.6035 360.47 45.9544 366.96 44.3053 373.12C43.6457 375.76 42.8761 378.62 40.8972 380.6C38.9183 382.58 34.6307 383.79 32.322 380.71C30.4531 378.18 30.0133 374.88 30.0133 371.8Z" fill="#F85052"/>
<g opacity="0.2">
<path opacity="0.2" d="M30.0133 371.8C29.7934 365.09 31.2226 358.49 33.9711 352.44C34.8506 350.35 36.1699 348.15 38.3686 347.49C40.1277 347.05 42.2165 347.82 43.5358 349.14C44.965 350.46 45.6246 352.33 46.0644 354.2C47.6035 360.47 45.9544 366.96 44.3053 373.12C43.6457 375.76 42.8761 378.62 40.8972 380.6C38.9183 382.58 34.6307 383.79 32.322 380.71C30.4531 378.18 30.0133 374.88 30.0133 371.8Z" fill="black"/>
</g>
<path d="M41.0076 396.551C44.6356 394.571 48.9232 394.241 52.9909 394.791C55.1897 395.121 57.4984 395.781 59.0376 397.321C60.4668 398.971 60.9065 401.831 59.1475 403.261C58.1581 404.141 56.8388 404.251 55.5195 404.251C52.3313 404.361 48.8132 403.811 46.2847 405.791C44.8555 407.001 43.9759 408.761 42.2169 409.311C40.5678 409.971 38.5889 408.981 37.7094 407.441C36.72 406.011 36.72 404.031 37.0498 402.381C37.2697 399.814 38.5889 397.871 41.0076 396.551V396.551Z" fill="#F85052"/>
<path d="M26.6055 384.999C24.8464 387.309 21.3284 387.639 17.9203 386.429C14.5122 385.219 11.8737 382.359 9.56494 379.609C6.70653 376.09 4.14129 372.386 1.86922 368.499C0.549953 366.189 -0.659374 363.549 0.549953 361.239C1.31953 359.589 2.96861 358.709 4.72763 358.489C6.37671 358.269 8.13573 358.71 9.78482 359.26C13.9625 360.58 17.9203 362.779 21.3284 365.639C24.1868 368.059 26.7154 371.14 27.8148 374.66C29.0241 378.29 28.5844 382.469 26.2756 385.329" fill="#F85052"/>
<path d="M33.3115 427.241C33.3115 426.361 33.3115 424.931 33.3115 423.281C33.4215 421.631 33.6413 419.651 33.9712 417.451C34.4109 415.141 35.0705 412.831 35.9501 410.411C36.8296 407.991 37.929 405.791 39.3582 404.031C40.7874 402.161 42.4364 400.951 43.9756 400.181C45.5147 399.411 46.834 399.191 47.8235 399.081C48.703 398.971 49.2527 398.971 49.2527 399.081C49.2527 399.081 48.703 399.191 47.8235 399.301C46.9439 399.411 45.6247 399.741 44.0855 400.511C42.6563 401.281 41.1172 402.601 39.7979 404.361C38.4787 406.121 37.3793 408.211 36.4998 410.631C35.6202 412.941 34.9606 415.361 34.5209 417.451C34.0811 419.651 33.9712 421.631 33.7513 423.281C33.678 424.894 33.6047 426.214 33.5314 427.241C33.4215 428.231 33.3115 428.781 33.3115 428.781C33.3115 428.781 33.3115 428.231 33.3115 427.241V427.241Z" fill="#263238"/>
<path d="M33.4214 425.041C33.3481 424.527 33.3114 423.867 33.3114 423.061C33.0916 421.411 32.9816 418.991 32.9816 416.021C32.8717 410.081 33.0916 401.831 33.8611 392.701C34.6307 383.571 35.84 375.431 37.0494 369.601C37.3425 368.134 37.5991 366.814 37.8189 365.641C38.1121 364.467 38.3686 363.477 38.5885 362.671C38.8084 361.937 38.9916 361.314 39.1382 360.801C39.2115 360.361 39.2848 360.141 39.3581 360.141C39.3581 360.141 39.3214 360.361 39.2481 360.801C39.1016 361.314 38.955 361.974 38.8084 362.781C38.5885 363.587 38.3686 364.577 38.1487 365.751C37.9289 366.851 37.709 368.134 37.4891 369.601C36.3897 375.541 35.2903 383.681 34.5208 392.811C33.7512 401.831 33.4214 410.081 33.4214 416.021C33.4214 418.991 33.4214 421.411 33.5313 423.061C33.5313 423.867 33.5313 424.527 33.5313 425.041C33.5313 425.481 33.5313 425.701 33.5313 425.701C33.5313 425.701 33.4947 425.481 33.4214 425.041V425.041Z" fill="#263238"/>
<path d="M32.8717 407.77C32.6518 406.56 32.4319 404.69 31.9922 402.38C31.4425 400.18 30.7828 397.54 29.9033 394.57C29.0238 391.71 27.8145 388.63 26.2753 385.44C23.4169 379.06 19.679 373.78 16.4908 370.59C13.1926 367.29 10.664 365.86 10.774 365.75C10.8839 365.75 11.4336 366.08 12.533 366.74C12.8262 366.96 13.1193 367.18 13.4125 367.4C13.7423 367.62 14.0721 367.95 14.4019 368.17C15.1715 368.83 15.9411 369.38 16.7107 370.26C20.1188 373.45 23.9666 378.73 26.825 385.22C28.3642 388.41 29.5735 391.49 30.453 394.46C31.3325 397.43 31.8822 400.07 32.322 402.38C32.7617 404.58 32.9816 406.45 33.0915 407.77C33.2015 409.09 33.2015 409.75 33.2015 409.75C33.0915 409.75 32.9816 409.09 32.8717 407.77V407.77Z" fill="#263238"/>
<path d="M302.771 395.45L263.633 428.89L221.856 380.38C225.081 377.887 237.028 382.323 257.696 393.69L281.883 371.25L302.771 395.45Z" fill="#F85052"/>
<path d="M272.648 406.891C273.198 408.101 272.758 409.641 271.549 410.301C270.449 410.851 268.91 410.411 268.251 409.201C267.701 408.101 268.251 406.121 269.46 405.681C270.669 405.241 272.538 405.901 272.758 407.221" fill="#E0E0E0"/>
<path d="M221.856 380.38C222.736 379.353 224.092 379.28 225.924 380.16L267.481 425.7L263.633 428.89L221.856 380.38Z" fill="#263238"/>
<path d="M259.236 395.889C259.565 398.089 258.466 399.629 258.246 399.519C257.916 399.409 258.466 397.869 258.136 396.109C257.916 394.239 257.037 392.919 257.257 392.699C257.367 392.479 258.906 393.689 259.236 395.889V395.889Z" fill="#263238"/>
<path d="M251.65 392.811C251.321 394.901 249.782 396.001 249.672 395.671C249.452 395.451 250.331 394.351 250.661 392.701C250.991 390.941 250.441 389.621 250.771 389.511C250.991 389.291 252.09 390.721 251.65 392.811V392.811Z" fill="#263238"/>
<path d="M243.515 389.18C244.174 387.86 244.284 386.54 244.614 386.43C244.834 386.43 245.274 387.97 244.504 389.62C243.735 391.38 242.305 392.04 242.195 391.82C241.976 391.6 242.965 390.61 243.515 389.18Z" fill="#263238"/>
<path d="M266.382 390.059C267.591 391.709 267.591 393.469 267.372 393.469C267.042 393.579 266.602 392.149 265.503 390.719C264.403 389.289 263.194 388.519 263.304 388.189C263.414 387.969 265.063 388.409 266.382 390.059V390.059Z" fill="#263238"/>
<path d="M543.318 106.04C541.339 104.94 540.019 102.85 539.69 100.65C539.36 98.4496 540.129 96.1396 541.669 94.4896C542.878 93.2796 544.527 92.5096 545.736 91.1896C546.616 90.0896 547.165 88.6596 547.935 87.4496C550.244 83.4896 554.641 80.8496 559.259 80.5196C563.876 80.0796 568.604 81.6196 572.232 84.4796C573.771 85.5796 575.09 86.8996 576.849 87.3396C578.608 87.8896 580.477 87.4496 582.236 87.4496C586.414 87.4496 590.591 89.8696 592.68 93.4996C594.879 97.1296 594.879 101.97 592.68 105.6C597.298 107.25 600.266 112.42 599.496 117.26C598.617 121.99 593.999 125.84 589.162 125.84C586.194 125.84 583.335 124.52 580.587 123.31C569.373 118.47 557.72 114.95 545.736 112.86" fill="#263238"/>
<path d="M530.015 168.521C524.518 162.911 522.429 155.981 521.11 146.961C519.901 137.941 522.979 129.801 531.224 121.661C535.035 117.921 539.14 115.354 543.537 113.961C541.339 112.494 540.532 110.111 541.119 106.811C541.888 101.971 550.793 100.651 557.5 100.871C565.745 101.091 573.881 102.961 581.246 106.481C586.304 108.901 591.031 112.091 593.779 116.821C596.528 121.661 598.177 126.061 594.549 130.241C600.046 136.951 601.585 147.731 601.365 156.421C601.255 165.001 597.847 173.581 592.13 180.071" fill="#F85052"/>
<path d="M537.161 185.459C536.721 187.549 535.292 189.419 533.203 190.079C531.004 190.739 528.586 189.639 527.157 187.879C525.398 185.899 524.848 182.929 525.837 180.509C526.497 179.079 527.706 177.979 529.026 177.429C529.795 176.879 530.675 176.769 531.664 176.989C531.884 176.989 532.104 177.026 532.324 177.099H532.104C533.313 177.429 534.632 178.199 535.512 179.079C537.161 180.729 537.711 183.259 537.161 185.459Z" fill="#455A64"/>
<path d="M552.772 257.18L550.134 229.35C549.914 222.31 549.474 209 549.474 209.11C539.653 207.716 533.606 200.64 531.334 187.88C529.575 178.42 529.685 162.8 530.235 149.93C530.674 138.49 537.93 124.19 549.474 125.18L585.424 133.32C588.832 133.65 591.581 136.62 591.581 140.03L589.382 209.44L552.772 257.18Z" fill="#E2A69D"/>
<path d="M537.161 168.3C538.497 168.3 539.58 167.265 539.58 165.99C539.58 164.714 538.497 163.68 537.161 163.68C535.825 163.68 534.742 164.714 534.742 165.99C534.742 167.265 535.825 168.3 537.161 168.3Z" fill="#263238"/>
<path d="M534.742 156.64C535.512 155.98 536.831 155.43 538.48 155.32C540.129 155.32 541.558 155.87 542.438 156.42C543.317 157.08 543.647 157.63 543.427 157.74C543.207 158.07 541.228 156.75 538.59 156.86C535.951 156.97 534.083 158.29 533.753 158.07C533.643 157.85 533.863 157.3 534.742 156.64V156.64Z" fill="#263238"/>
<path d="M561.897 168.3C563.233 168.3 564.316 167.265 564.316 165.99C564.316 164.714 563.233 163.68 561.897 163.68C560.561 163.68 559.479 164.714 559.479 165.99C559.479 167.265 560.561 168.3 561.897 168.3Z" fill="#263238"/>
<path d="M560.689 156.531C561.458 155.871 562.777 155.321 564.427 155.211C566.076 155.211 567.505 155.761 568.384 156.311C569.264 156.971 569.594 157.521 569.484 157.631C569.154 157.961 567.175 156.641 564.536 156.751C561.898 156.861 560.029 158.291 559.809 157.961C559.589 157.741 559.919 157.191 560.689 156.531V156.531Z" fill="#263238"/>
<path d="M546.286 177.87C545.956 177.87 545.516 177.87 545.076 177.76C544.637 177.65 544.197 177.21 543.977 176.77C543.647 175.78 544.087 174.9 544.307 174.13C544.893 172.443 545.48 170.683 546.066 168.85C548.704 161.48 551.013 155.54 551.343 155.65C551.673 155.76 549.804 161.81 547.165 169.29C546.506 171.05 545.883 172.773 545.296 174.46C544.966 175.23 544.747 176 544.857 176.44C544.966 176.88 545.626 176.99 546.286 177.1C549.034 177.32 550.683 177.65 550.573 177.76C550.573 177.87 548.924 177.87 546.286 177.87V177.87Z" fill="#263238"/>
<path d="M549.475 209.111C558.123 209.478 566.625 206.984 574.98 201.631C571.023 210.504 562.667 214.501 549.914 213.621L549.475 209.111Z" fill="#DC9389"/>
<path d="M551.124 184.031C552.443 182.161 554.422 181.061 556.401 181.061C557.83 181.061 559.149 181.721 559.919 182.931C560.688 184.031 560.798 185.901 560.029 187.111C559.039 188.651 557.28 189.091 555.741 188.761C554.202 188.431 552.993 187.441 551.783 186.451C551.454 186.231 551.124 185.901 550.904 185.461C550.794 185.131 550.684 184.581 551.014 184.141" fill="#DC9389"/>
<path d="M558.929 181.28C558.819 182.49 558.159 184.14 556.73 185.46C555.301 186.67 553.432 187.11 552.113 187.11C550.903 187.11 550.134 186.78 550.134 186.56C550.244 186.23 553.212 186.45 555.631 184.36C558.049 182.27 558.049 179.41 558.489 179.41C558.599 179.41 558.929 180.07 558.929 181.28Z" fill="#263238"/>
<path d="M560.138 149.381C561.238 148.941 562.887 148.611 564.756 148.721C566.625 148.941 568.274 149.491 569.263 150.151C570.363 150.811 570.802 151.471 570.583 151.801C570.143 152.461 567.724 151.691 564.536 151.361C561.458 151.141 558.819 151.471 558.489 150.811C558.379 150.481 558.929 149.821 560.138 149.381V149.381Z" fill="#263238"/>
<path d="M535.402 148.829C536.172 148.169 537.381 147.619 538.92 147.509C540.459 147.399 541.779 147.839 542.548 148.389C543.428 148.939 543.648 149.599 543.538 149.819C543.098 150.479 541.229 150.039 539.03 150.149C536.831 150.259 535.072 150.919 534.633 150.369C534.413 150.039 534.633 149.489 535.402 148.829V148.829Z" fill="#263238"/>
<path d="M546.286 130.46L555.081 125.73L578.608 126.39L591.251 132.99L596.858 147.51L590.921 179.63C589.309 168.484 585.388 158.547 579.158 149.82C569.703 136.547 559.002 130.167 547.056 130.68" fill="#F85052"/>
<path d="M582.236 131.34C553.432 125.29 530.895 135.41 527.267 157.96L521 143.33L535.402 124.96L551.563 120.23L584.545 124.3L582.236 131.34Z" fill="#F85052"/>
<path d="M596.968 184.25C596.529 186.45 594.989 188.54 592.791 189.2C590.372 189.86 587.843 188.76 586.194 186.89C584.325 184.69 583.776 181.5 584.875 178.86C585.535 177.43 586.854 176.22 588.283 175.56C589.053 175.01 590.042 174.9 591.032 175.12C591.325 175.12 591.581 175.157 591.801 175.23H591.581C592.901 175.67 594.22 176.44 595.209 177.43C596.968 179.08 597.518 181.83 596.968 184.25V184.25Z" fill="#455A64"/>
<path d="M589.272 166.65C589.932 166.1 590.811 165.22 591.471 163.9C592.131 162.58 592.461 160.71 591.911 158.84C591.691 157.96 591.251 156.97 591.031 155.76C590.702 154.66 590.921 153.23 591.801 152.24C592.68 151.36 593.89 150.81 594.769 150.26C595.722 149.746 596.528 149.123 597.188 148.39C598.397 146.85 598.947 145.09 599.057 143.66C599.277 140.58 598.067 138.93 598.287 138.93C598.287 138.93 598.617 139.26 598.947 140.03C599.277 140.8 599.717 142.12 599.607 143.66C599.607 145.31 599.057 147.18 597.738 148.83C597.078 149.71 596.199 150.48 595.209 150.92C594.22 151.58 593.12 152.02 592.461 152.79C591.691 153.56 591.581 154.66 591.801 155.65C591.911 156.64 592.351 157.74 592.571 158.73C593.23 160.82 592.68 162.8 591.911 164.12C591.141 165.55 590.152 166.43 589.382 166.87C588.613 167.31 588.173 167.42 588.173 167.42C588.063 167.31 588.503 167.09 589.272 166.65V166.65Z" fill="white"/>
<path d="M592.68 129.36C593.01 130.02 593.45 131.23 593.56 132.66C593.56 134.2 593.23 135.96 592.241 137.72C591.251 139.48 589.382 140.8 587.733 142.12C586.854 142.78 586.084 143.55 585.644 144.32C585.205 145.2 585.095 146.19 585.204 147.07C585.424 148.94 585.974 150.59 585.864 152.13C585.754 153.67 585.095 154.77 584.435 155.32C584.105 155.65 583.775 155.76 583.555 155.76C583.336 155.833 583.226 155.87 583.226 155.87C583.226 155.76 583.665 155.65 584.215 155.1C584.765 154.55 585.314 153.56 585.314 152.13C585.424 150.7 584.765 149.16 584.545 147.18C584.435 146.19 584.545 144.98 584.985 143.99C585.534 143 586.304 142.23 587.183 141.46C588.942 140.03 590.701 138.93 591.691 137.39C592.57 135.85 593.01 134.09 593.01 132.66C593.01 129.91 591.801 128.37 592.021 128.26C592.021 128.26 592.35 128.59 592.68 129.36V129.36Z" fill="white"/>
<path d="M572.891 142.34C573.331 142.12 573.771 141.68 573.661 140.8C573.661 140.03 573.111 139.15 572.891 137.94C572.781 137.28 573.001 136.51 573.441 135.96C573.881 135.41 574.54 134.97 575.09 134.64C576.299 134.09 577.289 133.43 577.948 132.55C578.608 131.78 578.938 130.79 579.158 130.02C579.487 128.37 579.158 127.27 579.377 127.27C579.377 127.27 579.927 128.26 579.707 130.13C579.597 131.01 579.268 132 578.498 132.99C577.838 133.98 576.629 134.75 575.53 135.41C574.32 135.96 573.551 136.84 573.661 137.83C573.661 138.82 574.21 139.81 574.21 140.8C574.21 141.35 574.1 141.79 573.881 142.12C573.551 142.34 573.331 142.56 573.001 142.67C572.451 142.78 572.231 142.45 572.231 142.45C572.231 142.45 572.561 142.56 572.891 142.34Z" fill="white"/>
<path d="M566.185 128.261C566.295 128.591 566.515 128.921 566.845 129.581C567.065 130.131 567.065 130.901 566.955 131.561C566.625 132.991 565.745 133.981 565.086 134.531C564.426 135.191 563.986 135.411 563.877 135.301C563.767 135.301 564.096 134.861 564.646 134.201C565.196 133.541 565.965 132.661 566.185 131.451C566.295 130.901 566.295 130.241 566.075 129.801C565.965 129.361 565.636 128.811 565.636 128.371C565.526 127.821 565.745 127.381 565.965 127.161C566.185 127.051 566.295 127.051 566.295 127.051C566.405 127.161 565.965 127.491 566.185 128.261V128.261Z" fill="white"/>
<path d="M538.04 118.029C538.37 118.469 538.81 119.019 539.36 119.789C539.909 120.559 540.239 121.879 539.909 123.199C539.69 124.409 539.14 125.729 539.25 127.049C539.25 128.369 539.69 129.689 540.349 130.679C541.009 131.669 541.778 132.329 542.548 132.769C544.197 133.649 545.406 133.649 545.406 133.869C545.406 133.869 544.087 134.089 542.328 133.319C541.449 132.879 540.459 132.109 539.69 131.009C538.92 130.019 538.48 128.589 538.48 127.049C538.37 125.509 539.03 124.189 539.25 123.089C539.47 121.879 539.36 120.889 538.92 120.119C538.48 119.239 538.041 118.689 537.711 118.249C537.491 117.699 537.381 117.479 537.381 117.479C537.491 117.369 537.601 117.589 538.04 118.029V118.029Z" fill="white"/>
<path d="M524.848 131.45C525.178 131.67 525.727 132.22 525.947 132.99C526.277 133.76 526.607 134.42 526.937 135.41C527.376 136.4 527.596 137.5 528.146 138.38C529.135 140.36 531.224 141.24 532.653 141.35C534.083 141.57 534.962 141.24 534.962 141.35C535.072 141.35 534.193 142.01 532.544 141.9C531.004 141.9 528.696 141.02 527.486 138.82C526.827 137.72 526.607 136.62 526.277 135.63C526.057 134.75 525.617 133.87 525.397 133.21C525.068 131.78 524.078 131.34 524.188 131.23C524.188 131.23 524.408 131.23 524.848 131.45Z" fill="white"/>
<path d="M525.068 152.35C526.937 152.79 528.366 151.8 528.476 151.91C528.586 152.02 528.366 152.46 527.707 152.79C527.047 153.12 526.057 153.34 524.958 153.12C523.749 152.79 522.979 152.13 522.539 151.58C522.1 150.92 522.1 150.48 522.1 150.48C522.319 150.37 523.199 151.91 525.068 152.35V152.35Z" fill="white"/>
<path d="M556.4 115.501C556.95 116.161 557.39 117.041 557.61 118.141C557.83 119.131 557.83 120.451 557.39 121.551C556.84 122.761 556.29 123.641 556.4 124.521C556.4 125.511 556.84 126.281 557.17 126.831C558.049 128.041 558.819 128.701 558.819 128.811C558.709 128.811 557.83 128.481 556.73 127.161C556.29 126.611 555.741 125.731 555.631 124.631C555.521 123.421 556.18 122.321 556.62 121.331C557.5 119.241 556.84 117.041 555.961 115.831C555.191 114.621 554.312 114.181 554.312 114.071C554.312 113.961 555.411 114.291 556.4 115.501Z" fill="white"/>
<path d="M571.463 123.42C571.353 121.11 572.232 119.35 572.452 119.46C572.672 119.46 572.122 121.22 572.232 123.42C572.342 125.62 573.002 127.27 572.782 127.38C572.562 127.49 571.573 125.84 571.463 123.42V123.42Z" fill="white"/>
<path d="M585.425 124.74C585.095 124.3 584.875 123.64 584.875 122.76C585.095 121 586.524 119.13 587.623 117.04C588.833 115.06 589.053 112.75 588.393 111.43C588.063 110.77 587.623 110.22 587.294 110C586.964 109.78 586.744 109.78 586.744 109.67C586.744 109.67 587.074 109.56 587.514 109.78C587.953 110 588.503 110.44 588.833 111.21C589.273 111.87 589.492 112.97 589.382 114.07C589.273 115.17 588.943 116.38 588.283 117.48C587.184 119.68 585.645 121.33 585.425 122.87C585.315 123.53 585.425 124.19 585.645 124.52C585.864 124.96 586.084 125.07 585.974 125.18C585.974 125.18 585.645 125.07 585.425 124.74V124.74Z" fill="white"/>
<path d="M566.955 116.711C566.625 116.381 565.856 116.051 565.636 115.061C565.636 113.081 567.725 111.431 569.374 109.891C570.253 109.011 571.023 108.131 571.133 107.251C571.353 106.371 570.913 105.381 570.583 104.721C569.923 103.291 569.374 102.411 569.484 102.411C569.484 102.301 570.253 103.071 571.133 104.501C571.462 105.161 572.012 106.151 571.902 107.361C571.792 108.571 570.803 109.561 569.923 110.441C569.044 111.321 568.164 111.981 567.395 112.751C566.735 113.521 566.185 114.401 566.185 114.951C566.295 115.611 566.845 116.161 567.065 116.491C567.431 116.784 567.578 116.967 567.505 117.041C567.505 117.041 567.321 116.931 566.955 116.711Z" fill="white"/>
<path d="M549.144 114.29C548.814 114.07 548.375 113.52 548.045 112.86C547.825 112.2 547.825 111.21 548.155 110.33C548.485 109.45 548.924 108.57 549.474 107.69C550.024 106.81 550.463 106.04 550.573 105.16C550.683 104.39 550.463 103.73 550.134 103.07C549.584 101.97 548.814 101.64 548.924 101.53C548.814 101.42 549.914 101.53 550.683 102.85C551.013 103.4 551.453 104.28 551.233 105.27C551.123 106.26 550.683 107.25 550.134 108.13C549.584 109.01 549.144 109.78 548.814 110.55C548.485 111.32 548.485 112.09 548.595 112.75C548.924 113.96 549.804 114.29 549.694 114.4C549.694 114.4 549.474 114.4 549.144 114.29V114.29Z" fill="white"/>
<path d="M545.736 113.74C547.165 113.63 549.144 113.52 551.673 113.52C556.73 113.63 563.766 114.51 571.022 117.15C578.278 119.79 584.324 123.42 588.502 126.17C590.701 127.6 592.35 128.7 593.449 129.58C594.549 130.35 595.208 130.9 595.208 130.9C595.098 130.9 594.439 130.57 593.339 129.8C591.947 128.993 590.261 127.93 588.282 126.61C583.995 123.97 577.948 120.56 570.802 117.92C563.546 115.28 556.62 114.29 551.673 114.07C549.144 113.96 547.165 113.96 545.736 114.07C544.307 114.07 543.537 114.07 543.537 113.96C543.537 113.96 544.307 113.85 545.736 113.74V113.74Z" fill="#263238"/>
<path d="M589.272 130.349C589.272 130.349 589.199 130.313 589.052 130.239C588.906 130.239 588.722 130.203 588.503 130.13C588.283 129.983 587.989 129.836 587.623 129.689C587.257 129.616 586.853 129.469 586.414 129.249C584.545 128.699 581.906 127.929 578.388 127.599C574.98 127.269 570.802 127.38 566.295 128.04C564.096 128.369 561.677 128.919 559.259 129.469C556.84 130.019 554.421 130.679 551.893 131.559C541.779 134.749 534.193 141.459 530.785 147.399C529.136 150.369 528.366 153.119 527.926 154.989C527.706 155.943 527.56 156.676 527.486 157.189C527.413 157.409 527.377 157.593 527.377 157.739C527.303 157.886 527.267 157.96 527.267 157.96C527.267 157.96 527.267 157.886 527.267 157.739C527.34 157.593 527.377 157.409 527.377 157.189C527.45 156.676 527.56 155.943 527.706 154.989C528.146 153.119 528.806 150.369 530.565 147.289C533.863 141.129 541.559 134.419 551.783 131.119C554.312 130.239 556.73 129.58 559.149 129.03C561.677 128.48 563.986 127.929 566.295 127.599C570.802 126.939 574.98 126.939 578.498 127.269C581.906 127.709 584.655 128.479 586.414 129.139C586.927 129.286 587.33 129.433 587.623 129.58C587.989 129.726 588.283 129.873 588.503 130.019C588.722 130.093 588.906 130.166 589.052 130.239C589.199 130.313 589.272 130.349 589.272 130.349V130.349Z" fill="#263238"/>
<path d="M551.783 131.449C551.783 131.449 552.003 131.449 552.443 131.449C552.809 131.523 553.396 131.596 554.202 131.669C555.741 131.889 557.94 132.439 560.468 133.539C565.526 135.849 572.012 140.469 577.179 147.179C579.818 150.479 581.796 153.999 583.555 157.299C585.205 160.489 586.634 163.459 587.623 166.099C588.723 168.629 589.272 170.829 589.712 172.369C589.859 173.103 589.969 173.689 590.042 174.129C590.115 174.496 590.115 174.679 590.042 174.679C590.042 174.679 590.005 174.496 589.932 174.129C589.859 173.689 589.712 173.103 589.492 172.369C589.052 170.829 588.393 168.739 587.403 166.209C586.304 163.679 584.875 160.709 583.116 157.409C581.357 154.219 579.378 150.699 576.849 147.399C571.682 140.799 565.306 136.179 560.358 133.869C557.83 132.659 555.631 132.109 554.202 131.889C553.396 131.743 552.809 131.633 552.443 131.559C552.003 131.559 551.783 131.523 551.783 131.449V131.449Z" fill="#263238"/>
<path d="M394.681 279.18L408.533 270.49L431.62 274.78L448.991 290.07L477.575 300.63L476.255 325.16C446.279 308.44 430.118 299.347 427.772 297.88C425.427 296.34 422.019 293.187 417.548 288.42L408.533 286.11H397.869C396.623 284.204 395.56 282.957 394.681 282.37C393.875 281.71 393.875 280.647 394.681 279.18V279.18Z" fill="#AB6E65"/>
<path d="M424.804 284.68C424.804 284.68 424.254 284.46 423.265 283.91C422.165 283.25 420.846 282.48 419.087 281.38L419.197 281.49C416.558 281.16 413.48 280.83 410.182 280.5C409.889 280.427 409.632 280.39 409.412 280.39H409.522C405.345 281.05 401.717 281.49 398.968 281.93C397.796 282.077 396.77 282.187 395.89 282.26C395.12 282.37 394.681 282.37 394.681 282.37C394.681 282.26 395.12 282.15 395.78 282.04C396.66 281.893 397.722 281.71 398.968 281.49C401.607 281.05 405.235 280.39 409.412 279.84C409.706 279.84 409.962 279.84 410.182 279.84C413.59 280.28 416.668 280.72 419.197 280.94H419.307V281.05C421.066 282.04 422.385 283.03 423.375 283.58C424.364 284.24 424.804 284.68 424.804 284.68Z" fill="#7C4B43"/>
<path d="M425.793 279.18C425.793 279.18 425.134 278.85 423.924 278.3C422.715 277.75 421.066 276.87 419.087 275.77H419.197C416.558 275.55 413.48 275.22 410.292 274.78C409.486 274.706 408.68 274.633 407.873 274.56H407.983C404.245 275.88 400.947 277.09 398.529 277.86C397.429 278.3 396.513 278.63 395.78 278.85C395.12 279.07 394.754 279.18 394.681 279.18C394.681 279.106 395.01 278.923 395.67 278.63C396.403 278.336 397.319 277.97 398.419 277.53C400.837 276.65 404.135 275.33 407.873 274.01H407.983C408.716 274.083 409.486 274.156 410.292 274.23C413.59 274.67 416.668 275 419.197 275.33H419.307C421.286 276.43 422.935 277.42 424.034 278.08C425.244 278.74 425.793 279.07 425.793 279.18V279.18Z" fill="#7C4B43"/>
<path d="M341.91 199.429L342.789 198.989C343.999 198.439 345.428 198.989 345.868 200.199L375.881 277.089L451.959 309.099C452.838 309.429 453.388 310.309 453.388 311.189C453.388 312.839 451.739 313.939 450.2 313.389L372.033 282.039C371.374 281.819 370.934 281.379 370.714 280.719L340.701 202.289C340.261 201.189 340.811 199.869 341.91 199.429V199.429Z" fill="#E0E0E0"/>
<path d="M261.435 375.101C322.634 325.087 354.773 298.687 357.851 295.901C362.468 291.831 370.274 287.211 382.147 286.111C390.063 285.451 437.007 306.461 522.979 349.141L549.364 405.901C538.004 420.641 521.99 425.664 501.321 420.971C470.978 414.041 451.959 399.961 437.337 386.871C428.468 378.877 410.438 364.211 383.247 342.871L290.788 408.431L261.435 375.101Z" fill="#19324E"/>
<path d="M383.247 342.87C383.429 342.87 383.577 338.93 383.577 334.07C383.577 329.209 383.429 325.27 383.247 325.27C383.065 325.27 382.917 329.209 382.917 334.07C382.917 338.93 383.065 342.87 383.247 342.87Z" fill="#455A64"/>
<path d="M511.216 310.531C511.362 301.364 513.048 291.978 516.273 282.371C519.498 272.691 529.649 256.814 546.726 234.741L547.935 228.581C566.772 215.748 578.352 208.231 582.676 206.031C586.927 203.904 590.555 202.878 593.56 202.951L594.439 209.221C604.7 219.414 610.161 229.901 610.82 240.681C611.333 249.334 611.297 266.531 610.71 292.271L606.863 428.451C547.642 428.598 515.247 428.451 509.677 428.011C504.18 427.571 501.651 426.398 502.091 424.491L512.315 340.781L511.216 310.531Z" fill="#F85052"/>
<path d="M596.088 266.75C589.052 283.91 548.595 333.85 541.668 338.8C537.051 342.1 518.105 342.063 484.83 338.69C480.213 339.79 475.925 337.113 471.967 330.66C467.35 322.96 470.538 303.6 472.077 296.01C472.407 294.25 474.056 293.04 475.815 293.26L525.507 296.12C545.15 263.78 558.562 243.87 565.745 236.39C572.854 228.837 579.304 223.117 585.094 219.23C611.37 218.68 603.014 249.59 596.088 266.75Z" fill="#F85052"/>
<path d="M596.089 266.75C596.015 266.97 595.906 267.226 595.759 267.52C595.539 267.96 595.246 268.62 594.879 269.5C594.55 270.38 593.89 271.37 593.23 272.69C592.864 273.276 592.497 273.936 592.131 274.67C591.691 275.403 591.215 276.136 590.702 276.87C586.854 283.25 580.807 292.05 572.782 302.61C568.824 307.89 564.316 313.61 559.259 319.77C556.767 322.776 554.165 325.856 551.454 329.01C550.024 330.66 548.705 332.2 547.166 333.85C546.433 334.656 545.7 335.426 544.967 336.16C544.198 336.93 543.428 337.7 542.549 338.47L541.889 339.02C541.596 339.166 541.339 339.313 541.119 339.46C540.57 339.68 540.02 339.9 539.47 340.01C538.371 340.34 537.271 340.45 536.172 340.67C533.863 341 531.555 341.11 529.246 341.22C524.519 341.33 519.791 341.22 514.954 341.11C505.279 340.67 495.165 340.01 484.831 339.02H484.941C482.632 339.35 480.213 338.69 478.124 337.48C476.036 336.27 474.277 334.51 472.847 332.42C471.748 330.99 470.868 329.34 470.429 327.47C469.916 325.71 469.586 323.913 469.439 322.08C469.219 318.56 469.329 314.93 469.549 311.41C469.842 307.89 470.282 304.406 470.868 300.96C471.162 299.273 471.491 297.586 471.858 295.9C472.188 294.14 474.057 292.71 475.926 293.04H475.816C493.956 294.03 510.666 295.02 525.508 295.9L525.288 296.01C536.172 277.86 545.517 263.12 552.443 253.11C555.961 248.05 558.71 244.2 560.798 241.67C561.788 240.35 562.667 239.47 563.217 238.81C563.583 238.443 563.877 238.15 564.097 237.93C563.877 238.15 563.583 238.48 563.217 238.92C562.667 239.58 561.898 240.46 560.908 241.78C558.929 244.31 556.071 248.16 552.663 253.22C545.847 263.34 536.502 278.08 525.728 296.23L525.618 296.34H525.508C510.666 295.46 493.846 294.58 475.816 293.59C474.276 293.37 472.627 294.47 472.408 296.01C472.041 297.696 471.711 299.383 471.418 301.07C470.832 304.516 470.392 307.963 470.099 311.41C469.879 314.93 469.769 318.56 469.989 322.08C470.135 323.84 470.465 325.6 470.978 327.36C471.418 329.12 472.298 330.66 473.287 332.09C474.716 334.07 476.365 335.83 478.454 336.93C480.323 338.14 482.742 338.8 484.831 338.47H484.941C495.165 339.46 505.279 340.12 514.954 340.56C519.791 340.67 524.519 340.78 529.246 340.67C531.555 340.56 533.753 340.45 536.062 340.12C537.162 340.01 538.261 339.79 539.36 339.57C540.46 339.24 541.449 338.91 542.219 338.03C542.988 337.37 543.758 336.6 544.527 335.83C545.334 335.023 546.103 334.253 546.836 333.52C548.265 331.87 549.695 330.33 551.124 328.79C553.836 325.563 556.437 322.446 558.929 319.44C563.877 313.39 568.494 307.67 572.452 302.39C580.587 291.83 586.634 283.03 590.592 276.76C591.032 276.026 591.471 275.293 591.911 274.56C592.351 273.826 592.717 273.166 593.011 272.58C593.78 271.37 594.33 270.38 594.77 269.5C595.209 268.62 595.539 267.96 595.759 267.52C595.906 267.153 596.015 266.896 596.089 266.75V266.75Z" fill="#263238"/>
<path d="M535.402 317.02C535.402 317.02 535.073 315.81 534.413 313.83C533.753 311.74 532.764 309.1 531.335 306.13C530.015 303.27 528.586 300.74 527.377 298.98C526.278 297.22 525.508 296.12 525.618 296.12C525.618 296.01 526.497 297 527.707 298.76C529.026 300.52 530.565 302.94 531.884 305.91C533.314 308.88 534.193 311.63 534.743 313.61C535.292 315.7 535.512 317.02 535.402 317.02Z" fill="#263238"/>
<path d="M527.376 317.24C527.266 317.24 527.266 316.03 527.156 314.05C527.156 312.18 527.046 309.43 526.826 306.57C526.497 303.6 526.167 300.96 525.947 298.98C525.727 297.11 525.507 295.9 525.617 295.9C525.727 295.9 525.947 297 526.387 298.98C526.716 300.85 527.156 303.49 527.376 306.46C527.596 309.43 527.596 312.07 527.596 314.05C527.596 316.03 527.486 317.24 527.376 317.24V317.24Z" fill="#263238"/>
<path d="M487.359 339.459C487.359 339.459 487.139 338.799 486.919 337.699C486.589 336.599 486.26 334.949 485.93 332.969C485.16 328.899 484.391 323.289 484.171 317.019C483.841 310.749 484.171 305.029 484.501 300.959C484.721 298.869 484.94 297.219 485.16 296.119C485.27 294.909 485.38 294.359 485.49 294.359C485.49 294.359 485.49 295.019 485.38 296.119C485.27 297.219 485.05 298.869 484.94 300.959C484.611 305.029 484.501 310.749 484.72 316.909C484.94 323.179 485.71 328.789 486.26 332.859C486.589 334.839 486.919 336.489 487.139 337.589C487.359 338.799 487.359 339.349 487.359 339.459V339.459Z" fill="#263238"/>
<path d="M594.44 209.221C594.44 209.221 594.256 209.294 593.89 209.441C593.45 209.661 592.937 209.917 592.351 210.211C590.922 210.761 589.053 211.751 586.634 212.961C581.907 215.491 575.75 219.561 569.154 224.291C562.557 229.131 556.731 233.531 552.223 236.501L552.113 236.611L552.003 236.501C550.574 234.081 549.695 232.101 549.035 230.781C548.668 230.047 548.375 229.497 548.155 229.131C548.009 228.837 547.936 228.654 547.936 228.581C547.936 228.581 548.046 228.764 548.265 229.131C548.485 229.424 548.815 229.937 549.255 230.671C550.024 231.991 550.904 233.971 552.333 236.281L552.003 236.171C556.401 233.091 562.228 228.581 568.824 223.851C575.42 219.011 581.687 215.051 586.524 212.631C588.833 211.421 590.812 210.541 592.241 209.991C592.901 209.771 593.45 209.551 593.89 209.331C594.256 209.257 594.44 209.221 594.44 209.221V209.221Z" fill="#263238"/>
<g opacity="0.3">
<path opacity="0.3" d="M585.425 286.77C578.059 303.16 567.944 318.12 557.83 332.97C554.862 337.37 551.783 341.879 547.166 344.739C541.999 347.819 535.622 348.37 529.686 347.27C523.749 346.28 517.922 343.199 512.315 340.779L531.005 340.56C537.821 340.45 544.088 337.37 548.485 332.2C548.485 332.126 548.522 332.089 548.595 332.089C561.128 317.13 572.892 301.84 585.425 286.77Z" fill="black"/>
</g>
<g opacity="0.3">
<path opacity="0.3" d="M552.113 236.391L583.115 214.721L551.893 240.681L548.265 229.241L552.113 236.391Z" fill="black"/>
</g>
<path d="M600.047 258.281C599.937 258.281 600.157 257.621 600.486 256.301C600.816 255.091 601.256 253.111 601.366 250.801C601.476 248.491 601.366 245.631 600.596 242.661C599.827 239.691 598.288 236.501 595.979 233.751C593.67 231.111 590.812 229.131 587.843 228.141C584.875 227.151 582.017 227.041 579.708 227.371C577.399 227.811 575.64 228.471 574.431 229.131C573.331 229.681 572.782 230.121 572.672 230.121C572.672 230.121 572.818 230.011 573.112 229.791C573.405 229.571 573.845 229.278 574.431 228.911C575.53 228.251 577.289 227.371 579.708 227.041C582.017 226.601 584.985 226.711 588.063 227.701C591.032 228.691 594 230.671 596.419 233.421C598.837 236.171 600.376 239.471 601.146 242.551C601.916 245.631 602.026 248.491 601.806 250.801C601.586 253.221 601.146 255.091 600.706 256.411C600.56 256.998 600.413 257.474 600.267 257.841C600.12 258.134 600.047 258.281 600.047 258.281V258.281Z" fill="#263238"/>
<path d="M518.582 340.779C518.655 340.779 518.655 341.073 518.582 341.659C518.508 342.319 518.435 343.199 518.362 344.299C518.252 346.499 517.922 349.689 517.592 353.649C516.822 361.459 515.613 372.349 514.294 384.339C512.975 396.329 511.765 407.219 510.776 415.139C510.446 419.099 510.116 422.179 509.786 424.489C509.713 425.516 509.64 426.359 509.567 427.019C509.493 427.606 509.42 427.899 509.347 427.899C509.347 427.899 509.383 427.606 509.457 427.019C509.457 426.359 509.493 425.516 509.567 424.489C509.786 422.289 510.006 419.099 510.446 415.139C511.216 407.219 512.315 396.329 513.744 384.339C515.063 372.349 516.273 361.459 517.152 353.539C517.592 349.689 517.922 346.499 518.142 344.189C518.288 343.163 518.398 342.319 518.472 341.659C518.545 341.073 518.582 340.779 518.582 340.779V340.779Z" fill="#263238"/>
<path d="M551.893 235.73C551.893 235.73 551.747 235.914 551.454 236.28C551.16 236.72 550.757 237.234 550.244 237.82C549.145 239.14 547.496 241.12 545.627 243.54C541.999 248.49 537.161 255.53 532.434 263.67C527.817 271.92 524.079 279.62 521.88 285.34C520.781 288.2 520.121 290.62 519.901 292.38C519.571 294.03 519.681 295.02 519.681 295.02C519.608 295.02 519.571 294.764 519.571 294.25C519.571 293.81 519.571 293.15 519.681 292.27C519.901 290.62 520.451 288.09 521.55 285.23C523.639 279.4 527.267 271.59 531.994 263.45C536.722 255.2 541.559 248.16 545.297 243.32C547.276 240.9 548.925 238.92 550.024 237.71C550.574 237.05 551.124 236.61 551.454 236.28C551.747 235.914 551.893 235.73 551.893 235.73V235.73Z" fill="#263238"/>
<g opacity="0.3">
<path opacity="0.3" d="M606.863 428.45L534.633 428.23C551.673 426.69 565.855 413.93 571.902 397.76C577.949 381.7 580.477 364.98 581.467 347.82C582.456 330.66 585.205 317.35 594.879 300.08C596.528 297 604.774 285.56 608.182 286.33C610.381 286.77 610.82 290.95 610.711 293.26C609.611 336.05 607.962 385.66 606.863 428.45V428.45Z" fill="black"/>
</g>
<path d="M361.588 428.89C556.188 428.89 713.942 428.743 713.942 428.56C713.942 428.378 556.188 428.23 361.588 428.23C166.989 428.23 9.23438 428.378 9.23438 428.56C9.23438 428.743 166.989 428.89 361.588 428.89Z" fill="#263238"/>
<path d="M428.981 399.851C428.871 400.511 429.311 418.001 429.311 420.641C429.311 422.328 428.101 423.684 425.683 424.711L453.717 423.611V428.341L409.082 428.121V427.461C409.192 425.371 421.285 420.531 423.374 419.101C425.463 417.561 426.232 394.901 426.562 394.461C428.248 397.688 429.054 399.484 428.981 399.851V399.851Z" fill="#263238"/>
<path d="M442.503 374.77V369.82H451.958V428.23H449.979C431.29 429.44 426.233 411.4 426.123 405.57C426.013 399.74 425.793 393.47 428.871 386.54C430.923 381.92 434.954 378.254 440.964 375.54L442.503 374.77Z" fill="#455A64"/>
<path d="M460.314 375.54C466.25 378.254 470.245 381.92 472.297 386.54C475.375 393.47 475.156 399.74 475.046 405.57C474.936 411.4 469.988 429.44 451.189 428.23H449.21V369.82H458.665V374.77L460.314 375.54Z" fill="#455A64"/>
<path d="M458.115 368.28H442.504V360.47C442.504 359.37 443.383 358.6 444.373 358.6H456.246C457.236 358.6 458.115 359.37 458.115 360.47V368.28Z" fill="#E0E0E0"/>
<path d="M459.215 367.51H441.735C441.188 367.51 440.745 367.953 440.745 368.5V369.38C440.745 369.926 441.188 370.37 441.735 370.37H459.215C459.761 370.37 460.204 369.926 460.204 369.38V368.5C460.204 367.953 459.761 367.51 459.215 367.51Z" fill="#E0E0E0"/>
<path d="M459.215 367.509C459.215 367.729 455.367 367.839 450.749 367.839C446.132 367.839 442.284 367.729 442.284 367.509C442.284 367.399 446.132 367.289 450.749 367.289C455.367 367.289 459.215 367.399 459.215 367.509Z" fill="#455A64"/>
<path d="M263.193 428.339H43.3154L103.342 378.949L177.881 351.779L220.207 375.979L263.193 428.339Z" fill="#F5F5F5"/>
<path d="M103.342 378.95L176.122 349.91L220.207 375.98L119.503 384.01L43.3154 428.34L103.342 378.95Z" fill="#E0E0E0"/>
<path d="M153.585 428.451L190.964 403.15L225.705 400.73L196.681 407.11L182.169 428.34L153.585 428.451Z" fill="#E0E0E0"/>
<path d="M226.914 400.18C226.914 400.18 225.925 400.29 224.166 400.51C222.187 400.73 219.658 400.95 216.58 401.17C209.984 401.72 201.079 402.38 190.964 403.15L191.184 403.04C189.865 403.994 188.472 404.984 187.006 406.01C177.662 412.39 169.196 418.11 162.93 422.29C159.961 424.27 157.433 425.92 155.564 427.13C154.831 427.644 154.171 428.084 153.585 428.45C153.145 428.744 152.889 428.89 152.815 428.89C152.815 428.817 153.035 428.634 153.475 428.34C153.988 427.9 154.648 427.424 155.454 426.91C157.213 425.59 159.632 423.83 162.6 421.74C168.647 417.45 177.112 411.62 186.457 405.24C187.923 404.214 189.352 403.26 190.744 402.38V402.27H190.964C200.969 401.61 209.874 401.06 216.47 400.62C219.658 400.4 222.187 400.29 224.166 400.18C225.925 400.07 226.914 400.07 226.914 400.18V400.18Z" fill="#263238"/>
<path d="M220.097 375.869C220.244 376.016 220.5 376.309 220.867 376.749C221.38 377.336 222.149 378.216 223.175 379.389C225.154 381.809 228.013 385.219 231.861 389.839C239.446 398.859 250.33 411.949 264.073 428.339L264.293 428.669H263.853C219.108 428.669 155.123 428.669 84.3226 428.669C70.3604 428.669 56.6181 428.559 43.3155 428.559H42.5459L43.0956 428.119C64.6436 410.519 84.7624 393.909 103.012 378.949H103.122C131.706 367.399 156.443 357.499 175.792 349.689H175.902C189.864 357.939 200.968 364.429 208.554 368.939C212.291 371.139 215.15 372.899 217.129 373.999C218.082 374.586 218.814 375.026 219.328 375.319C219.694 375.539 219.951 375.723 220.097 375.869C219.951 375.723 219.694 375.576 219.328 375.429C218.814 375.136 218.082 374.696 217.129 374.109C215.15 373.009 212.182 371.249 208.444 369.049C200.858 364.649 189.754 358.159 175.682 350.019H175.902C156.552 357.829 131.926 367.839 103.342 379.389C85.0922 394.349 64.9734 410.959 43.5353 428.559L43.3155 428.009C56.6181 428.009 70.3604 428.009 84.3226 428.009C155.123 428.119 219.108 428.229 263.853 428.229L263.743 428.559C250.11 412.169 239.226 399.079 231.751 389.949C227.903 385.439 225.044 381.919 223.065 379.499C222.113 378.326 221.38 377.409 220.867 376.749C220.5 376.383 220.244 376.089 220.097 375.869V375.869Z" fill="#263238"/>
<path d="M328.497 84.1499C328.497 84.2599 327.288 83.7099 324.979 83.2699C322.78 82.7199 319.372 82.2799 315.304 82.8299C311.237 83.3799 306.399 85.0299 302.222 88.5499C298.044 91.9599 294.416 97.0199 292.987 103.18C292.987 103.253 292.987 103.29 292.987 103.29L292.657 104.39L292.327 103.4C289.909 97.5699 285.731 92.9499 281.223 89.9799C276.716 87.0099 271.769 85.7999 267.701 85.5799C263.633 85.2499 260.335 85.7999 258.026 86.4599C255.827 87.0099 254.618 87.5599 254.618 87.4499C254.618 87.4499 254.911 87.3033 255.498 87.0099C256.047 86.7899 256.927 86.4599 258.026 86.1299C260.225 85.4699 263.523 84.8099 267.701 85.0299C271.879 85.2499 276.936 86.4599 281.553 89.5399C286.281 92.5099 290.568 97.1299 292.877 103.07L292.217 103.18C292.291 103.107 292.327 103.033 292.327 102.96C293.756 96.6899 297.494 91.4099 301.782 87.9999C306.179 84.4799 311.127 82.8299 315.194 82.3899C319.372 81.8399 322.78 82.3899 325.089 82.9399C326.188 83.2699 327.068 83.4899 327.618 83.8199C328.204 84.0399 328.497 84.1499 328.497 84.1499V84.1499Z" fill="#263238"/>
<path d="M408.642 7.58984C408.642 7.58984 408.093 8.24984 407.103 9.34984C406.114 10.5598 404.684 12.3198 403.255 14.6298C400.397 19.1398 397.429 26.3998 397.538 34.7598C397.538 34.8332 397.538 34.9432 397.538 35.0898H396.879C395.669 26.8398 391.382 20.3498 387.534 16.6098C383.796 12.6498 380.718 11.2198 380.718 11.1098C380.791 11.0365 381.011 11.1098 381.377 11.3298C381.707 11.5498 382.257 11.7698 382.807 12.2098C384.126 12.9798 385.995 14.2998 387.864 16.1698C389.843 18.1498 391.932 20.6798 393.691 23.8698C395.56 27.0598 396.879 30.7998 397.538 34.9798L396.879 35.0898C396.879 35.0165 396.879 34.9065 396.879 34.7598C396.769 26.2898 399.737 18.9198 402.815 14.2998C404.355 11.9898 405.784 10.3398 406.883 9.23984C407.433 8.57984 407.873 8.24984 408.202 7.91984C408.496 7.69984 408.642 7.58984 408.642 7.58984V7.58984Z" fill="#263238"/>
<path d="M198.879 45.4307C198.879 45.4307 198.219 45.2107 197.01 44.9907C195.801 44.7707 193.932 44.5507 191.733 44.7707C189.424 45.1007 186.896 45.9807 184.587 47.9607C182.278 49.8307 180.299 52.5807 179.53 55.8807V55.9907L179.31 57.0907L178.87 56.1007C177.551 52.9107 175.352 50.3807 172.823 48.7307C170.405 47.1907 167.766 46.4207 165.458 46.3107C163.259 46.0907 161.39 46.4207 160.18 46.7507C158.971 47.0807 158.312 47.3007 158.312 47.1907C158.312 47.1907 158.458 47.1174 158.751 46.9707C159.044 46.8241 159.521 46.6407 160.18 46.4207C161.39 46.0907 163.259 45.6507 165.567 45.7607C167.876 45.8707 170.625 46.5307 173.153 48.1807C175.792 49.8307 178.21 52.4707 179.53 55.7707L178.87 55.8807V55.7707C179.64 52.2507 181.728 49.3907 184.147 47.4107C186.566 45.4307 189.314 44.5507 191.623 44.3307C193.932 44.1107 195.801 44.3307 197.01 44.6607C197.67 44.8807 198.146 45.0641 198.439 45.2107C198.806 45.3574 198.952 45.4307 198.879 45.4307V45.4307Z" fill="#263238"/>
</g>
<defs>
<clipPath id="clip0_1_12640">
<rect width="719" height="429" fill="white"/>
</clipPath>
</defs>
</svg>
