<svg width="148" height="61" viewBox="0 0 148 61" fill="none" xmlns="http://www.w3.org/2000/svg">
<g opacity="0.15">
<path fill-rule="evenodd" clip-rule="evenodd" d="M58.9792 44.3525L47.8872 46.2534C51.7682 46.1107 55.4614 45.4504 58.9792 44.3525M84.2402 45.2353C79.8706 45.5927 75.5673 46.0589 71.171 46.0497C75.7166 46.7413 80.019 46.0883 84.2402 45.2353M74.4595 34.4244C74.5963 33.1648 73.4843 33.2237 72.4674 33.2405C69.0287 33.2959 67.1018 35.0851 65.2826 36.8099C63.9565 38.0668 62.7999 39.5069 62.6159 41.2293C62.5454 41.886 62.7341 42.4301 63.9238 42.0642C67.1719 41.0648 70.1288 39.7607 72.3617 37.7193C73.4255 36.7467 74.2026 35.6449 74.4595 34.4244M71.3234 44.5589C74.0845 44.9113 76.794 44.5853 79.4929 44.3251C91.1542 43.2001 101.222 39.5461 110.498 34.5613C116.695 31.2312 122.372 27.4753 127.871 23.5552C128.373 23.1979 128.861 22.8207 129.579 22.7013C130.385 22.5675 130.938 22.6647 130.496 23.4102C130.388 23.594 130.013 23.741 130.494 23.8971C132.152 24.436 131.61 25.3094 131.235 26.1146C130.53 27.6257 129.01 28.7295 127.688 29.9021C123.985 33.1875 120.105 36.3646 115.67 39.1114C111.553 41.6612 106.954 43.7169 102.273 45.6721C99.2933 46.9166 96.2369 48.1508 92.8277 48.5267C90.5629 48.7764 88.6753 49.6218 86.4638 49.8841C82.2243 50.3869 77.992 50.8536 73.6286 50.6397C70.0373 50.4633 66.705 49.6317 63.7118 48.0297C62.7251 47.5013 61.7632 47.3836 60.6927 47.6077C57.8078 48.2109 54.883 48.7456 51.9705 49.2464C47.2321 50.0618 42.3011 50.3051 37.379 50.4043C29.5286 50.5627 21.7203 50.1305 14.049 48.2841C9.54031 47.199 5.17384 45.9141 1.97475 43.0341C1.13243 42.2759 0.529806 41.4687 0.663041 40.4671C0.719802 40.0354 0.933909 39.7242 1.52197 39.5945C2.21726 39.4419 2.24445 39.8027 2.52667 40.1558C4.4613 42.5782 7.83952 43.178 11.03 43.9647C19.8222 46.1327 28.749 46.3105 37.7016 45.9622C44.5525 45.6955 51.2663 44.9308 57.8094 43.5754C58.3291 43.4679 59.0254 43.5439 58.6683 42.7974C57.4241 40.1965 57.8888 37.6941 59.305 35.3458C61.4904 31.721 64.7707 28.9186 70.394 28.2431C73.4157 27.8799 75.3282 28.7733 76.8979 30.8045C80.8984 35.9786 78.0018 40.8989 72.6706 43.5193C72.1927 43.7535 71.7154 43.9878 71.2389 44.2217C71.2668 44.3344 71.2954 44.4467 71.3234 44.5589" fill="#F85052"/>
<path fill-rule="evenodd" clip-rule="evenodd" d="M131.38 16.7787C134.923 16.2818 138.271 15.4363 141.332 14.0796C138.015 14.9792 134.698 15.8792 131.38 16.7787M137.575 28.2435C137.904 25.5176 138.854 22.9064 139.664 20.2688C139.785 19.8746 140.21 19.4713 139.561 19.0587C138.938 18.6626 138.403 18.9613 137.94 19.1375C135.42 20.0959 132.623 20.433 129.92 21.003C128.213 21.3635 126.602 21.9716 124.83 22.3015C122.101 22.8086 119.432 23.4712 116.764 24.1204C115.412 24.4492 113.877 24.2827 112.66 25.0322C111.465 25.7672 110.275 25.4056 109.023 23.8879C108.384 23.1134 108.182 22.1395 109.439 21.5731C110.474 21.1074 111.579 20.6953 112.725 20.3947C120.307 18.4058 127.915 16.4636 135.501 14.4813C137.204 14.0365 138.862 13.5038 140.531 12.9965C143.566 12.0739 144.776 12.5045 146.142 14.8444C147.202 16.6607 147.147 18.3539 146.166 20.0979C144.278 23.4551 142.522 26.8579 141.531 30.4713C141.333 31.1954 141.273 31.9452 141.113 32.6776C140.929 33.5259 140.367 33.6959 139.419 33.1013C137.319 31.7843 137.167 31.3908 137.575 28.2435" fill="#F85052"/>
</g>
</svg>
