<svg width="36" height="36" viewBox="0 0 36 36" fill="none" xmlns="http://www.w3.org/2000/svg">
<path fill-rule="evenodd" clip-rule="evenodd" d="M29.7858 29.7838C24.6922 34.8779 17.1498 35.9785 10.9775 33.124C10.0663 32.7572 9.3193 32.4607 8.60912 32.4607C6.63098 32.4724 4.16877 34.3904 2.8891 33.1123C1.60942 31.8325 3.52893 29.3683 3.52893 27.3782C3.52893 26.668 3.24419 25.9343 2.87737 25.0213C0.0215472 18.85 1.12368 11.3051 6.21726 6.21266C12.7195 -0.291962 23.2835 -0.291962 29.7858 6.21099C36.2997 12.7257 36.288 23.2808 29.7858 29.7838Z" stroke="#F85052" stroke-width="2" stroke-linecap="round" stroke-linejoin="round"/>
<path d="M24.5661 18.6888H24.5811" stroke="#F85052" stroke-width="2" stroke-linecap="round" stroke-linejoin="round"/>
<path d="M17.8839 18.6888H17.8989" stroke="#F85052" stroke-width="2" stroke-linecap="round" stroke-linejoin="round"/>
<path d="M11.2023 18.6888H11.2173" stroke="#F85052" stroke-width="2" stroke-linecap="round" stroke-linejoin="round"/>
</svg>
