<svg width="191" height="191" viewBox="0 0 191 191" fill="none" xmlns="http://www.w3.org/2000/svg">
<circle cx="95.5" cy="95.5" r="95.5" fill="#FFF3F3"/>
<path d="M15 80.9006H17.8103V76.1435C17.8103 75.2486 18.3127 74.7618 19.0663 74.7618C19.7099 74.7619 20.1182 75.1704 20.1182 76.0022V80.9006H22.8971V76.1435C22.8971 75.2486 23.3995 74.7618 24.1531 74.7618C24.7968 74.7618 25.205 75.17 25.205 76.0021V80.9006H28.0153V75.5312C28.0153 73.4745 26.8851 72.4697 25.3306 72.4697C24.2945 72.4697 23.321 72.8779 22.6145 73.8356C22.222 72.9407 21.4683 72.4697 20.3851 72.4697C19.1134 72.4697 18.2499 73.1605 17.8104 73.9455V72.6895H15V80.9006ZM38.8953 80.9006H41.7056V76.3007C41.7056 75.2487 42.2707 74.7464 43.1029 74.7464C43.9193 74.7464 44.2803 75.2017 44.2803 76.128V80.9006H47.0908V75.5626C47.0908 73.4588 45.9918 72.4697 44.4061 72.4697C43.0402 72.4697 42.1456 73.1605 41.7057 74.0082V72.6895H38.8953V80.9006ZM48.6921 80.9006H51.5024V77.3052L53.7161 80.9005H56.856L53.9519 76.379L56.6366 72.6895H53.7161L51.5024 75.9394V69.0782H48.6921V80.9006ZM57.7509 80.9006H60.5612V76.3007C60.5612 75.2487 61.1263 74.7464 61.9585 74.7464C62.7749 74.7464 63.136 75.2017 63.136 76.128V80.9006H65.9463V75.5626C65.9463 73.4588 64.8473 72.4697 63.2616 72.4697C61.8957 72.4697 61.0011 73.1605 60.5612 74.0082V69.0785H57.7509V80.9006ZM67.6262 80.9006H70.4362V72.6895H67.6264L67.6262 80.9006ZM69.0236 71.9045C69.9028 71.9045 70.5778 71.2922 70.5778 70.4601C70.5778 69.628 69.9027 69 69.0236 69C68.1444 69 67.485 69.628 67.485 70.4601C67.485 71.2922 68.1444 71.9045 69.0236 71.9045ZM72.1793 80.9006H74.9896V77.007C74.9896 75.6882 75.9316 75.1544 77.6429 75.2015V72.5796C76.3712 72.5637 75.5077 73.0977 74.9896 74.3222V72.6895H72.1793V80.9006ZM82.8395 81.089C85.3201 81.089 86.7488 80.037 87 78.1845H84.3624C84.2525 78.734 83.86 79.1581 82.9337 79.1581C81.9289 79.1581 81.3009 78.5301 81.2224 77.4468H87V76.7089C87 73.7573 85.0689 72.4699 82.8238 72.4699C80.3432 72.4699 78.3807 74.1341 78.3807 76.7717V76.8973C78.3808 79.5818 80.2647 81.089 82.8395 81.089ZM81.2538 75.8609C81.3951 74.8718 81.976 74.3223 82.8239 74.3223C83.7344 74.3223 84.2212 74.8715 84.2683 75.8609H81.2538Z" fill="#19324E"/>
<path d="M32.0767 80.7604C31.9114 80.722 31.7482 80.675 31.5878 80.6198C31.0792 80.4498 30.6148 80.1688 30.2282 79.7973C29.8465 79.4214 29.5538 78.9649 29.3715 78.4612C29.1761 77.9346 29.0768 77.3772 29.0782 76.8155C29.0761 76.2482 29.1661 75.6843 29.3448 75.1458C29.5202 74.6207 29.8044 74.1385 30.1788 73.7307C30.5812 73.3019 31.0779 72.9727 31.6296 72.769C32.2124 72.5427 32.8322 72.4266 33.4574 72.4268C34.0285 72.4251 34.5959 72.5177 35.1368 72.7011C35.6451 72.8683 36.1104 73.1452 36.4999 73.5121C36.878 73.8785 37.1661 74.3275 37.3415 74.8239C37.5302 75.3478 37.6256 75.9008 37.6234 76.4577C37.6244 77.0534 37.5239 77.645 37.3263 78.2069C37.1409 78.7463 36.8481 79.2426 36.4657 79.6658C36.0792 80.0828 35.5969 80.3994 35.0606 80.588C34.9622 80.6238 34.8616 80.6569 34.7605 80.6864C35.0145 80.3578 35.2403 80.0084 35.4354 79.6417C35.6294 79.2637 35.7277 78.9386 35.7277 78.6754C35.7277 78.6707 35.7277 78.666 35.7277 78.6613V78.6574C35.7277 78.6549 35.7277 78.6523 35.7277 78.6495C35.7245 78.3413 35.6602 78.0369 35.5386 77.7538C35.4169 77.4706 35.2404 77.2144 35.0192 76.9999C34.974 76.9559 34.9245 76.9143 34.8816 76.8788C34.7363 77.1477 34.521 77.3723 34.2585 77.5288C33.996 77.6853 33.6961 77.768 33.3905 77.768C33.0848 77.768 32.7849 77.6853 32.5224 77.5288C32.2599 77.3723 32.0446 77.1477 31.8993 76.8788C31.8569 76.9138 31.8073 76.9556 31.7616 77C31.6106 77.1468 31.48 77.3133 31.3734 77.4949C31.1679 77.8454 31.0577 78.2436 31.0536 78.6499C31.0536 78.6524 31.0536 78.655 31.0536 78.6578V78.6617C31.0536 78.6664 31.0536 78.6711 31.0536 78.6758C31.0536 78.9479 31.1587 79.2859 31.3659 79.6805C31.5722 80.0597 31.8099 80.421 32.0765 80.7604H32.0767ZM33.3904 74.9659C33.1714 74.9659 32.9574 75.0309 32.7753 75.1525C32.5933 75.2742 32.4514 75.4471 32.3677 75.6495C32.2839 75.8518 32.262 76.0744 32.3048 76.2891C32.3476 76.5039 32.4531 76.7011 32.608 76.8559C32.7629 77.0107 32.9602 77.1161 33.1749 77.1587C33.3897 77.2014 33.6123 77.1793 33.8146 77.0955C34.0169 77.0116 34.1897 76.8696 34.3113 76.6874C34.4328 76.5053 34.4976 76.2912 34.4975 76.0723C34.497 75.7789 34.3801 75.4977 34.1726 75.2903C33.9651 75.0829 33.6838 74.9662 33.3904 74.9659V74.9659ZM35.3117 75.5424L35.0625 75.6733C35.1311 75.9854 35.1107 76.3104 35.0035 76.6114L35.0629 76.6605C35.1106 76.7003 35.1656 76.7464 35.2171 76.7966L35.2186 76.798L35.2195 76.799L35.222 76.8016C35.3882 76.4028 35.4197 75.9607 35.3117 75.5424V75.5424ZM31.4691 75.5428C31.3612 75.961 31.3927 76.4029 31.5588 76.8015C31.56 76.8005 31.561 76.7994 31.5622 76.7981L31.5636 76.7966C31.6165 76.7451 31.6711 76.6993 31.7181 76.6605L31.7773 76.6113C31.6703 76.3105 31.6498 75.9857 31.7183 75.6738L31.4691 75.5429V75.5428ZM33.3904 74.0544C32.9977 74.0539 32.6137 74.1703 32.2873 74.3886C31.9608 74.6069 31.7067 74.9174 31.5571 75.2805L31.7996 75.4079C31.926 75.0891 32.1452 74.8157 32.4288 74.623C32.7124 74.4303 33.0473 74.3273 33.3902 74.3272C33.7331 74.3271 34.068 74.4301 34.3517 74.6227C34.6354 74.8153 34.8547 75.0886 34.9811 75.4073L35.2237 75.28C35.074 74.917 34.8198 74.6067 34.4934 74.3884C34.167 74.1702 33.783 74.0539 33.3904 74.0544V74.0544Z" fill="#F85052"/>
<path d="M191 95.5C191 72.5661 182.747 50.3981 167.749 33.0478C152.752 15.6974 132.011 4.32355 109.319 1.00506L95.5 95.5H191Z" fill="#F85052"/>
<path d="M110.324 47H111.824L112.496 44.876H115.772L116.456 47H118.112L115.28 38.42H113.192L110.324 47ZM114.14 39.728L115.4 43.712H112.868L114.14 39.728ZM121.874 47.12C123.578 47.12 124.67 46.1 124.778 44.66H123.446C123.362 45.548 122.702 46.004 121.934 46.004C120.866 46.004 120.194 45.284 120.194 43.916V43.82C120.194 42.524 120.902 41.756 121.898 41.756C122.666 41.756 123.218 42.104 123.338 42.944H124.742C124.574 41.216 123.266 40.592 121.874 40.592C120.122 40.592 118.706 41.852 118.706 43.844V43.94C118.706 45.944 120.074 47.12 121.874 47.12ZM128.164 47.108C128.608 47.108 128.92 47.036 129.148 46.952V45.8C128.944 45.884 128.728 45.92 128.44 45.92C127.984 45.92 127.72 45.668 127.72 45.116V41.816H129.1V40.724H127.72V39.344H126.268V40.724H125.428V41.816H126.268V45.248C126.268 46.436 126.916 47.108 128.164 47.108ZM130.494 47H131.946V40.724H130.494V47ZM131.202 39.692C131.682 39.692 132.066 39.332 132.066 38.864C132.066 38.384 131.682 38.024 131.202 38.024C130.722 38.024 130.338 38.384 130.338 38.864C130.338 39.332 130.722 39.692 131.202 39.692ZM135.36 47H137.052L139.32 40.724H137.892L136.272 45.512L134.628 40.724H133.068L135.36 47ZM142.921 47.12C144.529 47.12 145.597 46.4 145.801 45.08H144.397C144.289 45.692 143.833 46.04 142.957 46.04C141.877 46.04 141.277 45.368 141.229 44.18H145.825V43.76C145.825 41.516 144.421 40.592 142.861 40.592C141.073 40.592 139.741 41.888 139.741 43.832V43.928C139.741 45.908 141.073 47.12 142.921 47.12ZM141.253 43.208C141.397 42.236 141.985 41.648 142.861 41.648C143.761 41.648 144.313 42.128 144.385 43.208H141.253ZM114.74 63.12C116.78 63.12 118.244 62.076 118.496 60.012H116.936C116.768 61.224 115.928 61.824 114.74 61.824C113.156 61.824 112.232 60.684 112.232 58.752V58.656C112.232 56.736 113.216 55.56 114.728 55.56C115.964 55.56 116.6 56.148 116.78 57.288H118.4C118.208 55.272 116.684 54.288 114.716 54.288C112.328 54.288 110.552 56.088 110.552 58.668V58.764C110.552 61.404 112.052 63.12 114.74 63.12ZM121.461 63.12C122.421 63.12 122.973 62.772 123.381 62.232V63H124.809V58.884C124.809 57.168 123.705 56.592 122.301 56.592C120.897 56.592 119.733 57.204 119.613 58.668H121.017C121.089 58.044 121.461 57.684 122.217 57.684C123.069 57.684 123.357 58.104 123.357 58.944V59.268H122.577C120.777 59.268 119.361 59.796 119.361 61.26C119.361 62.568 120.309 63.12 121.461 63.12ZM121.809 62.076C121.089 62.076 120.801 61.728 120.801 61.2C120.801 60.432 121.509 60.18 122.613 60.18H123.357V60.804C123.357 61.608 122.697 62.076 121.809 62.076ZM126.473 63H127.925V59.304C127.925 58.308 128.585 57.804 129.401 57.804C130.265 57.804 130.649 58.236 130.649 59.184V63H132.101V59.052C132.101 57.324 131.213 56.592 129.953 56.592C128.921 56.592 128.225 57.108 127.925 57.72V56.724H126.473V63ZM136.126 63.12C137.05 63.12 137.854 62.568 138.19 61.944V63H139.642V53.82H138.19V57.684C137.842 57.06 137.206 56.592 136.186 56.592C134.554 56.592 133.366 57.864 133.366 59.868V59.964C133.366 62.004 134.554 63.12 136.126 63.12ZM136.486 61.968C135.55 61.968 134.854 61.308 134.854 59.928V59.832C134.854 58.476 135.478 57.732 136.546 57.732C137.602 57.732 138.238 58.416 138.238 59.796V59.892C138.238 61.296 137.494 61.968 136.486 61.968ZM141.404 63H142.856V56.724H141.404V63ZM142.112 55.692C142.592 55.692 142.976 55.332 142.976 54.864C142.976 54.384 142.592 54.024 142.112 54.024C141.632 54.024 141.248 54.384 141.248 54.864C141.248 55.332 141.632 55.692 142.112 55.692ZM146.978 63.12C147.902 63.12 148.706 62.568 149.042 61.944V63H150.494V53.82H149.042V57.684C148.694 57.06 148.058 56.592 147.038 56.592C145.406 56.592 144.218 57.864 144.218 59.868V59.964C144.218 62.004 145.406 63.12 146.978 63.12ZM147.338 61.968C146.402 61.968 145.706 61.308 145.706 59.928V59.832C145.706 58.476 146.33 57.732 147.398 57.732C148.454 57.732 149.09 58.416 149.09 59.796V59.892C149.09 61.296 148.346 61.968 147.338 61.968ZM153.863 63.12C154.823 63.12 155.375 62.772 155.783 62.232V63H157.211V58.884C157.211 57.168 156.107 56.592 154.703 56.592C153.299 56.592 152.135 57.204 152.015 58.668H153.419C153.491 58.044 153.863 57.684 154.619 57.684C155.471 57.684 155.759 58.104 155.759 58.944V59.268H154.979C153.179 59.268 151.763 59.796 151.763 61.26C151.763 62.568 152.711 63.12 153.863 63.12ZM154.211 62.076C153.491 62.076 153.203 61.728 153.203 61.2C153.203 60.432 153.911 60.18 155.015 60.18H155.759V60.804C155.759 61.608 155.099 62.076 154.211 62.076ZM161.012 63.108C161.456 63.108 161.768 63.036 161.996 62.952V61.8C161.792 61.884 161.576 61.92 161.288 61.92C160.832 61.92 160.568 61.668 160.568 61.116V57.816H161.948V56.724H160.568V55.344H159.116V56.724H158.276V57.816H159.116V61.248C159.116 62.436 159.764 63.108 161.012 63.108ZM166.065 63.12C167.673 63.12 168.741 62.4 168.945 61.08H167.541C167.433 61.692 166.977 62.04 166.101 62.04C165.021 62.04 164.421 61.368 164.373 60.18H168.969V59.76C168.969 57.516 167.565 56.592 166.005 56.592C164.217 56.592 162.885 57.888 162.885 59.832V59.928C162.885 61.908 164.217 63.12 166.065 63.12ZM164.397 59.208C164.541 58.236 165.129 57.648 166.005 57.648C166.905 57.648 167.457 58.128 167.529 59.208H164.397ZM172.473 63.12C174.081 63.12 174.981 62.388 174.981 61.116C174.981 59.784 174.105 59.424 172.629 59.196C171.633 59.028 171.333 58.848 171.333 58.392C171.333 57.948 171.705 57.648 172.329 57.648C173.001 57.648 173.325 57.912 173.445 58.488H174.789C174.633 57.072 173.613 56.592 172.329 56.592C171.153 56.592 169.977 57.216 169.977 58.476C169.977 59.652 170.589 60.12 172.245 60.384C173.169 60.54 173.589 60.732 173.589 61.248C173.589 61.776 173.241 62.052 172.461 62.052C171.609 62.052 171.285 61.68 171.213 61.044H169.845C169.905 62.376 170.853 63.12 172.473 63.12ZM110.18 79H116.384V77.764H112.736L114.644 75.904C115.664 74.92 116.324 73.948 116.324 72.832C116.324 71.32 115.268 70.3 113.492 70.3C111.68 70.3 110.552 71.38 110.444 73.252H111.908C112.052 72.04 112.592 71.548 113.444 71.548C114.272 71.548 114.728 72.052 114.728 72.856C114.728 73.672 114.236 74.428 113.42 75.292L110.18 78.712V79ZM121.127 77.848C119.843 77.848 119.099 76.864 119.099 74.92V74.488C119.099 72.58 119.807 71.548 121.103 71.548C122.387 71.548 123.083 72.652 123.083 74.476V74.896C123.083 76.84 122.447 77.848 121.127 77.848ZM121.091 79.12C123.335 79.12 124.679 77.476 124.679 74.896V74.464C124.679 71.884 123.263 70.3 121.091 70.3C118.931 70.3 117.491 71.896 117.491 74.5V74.932C117.491 77.512 118.907 79.12 121.091 79.12ZM127.694 73.528C127.13 73.528 126.77 73.144 126.77 72.412C126.77 71.692 127.13 71.296 127.694 71.296C128.258 71.296 128.606 71.716 128.606 72.412C128.606 73.12 128.258 73.528 127.694 73.528ZM127.682 74.5C128.858 74.5 129.77 73.612 129.77 72.4C129.77 71.2 128.846 70.336 127.694 70.336C126.542 70.336 125.594 71.224 125.594 72.424C125.594 73.612 126.506 74.5 127.682 74.5ZM126.77 79H127.79L133.31 70.42H132.302L126.77 79ZM132.398 78.148C131.834 78.148 131.474 77.764 131.474 77.032C131.474 76.312 131.834 75.916 132.398 75.916C132.962 75.916 133.31 76.336 133.31 77.032C133.31 77.74 132.962 78.148 132.398 78.148ZM132.386 79.12C133.562 79.12 134.486 78.232 134.486 77.02C134.486 75.82 133.55 74.956 132.398 74.956C131.246 74.956 130.31 75.844 130.31 77.044C130.31 78.232 131.21 79.12 132.386 79.12Z" fill="white"/>
<path d="M44.984 125H46.58V121.736H47.78C49.616 121.736 50.924 120.932 50.924 119.12V119.072C50.924 117.272 49.664 116.42 47.744 116.42H44.984V125ZM46.58 120.584V117.656H47.744C48.764 117.656 49.364 118.052 49.364 119.072V119.12C49.364 120.068 48.8 120.584 47.744 120.584H46.58ZM53.7033 125.12C54.6633 125.12 55.2153 124.772 55.6233 124.232V125H57.0513V120.884C57.0513 119.168 55.9473 118.592 54.5433 118.592C53.1393 118.592 51.9753 119.204 51.8553 120.668H53.2593C53.3313 120.044 53.7033 119.684 54.4593 119.684C55.3113 119.684 55.5993 120.104 55.5993 120.944V121.268H54.8193C53.0193 121.268 51.6033 121.796 51.6033 123.26C51.6033 124.568 52.5513 125.12 53.7033 125.12ZM54.0513 124.076C53.3313 124.076 53.0433 123.728 53.0433 123.2C53.0433 122.432 53.7513 122.18 54.8553 122.18H55.5993V122.804C55.5993 123.608 54.9393 124.076 54.0513 124.076ZM60.8636 125.12C62.4716 125.12 63.3716 124.388 63.3716 123.116C63.3716 121.784 62.4956 121.424 61.0196 121.196C60.0236 121.028 59.7236 120.848 59.7236 120.392C59.7236 119.948 60.0956 119.648 60.7196 119.648C61.3916 119.648 61.7156 119.912 61.8356 120.488H63.1796C63.0236 119.072 62.0036 118.592 60.7196 118.592C59.5436 118.592 58.3676 119.216 58.3676 120.476C58.3676 121.652 58.9796 122.12 60.6356 122.384C61.5596 122.54 61.9796 122.732 61.9796 123.248C61.9796 123.776 61.6316 124.052 60.8516 124.052C59.9996 124.052 59.6756 123.68 59.6036 123.044H58.2356C58.2956 124.376 59.2436 125.12 60.8636 125.12ZM66.7933 125.12C68.4013 125.12 69.3013 124.388 69.3013 123.116C69.3013 121.784 68.4253 121.424 66.9492 121.196C65.9533 121.028 65.6533 120.848 65.6533 120.392C65.6533 119.948 66.0253 119.648 66.6493 119.648C67.3213 119.648 67.6453 119.912 67.7653 120.488H69.1093C68.9533 119.072 67.9333 118.592 66.6493 118.592C65.4733 118.592 64.2973 119.216 64.2973 120.476C64.2973 121.652 64.9093 122.12 66.5653 122.384C67.4893 122.54 67.9093 122.732 67.9093 123.248C67.9093 123.776 67.5613 124.052 66.7812 124.052C65.9293 124.052 65.6053 123.68 65.5333 123.044H64.1653C64.2253 124.376 65.1733 125.12 66.7933 125.12ZM70.6109 125H72.0629V118.724H70.6109V125ZM71.3189 117.692C71.7989 117.692 72.1829 117.332 72.1829 116.864C72.1829 116.384 71.7989 116.024 71.3189 116.024C70.8389 116.024 70.4549 116.384 70.4549 116.864C70.4549 117.332 70.8389 117.692 71.3189 117.692ZM75.4768 125H77.1688L79.4368 118.724H78.0088L76.3888 123.512L74.7448 118.724H73.1848L75.4768 125ZM83.0381 125.12C84.6461 125.12 85.7141 124.4 85.9181 123.08H84.5141C84.4061 123.692 83.9501 124.04 83.0741 124.04C81.9941 124.04 81.3941 123.368 81.3461 122.18H85.9421V121.76C85.9421 119.516 84.5381 118.592 82.9781 118.592C81.1901 118.592 79.8581 119.888 79.8581 121.832V121.928C79.8581 123.908 81.1901 125.12 83.0381 125.12ZM81.3701 121.208C81.5141 120.236 82.1021 119.648 82.9781 119.648C83.8781 119.648 84.4301 120.128 84.5021 121.208H81.3701ZM93.9744 125.12C96.0144 125.12 97.4784 124.076 97.7304 122.012H96.1704C96.0024 123.224 95.1624 123.824 93.9744 123.824C92.3904 123.824 91.4664 122.684 91.4664 120.752V120.656C91.4664 118.736 92.4504 117.56 93.9624 117.56C95.1984 117.56 95.8344 118.148 96.0144 119.288H97.6344C97.4424 117.272 95.9184 116.288 93.9504 116.288C91.5624 116.288 89.7864 118.088 89.7864 120.668V120.764C89.7864 123.404 91.2864 125.12 93.9744 125.12ZM100.696 125.12C101.656 125.12 102.208 124.772 102.616 124.232V125H104.044V120.884C104.044 119.168 102.94 118.592 101.536 118.592C100.132 118.592 98.9675 119.204 98.8475 120.668H100.252C100.324 120.044 100.696 119.684 101.452 119.684C102.304 119.684 102.592 120.104 102.592 120.944V121.268H101.812C100.012 121.268 98.5955 121.796 98.5955 123.26C98.5955 124.568 99.5435 125.12 100.696 125.12ZM101.044 124.076C100.324 124.076 100.036 123.728 100.036 123.2C100.036 122.432 100.744 122.18 101.848 122.18H102.592V122.804C102.592 123.608 101.932 124.076 101.044 124.076ZM105.708 125H107.16V121.304C107.16 120.308 107.82 119.804 108.636 119.804C109.5 119.804 109.884 120.236 109.884 121.184V125H111.336V121.052C111.336 119.324 110.448 118.592 109.188 118.592C108.156 118.592 107.46 119.108 107.16 119.72V118.724H105.708V125ZM115.361 125.12C116.285 125.12 117.089 124.568 117.425 123.944V125H118.877V115.82H117.425V119.684C117.077 119.06 116.441 118.592 115.421 118.592C113.789 118.592 112.601 119.864 112.601 121.868V121.964C112.601 124.004 113.789 125.12 115.361 125.12ZM115.721 123.968C114.785 123.968 114.089 123.308 114.089 121.928V121.832C114.089 120.476 114.713 119.732 115.781 119.732C116.837 119.732 117.473 120.416 117.473 121.796V121.892C117.473 123.296 116.729 123.968 115.721 123.968ZM120.638 125H122.09V118.724H120.638V125ZM121.346 117.692C121.826 117.692 122.21 117.332 122.21 116.864C122.21 116.384 121.826 116.024 121.346 116.024C120.866 116.024 120.482 116.384 120.482 116.864C120.482 117.332 120.866 117.692 121.346 117.692ZM126.212 125.12C127.136 125.12 127.94 124.568 128.276 123.944V125H129.728V115.82H128.276V119.684C127.928 119.06 127.292 118.592 126.272 118.592C124.64 118.592 123.452 119.864 123.452 121.868V121.964C123.452 124.004 124.64 125.12 126.212 125.12ZM126.572 123.968C125.636 123.968 124.94 123.308 124.94 121.928V121.832C124.94 120.476 125.564 119.732 126.632 119.732C127.688 119.732 128.324 120.416 128.324 121.796V121.892C128.324 123.296 127.58 123.968 126.572 123.968ZM133.098 125.12C134.058 125.12 134.61 124.772 135.018 124.232V125H136.446V120.884C136.446 119.168 135.342 118.592 133.938 118.592C132.534 118.592 131.37 119.204 131.25 120.668H132.654C132.726 120.044 133.098 119.684 133.854 119.684C134.706 119.684 134.994 120.104 134.994 120.944V121.268H134.214C132.414 121.268 130.998 121.796 130.998 123.26C130.998 124.568 131.946 125.12 133.098 125.12ZM133.446 124.076C132.726 124.076 132.438 123.728 132.438 123.2C132.438 122.432 133.146 122.18 134.25 122.18H134.994V122.804C134.994 123.608 134.334 124.076 133.446 124.076ZM140.246 125.108C140.69 125.108 141.002 125.036 141.23 124.952V123.8C141.026 123.884 140.81 123.92 140.522 123.92C140.066 123.92 139.802 123.668 139.802 123.116V119.816H141.182V118.724H139.802V117.344H138.35V118.724H137.51V119.816H138.35V123.248C138.35 124.436 138.998 125.108 140.246 125.108ZM145.3 125.12C146.908 125.12 147.976 124.4 148.18 123.08H146.776C146.668 123.692 146.212 124.04 145.336 124.04C144.256 124.04 143.656 123.368 143.608 122.18H148.204V121.76C148.204 119.516 146.8 118.592 145.24 118.592C143.452 118.592 142.12 119.888 142.12 121.832V121.928C142.12 123.908 143.452 125.12 145.3 125.12ZM143.632 121.208C143.776 120.236 144.364 119.648 145.24 119.648C146.14 119.648 146.692 120.128 146.764 121.208H143.632ZM151.707 125.12C153.315 125.12 154.215 124.388 154.215 123.116C154.215 121.784 153.339 121.424 151.863 121.196C150.867 121.028 150.567 120.848 150.567 120.392C150.567 119.948 150.939 119.648 151.563 119.648C152.235 119.648 152.559 119.912 152.679 120.488H154.023C153.867 119.072 152.847 118.592 151.563 118.592C150.387 118.592 149.211 119.216 149.211 120.476C149.211 121.652 149.823 122.12 151.479 122.384C152.403 122.54 152.823 122.732 152.823 123.248C152.823 123.776 152.475 124.052 151.695 124.052C150.843 124.052 150.519 123.68 150.447 123.044H149.079C149.139 124.376 150.087 125.12 151.707 125.12ZM47.768 141.12C49.496 141.12 50.96 140.22 50.96 138.528C50.96 137.484 50.372 136.74 49.364 136.38C50.132 136.044 50.636 135.456 50.636 134.58C50.636 133.164 49.304 132.3 47.768 132.3C46.28 132.3 44.888 133.152 44.888 134.604C44.888 135.456 45.368 136.08 46.16 136.392C45.2 136.728 44.552 137.484 44.552 138.576C44.552 140.256 46.064 141.12 47.768 141.12ZM47.768 139.92C46.904 139.92 46.16 139.404 46.16 138.444C46.16 137.484 46.904 136.968 47.78 136.968C48.668 136.968 49.364 137.484 49.364 138.432C49.364 139.392 48.68 139.92 47.768 139.92ZM47.792 135.924C47.048 135.924 46.412 135.468 46.412 134.688C46.412 133.92 47.012 133.452 47.768 133.452C48.536 133.452 49.124 133.944 49.124 134.676C49.124 135.456 48.572 135.924 47.792 135.924ZM55.6543 139.848C54.3703 139.848 53.6263 138.864 53.6263 136.92V136.488C53.6263 134.58 54.3343 133.548 55.6303 133.548C56.9143 133.548 57.6103 134.652 57.6103 136.476V136.896C57.6103 138.84 56.9743 139.848 55.6543 139.848ZM55.6183 141.12C57.8623 141.12 59.2063 139.476 59.2063 136.896V136.464C59.2063 133.884 57.7903 132.3 55.6183 132.3C53.4583 132.3 52.0183 133.896 52.0183 136.5V136.932C52.0183 139.512 53.4343 141.12 55.6183 141.12ZM62.2217 135.528C61.6577 135.528 61.2977 135.144 61.2977 134.412C61.2977 133.692 61.6577 133.296 62.2217 133.296C62.7857 133.296 63.1337 133.716 63.1337 134.412C63.1337 135.12 62.7857 135.528 62.2217 135.528ZM62.2097 136.5C63.3857 136.5 64.2977 135.612 64.2977 134.4C64.2977 133.2 63.3737 132.336 62.2217 132.336C61.0697 132.336 60.1217 133.224 60.1217 134.424C60.1217 135.612 61.0337 136.5 62.2097 136.5ZM61.2977 141H62.3177L67.8377 132.42H66.8297L61.2977 141ZM66.9257 140.148C66.3617 140.148 66.0017 139.764 66.0017 139.032C66.0017 138.312 66.3617 137.916 66.9257 137.916C67.4897 137.916 67.8377 138.336 67.8377 139.032C67.8377 139.74 67.4897 140.148 66.9257 140.148ZM66.9137 141.12C68.0897 141.12 69.0137 140.232 69.0137 139.02C69.0137 137.82 68.0777 136.956 66.9257 136.956C65.7737 136.956 64.8377 137.844 64.8377 139.044C64.8377 140.232 65.7377 141.12 66.9137 141.12Z" fill="#455A64"/>
</svg>
