<svg width="11" height="20" viewBox="0 0 11 20" fill="none" xmlns="http://www.w3.org/2000/svg">
<path d="M10.1421 8.10789L9.81052 10.8921C9.79621 11.0214 9.7345 11.1409 9.63731 11.2274C9.54011 11.3139 9.41432 11.3613 9.28421 11.3605H6.38947V19.6237C6.39017 19.7223 6.35183 19.8173 6.28282 19.8878C6.2138 19.9583 6.1197 19.9986 6.02105 20H3.07105C3.02198 19.9993 2.97352 19.989 2.92844 19.9696C2.88337 19.9501 2.84256 19.922 2.80835 19.8868C2.77413 19.8517 2.74719 19.8101 2.72905 19.7645C2.71091 19.7189 2.70193 19.6701 2.70263 19.6211L2.71842 11.3605H0.526316C0.386728 11.3605 0.252857 11.3051 0.154154 11.2064C0.0554505 11.1077 0 10.9738 0 10.8342V8.05C0 7.91041 0.0554505 7.77654 0.154154 7.67784C0.252857 7.57914 0.386728 7.52368 0.526316 7.52368H2.70526V4.82368C2.70526 1.7 4.56316 0 7.28421 0H9.51315C9.65274 0 9.78661 0.0554506 9.88531 0.154154C9.98402 0.252857 10.0395 0.386728 10.0395 0.526316V2.87105C10.0395 3.01064 9.98402 3.14451 9.88531 3.24321C9.78661 3.34192 9.65274 3.39737 9.51315 3.39737H8.14736C6.66842 3.42105 6.38947 4.12895 6.38947 5.18684V7.51579H9.62894C9.70285 7.51706 9.77566 7.53388 9.84263 7.56516C9.90961 7.59643 9.96924 7.64147 10.0177 7.69733C10.0661 7.75319 10.1022 7.81862 10.1236 7.88936C10.145 7.9601 10.1514 8.03456 10.1421 8.10789V8.10789Z" fill="#334C8C"/>
</svg>
