<svg width="36" height="36" viewBox="0 0 36 36" fill="none" xmlns="http://www.w3.org/2000/svg">
<path fill-rule="evenodd" clip-rule="evenodd" d="M4.36948 1.5C2.78531 1.5 1.5 2.80692 1.5 4.41574V6.13181C1.5 7.32353 1.95318 8.46957 2.76382 9.33158L11.6477 18.7779L11.6516 18.772C13.3666 20.5278 14.3316 22.9013 14.3316 25.3761V33.7578C14.3316 34.3179 14.9176 34.6755 15.404 34.4113L20.4632 31.6544C21.2269 31.2373 21.7036 30.427 21.7036 29.5471V25.3542C21.7036 22.8933 22.6548 20.5298 24.3543 18.7779L33.2381 9.33158C34.0468 8.46957 34.5 7.32353 34.5 6.13181V4.41574C34.5 2.80692 33.2166 1.5 31.6325 1.5H4.36948Z" stroke="white" stroke-width="2" stroke-linecap="round" stroke-linejoin="round"/>
</svg>
