<svg width="42" height="42" viewBox="0 0 42 42" fill="none" xmlns="http://www.w3.org/2000/svg">
<path d="M5.80815 19.143H9.14244C10.0518 19.143 10.9238 19.5042 11.5668 20.1472C12.2098 20.7902 12.571 21.6623 12.571 22.5716V24.2859C12.571 25.1952 12.9322 26.0672 13.5752 26.7102C14.2182 27.3532 15.0903 27.7144 15.9996 27.7144C16.9089 27.7144 17.781 28.0756 18.4239 28.7186C19.0669 29.3616 19.4282 30.2337 19.4282 31.143V36.1916M14.2853 7.03157V9.71442C14.2853 10.8511 14.7368 11.9412 15.5406 12.7449C16.3443 13.5486 17.4344 14.0001 18.571 14.0001H19.4282C20.3375 14.0001 21.2095 14.3614 21.8525 15.0043C22.4955 15.6473 22.8567 16.5194 22.8567 17.4287C22.8567 18.338 23.2179 19.2101 23.8609 19.8531C24.5039 20.4961 25.376 20.8573 26.2853 20.8573C27.1946 20.8573 28.0667 20.4961 28.7097 19.8531C29.3526 19.2101 29.7139 18.338 29.7139 17.4287C29.7139 16.5194 30.0751 15.6473 30.7181 15.0043C31.3611 14.3614 32.2331 14.0001 33.1424 14.0001H34.9664M26.2853 35.4081V31.143C26.2853 30.2337 26.6465 29.3616 27.2895 28.7186C27.9325 28.0756 28.8046 27.7144 29.7139 27.7144H34.9664M36.571 20.8573C36.571 22.8834 36.1719 24.8897 35.3966 26.7615C34.6212 28.6334 33.4848 30.3343 32.0521 31.7669C30.6194 33.1996 28.9186 34.3361 27.0467 35.1114C25.1748 35.8868 23.1685 36.2859 21.1424 36.2859C19.1163 36.2859 17.1101 35.8868 15.2382 35.1114C13.3663 34.3361 11.6655 33.1996 10.2328 31.7669C8.80012 30.3343 7.66366 28.6334 6.8883 26.7615C6.11294 24.8897 5.71387 22.8834 5.71387 20.8573C5.71387 16.7654 7.33937 12.8411 10.2328 9.94764C13.1262 7.05422 17.0505 5.42871 21.1424 5.42871C25.2344 5.42871 29.1587 7.05422 32.0521 9.94764C34.9455 12.8411 36.571 16.7654 36.571 20.8573Z" stroke="white" stroke-width="2" stroke-linecap="round" stroke-linejoin="round"/>
</svg>
