<svg width="616" height="428" viewBox="0 0 616 428" fill="none" xmlns="http://www.w3.org/2000/svg">
<path d="M437.249 12.9808C440.834 12.9808 443.74 10.075 443.74 6.49047C443.74 2.90594 440.834 9.15527e-05 437.249 9.15527e-05C433.665 9.15527e-05 430.759 2.90594 430.759 6.49047C430.759 10.075 433.665 12.9808 437.249 12.9808Z" fill="#F85052"/>
<path d="M468.055 42.1598C470.741 42.1598 472.92 39.9817 472.92 37.2948C472.92 34.6079 470.741 32.4297 468.055 32.4297C465.368 32.4297 463.189 34.6079 463.189 37.2948C463.189 39.9817 465.368 42.1598 468.055 42.1598Z" stroke="#FFC557" stroke-miterlimit="10"/>
<path d="M9.015 292.402C13.9939 292.402 18.03 288.366 18.03 283.387C18.03 278.408 13.9939 274.372 9.015 274.372C4.03615 274.372 0 278.408 0 283.387C0 288.366 4.03615 292.402 9.015 292.402Z" fill="#1F6A58"/>
<path d="M57.2869 23.7839C59.9738 23.7839 62.152 21.6057 62.152 18.9188C62.152 16.2319 59.9738 14.0537 57.2869 14.0537C54.6 14.0537 52.4219 16.2319 52.4219 18.9188C52.4219 21.6057 54.6 23.7839 57.2869 23.7839Z" fill="#F85052"/>
<path d="M39.4515 115.667C41.5399 115.667 43.233 113.974 43.233 111.885C43.233 109.797 41.5399 108.104 39.4515 108.104C37.363 108.104 35.6699 109.797 35.6699 111.885C35.6699 113.974 37.363 115.667 39.4515 115.667Z" stroke="#95B1DB" stroke-width="2" stroke-miterlimit="10"/>
<path d="M353.492 355.973H99.8262V51.9332C99.8262 36.3737 111.81 23.1221 127.359 23.1221L353.482 23.7614L353.492 355.973Z" fill="#F1F1F1"/>
<path opacity="0.65" d="M104.518 355.973H353.492V53.9596L144.511 26.2861L104.518 355.973Z" fill="#E1E1E1"/>
<path d="M459.007 49.8423C459.007 42.658 456.153 35.768 451.073 30.6879C445.993 25.6079 439.103 22.7539 431.919 22.7539H151.543V22.9381L124.812 22.8081C141.152 22.8081 151.478 34.3369 151.478 48.2711L151.543 48.1953V365.465C151.543 375.523 155.539 385.169 162.651 392.281C169.763 399.393 179.409 403.389 189.467 403.389H395.078L460.09 402.489L459.007 49.8423Z" fill="#F8F8F8"/>
<circle cx="210.92" cy="313.142" r="36.8401" fill="white"/>
<path d="M194.35 313.915C194.35 313.957 196.296 314.122 198.655 314.205C201.056 314.329 202.96 314.329 202.96 314.288C202.96 314.246 201.056 314.081 198.655 313.998C196.296 313.874 194.35 313.832 194.35 313.915Z" fill="white"/>
<path d="M215.421 298.557C215.048 296.487 214.552 294.335 213.268 292.679C211.985 291.023 209.708 289.905 207.722 290.568L205.279 292.017C205.776 297.729 206.935 303.4 208.756 308.822C208.922 309.36 209.129 309.94 209.502 310.312C210.288 311.14 211.613 311.057 212.73 310.933C214.096 310.768 215.669 310.478 216.249 309.236C216.538 308.615 216.538 307.953 216.497 307.291C216.304 304.338 215.945 301.427 215.421 298.557V298.557Z" fill="#FF725E"/>
<path d="M200.395 296.446L202.465 314.411C202.713 316.77 205.197 317.516 207.556 317.267C209.088 317.184 210.909 316.439 211.116 313.583C211.24 311.72 210.868 310.437 210.868 310.437C212.965 309.941 214.124 308.299 214.345 305.511C214.51 303.4 214.179 300.048 213.807 297.316C213.476 294.832 211.613 291.934 209.129 292.348L201.554 294.873C200.809 294.998 200.313 295.701 200.395 296.446V296.446Z" fill="#FFBE9D"/>
<path d="M212.192 301.123C211.895 301.123 211.654 300.901 211.654 300.627C211.654 300.352 211.895 300.13 212.192 300.13C212.49 300.13 212.73 300.352 212.73 300.627C212.73 300.901 212.49 301.123 212.192 301.123Z" fill="#263238"/>
<path d="M212.772 299.177C212.565 299.053 212.275 298.97 211.902 298.97C211.571 299.011 211.282 299.135 211.075 299.301C210.909 299.466 210.868 299.591 210.909 299.591C210.95 299.673 211.364 299.342 211.944 299.301C212.523 299.259 212.937 299.549 212.979 299.466C213.02 299.425 212.937 299.301 212.772 299.177Z" fill="#263238"/>
<path d="M207.019 301.826C206.721 301.826 206.48 301.604 206.48 301.33C206.48 301.055 206.721 300.833 207.019 300.833C207.316 300.833 207.557 301.055 207.557 301.33C207.557 301.604 207.316 301.826 207.019 301.826Z" fill="#263238"/>
<path d="M207.06 299.757C206.894 299.633 206.563 299.55 206.232 299.55C205.859 299.591 205.57 299.715 205.404 299.881C205.239 300.005 205.156 300.171 205.197 300.171C205.28 300.253 205.652 299.922 206.232 299.881C206.811 299.84 207.225 300.129 207.267 300.047C207.308 300.005 207.225 299.881 207.06 299.757Z" fill="#263238"/>
<path d="M210.66 303.648C210.743 303.648 210.826 303.648 210.909 303.606C211.033 303.565 211.116 303.482 211.157 303.358C211.198 303.151 211.116 302.986 211.033 302.82C210.867 302.461 210.702 302.102 210.536 301.744C209.832 300.171 209.211 298.97 209.129 299.012C209.087 299.012 209.584 300.295 210.329 301.827C210.495 302.213 210.66 302.572 210.826 302.903C210.909 303.068 210.991 303.234 210.95 303.317C210.95 303.441 210.784 303.482 210.66 303.482C210.081 303.606 209.75 303.689 209.75 303.731C209.75 303.772 210.122 303.731 210.66 303.648V303.648Z" fill="#263238"/>
<path d="M210.867 310.437C208.853 310.713 206.894 310.355 204.99 309.361C206.204 311.238 208.191 311.941 210.95 311.472L210.867 310.437Z" fill="#EB996E"/>
<path d="M207.184 298.019C206.935 297.936 206.563 297.895 206.19 297.978C205.776 298.061 205.445 298.226 205.238 298.392C205.031 298.557 204.948 298.681 204.99 298.764C205.073 298.888 205.611 298.64 206.273 298.557C206.935 298.392 207.515 298.433 207.556 298.267C207.598 298.226 207.432 298.102 207.184 298.019V298.019Z" fill="#FF725E"/>
<path d="M212.772 297.439C212.565 297.315 212.192 297.232 211.82 297.273C211.406 297.273 211.033 297.398 210.826 297.522C210.619 297.687 210.578 297.812 210.619 297.894C210.743 298.019 211.24 297.853 211.82 297.853C212.399 297.812 212.896 297.894 213.02 297.77C213.061 297.687 212.979 297.563 212.772 297.439Z" fill="#FF725E"/>
<path fill-rule="evenodd" clip-rule="evenodd" d="M210.288 292.017C210.247 291.769 210.04 291.603 209.833 291.437C208.508 290.568 206.811 290.403 205.28 290.734C203.707 291.106 202.341 291.934 201.099 292.928C200.023 293.797 199.029 294.79 198.533 296.115C198.201 297.026 198.119 297.978 198.077 298.971C197.912 301.372 197.415 303.814 197.622 306.215C197.705 307.167 197.622 308.74 197.87 309.899C198.16 311.099 199.443 312.507 200.685 312.714H202.258C201.816 309.43 201.596 307.167 201.596 305.925C201.554 304.766 201.554 301.827 201.513 300.875C201.679 300.792 202.051 300.834 202.175 300.751C202.755 300.42 203.003 299.592 203.583 299.261C204.079 298.93 204.617 298.599 205.114 298.226C205.652 297.812 206.149 297.315 206.646 296.819C207.336 296.129 208.039 295.453 208.757 294.79C209.171 294.335 209.626 293.921 209.916 293.383C210.206 292.845 210.495 292.555 210.288 292.017V292.017Z" fill="#FF725E"/>
<path d="M201.757 302.038C201.674 301.169 200.64 300.631 199.936 301.127C199.522 301.417 199.232 301.914 199.356 302.866C199.605 305.35 202.047 304.563 202.047 304.48C202.047 304.439 201.881 303.073 201.757 302.038Z" fill="#FFBE9D"/>
<path d="M201.183 303.603C201.183 303.603 201.141 303.645 201.1 303.686C201.017 303.727 200.893 303.769 200.769 303.727C200.479 303.645 200.231 303.272 200.148 302.817C200.106 302.61 200.148 302.361 200.189 302.196C200.272 301.989 200.355 301.865 200.479 301.823C200.644 301.782 200.727 301.823 200.769 301.906C200.81 301.989 200.81 302.03 200.81 302.03C200.81 302.03 200.851 301.989 200.81 301.865C200.81 301.837 200.782 301.796 200.727 301.741C200.644 301.699 200.562 301.699 200.479 301.699C200.272 301.741 200.106 301.948 200.065 302.154C199.982 302.361 199.941 302.61 199.982 302.858C200.065 303.355 200.355 303.769 200.727 303.852C200.934 303.893 201.058 303.81 201.141 303.727C201.183 303.686 201.183 303.603 201.183 303.603Z" fill="#EB996E"/>
<path d="M200.933 305.222C200.659 305.222 200.436 305 200.436 304.725C200.436 304.451 200.659 304.229 200.933 304.229C201.207 304.229 201.43 304.451 201.43 304.725C201.43 305 201.207 305.222 200.933 305.222Z" fill="#263238"/>
<path d="M208.26 304.889C208.053 305.179 208.011 305.593 208.136 305.924C208.301 306.255 208.591 306.545 208.963 306.628C209.088 306.669 209.253 306.669 209.377 306.587C209.626 306.504 209.708 306.214 209.791 305.966C209.846 305.772 209.915 305.566 209.998 305.345C209.998 305.303 210.04 305.221 209.998 305.138C209.957 305.096 209.874 305.055 209.791 305.055C209.295 304.972 208.798 304.889 208.301 304.807" fill="#EB996E"/>
<path d="M208.716 306.381C208.509 306.298 208.302 306.174 208.178 305.967C208.053 305.76 208.095 305.47 208.178 305.18C208.233 305.042 208.302 304.932 208.385 304.849H208.302C209.337 305.139 210.123 305.18 210.123 305.139C210.123 305.098 209.337 304.973 208.343 304.684H208.302L208.26 304.725C208.15 304.835 208.067 304.973 208.012 305.139C207.957 305.304 207.929 305.456 207.929 305.594C207.929 305.76 207.971 305.925 208.053 306.05C208.219 306.298 208.467 306.422 208.674 306.505C209.088 306.588 209.337 306.546 209.337 306.505C209.337 306.505 209.088 306.505 208.716 306.381V306.381Z" fill="#263238"/>
<path d="M203.997 294.873C202.424 295.991 201.099 297.44 200.064 299.054L201.43 301.331C203.707 301.124 203.997 300.875 205.57 299.261C207.184 297.605 210.371 294.377 210.578 292.059C208.384 292.679 205.818 293.59 203.997 294.873Z" fill="#FF725E"/>
<path d="M200.395 312.631C200.395 312.631 200.354 312.548 200.271 312.383C200.188 312.245 200.078 312.024 199.94 311.72C199.65 311.141 199.278 310.272 198.946 309.154C198.615 308.036 198.367 306.67 198.284 305.139C198.284 304.394 198.284 303.566 198.408 302.779C198.574 301.952 198.905 301.124 199.526 300.544C200.147 299.923 200.933 299.509 201.678 299.137C202.424 298.764 203.127 298.392 203.79 297.936C205.073 297.067 206.066 296.074 206.811 295.204C207.598 294.294 208.094 293.507 208.467 292.969C208.633 292.693 208.757 292.473 208.839 292.307C208.922 292.169 208.95 292.086 208.922 292.059C208.922 292.059 208.881 292.141 208.798 292.307C208.688 292.445 208.55 292.652 208.384 292.928C208.012 293.466 207.474 294.252 206.728 295.122C205.942 295.991 204.949 296.943 203.665 297.812C203.044 298.226 202.341 298.599 201.596 298.971C200.851 299.344 200.023 299.758 199.402 300.379C198.739 301.041 198.408 301.91 198.243 302.738C198.077 303.566 198.077 304.394 198.119 305.139C198.201 306.712 198.491 308.078 198.822 309.195C199.153 310.313 199.567 311.182 199.857 311.762C200.023 312.038 200.147 312.259 200.23 312.424C200.312 312.562 200.368 312.631 200.395 312.631V312.631Z" fill="white"/>
<path d="M198.615 299.633C198.657 299.675 198.657 298.847 199.402 297.936C199.774 297.439 200.271 296.984 200.975 296.57C201.637 296.156 202.424 295.784 203.251 295.411C204.949 294.625 206.315 293.673 207.184 292.845C207.639 292.431 208.012 292.1 208.219 291.851C208.426 291.603 208.55 291.437 208.55 291.437C208.55 291.437 208.384 291.562 208.177 291.81C207.929 292.017 207.556 292.348 207.101 292.762C206.19 293.507 204.824 294.459 203.169 295.204C202.341 295.618 201.554 295.949 200.851 296.405C200.188 296.819 199.65 297.357 199.278 297.853C198.947 298.309 198.74 298.805 198.657 299.137C198.629 299.302 198.615 299.426 198.615 299.509C198.615 299.592 198.615 299.633 198.615 299.633V299.633Z" fill="white"/>
<path d="M215.752 310.105C215.752 310.105 215.752 310.036 215.752 309.898C215.752 309.733 215.752 309.526 215.752 309.277C215.711 308.781 215.711 307.994 215.628 307.083C215.545 305.179 215.379 302.613 215.007 299.757C214.8 298.349 214.552 296.983 214.138 295.824C213.724 294.624 213.061 293.672 212.399 293.01C211.695 292.347 211.033 291.975 210.536 291.809C210.247 291.727 210.081 291.685 209.915 291.644C209.778 291.616 209.709 291.616 209.709 291.644C209.709 291.644 209.998 291.685 210.495 291.892C210.992 292.058 211.654 292.43 212.316 293.093C212.937 293.755 213.558 294.707 213.972 295.866C214.386 297.025 214.593 298.391 214.8 299.798C215.172 302.613 215.379 305.221 215.504 307.083C215.586 307.994 215.628 308.739 215.669 309.277C215.697 309.526 215.711 309.733 215.711 309.898C215.738 310.036 215.752 310.105 215.752 310.105Z" fill="white"/>
<path d="M222.25 322.815C221.947 320.414 221.229 318.62 220.098 317.434C218.939 316.247 215.945 314.909 211.116 313.418C210.922 315.102 210.246 316.15 209.087 316.564C207.266 317.227 205.196 316.978 203.83 315.405C202.975 314.412 202.423 313.267 202.175 311.97C196.407 312.494 193.054 313.543 192.116 315.116C191.178 316.716 190.102 320.566 188.887 326.664L196.959 328.403L196.462 335.812L216.29 335.936L216.911 329.355L222.747 330.183L222.25 322.815Z" fill="#F85052"/>
<path d="M198.573 328.899C198.573 328.899 198.587 328.788 198.614 328.568C198.614 328.319 198.614 327.988 198.614 327.574C198.614 326.746 198.614 325.629 198.573 324.387C198.531 323.145 198.49 321.986 198.49 321.2C198.462 320.786 198.435 320.455 198.407 320.206C198.407 319.985 198.393 319.875 198.366 319.875C198.366 319.875 198.366 319.985 198.366 320.206C198.338 320.455 198.324 320.786 198.324 321.2C198.324 321.986 198.366 323.145 198.366 324.387C198.407 325.629 198.449 326.746 198.49 327.574C198.49 327.988 198.504 328.319 198.531 328.568C198.531 328.788 198.545 328.899 198.573 328.899V328.899Z" fill="#263238"/>
<path d="M218.898 322.399C218.815 322.399 218.318 323.972 217.739 325.959C217.2 327.988 216.745 329.602 216.828 329.602C216.869 329.602 217.366 328.029 217.945 326.042C218.525 324.055 218.939 322.399 218.898 322.399Z" fill="#263238"/>
<path d="M193.026 314.575C193.026 314.617 193.399 314.658 194.019 314.907C194.599 315.113 195.385 315.527 196.089 316.148C196.834 316.769 197.331 317.514 197.621 318.052C197.952 318.591 198.076 318.963 198.076 318.963C198.104 318.963 198.09 318.88 198.035 318.715C197.979 318.522 197.883 318.273 197.745 317.97C197.455 317.39 196.958 316.645 196.213 316.024C195.468 315.362 194.64 314.948 194.061 314.782C193.73 314.672 193.481 314.603 193.316 314.575C193.123 314.548 193.026 314.548 193.026 314.575V314.575Z" fill="#263238"/>
<path d="M220.222 318.136C220.18 318.136 219.974 318.632 219.849 319.253C219.684 319.916 219.601 320.412 219.642 320.412C219.684 320.454 219.849 319.957 220.015 319.295C220.18 318.674 220.263 318.177 220.222 318.136Z" fill="#263238"/>
<path d="M198.366 319.874C198.366 319.915 202.961 320.536 208.632 321.24C214.261 321.943 218.856 322.44 218.897 322.399C218.897 322.357 214.303 321.736 208.632 321.033C203.002 320.329 198.408 319.791 198.366 319.874Z" fill="white"/>
<path d="M190.666 319.584C190.666 319.626 192.364 320.122 194.433 320.619C196.544 321.157 198.241 321.53 198.241 321.447C198.283 321.406 196.586 320.95 194.475 320.412C192.405 319.915 190.666 319.543 190.666 319.584Z" fill="white"/>
<path d="M189.384 324.594C189.343 324.635 191.33 325.09 193.772 325.628C196.214 326.166 198.201 326.539 198.242 326.456C198.242 326.415 196.255 325.96 193.813 325.421C191.371 324.883 189.384 324.511 189.384 324.594V324.594Z" fill="white"/>
<path d="M211.198 315.115C211.156 315.198 213.06 315.736 215.42 316.315C217.779 316.936 219.683 317.392 219.725 317.309C219.725 317.267 217.821 316.729 215.461 316.108C213.102 315.529 211.198 315.074 211.198 315.115V315.115Z" fill="white"/>
<path d="M198.698 327.408C198.698 327.449 202.795 327.739 207.887 328.07C212.937 328.36 217.076 328.567 217.076 328.484C217.076 328.443 212.978 328.153 207.887 327.822C202.837 327.532 198.698 327.325 198.698 327.408Z" fill="white"/>
<path d="M221.629 324.842C221.629 324.801 220.884 324.676 220.015 324.552C219.104 324.469 218.4 324.387 218.4 324.428C218.359 324.469 219.104 324.676 219.973 324.801C220.884 324.883 221.629 324.883 221.629 324.842Z" fill="white"/>
<path d="M198.987 333.495C198.987 333.495 199.236 333.536 199.608 333.577C200.077 333.605 200.657 333.632 201.347 333.66C202.796 333.784 204.782 333.908 206.976 334.033C209.129 334.198 211.116 334.364 212.564 334.488C213.254 334.543 213.82 334.585 214.262 334.612C214.675 334.654 214.924 334.654 214.924 334.654C214.924 334.612 214.675 334.571 214.303 334.529C213.889 334.488 213.309 334.405 212.606 334.322C211.157 334.157 209.17 333.991 206.976 333.826C204.782 333.66 202.796 333.577 201.347 333.536C200.602 333.495 200.022 333.495 199.65 333.453C199.236 333.453 198.987 333.495 198.987 333.495V333.495Z" fill="white"/>
<path d="M214.632 335.936H223.201C223.808 333.811 224.898 330.058 226.471 324.677L222.249 322.979L219.641 329.727L216.909 329.354L214.632 335.936Z" fill="#FFBE9D"/>
<path d="M215.46 335.937H215.709C216.081 335.357 216.205 335.316 216.743 334.736C217.282 334.115 217.778 333.536 218.151 332.956C218.565 332.377 218.855 331.797 219.061 331.342C219.268 330.845 219.393 330.431 219.475 330.141C219.558 329.893 219.6 329.728 219.6 329.728C219.6 329.728 219.517 329.852 219.434 330.141C219.31 330.39 219.144 330.804 218.937 331.259C218.689 331.756 218.399 332.294 218.027 332.873C217.613 333.453 217.157 333.991 216.578 334.612C216.081 335.191 215.874 335.316 215.46 335.937V335.937Z" fill="#EB996E"/>
<path d="M224.981 324.339L226.43 324.795L228.913 322.311L231.231 319.331L232.846 316.558C232.901 316.337 232.777 316.199 232.473 316.144C232.17 316.088 231.728 316.558 231.149 317.551L230.362 318.586C229.81 319 229.534 319.165 229.534 319.083C229.534 319 229.852 318.462 230.486 317.468L232.39 314.157C232.473 313.881 232.363 313.688 232.059 313.577C231.852 313.453 231.48 313.619 231.107 314.074C230.776 314.529 230.362 315.399 230.155 315.647C230.045 315.812 229.645 316.406 228.955 317.427L230.735 313.412C231.204 312.611 231.259 312.142 230.9 312.004C230.321 311.756 229.99 312.749 229.7 313.08C229.451 313.453 228.21 316.144 227.63 316.682C227.244 317.068 227.106 317.123 227.216 316.847C227.63 316.047 228.003 315.33 228.334 314.695C228.789 313.743 228.913 313.039 228.624 312.708C228.43 312.46 227.961 313.067 227.216 314.529L225.602 317.592L224.733 318.255L224.815 317.054C225.34 316.42 225.519 315.785 225.353 315.15C225.188 314.543 224.926 314.35 224.567 314.571L222.497 319.207C222.332 319.759 222.249 321.014 222.249 322.974L224.981 324.339Z" fill="#FFBE9D"/>
<path d="M226.844 321.533C226.844 321.243 226.761 320.912 226.637 320.539C226.513 320.167 226.264 319.753 225.892 319.463C225.561 319.215 225.147 319.049 224.774 319.09L224.857 319.215C224.898 318.552 224.857 318.056 224.816 317.683C224.816 317.31 224.774 317.104 224.774 317.104C224.733 317.104 224.691 317.31 224.691 317.683C224.65 318.056 224.691 318.594 224.65 319.173V319.297H224.774C225.105 319.297 225.437 319.422 225.726 319.67C226.389 320.208 226.596 321.036 226.678 321.574C226.761 322.154 226.803 322.485 226.844 322.485C226.885 322.485 226.885 322.154 226.844 321.533V321.533Z" fill="#EB996E"/>
<path d="M190.335 326.994C191.328 332.265 191.922 335.245 192.115 335.935H199.317L197.786 328.567L190.335 326.994Z" fill="#FFBE9D"/>
<circle cx="210.92" cy="94.2678" r="36.8401" fill="white"/>
<path d="M211.748 71.318H212.162C216.467 71.2352 220.068 74.4639 220.482 78.7274C220.855 82.7011 221.227 87.0888 221.227 89.1999C221.255 92.1526 219.792 93.8773 216.84 94.3741C216.84 94.4982 216.922 95.6159 217.047 96.8991C217.254 99.6724 216.509 103.605 212.493 104.391C207.857 104.971 206.905 100.666 206.698 97.7269L205.374 80.3003C204.877 75.7471 207.154 71.6491 211.748 71.318V71.318Z" fill="#FFD5BD"/>
<path d="M216.875 95.4396C213.95 95.7431 212.018 94.8463 211.08 92.749C213.067 93.9632 214.985 94.4875 216.834 94.322L216.875 95.4396Z" fill="#FFB294"/>
<path d="M219.859 80.8991C219.776 81.0232 219.155 80.8991 218.369 81.106C217.582 81.313 217.086 81.7683 216.962 81.7269C216.92 81.6855 217.003 81.5613 217.21 81.3544C217.417 81.1474 217.831 80.899 218.286 80.7749C218.783 80.6507 219.238 80.6507 219.487 80.7335C219.776 80.7749 219.9 80.8577 219.859 80.8991Z" fill="#263238"/>
<path d="M213.07 81.8008C212.946 81.8422 212.449 81.4283 211.662 81.3041C210.876 81.1385 210.214 81.3041 210.131 81.2213C210.089 81.1799 210.214 81.0971 210.503 81.0143C210.793 80.9315 211.248 80.8901 211.745 80.9729C212.242 81.0971 212.614 81.3041 212.863 81.4696C213.07 81.6352 213.111 81.7594 213.07 81.8008V81.8008Z" fill="#263238"/>
<path d="M212.784 83.4556C213.058 83.4556 213.281 83.2517 213.281 83.0002C213.281 82.7488 213.058 82.5449 212.784 82.5449C212.509 82.5449 212.287 82.7488 212.287 83.0002C212.287 83.2517 212.509 83.4556 212.784 83.4556Z" fill="#263238"/>
<path d="M219.195 82.9556C219.469 82.9556 219.692 82.7518 219.692 82.5003C219.692 82.2488 219.469 82.045 219.195 82.045C218.921 82.045 218.698 82.2488 218.698 82.5003C218.698 82.7518 218.921 82.9556 219.195 82.9556Z" fill="#263238"/>
<path d="M215.437 86.145C215.437 86.1036 215.851 86.0208 216.554 85.938C216.72 85.8966 216.885 85.8552 216.927 85.7311C216.927 85.6069 216.885 85.4413 216.803 85.2343C216.609 84.8204 216.43 84.3789 216.264 83.9097C215.519 82.047 214.981 80.5155 215.064 80.5155C215.105 80.4741 215.768 81.9643 216.513 83.827C216.706 84.2685 216.885 84.71 217.051 85.1515C217.092 85.3171 217.217 85.5655 217.134 85.8138C217.092 85.938 216.968 86.0208 216.844 86.0622C216.761 86.1036 216.637 86.1036 216.554 86.1036C215.892 86.145 215.437 86.1864 215.437 86.145Z" fill="#263238"/>
<path d="M212.617 78.4699C212.534 78.6354 211.955 78.5527 211.251 78.6354C210.547 78.7182 209.968 78.9666 209.885 78.801C209.844 78.7182 209.927 78.5527 210.175 78.3871C210.382 78.2215 210.754 78.0973 211.168 78.0145C211.582 77.9732 211.955 78.0145 212.245 78.1387C212.493 78.2215 212.617 78.3871 212.617 78.4699V78.4699Z" fill="#263238"/>
<path d="M219.695 79.1786C219.612 79.3442 219.033 79.2614 218.329 79.2614C217.625 79.3028 217.087 79.4684 217.004 79.3442C216.963 79.2614 217.046 79.1372 217.294 79.013C217.501 78.8889 217.874 78.7647 218.288 78.7647C218.701 78.7233 219.074 78.8061 219.322 78.9302C219.571 79.013 219.695 79.1372 219.695 79.1786V79.1786Z" fill="#263238"/>
<path d="M205.995 87.8688C205.995 87.9516 203.015 88.7381 202.849 85.7164C202.725 82.6947 205.706 83.5225 205.788 83.5639C205.926 86.3787 205.995 87.8136 205.995 87.8688V87.8688Z" fill="#FFD5BD"/>
<path d="M204.959 86.9605C204.835 87.0019 204.67 87.0847 204.463 87.0433C204.007 86.9191 203.676 86.381 203.635 85.7601C203.635 85.4704 203.676 85.1806 203.8 84.9323C203.883 84.6839 204.09 84.4769 204.297 84.4355C204.421 84.4355 204.545 84.4355 204.587 84.5183C204.67 84.5597 204.711 84.6425 204.711 84.6839C204.752 84.8081 204.711 84.8495 204.711 84.8495C204.67 84.8495 204.711 84.8081 204.67 84.7253C204.628 84.6425 204.504 84.5597 204.338 84.6011C204.173 84.6011 204.049 84.7667 203.966 85.0151C203.883 85.222 203.842 85.4704 203.842 85.7601C203.883 86.2982 204.173 86.795 204.504 86.9191C204.67 86.9605 204.794 86.9192 204.877 86.8778C205.001 86.8364 205.001 86.795 205.042 86.795C205.042 86.795 205.042 86.8778 204.959 86.9605V86.9605Z" fill="#FFB294"/>
<path d="M214.522 88.2468C214.273 88.164 213.942 87.9984 213.694 87.7087C213.445 87.4189 213.321 87.0878 213.239 86.8808C213.156 86.6324 213.156 86.4669 213.197 86.4669C213.197 86.4669 213.28 86.591 213.404 86.798C213.487 87.005 213.652 87.2947 213.859 87.5431C214.356 88.0812 214.936 88.2054 214.936 88.2468C214.894 88.2882 214.77 88.2882 214.522 88.2468Z" fill="#263238"/>
<path d="M225.491 75.2077C225.077 75.4975 224.539 75.663 223.959 75.663C224.249 75.7458 224.456 75.9942 224.539 76.2839C224.58 76.6979 224.332 77.1118 223.918 77.2774C223.545 77.4429 223.09 77.3602 222.759 77.0704C222.897 77.1808 223.021 77.305 223.131 77.443C223.752 78.1052 222.841 79.0987 222.096 78.5606C221.972 78.8089 221.889 79.0159 221.807 79.2643V79.347C221.751 79.485 221.682 79.6368 221.6 79.8024V79.761L220.73 81.8306C220.565 80.6302 220.523 78.8503 220.358 77.6499C218.454 77.7327 216.674 77.1118 215.266 75.8286C214.521 75.1249 213.9 74.2557 212.948 73.8831C211.748 73.3864 210.423 73.9245 209.223 74.4626L209.264 74.4212C208.643 74.7524 208.105 75.2491 207.691 75.7872C208.188 78.188 208.147 80.713 207.567 83.0724C207.484 83.445 207.236 84.1901 206.905 84.3556C206.284 84.6868 206.036 84.0245 205.58 83.6933C205.249 83.445 204.835 83.445 204.339 83.4864C203.966 82.7827 203.593 81.5409 203.221 80.4647C202.848 80.5888 202.393 80.6716 201.979 80.6302C202.09 80.3267 202.186 80.0093 202.269 79.6782C202.145 79.8024 201.979 79.9266 201.772 79.9679C201.565 80.0093 201.358 79.9679 201.234 79.8024C201.11 79.554 201.234 79.3057 201.358 79.0573C201.896 77.9397 201.896 76.6565 202.145 75.4561C202.393 74.2557 202.931 72.9725 204.049 72.4344L204.09 72.4757C205.084 71.9376 206.367 71.8135 207.277 72.4757C207.36 70.9028 208.602 69.5368 210.092 68.9987C211.582 68.4606 214.066 68.502 215.556 68.9573C216.757 69.2885 217.916 70.1577 219.364 71.3995C219.971 71.9238 220.537 72.4895 221.061 73.0966C222.096 73.6348 223.255 73.9245 224.456 73.8417C224.828 73.8003 225.201 73.7175 225.573 73.9245C225.739 73.9659 225.863 74.1315 225.946 74.2971C226.07 74.6696 225.822 75.0007 225.491 75.2077V75.2077Z" fill="#263238"/>
<path d="M208.726 72.8486C208.726 72.8486 208.519 72.9728 208.312 73.3039C208.063 73.5937 207.856 74.1318 207.774 74.7941C207.718 75.1528 207.705 75.5392 207.732 75.9531C207.774 76.3256 207.856 76.781 207.939 77.2363C207.981 77.6502 208.063 78.147 208.105 78.6437C208.105 78.892 208.091 79.1542 208.063 79.4302C208.022 79.6785 207.981 79.9269 207.815 80.1752C207.691 80.3822 207.443 80.465 207.194 80.4236C206.987 80.4236 206.78 80.3408 206.615 80.1752C206.325 79.8855 206.201 79.4715 206.118 79.099H206.201C206.077 79.4302 205.952 79.8027 205.745 80.0511C205.538 80.3408 205.249 80.5478 204.918 80.5892C204.78 80.6168 204.628 80.603 204.462 80.5478C204.338 80.5064 204.214 80.4236 204.131 80.2994C204.076 80.1614 204.034 80.0373 204.007 79.9269C204.007 79.7613 204.048 79.6371 204.131 79.5543L204.172 79.5957C203.883 80.0097 203.552 80.258 203.303 80.3822C203.193 80.4374 203.096 80.4788 203.013 80.5064C202.958 80.534 202.931 80.5478 202.931 80.5478C202.931 80.5478 202.958 80.534 203.013 80.5064C203.069 80.4788 203.165 80.4236 203.303 80.3408C203.51 80.2166 203.841 79.9683 204.131 79.5543L204.172 79.5957C204.048 79.7613 204.048 80.0511 204.214 80.258C204.297 80.3408 204.379 80.465 204.504 80.5064C204.642 80.534 204.78 80.534 204.918 80.5064C205.207 80.465 205.497 80.2994 205.663 80.0097C205.87 79.7613 205.994 79.4301 206.118 79.0576L206.159 78.9334L206.201 79.0576C206.284 79.4301 206.408 79.8441 206.697 80.0924C206.822 80.2166 207.029 80.3408 207.236 80.3408C207.401 80.3408 207.608 80.258 207.732 80.1338C207.856 79.9269 207.939 79.6371 207.939 79.3888C207.967 79.1404 207.981 78.892 207.981 78.6437C207.981 78.147 207.898 77.6916 207.815 77.2363C207.774 76.781 207.691 76.367 207.65 75.9531C207.622 75.5392 207.636 75.1528 207.691 74.7941C207.774 74.0904 208.022 73.5937 208.27 73.2625C208.436 73.0694 208.588 72.9314 208.726 72.8486V72.8486Z" fill="#455A64"/>
<path d="M222.634 75.9113C222.634 75.9113 222.62 75.9251 222.593 75.9527C222.565 75.9803 222.537 76.0079 222.51 76.0355C222.455 76.0907 222.386 76.1321 222.303 76.1597C222.248 76.2148 222.165 76.27 222.054 76.3252C221.682 76.5736 221.061 76.822 220.233 76.822C219.405 76.8633 218.412 76.6564 217.501 76.1183C216.549 75.5388 215.721 74.7109 214.976 73.6761C214.645 73.1793 214.314 72.6826 213.983 72.1859C213.652 71.6892 213.32 71.2752 212.907 70.9441C212.493 70.6129 212.037 70.3646 211.582 70.2818C211.334 70.2404 211.127 70.2404 210.878 70.2818C210.685 70.3094 210.492 70.3646 210.299 70.4474C209.926 70.6129 209.636 70.8199 209.429 71.0683C209.223 71.3166 209.098 71.565 208.974 71.772C208.809 72.1859 208.85 72.4343 208.809 72.4343C208.809 72.4343 208.809 72.4205 208.809 72.3929C208.809 72.3377 208.822 72.2963 208.85 72.2687C208.85 72.1307 208.891 71.9513 208.974 71.7306C209.057 71.5236 209.181 71.2752 209.388 71.0269C209.595 70.7785 209.885 70.5302 210.257 70.3646C210.451 70.2818 210.657 70.2266 210.878 70.199C211.085 70.1576 211.334 70.1576 211.582 70.199C212.037 70.2818 212.534 70.5302 212.948 70.8613C213.362 71.1925 213.734 71.6478 214.066 72.1445C214.397 72.5998 214.728 73.1379 215.059 73.6347C215.804 74.6281 216.632 75.456 217.543 76.0355C218.453 76.5736 219.405 76.7806 220.233 76.7806C221.02 76.7392 221.641 76.5322 222.054 76.3252C222.427 76.0769 222.634 75.9113 222.634 75.9113V75.9113Z" fill="#455A64"/>
<path d="M222.841 73.9663C222.841 73.9663 222.799 74.0077 222.717 74.0905C222.606 74.1733 222.454 74.2699 222.261 74.3803C222.068 74.4631 221.834 74.5597 221.558 74.67C221.282 74.7528 220.964 74.8218 220.606 74.877C220.274 74.9046 219.957 74.9046 219.653 74.877C219.378 74.8494 219.129 74.808 218.908 74.7528C218.688 74.6976 218.522 74.6424 218.412 74.5872C218.301 74.5596 218.246 74.5321 218.246 74.5045C218.246 74.5045 218.494 74.5872 218.908 74.7114C219.129 74.739 219.391 74.7666 219.695 74.7942C219.971 74.8218 220.274 74.808 220.606 74.7528C220.937 74.7252 221.24 74.67 221.516 74.5872C221.792 74.5045 222.027 74.4079 222.22 74.2975C222.634 74.0905 222.841 73.925 222.841 73.9663V73.9663Z" fill="#455A64"/>
<path d="M213.28 98.3459C215.101 98.2907 216.301 97.5318 216.881 96.0693C222.841 98.8012 226.47 100.678 227.767 101.699C229.782 103.244 231.203 108.032 232.031 116.062H189.81C190.306 114.02 190.693 112.406 190.969 111.219C191.093 110.805 192.583 105.383 193.08 104.679C195.067 101.74 197.923 99.4635 201.234 98.0975L206.532 95.8623C208.243 97.5732 210.492 98.4011 213.28 98.3459V98.3459Z" fill="#F85052"/>
<circle cx="210.92" cy="209.123" r="36.8401" fill="white"/>
<path d="M228.058 195.187C227.437 194.401 226.65 193.615 226.485 192.621C226.361 191.71 226.733 190.676 226.319 189.848C225.822 188.813 224.374 188.606 223.711 187.654C223.422 187.157 223.339 186.578 223.049 186.122C222.511 185.336 221.435 185.046 220.483 185.129C219.531 185.17 218.62 185.46 217.668 185.501C216.385 185.501 215.06 185.005 213.777 185.336C212.37 185.667 211.459 186.867 210.507 187.985L209.265 189.31C209.017 189.53 208.755 189.724 208.479 189.889C207.982 190.22 207.402 190.386 206.947 190.758C205.995 191.586 205.995 193.283 206.947 194.111C205.912 194.36 205.167 195.394 205.167 196.429C205.167 197.009 205.374 197.588 205.54 198.126C205.664 198.706 205.747 199.327 205.498 199.824C205.25 200.362 204.546 200.693 204.049 200.362C204.174 201.148 204.712 201.81 205.374 202.183C205.084 202.431 204.712 202.597 204.298 202.597C205.25 205.122 208.065 206.571 210.755 206.695C213.446 206.819 216.054 205.95 218.62 205.039L225.947 203.508C226.609 203.383 226.899 202.638 226.94 201.976C226.94 201.314 226.816 200.651 227.064 200.03C227.437 199.203 228.43 198.83 228.803 198.002C229.217 197.092 228.72 196.015 228.058 195.187V195.187Z" fill="#263238"/>
<path d="M211.874 195.978C212.122 194.239 211.957 192.377 211.17 190.762C211.087 190.597 211.625 189.107 211.46 189.065C211.17 189.024 210.342 190.638 210.218 190.887C209.556 192.459 209.39 194.239 209.556 195.937C209.721 197.675 210.135 199.331 210.591 200.987C211.211 199.331 211.667 197.758 211.874 195.978V195.978Z" fill="#263238"/>
<path d="M209.72 211.498L219.696 212.202C219.834 209.967 219.903 208.849 219.903 208.849C222.69 208.711 224.25 207.276 224.581 204.544C224.829 202.557 224.953 198.418 225.077 194.651C225.16 190.636 222.139 187.2 218.123 186.786L217.751 186.745C213.446 186.538 210.838 190.098 210.755 194.444L209.72 211.498Z" fill="#B28F83"/>
<path d="M219.904 208.84C218.166 208.785 216.427 208.067 214.689 206.688C215.351 208.785 217.062 209.861 219.822 209.916L219.904 208.84Z" fill="#826A63"/>
<path d="M222.882 198.73C222.562 198.73 222.303 198.471 222.303 198.151C222.303 197.831 222.562 197.571 222.882 197.571C223.202 197.571 223.462 197.831 223.462 198.151C223.462 198.471 223.202 198.73 222.882 198.73Z" fill="#263238"/>
<path d="M223.796 195.93C223.631 195.765 223.299 195.599 222.927 195.558C222.513 195.516 222.182 195.599 221.975 195.723C221.727 195.847 221.644 195.972 221.685 196.013C221.727 196.096 222.223 195.847 222.886 195.93C223.506 195.972 223.92 196.344 224.003 196.303C224.045 196.261 224.003 196.096 223.796 195.93V195.93Z" fill="#263238"/>
<path d="M217.172 198.412C216.852 198.412 216.593 198.152 216.593 197.832C216.593 197.512 216.852 197.253 217.172 197.253C217.493 197.253 217.752 197.512 217.752 197.832C217.752 198.152 217.493 198.412 217.172 198.412Z" fill="#263238"/>
<path d="M217.586 195.553C217.379 195.346 217.089 195.18 216.675 195.139C216.303 195.098 215.93 195.222 215.723 195.346C215.516 195.47 215.434 195.594 215.434 195.636C215.516 195.718 216.013 195.429 216.634 195.512C217.255 195.553 217.669 195.967 217.752 195.884C217.793 195.843 217.752 195.718 217.586 195.553V195.553Z" fill="#263238"/>
<path d="M220.565 201.11C220.648 201.11 220.73 201.11 220.855 201.11C220.937 201.069 221.061 201.027 221.144 200.903C221.227 200.655 221.144 200.448 221.103 200.241C221.02 199.827 220.91 199.399 220.772 198.958C220.316 197.136 219.861 195.688 219.778 195.688C219.695 195.688 220.027 197.219 220.523 199.04C220.634 199.482 220.744 199.91 220.855 200.324C220.937 200.489 220.979 200.696 220.937 200.82C220.896 200.903 220.73 200.944 220.565 200.944C219.944 200.944 219.53 200.944 219.53 200.986C219.53 201.027 219.902 201.069 220.565 201.11V201.11Z" fill="#263238"/>
<path d="M217.464 201.692C217.464 201.981 217.588 202.395 217.92 202.726C218.251 203.058 218.665 203.223 218.954 203.223C219.286 203.265 219.451 203.182 219.451 203.14C219.451 203.058 218.706 203.058 218.168 202.478C217.63 201.94 217.713 201.236 217.63 201.236C217.547 201.236 217.464 201.402 217.464 201.692Z" fill="#263238"/>
<path d="M217.668 192.956C217.378 192.791 217.006 192.708 216.55 192.708C216.095 192.708 215.681 192.832 215.433 192.956C215.184 193.081 215.06 193.246 215.101 193.329C215.184 193.494 215.805 193.329 216.55 193.329C217.295 193.329 217.916 193.494 217.999 193.329C218.04 193.246 217.916 193.081 217.668 192.956Z" fill="#263238"/>
<path d="M223.794 193.78C223.629 193.615 223.339 193.449 222.966 193.366C222.635 193.325 222.263 193.408 222.097 193.532C221.849 193.656 221.766 193.78 221.807 193.863C221.89 194.029 222.345 193.946 222.883 194.029C223.422 194.07 223.835 194.277 223.96 194.153C224.001 194.07 223.96 193.946 223.794 193.78V193.78Z" fill="#263238"/>
<path d="M210.798 197.506C210.715 197.464 208.024 196.388 207.818 199.203C207.611 202.017 210.508 201.645 210.508 201.562C210.508 201.535 210.605 200.182 210.798 197.506Z" fill="#B28F83"/>
<path d="M209.721 200.443C209.721 200.443 209.679 200.484 209.597 200.525C209.514 200.525 209.348 200.567 209.224 200.484C208.934 200.36 208.727 199.863 208.727 199.366C208.727 199.077 208.81 198.87 208.934 198.663C209.017 198.456 209.183 198.332 209.307 198.29C209.472 198.29 209.555 198.373 209.597 198.456C209.638 198.539 209.597 198.58 209.638 198.621C209.638 198.621 209.679 198.58 209.679 198.456C209.679 198.373 209.652 198.304 209.597 198.249C209.514 198.207 209.431 198.166 209.307 198.166C209.1 198.166 208.893 198.332 208.769 198.58C208.644 198.787 208.562 199.035 208.52 199.325C208.52 199.905 208.769 200.484 209.183 200.608C209.348 200.691 209.514 200.65 209.638 200.567C209.721 200.525 209.721 200.443 209.721 200.443V200.443Z" fill="#826A63"/>
<path d="M223.545 189.851C224.001 189.644 222.717 188.071 221.641 187.492C219.985 186.581 217.419 185.96 215.805 186.291C213.901 186.705 212.245 187.575 211.21 189.23C210.134 190.886 209.637 192.873 209.596 194.818C209.554 195.439 209.596 196.06 209.885 196.557C210.217 197.219 210.962 197.675 210.879 198.544C210.838 198.834 210.92 199.165 211.127 199.413C211.583 199.993 212.245 199.537 212.576 199.041C213.28 197.964 213.445 196.64 213.569 195.357C213.652 194.446 213.776 193.535 213.569 192.666C213.445 192.169 213.28 191.714 213.197 191.217C213.114 190.762 213.156 190.224 213.487 189.851C213.542 189.768 213.625 189.686 213.735 189.603C214.563 188.982 215.681 188.816 216.674 189.23C218.247 189.934 220.896 190.927 221.641 190.431C222.359 189.962 222.814 189.561 223.007 189.23L223.545 189.851Z" fill="#263238"/>
<path d="M211.832 188.439C212.95 188.232 214.109 188.315 215.185 188.77C216.178 189.184 217.048 189.846 218.041 190.26C219.2 190.757 219.986 190.964 221.228 190.633H221.27C222.097 190.343 222.511 189.349 222.346 188.48C222.139 187.611 221.518 186.949 220.773 186.493C219.366 185.624 217.586 185.5 215.971 185.914C214.398 186.328 212.991 187.28 211.832 188.439V188.439Z" fill="#263238"/>
<path d="M205.664 204.089C205.871 204.089 206.161 204.047 206.492 203.84C206.782 203.633 207.113 203.302 207.278 202.764C207.403 202.267 207.403 201.646 207.278 201.026C207.113 200.363 206.864 199.701 206.699 198.956C206.657 198.625 206.616 198.211 206.658 197.838C206.699 197.466 206.864 197.052 207.113 196.762C207.403 196.431 207.775 196.224 208.189 196.1C208.603 195.934 209.058 195.81 209.472 195.562C210.3 195.023 210.797 194.113 211.128 193.161C211.418 192.209 211.542 191.257 211.79 190.387C212.039 189.477 212.411 188.649 212.991 188.069C213.612 187.49 214.398 187.242 215.143 187.2C215.888 187.159 216.592 187.366 217.13 187.614C218.289 188.194 218.993 189.021 219.448 189.56C219.655 189.849 219.821 190.098 219.945 190.222C220.055 190.387 220.11 190.47 220.11 190.47C220.11 190.47 220.069 190.387 219.986 190.222C219.862 190.056 219.738 189.808 219.489 189.518C219.076 188.939 218.372 188.111 217.213 187.49C216.633 187.2 215.888 186.993 215.143 187.035C214.357 187.035 213.487 187.324 212.867 187.945C212.204 188.566 211.832 189.435 211.583 190.305C211.335 191.215 211.211 192.167 210.921 193.119C210.631 194.03 210.135 194.899 209.348 195.355C208.976 195.603 208.52 195.727 208.106 195.893C207.692 196.058 207.278 196.265 206.989 196.638C206.699 196.969 206.533 197.383 206.492 197.797C206.451 198.211 206.451 198.625 206.533 198.997C206.699 199.784 206.989 200.405 207.113 201.067C207.278 201.688 207.278 202.267 207.154 202.723C207.03 203.219 206.699 203.551 206.451 203.757C206.119 203.964 205.871 204.047 205.664 204.047C205.498 204.047 205.374 204.006 205.374 204.047C205.457 204.075 205.554 204.089 205.664 204.089V204.089Z" fill="#455A64"/>
<path d="M219.778 186.164C220.234 186.371 220.896 186.744 221.31 187.406C221.765 188.068 221.89 188.772 221.931 189.31C221.931 189.807 221.848 190.138 221.848 190.138C221.89 190.138 222.014 189.848 222.055 189.31C222.096 188.772 221.972 187.986 221.476 187.282C221.02 186.578 220.317 186.206 219.82 186.04C219.323 185.833 218.951 185.874 218.951 185.874C218.951 185.916 219.282 185.957 219.778 186.164V186.164Z" fill="#455A64"/>
<path d="M224.664 189.766C224.664 190.304 224.498 190.76 224.539 190.76C224.581 190.801 224.829 190.387 224.871 189.766C224.912 189.187 224.705 188.731 224.664 188.731C224.622 188.731 224.705 189.187 224.664 189.766Z" fill="#455A64"/>
<path d="M200.82 218.162L200.282 232.815H225.656L230.665 217.872L219.737 211.87L210.465 210.09L200.158 213.319L200.82 218.162Z" fill="#F85052"/>
<path d="M219.903 212.325V210.752L209.638 209.221L209.721 212.325L220.11 213.443L219.903 212.325Z" fill="#F85052"/>
<path d="M188.775 232.815H199.869L200.49 230.166L201.731 215.844L201.069 213.07C200.738 213.07 195.978 213.319 194.488 216.92C193.536 219.238 190.514 227.144 188.775 232.815Z" fill="#F85052"/>
<path d="M224.208 227.061L224.746 232.815H232.859C232.556 228.924 232.335 225.695 232.197 223.129C232.087 220.563 231.576 218.81 230.666 217.872L224.208 227.061Z" fill="#F85052"/>
<path d="M225.409 232.648C225.45 232.69 226.154 230.868 226.941 228.633C227.768 226.398 228.348 224.577 228.307 224.535C228.224 224.535 227.561 226.315 226.734 228.55C225.947 230.786 225.368 232.648 225.409 232.648Z" fill="#263238"/>
<path d="M200.779 218.615C200.696 218.615 200.531 221.761 200.407 225.652C200.241 229.502 200.2 232.648 200.241 232.648C200.324 232.689 200.49 229.543 200.614 225.652C200.738 221.761 200.821 218.615 200.779 218.615Z" fill="#263238"/>
<path d="M272.411 61.0248L273.115 63.1919C273.163 63.3387 273.255 63.4669 273.38 63.5583C273.504 63.6496 273.654 63.6996 273.809 63.7012H276.095C276.248 63.7041 276.396 63.7545 276.519 63.8454C276.642 63.9362 276.733 64.0631 276.781 64.2083C276.828 64.3535 276.83 64.51 276.785 64.6559C276.739 64.8019 276.65 64.9302 276.528 65.0231L274.686 66.3667C274.56 66.4577 274.466 66.5864 274.417 66.7344C274.368 66.8823 274.368 67.0419 274.415 67.1902L275.12 69.3572C275.157 69.4981 275.151 69.6467 275.104 69.7844C275.056 69.922 274.969 70.0425 274.853 70.1306C274.737 70.2187 274.597 70.2705 274.452 70.2794C274.307 70.2883 274.162 70.254 274.036 70.1807L272.194 68.8371C272.068 68.7455 271.917 68.6962 271.761 68.6962C271.605 68.6962 271.453 68.7455 271.327 68.8371L269.485 70.1807C269.36 70.254 269.215 70.2883 269.069 70.2794C268.924 70.2705 268.785 70.2187 268.669 70.1306C268.553 70.0425 268.466 69.922 268.418 69.7844C268.371 69.6467 268.365 69.4981 268.402 69.3572L269.106 67.1902C269.154 67.0419 269.153 66.8823 269.105 66.7344C269.056 66.5864 268.962 66.4577 268.835 66.3667L266.993 65.0231C266.872 64.9302 266.782 64.8019 266.737 64.6559C266.692 64.51 266.693 64.3535 266.741 64.2083C266.788 64.0631 266.88 63.9362 267.003 63.8454C267.126 63.7545 267.274 63.7041 267.427 63.7012H269.713C269.867 63.6996 270.017 63.6496 270.142 63.5583C270.266 63.4669 270.359 63.3387 270.406 63.1919L271.111 61.0248C271.174 60.907 271.267 60.8085 271.382 60.7398C271.496 60.6711 271.627 60.6348 271.761 60.6348C271.894 60.6348 272.025 60.6711 272.14 60.7398C272.254 60.8085 272.348 60.907 272.411 61.0248V61.0248Z" fill="#455A64"/>
<path d="M287.353 61.0248L288.058 63.1919C288.105 63.3387 288.198 63.4669 288.322 63.5583C288.447 63.6496 288.597 63.6996 288.751 63.7012H291.037C291.19 63.7041 291.338 63.7545 291.461 63.8454C291.584 63.9362 291.676 64.0631 291.723 64.2083C291.771 64.3535 291.772 64.51 291.727 64.6559C291.682 64.8019 291.592 64.9302 291.471 65.0231L289.629 66.3667C289.502 66.4577 289.408 66.5864 289.359 66.7344C289.311 66.8823 289.31 67.0419 289.358 67.1902L290.062 69.3572C290.099 69.4981 290.093 69.6467 290.046 69.7844C289.998 69.922 289.911 70.0425 289.795 70.1306C289.679 70.2187 289.54 70.2705 289.395 70.2794C289.249 70.2883 289.104 70.254 288.979 70.1807L287.137 68.8371C287.011 68.7455 286.859 68.6962 286.703 68.6962C286.547 68.6962 286.396 68.7455 286.27 68.8371L284.428 70.1807C284.302 70.254 284.157 70.2883 284.012 70.2794C283.867 70.2705 283.727 70.2187 283.611 70.1306C283.495 70.0425 283.408 69.922 283.361 69.7844C283.313 69.6467 283.307 69.4981 283.344 69.3572L284.049 67.1902C284.096 67.0419 284.096 66.8823 284.047 66.7344C283.998 66.5864 283.904 66.4577 283.778 66.3667L281.936 65.0231C281.814 64.9302 281.725 64.8019 281.679 64.6559C281.634 64.51 281.636 64.3535 281.683 64.2083C281.731 64.0631 281.822 63.9362 281.945 63.8454C282.068 63.7545 282.216 63.7041 282.369 63.7012H284.655C284.81 63.6996 284.96 63.6496 285.084 63.5583C285.209 63.4669 285.301 63.3387 285.349 63.1919L286.053 61.0248C286.116 60.907 286.21 60.8085 286.324 60.7398C286.439 60.6711 286.57 60.6348 286.703 60.6348C286.837 60.6348 286.968 60.6711 287.082 60.7398C287.197 60.8085 287.29 60.907 287.353 61.0248Z" fill="#455A64"/>
<path d="M302.306 61.0248L303.011 63.1919C303.058 63.3387 303.151 63.4669 303.275 63.5583C303.4 63.6496 303.55 63.6996 303.704 63.7012H305.99C306.143 63.7041 306.291 63.7545 306.414 63.8454C306.537 63.9362 306.629 64.0631 306.676 64.2083C306.724 64.3535 306.725 64.51 306.68 64.6559C306.635 64.8019 306.545 64.9302 306.424 65.0231L304.582 66.3667C304.455 66.4577 304.361 66.5864 304.313 66.7344C304.264 66.8823 304.263 67.0419 304.311 67.1902L305.015 69.3572C305.052 69.4981 305.047 69.6467 304.999 69.7844C304.952 69.922 304.864 70.0425 304.748 70.1306C304.632 70.2187 304.493 70.2705 304.348 70.2794C304.202 70.2883 304.058 70.254 303.932 70.1807L302.09 68.8371C301.964 68.7455 301.812 68.6962 301.656 68.6962C301.501 68.6962 301.349 68.7455 301.223 68.8371L299.381 70.1807C299.255 70.254 299.11 70.2883 298.965 70.2794C298.82 70.2705 298.68 70.2187 298.564 70.1306C298.448 70.0425 298.361 69.922 298.314 69.7844C298.266 69.6467 298.26 69.4981 298.297 69.3572L299.002 67.1902C299.049 67.0419 299.049 66.8823 299 66.7344C298.951 66.5864 298.857 66.4577 298.731 66.3667L296.889 65.0231C296.767 64.9302 296.678 64.8019 296.633 64.6559C296.587 64.51 296.589 64.3535 296.636 64.2083C296.684 64.0631 296.775 63.9362 296.898 63.8454C297.021 63.7545 297.169 63.7041 297.322 63.7012H299.608C299.763 63.6996 299.913 63.6496 300.037 63.5583C300.162 63.4669 300.254 63.3387 300.302 63.1919L301.006 61.0248C301.069 60.907 301.163 60.8085 301.277 60.7398C301.392 60.6711 301.523 60.6348 301.656 60.6348C301.79 60.6348 301.921 60.6711 302.035 60.7398C302.15 60.8085 302.244 60.907 302.306 61.0248V61.0248Z" fill="#455A64"/>
<path d="M317.259 61.0248L317.963 63.1919C318.011 63.3387 318.103 63.4669 318.228 63.5583C318.352 63.6496 318.502 63.6996 318.656 63.7012H320.943C321.095 63.7041 321.244 63.7545 321.366 63.8454C321.489 63.9362 321.581 64.0631 321.629 64.2083C321.676 64.3535 321.677 64.51 321.632 64.6559C321.587 64.8019 321.497 64.9302 321.376 65.0231L319.534 66.3667C319.408 66.4577 319.313 66.5864 319.265 66.7344C319.216 66.8823 319.215 67.0419 319.263 67.1902L319.967 69.3572C320.004 69.4981 319.999 69.6467 319.951 69.7844C319.904 69.922 319.816 70.0425 319.701 70.1306C319.585 70.2187 319.445 70.2705 319.3 70.2794C319.154 70.2883 319.01 70.254 318.884 70.1807L317.042 68.8371C316.916 68.7455 316.764 68.6962 316.608 68.6962C316.453 68.6962 316.301 68.7455 316.175 68.8371L314.333 70.1807C314.207 70.254 314.063 70.2883 313.917 70.2794C313.772 70.2705 313.632 70.2187 313.516 70.1306C313.401 70.0425 313.313 69.922 313.266 69.7844C313.218 69.6467 313.213 69.4981 313.25 69.3572L313.954 67.1902C314.002 67.0419 314.001 66.8823 313.952 66.7344C313.904 66.5864 313.809 66.4577 313.683 66.3667L311.841 65.0231C311.72 64.9302 311.63 64.8019 311.585 64.6559C311.54 64.51 311.541 64.3535 311.588 64.2083C311.636 64.0631 311.728 63.9362 311.851 63.8454C311.973 63.7545 312.122 63.7041 312.274 63.7012H314.561C314.715 63.6996 314.865 63.6496 314.989 63.5583C315.114 63.4669 315.206 63.3387 315.254 63.1919L315.958 61.0248C316.021 60.907 316.115 60.8085 316.229 60.7398C316.344 60.6711 316.475 60.6348 316.608 60.6348C316.742 60.6348 316.873 60.6711 316.988 60.7398C317.102 60.8085 317.196 60.907 317.259 61.0248V61.0248Z" fill="#455A64"/>
<path d="M332.211 61.0246L332.916 63.1917C332.963 63.3385 333.056 63.4667 333.18 63.5581C333.305 63.6494 333.455 63.6994 333.609 63.701H335.841C335.994 63.7039 336.142 63.7543 336.265 63.8452C336.388 63.936 336.479 64.0628 336.527 64.2081C336.575 64.3533 336.576 64.5098 336.531 64.6557C336.485 64.8017 336.396 64.93 336.274 65.0229L334.432 66.3665C334.306 66.4575 334.212 66.5862 334.163 66.7342C334.114 66.8821 334.114 67.0417 334.162 67.1899L334.866 69.357C334.903 69.4979 334.897 69.6465 334.85 69.7842C334.802 69.9218 334.715 70.0423 334.599 70.1304C334.483 70.2185 334.344 70.2703 334.198 70.2792C334.053 70.2881 333.908 70.2538 333.782 70.1805L331.94 68.8369C331.814 68.7453 331.663 68.696 331.507 68.696C331.351 68.696 331.199 68.7453 331.074 68.8369L329.232 70.1805C329.106 70.2538 328.961 70.2881 328.816 70.2792C328.67 70.2703 328.531 70.2185 328.415 70.1304C328.299 70.0423 328.212 69.9218 328.164 69.7842C328.117 69.6465 328.111 69.4979 328.148 69.357L328.852 67.1899C328.9 67.0417 328.899 66.8821 328.851 66.7342C328.802 66.5862 328.708 66.4575 328.581 66.3665L326.739 65.0229C326.618 64.93 326.528 64.8017 326.483 64.6557C326.438 64.5098 326.439 64.3533 326.487 64.2081C326.534 64.0628 326.626 63.936 326.749 63.8452C326.872 63.7543 327.02 63.7039 327.173 63.701H329.459C329.613 63.6994 329.763 63.6494 329.888 63.5581C330.012 63.4667 330.105 63.3385 330.153 63.1917L330.857 61.0246C330.914 60.8921 331.008 60.7792 331.128 60.6998C331.249 60.6204 331.39 60.5781 331.534 60.5781C331.678 60.5781 331.819 60.6204 331.94 60.6998C332.06 60.7792 332.154 60.8921 332.211 61.0246V61.0246Z" fill="#CBD9EC"/>
<path d="M344.758 76.0752H264.566C262.46 76.0752 260.752 77.7828 260.752 79.8892V81.6229C260.752 83.7293 262.46 85.4369 264.566 85.4369H344.758C346.865 85.4369 348.572 83.7293 348.572 81.6229V79.8892C348.572 77.7828 346.865 76.0752 344.758 76.0752Z" fill="#D1D0D0"/>
<path d="M428.451 95.1016H398.903V124.65H428.451V95.1016Z" fill="#DFDFDF"/>
<path d="M166.854 144.11H426.284" stroke="white" stroke-miterlimit="10"/>
<path d="M261.251 97.2686H378.002" stroke="white" stroke-width="3" stroke-miterlimit="10"/>
<path d="M261.251 110.239H378.002" stroke="white" stroke-width="3" stroke-miterlimit="10"/>
<path d="M261.251 123.209H378.002" stroke="white" stroke-width="3" stroke-miterlimit="10"/>
<path d="M272.411 173.441L273.115 175.608C273.163 175.755 273.255 175.883 273.38 175.974C273.504 176.066 273.654 176.116 273.809 176.117H276.095C276.248 176.12 276.396 176.171 276.519 176.261C276.642 176.352 276.733 176.479 276.781 176.624C276.828 176.77 276.83 176.926 276.785 177.072C276.739 177.218 276.65 177.346 276.528 177.439L274.686 178.783C274.56 178.874 274.466 179.002 274.417 179.15C274.368 179.298 274.368 179.458 274.415 179.606L275.12 181.773C275.157 181.914 275.151 182.063 275.104 182.2C275.056 182.338 274.969 182.459 274.853 182.547C274.737 182.635 274.597 182.687 274.452 182.695C274.307 182.704 274.162 182.67 274.036 182.597L272.194 181.253C272.068 181.162 271.917 181.112 271.761 181.112C271.605 181.112 271.453 181.162 271.327 181.253L269.485 182.597C269.36 182.67 269.215 182.704 269.069 182.695C268.924 182.687 268.785 182.635 268.669 182.547C268.553 182.459 268.466 182.338 268.418 182.2C268.371 182.063 268.365 181.914 268.402 181.773L269.106 179.606C269.154 179.458 269.153 179.298 269.105 179.15C269.056 179.002 268.962 178.874 268.835 178.783L266.993 177.439C266.872 177.346 266.782 177.218 266.737 177.072C266.692 176.926 266.693 176.77 266.741 176.624C266.788 176.479 266.88 176.352 267.003 176.261C267.126 176.171 267.274 176.12 267.427 176.117H269.713C269.867 176.116 270.017 176.066 270.142 175.974C270.266 175.883 270.359 175.755 270.406 175.608L271.111 173.441C271.174 173.323 271.267 173.224 271.382 173.156C271.496 173.087 271.627 173.051 271.761 173.051C271.894 173.051 272.025 173.087 272.14 173.156C272.254 173.224 272.348 173.323 272.411 173.441Z" fill="#455A64"/>
<path d="M287.353 173.441L288.058 175.608C288.105 175.755 288.198 175.883 288.322 175.974C288.447 176.066 288.597 176.116 288.751 176.117H291.037C291.19 176.12 291.338 176.171 291.461 176.261C291.584 176.352 291.676 176.479 291.723 176.624C291.771 176.77 291.772 176.926 291.727 177.072C291.682 177.218 291.592 177.346 291.471 177.439L289.629 178.783C289.502 178.874 289.408 179.002 289.359 179.15C289.311 179.298 289.31 179.458 289.358 179.606L290.062 181.773C290.099 181.914 290.093 182.063 290.046 182.2C289.998 182.338 289.911 182.459 289.795 182.547C289.679 182.635 289.54 182.687 289.395 182.695C289.249 182.704 289.104 182.67 288.979 182.597L287.137 181.253C287.011 181.162 286.859 181.112 286.703 181.112C286.547 181.112 286.396 181.162 286.27 181.253L284.428 182.597C284.302 182.67 284.157 182.704 284.012 182.695C283.867 182.687 283.727 182.635 283.611 182.547C283.495 182.459 283.408 182.338 283.361 182.2C283.313 182.063 283.307 181.914 283.344 181.773L284.049 179.606C284.096 179.458 284.096 179.298 284.047 179.15C283.998 179.002 283.904 178.874 283.778 178.783L281.936 177.439C281.814 177.346 281.725 177.218 281.679 177.072C281.634 176.926 281.636 176.77 281.683 176.624C281.731 176.479 281.822 176.352 281.945 176.261C282.068 176.171 282.216 176.12 282.369 176.117H284.655C284.81 176.116 284.96 176.066 285.084 175.974C285.209 175.883 285.301 175.755 285.349 175.608L286.053 173.441C286.116 173.323 286.21 173.224 286.324 173.156C286.439 173.087 286.57 173.051 286.703 173.051C286.837 173.051 286.968 173.087 287.082 173.156C287.197 173.224 287.29 173.323 287.353 173.441Z" fill="#455A64"/>
<path d="M302.306 173.441L303.011 175.608C303.058 175.755 303.151 175.883 303.275 175.974C303.4 176.066 303.55 176.116 303.704 176.117H305.99C306.143 176.12 306.291 176.171 306.414 176.261C306.537 176.352 306.629 176.479 306.676 176.624C306.724 176.77 306.725 176.926 306.68 177.072C306.635 177.218 306.545 177.346 306.424 177.439L304.582 178.783C304.455 178.874 304.361 179.002 304.313 179.15C304.264 179.298 304.263 179.458 304.311 179.606L305.015 181.773C305.052 181.914 305.047 182.063 304.999 182.2C304.952 182.338 304.864 182.459 304.748 182.547C304.632 182.635 304.493 182.687 304.348 182.695C304.202 182.704 304.058 182.67 303.932 182.597L302.09 181.253C301.964 181.162 301.812 181.112 301.656 181.112C301.501 181.112 301.349 181.162 301.223 181.253L299.381 182.597C299.255 182.67 299.11 182.704 298.965 182.695C298.82 182.687 298.68 182.635 298.564 182.547C298.448 182.459 298.361 182.338 298.314 182.2C298.266 182.063 298.26 181.914 298.297 181.773L299.002 179.606C299.049 179.458 299.049 179.298 299 179.15C298.951 179.002 298.857 178.874 298.731 178.783L296.889 177.439C296.767 177.346 296.678 177.218 296.633 177.072C296.587 176.926 296.589 176.77 296.636 176.624C296.684 176.479 296.775 176.352 296.898 176.261C297.021 176.171 297.169 176.12 297.322 176.117H299.608C299.763 176.116 299.913 176.066 300.037 175.974C300.162 175.883 300.254 175.755 300.302 175.608L301.006 173.441C301.069 173.323 301.163 173.224 301.277 173.156C301.392 173.087 301.523 173.051 301.656 173.051C301.79 173.051 301.921 173.087 302.035 173.156C302.15 173.224 302.244 173.323 302.306 173.441V173.441Z" fill="#455A64"/>
<path d="M317.259 173.441L317.963 175.608C318.011 175.755 318.103 175.883 318.228 175.974C318.352 176.066 318.502 176.116 318.656 176.117H320.943C321.095 176.12 321.244 176.171 321.366 176.261C321.489 176.352 321.581 176.479 321.629 176.624C321.676 176.77 321.677 176.926 321.632 177.072C321.587 177.218 321.497 177.346 321.376 177.439L319.534 178.783C319.408 178.874 319.313 179.002 319.265 179.15C319.216 179.298 319.215 179.458 319.263 179.606L319.967 181.773C320.004 181.914 319.999 182.063 319.951 182.2C319.904 182.338 319.816 182.459 319.701 182.547C319.585 182.635 319.445 182.687 319.3 182.695C319.154 182.704 319.01 182.67 318.884 182.597L317.042 181.253C316.916 181.162 316.764 181.112 316.608 181.112C316.453 181.112 316.301 181.162 316.175 181.253L314.333 182.597C314.207 182.67 314.063 182.704 313.917 182.695C313.772 182.687 313.632 182.635 313.516 182.547C313.401 182.459 313.313 182.338 313.266 182.2C313.218 182.063 313.213 181.914 313.25 181.773L313.954 179.606C314.002 179.458 314.001 179.298 313.952 179.15C313.904 179.002 313.809 178.874 313.683 178.783L311.841 177.439C311.72 177.346 311.63 177.218 311.585 177.072C311.54 176.926 311.541 176.77 311.588 176.624C311.636 176.479 311.728 176.352 311.851 176.261C311.973 176.171 312.122 176.12 312.274 176.117H314.561C314.715 176.116 314.865 176.066 314.989 175.974C315.114 175.883 315.206 175.755 315.254 175.608L315.958 173.441C316.021 173.323 316.115 173.224 316.229 173.156C316.344 173.087 316.475 173.051 316.608 173.051C316.742 173.051 316.873 173.087 316.988 173.156C317.102 173.224 317.196 173.323 317.259 173.441V173.441Z" fill="#455A64"/>
<path d="M332.211 173.442L332.916 175.609C332.963 175.756 333.056 175.884 333.18 175.975C333.305 176.066 333.455 176.116 333.609 176.118H335.841C335.994 176.121 336.142 176.171 336.265 176.262C336.388 176.353 336.479 176.48 336.527 176.625C336.575 176.77 336.576 176.927 336.531 177.073C336.485 177.219 336.396 177.347 336.274 177.44L334.432 178.784C334.306 178.875 334.212 179.003 334.163 179.151C334.114 179.299 334.114 179.459 334.162 179.607L334.866 181.774C334.903 181.915 334.897 182.064 334.85 182.201C334.802 182.339 334.715 182.459 334.599 182.547C334.483 182.636 334.344 182.687 334.198 182.696C334.053 182.705 333.908 182.671 333.782 182.598L331.94 181.254C331.814 181.162 331.663 181.113 331.507 181.113C331.351 181.113 331.199 181.162 331.074 181.254L329.232 182.598C329.106 182.671 328.961 182.705 328.816 182.696C328.67 182.687 328.531 182.636 328.415 182.547C328.299 182.459 328.212 182.339 328.164 182.201C328.117 182.064 328.111 181.915 328.148 181.774L328.852 179.607C328.9 179.459 328.899 179.299 328.851 179.151C328.802 179.003 328.708 178.875 328.581 178.784L326.739 177.44C326.618 177.347 326.528 177.219 326.483 177.073C326.438 176.927 326.439 176.77 326.487 176.625C326.534 176.48 326.626 176.353 326.749 176.262C326.872 176.171 327.02 176.121 327.173 176.118H329.459C329.613 176.116 329.763 176.066 329.888 175.975C330.012 175.884 330.105 175.756 330.153 175.609L330.857 173.442C330.914 173.309 331.008 173.196 331.128 173.117C331.249 173.037 331.39 172.995 331.534 172.995C331.678 172.995 331.819 173.037 331.94 173.117C332.06 173.196 332.154 173.309 332.211 173.442Z" fill="#455A64"/>
<path d="M344.758 188.502H264.566C262.46 188.502 260.752 190.21 260.752 192.316V194.05C260.752 196.156 262.46 197.864 264.566 197.864H344.758C346.865 197.864 348.572 196.156 348.572 194.05V192.316C348.572 190.21 346.865 188.502 344.758 188.502Z" fill="#D1D0D0"/>
<path d="M428.451 207.518H398.903V237.066H428.451V207.518Z" fill="#DFDFDF"/>
<path d="M166.854 256.526H426.284" stroke="white" stroke-miterlimit="10"/>
<path d="M261.251 209.686H378.002" stroke="white" stroke-width="3" stroke-miterlimit="10"/>
<path d="M261.251 222.656H378.002" stroke="white" stroke-width="3" stroke-miterlimit="10"/>
<path d="M261.251 235.625H378.002" stroke="white" stroke-width="3" stroke-miterlimit="10"/>
<path d="M272.411 286.583L273.115 288.75C273.163 288.897 273.255 289.025 273.38 289.117C273.504 289.208 273.654 289.258 273.809 289.26H276.095C276.248 289.263 276.396 289.313 276.519 289.404C276.642 289.495 276.733 289.622 276.781 289.767C276.828 289.912 276.83 290.069 276.785 290.215C276.739 290.361 276.65 290.489 276.528 290.582L274.686 291.925C274.56 292.016 274.466 292.145 274.417 292.293C274.368 292.441 274.368 292.6 274.415 292.749L275.12 294.916C275.157 295.057 275.151 295.205 275.104 295.343C275.056 295.481 274.969 295.601 274.853 295.689C274.737 295.777 274.597 295.829 274.452 295.838C274.307 295.847 274.162 295.813 274.036 295.739L272.194 294.396C272.068 294.304 271.917 294.255 271.761 294.255C271.605 294.255 271.453 294.304 271.327 294.396L269.485 295.739C269.36 295.813 269.215 295.847 269.069 295.838C268.924 295.829 268.785 295.777 268.669 295.689C268.553 295.601 268.466 295.481 268.418 295.343C268.371 295.205 268.365 295.057 268.402 294.916L269.106 292.749C269.154 292.6 269.153 292.441 269.105 292.293C269.056 292.145 268.962 292.016 268.835 291.925L266.993 290.582C266.872 290.489 266.782 290.361 266.737 290.215C266.692 290.069 266.693 289.912 266.741 289.767C266.788 289.622 266.88 289.495 267.003 289.404C267.126 289.313 267.274 289.263 267.427 289.26H269.713C269.867 289.258 270.017 289.208 270.142 289.117C270.266 289.025 270.359 288.897 270.406 288.75L271.111 286.583C271.174 286.466 271.267 286.367 271.382 286.298C271.496 286.23 271.627 286.193 271.761 286.193C271.894 286.193 272.025 286.23 272.14 286.298C272.254 286.367 272.348 286.466 272.411 286.583Z" fill="#455A64"/>
<path d="M287.353 286.584L288.057 288.751C288.105 288.898 288.197 289.026 288.322 289.117C288.446 289.209 288.596 289.259 288.751 289.26H291.037C291.19 289.263 291.338 289.313 291.461 289.404C291.584 289.495 291.675 289.622 291.723 289.767C291.77 289.912 291.772 290.069 291.726 290.215C291.681 290.361 291.592 290.489 291.47 290.582L289.628 291.926C289.502 292.017 289.408 292.145 289.359 292.293C289.31 292.441 289.31 292.601 289.357 292.749L290.062 294.916C290.099 295.057 290.093 295.206 290.045 295.343C289.998 295.481 289.911 295.601 289.795 295.69C289.679 295.778 289.539 295.83 289.394 295.838C289.249 295.847 289.104 295.813 288.978 295.74L287.082 294.385C286.956 294.294 286.804 294.244 286.649 294.244C286.493 294.244 286.341 294.294 286.215 294.385L284.373 295.729C284.247 295.802 284.103 295.836 283.957 295.828C283.812 295.819 283.672 295.767 283.556 295.679C283.441 295.591 283.353 295.47 283.306 295.333C283.258 295.195 283.253 295.046 283.29 294.905L283.994 292.738C284.042 292.59 284.041 292.43 283.992 292.283C283.944 292.135 283.849 292.006 283.723 291.915L281.881 290.571C281.76 290.478 281.67 290.35 281.625 290.204C281.58 290.058 281.581 289.902 281.628 289.756C281.676 289.611 281.768 289.484 281.891 289.394C282.013 289.303 282.162 289.252 282.314 289.249H284.601C284.755 289.248 284.905 289.198 285.029 289.106C285.154 289.015 285.246 288.887 285.294 288.74L285.998 286.573C286.056 286.441 286.152 286.329 286.273 286.25C286.394 286.172 286.535 286.131 286.679 286.132C286.823 286.133 286.964 286.176 287.084 286.257C287.204 286.337 287.297 286.451 287.353 286.584Z" fill="#455A64"/>
<path d="M302.306 286.583L303.011 288.75C303.058 288.897 303.151 289.025 303.275 289.117C303.4 289.208 303.55 289.258 303.704 289.26H305.99C306.143 289.263 306.291 289.313 306.414 289.404C306.537 289.495 306.629 289.622 306.676 289.767C306.724 289.912 306.725 290.069 306.68 290.215C306.635 290.361 306.545 290.489 306.424 290.582L304.582 291.925C304.455 292.016 304.361 292.145 304.313 292.293C304.264 292.441 304.263 292.6 304.311 292.749L305.015 294.916C305.052 295.057 305.047 295.205 304.999 295.343C304.952 295.481 304.864 295.601 304.748 295.689C304.632 295.777 304.493 295.829 304.348 295.838C304.202 295.847 304.058 295.813 303.932 295.739L302.09 294.396C301.964 294.304 301.812 294.255 301.656 294.255C301.501 294.255 301.349 294.304 301.223 294.396L299.381 295.739C299.255 295.813 299.11 295.847 298.965 295.838C298.82 295.829 298.68 295.777 298.564 295.689C298.448 295.601 298.361 295.481 298.314 295.343C298.266 295.205 298.26 295.057 298.297 294.916L299.002 292.749C299.049 292.6 299.049 292.441 299 292.293C298.951 292.145 298.857 292.016 298.731 291.925L296.889 290.582C296.767 290.489 296.678 290.361 296.633 290.215C296.587 290.069 296.589 289.912 296.636 289.767C296.684 289.622 296.775 289.495 296.898 289.404C297.021 289.313 297.169 289.263 297.322 289.26H299.608C299.763 289.258 299.913 289.208 300.037 289.117C300.162 289.025 300.254 288.897 300.302 288.75L301.006 286.583C301.069 286.466 301.163 286.367 301.277 286.298C301.392 286.23 301.523 286.193 301.656 286.193C301.79 286.193 301.921 286.23 302.035 286.298C302.15 286.367 302.244 286.466 302.306 286.583V286.583Z" fill="#455A64"/>
<path d="M317.259 286.584L317.963 288.751C318.011 288.898 318.104 289.026 318.228 289.117C318.352 289.209 318.502 289.259 318.657 289.26H320.943C321.096 289.263 321.244 289.313 321.367 289.404C321.49 289.495 321.581 289.622 321.629 289.767C321.677 289.912 321.678 290.069 321.633 290.215C321.587 290.361 321.498 290.489 321.376 290.582L319.535 291.926C319.408 292.017 319.314 292.145 319.265 292.293C319.216 292.441 319.216 292.601 319.264 292.749L319.968 294.916C320.005 295.057 319.999 295.206 319.952 295.343C319.904 295.481 319.817 295.601 319.701 295.69C319.585 295.778 319.446 295.83 319.3 295.838C319.155 295.847 319.01 295.813 318.884 295.74L316.988 294.385C316.862 294.294 316.711 294.244 316.555 294.244C316.399 294.244 316.247 294.294 316.121 294.385L314.279 295.729C314.154 295.802 314.009 295.836 313.863 295.828C313.718 295.819 313.579 295.767 313.463 295.679C313.347 295.591 313.26 295.47 313.212 295.333C313.165 295.195 313.159 295.046 313.196 294.905L313.9 292.738C313.948 292.59 313.947 292.43 313.899 292.283C313.85 292.135 313.756 292.006 313.629 291.915L311.787 290.571C311.666 290.478 311.576 290.35 311.531 290.204C311.486 290.058 311.487 289.902 311.535 289.756C311.582 289.611 311.674 289.484 311.797 289.394C311.92 289.303 312.068 289.252 312.221 289.249H314.507C314.661 289.248 314.811 289.198 314.936 289.106C315.06 289.015 315.153 288.887 315.2 288.74L315.905 286.573C315.963 286.441 316.058 286.329 316.179 286.25C316.3 286.172 316.441 286.131 316.585 286.132C316.73 286.133 316.87 286.176 316.99 286.257C317.11 286.337 317.203 286.451 317.259 286.584Z" fill="#CBD9EC"/>
<path d="M332.211 286.584L332.916 288.751C332.963 288.898 333.056 289.026 333.18 289.117C333.305 289.209 333.455 289.259 333.609 289.26H335.841C335.994 289.263 336.142 289.313 336.265 289.404C336.388 289.495 336.479 289.622 336.527 289.767C336.575 289.912 336.576 290.069 336.531 290.215C336.485 290.361 336.396 290.489 336.274 290.582L334.432 291.926C334.306 292.017 334.212 292.145 334.163 292.293C334.114 292.441 334.114 292.601 334.162 292.749L334.866 294.916C334.903 295.057 334.897 295.206 334.85 295.343C334.802 295.481 334.715 295.601 334.599 295.69C334.483 295.778 334.344 295.83 334.198 295.838C334.053 295.847 333.908 295.813 333.782 295.74L331.94 294.385C331.814 294.294 331.663 294.244 331.507 294.244C331.351 294.244 331.199 294.294 331.074 294.385L329.232 295.729C329.106 295.802 328.961 295.836 328.816 295.828C328.67 295.819 328.531 295.767 328.415 295.679C328.299 295.591 328.212 295.47 328.164 295.333C328.117 295.195 328.111 295.046 328.148 294.905L328.852 292.738C328.9 292.59 328.899 292.43 328.851 292.283C328.802 292.135 328.708 292.006 328.581 291.915L326.739 290.571C326.618 290.478 326.528 290.35 326.483 290.204C326.438 290.058 326.439 289.902 326.487 289.756C326.534 289.611 326.626 289.484 326.749 289.394C326.872 289.303 327.02 289.252 327.173 289.249H329.459C329.613 289.248 329.763 289.198 329.888 289.106C330.012 289.015 330.105 288.887 330.153 288.74L330.857 286.573C330.915 286.441 331.01 286.329 331.131 286.25C331.252 286.172 331.393 286.131 331.538 286.132C331.682 286.133 331.822 286.176 331.942 286.257C332.062 286.337 332.155 286.451 332.211 286.584V286.584Z" fill="#CBD9EC"/>
<path d="M344.758 301.645H264.566C262.46 301.645 260.752 303.352 260.752 305.459V307.192C260.752 309.299 262.46 311.006 264.566 311.006H344.758C346.865 311.006 348.572 309.299 348.572 307.192V305.459C348.572 303.352 346.865 301.645 344.758 301.645Z" fill="#D1D0D0"/>
<path d="M428.451 320.66H398.903V350.208H428.451V320.66Z" fill="#DFDFDF"/>
<path d="M166.854 369.669H426.284" stroke="white" stroke-miterlimit="10"/>
<path d="M261.251 322.828H378.002" stroke="white" stroke-width="3" stroke-miterlimit="10"/>
<path d="M261.251 335.798H378.002" stroke="white" stroke-width="3" stroke-miterlimit="10"/>
<path d="M261.251 348.768H378.002" stroke="white" stroke-width="3" stroke-miterlimit="10"/>
<path d="M184.504 403.54C194.657 403.54 209.371 389.91 209.371 379.757H489.335C489.335 379.757 488.251 403.54 461.228 403.54H184.504Z" fill="#EAEAEA"/>
<path d="M547.878 207.334L527.855 121.02C527.573 118.766 531.647 113.37 533.63 112.243C539.048 109.145 545.722 108.7 551.822 109.968C571.716 114.107 588.663 193.649 585.314 191.731C585.314 191.731 555.452 207.324 545.787 200.985" fill="#020F2B"/>
<path d="M549.471 128.539C549.469 128.609 549.482 128.68 549.508 128.745C549.534 128.811 549.573 128.871 549.622 128.921C549.672 128.972 549.731 129.012 549.796 129.039C549.861 129.067 549.931 129.081 550.002 129.081C551.259 129.081 554.152 128.81 554.563 132.093C554.975 135.376 551.811 137.283 549.915 137.38C549.157 137.364 548.409 137.552 547.748 137.922C546.599 139.168 546.069 141.888 545.18 145.279C544.562 147.279 544.611 149.425 545.32 151.393C546.03 153.362 547.361 155.046 549.113 156.191C549.113 156.191 529.501 165.834 529.686 156.191C529.686 156.191 531.235 138.41 531.148 138.312C529.621 136.785 523.672 136.145 527.41 123.446C530.877 111.701 539.491 112.535 541.68 112.925C543.501 113.239 549.915 113.64 549.471 128.539Z" fill="#F1ABA5"/>
<path d="M535.591 111.756C535.591 111.756 547.629 127.673 549.677 128.995C549.731 128.995 557.966 109.567 535.591 111.756Z" fill="#020F2B"/>
<path d="M553.133 133.048C553.133 133.048 551.161 128.887 548.658 134.467Z" fill="#EC7165"/>
<path d="M541.421 131.549C541.458 129.921 540.168 128.572 538.541 128.536C536.914 128.499 535.565 129.789 535.528 131.416C535.492 133.043 536.781 134.392 538.408 134.429C540.036 134.465 541.385 133.176 541.421 131.549Z" fill="#F79288"/>
<path d="M526.283 129.689C526.87 129.58 527.41 129.294 527.831 128.871C528.252 128.448 528.535 127.907 528.642 127.32C528.749 126.733 528.675 126.127 528.43 125.582C528.185 125.038 527.78 124.581 527.269 124.271C526.594 125.997 526.26 127.837 526.283 129.689V129.689Z" fill="#F79288"/>
<path d="M528.765 128.139L533.261 130.381C533.261 130.381 531.094 131.985 529.881 131.107C528.667 130.23 528.765 128.139 528.765 128.139Z" fill="white"/>
<path d="M532.211 124.877L531.496 128.128L529.935 127.434C529.869 127.406 529.812 127.36 529.769 127.303C529.727 127.245 529.699 127.178 529.691 127.107C529.682 127.036 529.692 126.963 529.719 126.897C529.747 126.831 529.792 126.773 529.849 126.73L532.211 124.877Z" fill="#EC7165"/>
<path d="M537.975 123.675C538.365 124.216 538.138 122.32 537.498 121.887C537.226 121.673 536.88 121.574 536.535 121.613C536.191 121.651 535.875 121.824 535.656 122.093C536.591 122.332 537.411 122.892 537.975 123.675V123.675Z" fill="black"/>
<path d="M529.501 120.467C528.851 120.651 530.217 119.307 530.997 119.383C531.345 119.386 531.679 119.526 531.924 119.774C532.17 120.022 532.308 120.356 532.308 120.705C531.429 120.298 530.436 120.214 529.501 120.467Z" fill="black"/>
<path d="M535.352 126.009C535.569 125.471 535.533 124.949 535.273 124.844C535.012 124.739 534.624 125.09 534.407 125.628C534.19 126.166 534.225 126.688 534.486 126.793C534.747 126.898 535.134 126.547 535.352 126.009Z" fill="black"/>
<path d="M531.217 124.039C531.423 123.529 531.388 123.033 531.138 122.932C530.888 122.832 530.519 123.164 530.313 123.674C530.107 124.185 530.142 124.68 530.392 124.781C530.641 124.882 531.011 124.55 531.217 124.039Z" fill="black"/>
<path opacity="0.1" d="M531.127 138.302C533.904 138.85 536.725 139.148 539.556 139.19C542.374 139.006 528.223 155.259 531.127 138.302Z" fill="black"/>
<path d="M534.194 397.115L532.157 411.581C532.157 411.581 528.906 421.17 525.85 417.464C524.112 415.301 522.081 413.39 519.815 411.787L518.818 396.747L534.194 397.115Z" fill="#F1A9A5"/>
<path d="M526.251 397.657L525.73 417.334C525.73 417.334 535.331 418.775 531.766 412.35L533.868 398.708L526.251 397.657Z" fill="#F79288"/>
<path d="M582.54 395.999L587.037 410.432C587.037 410.432 590.461 413.433 591.696 413.357C593.95 413.216 595.12 409.337 595.12 409.337L595.488 395.999H582.54Z" fill="#F1A9A5"/>
<path d="M589.031 392.143L592.184 415.98C592.184 415.98 598.686 417.681 595.067 411.256L595.89 392.988L589.031 392.143Z" fill="#F79288"/>
<path d="M518.818 411.71L506.704 421.527C506.087 421.982 506.531 422.762 507.409 422.773L525.287 422.913C525.476 422.924 525.665 422.884 525.834 422.798C526.003 422.713 526.147 422.584 526.251 422.426L527.595 419.663C527.985 418.861 528.765 418.796 528.678 419.663L529.339 422.328C529.339 422.751 533.576 422.632 533.619 422.252C533.727 418.141 533.499 414.028 532.937 409.954C532.882 409.782 532.776 409.631 532.632 409.52C532.489 409.41 532.315 409.346 532.135 409.337C531.959 409.306 531.778 409.314 531.606 409.361C531.434 409.408 531.274 409.492 531.138 409.608C529.935 410.778 526.067 414.289 524.019 413.573C522.703 413.14 521.452 412.528 520.303 411.753C520.091 411.591 519.834 411.499 519.567 411.491C519.301 411.483 519.039 411.56 518.818 411.71V411.71Z" fill="#F85052"/>
<path d="M595.304 408.839L602.185 420.357C602.357 420.63 602.468 420.937 602.511 421.257C602.553 421.577 602.526 421.902 602.432 422.211C602.337 422.519 602.177 422.804 601.962 423.045C601.748 423.286 601.483 423.478 601.188 423.607C599.021 424.886 597.276 427.443 595.922 427.475C593.473 427.54 589.67 424.973 587.459 423.997C585.975 423.347 584.805 422.394 584.989 421.158L586.701 409.597C586.701 409.456 586.972 409.402 587.102 409.51L589.735 411.894C590.602 412.674 592.985 412.577 593.516 411.634C593.928 410.962 594.903 408.806 594.903 408.806C594.931 408.78 594.964 408.76 594.999 408.748C595.035 408.735 595.073 408.73 595.111 408.733C595.149 408.736 595.185 408.747 595.219 408.765C595.252 408.784 595.281 408.809 595.304 408.839Z" fill="#F85052"/>
<path d="M558.811 205.925C564.369 215.742 567.295 222.936 570.491 235.419C574.197 249.895 614.244 372.356 616 398.686C611.438 399.769 581.142 399.628 578.26 399.466C569.093 373.19 545.884 287.862 541.951 271.273C541.344 268.726 537.411 269.29 537.725 271.88C539.957 290.787 551.984 370.427 557.966 399.487C555.571 400.701 520.844 400.43 518.081 400.083C515.079 367.653 499.13 244.889 523.206 205.047C534.214 203.606 547.65 205.589 558.811 205.925Z" fill="#2D4773"/>
<path d="M524.647 209.436C524.647 209.436 514.841 233.708 514.841 267.947C514.841 302.187 526.066 388.978 526.066 388.978" stroke="white" stroke-width="0.4" stroke-miterlimit="10"/>
<path d="M592.553 388.978L553.383 208.32" stroke="white" stroke-width="0.4" stroke-miterlimit="10"/>
<path d="M546.523 209.273C546.523 209.273 546.859 240.696 560.934 238.171" stroke="white" stroke-width="0.4" stroke-miterlimit="10"/>
<g style="mix-blend-mode:multiply" opacity="0.21">
<path d="M523.369 210.075L568.693 244.207C568.693 244.207 570.59 225.786 562.528 210.617L523.369 210.075Z" fill="black"/>
</g>
<path d="M517.301 239.613C531.387 242.084 529.122 210.867 529.122 210.867" stroke="white" stroke-width="0.4" stroke-miterlimit="10"/>
<path d="M544.433 152.357C544.433 152.357 547.304 151.522 546.827 152.14C546.082 152.907 545.236 153.57 544.313 154.112L544.433 152.357Z" fill="#C20034"/>
<path d="M555.875 389.162L516.737 389.173" stroke="white" stroke-width="0.4" stroke-miterlimit="10"/>
<path d="M614.732 388.826L574.306 389.173" stroke="white" stroke-width="0.4" stroke-miterlimit="10"/>
<path d="M572.29 264.772C572.29 264.534 572.529 261.966 572.529 261.966L571.369 265.65L572.29 264.772Z" fill="#D15449"/>
<path d="M565.02 268.38L564.207 269.008C564.207 269.008 565.052 270.536 565.41 270.417C565.211 270.121 565.074 269.788 565.007 269.438C564.94 269.088 564.944 268.728 565.02 268.38V268.38Z" fill="#D15449"/>
<path d="M479.745 178.815C479.745 178.815 509.369 219.903 516.315 215.006C516.315 215.006 524.279 209.382 520.27 186.433C520.27 184.201 520.27 182.662 520.335 182.304C520.335 182.304 522.057 159.637 525.752 154.945C526.164 154.425 527.399 153.472 527.237 153.428C515.86 150.589 511.504 179.184 508.372 192.436C508.242 192.988 486.528 171.848 486.528 171.848C486.528 171.848 475.173 156.776 474.382 157.643C473.233 158.889 477.632 165.596 477.632 165.596C477.405 166.108 476.996 166.517 476.484 166.745C476.054 166.928 475.679 167.219 475.395 167.589C475.11 167.959 474.925 168.396 474.859 168.858C474.566 170.006 473.418 170.678 473.233 171.35C473.049 172.022 477.318 177.06 479.745 178.815Z" fill="#F1ABA5"/>
<path d="M486.16 171.729C486.16 171.729 483.863 165.228 482.91 165.401C481.956 165.574 477.73 167.416 477.828 169.042C477.925 170.667 481.566 169.334 481.566 169.334C481.566 169.334 480.894 172.975 482.715 173.452C484.535 173.928 486.16 171.729 486.16 171.729Z" fill="#F1ABA5"/>
<path d="M480.514 169.042C480.514 169.042 480.612 170.667 479.268 170.96C479.238 171.187 479.159 171.405 479.038 171.599C478.916 171.793 478.755 171.96 478.564 172.087C478.373 172.214 478.158 172.299 477.932 172.336C477.706 172.374 477.474 172.362 477.253 172.303C477.253 172.303 477.73 173.073 476.679 173.257C476.7 173.257 481.175 178.144 480.514 169.042Z" fill="#F79288"/>
<path d="M481.381 165.9C480.59 166.474 479.778 166.983 478.954 167.46C478.564 167.72 478.077 167.915 477.773 168.164C477.639 168.258 477.537 168.39 477.481 168.544C477.471 168.597 477.478 168.652 477.499 168.702C477.52 168.752 477.555 168.795 477.6 168.825C477.911 169.087 478.284 169.266 478.683 169.345C479.13 169.433 479.583 169.487 480.038 169.508C480.265 169.508 480.515 169.432 480.905 169.714C480.973 169.788 481.021 169.88 481.042 169.979C481.063 170.078 481.056 170.181 481.024 170.277L480.926 170.624C480.775 171.079 480.655 171.545 480.482 172L480.742 170.581C480.742 170.353 480.905 170.082 480.742 169.92C480.58 169.757 480.298 169.844 480.059 169.833C479.088 169.932 478.112 169.682 477.307 169.129C477.213 169.043 477.143 168.933 477.107 168.811C477.07 168.689 477.069 168.558 477.101 168.435C477.186 168.202 477.342 168.001 477.546 167.861C477.951 167.6 478.375 167.368 478.813 167.167L481.381 165.867V165.9Z" fill="#EC7165"/>
<path d="M477.557 165.38C477.759 165.402 477.954 165.465 478.131 165.564C478.284 165.657 478.429 165.762 478.564 165.878C478.677 166.014 478.779 166.159 478.868 166.312C478.961 166.486 479.017 166.678 479.03 166.875C478.517 166.391 478.023 165.893 477.546 165.38H477.557Z" fill="#EC7165"/>
<path d="M475.618 167.808C476.062 168.089 476.452 168.393 476.853 168.696C477.254 169 477.622 169.314 478.023 169.595C478.424 169.877 478.803 170.213 479.172 170.495C479.334 170.632 479.528 170.729 479.735 170.777C479.846 170.806 479.961 170.811 480.074 170.79C480.186 170.77 480.293 170.724 480.385 170.657V170.657C480.202 170.841 479.96 170.953 479.701 170.973C479.443 170.993 479.186 170.919 478.977 170.766C478.54 170.511 478.121 170.228 477.72 169.921C476.929 169.299 476.202 168.598 475.553 167.829L475.618 167.808Z" fill="#EC7165"/>
<path d="M479.366 170.96C479.423 171.283 479.393 171.615 479.281 171.923C479.169 172.231 478.978 172.504 478.727 172.715C478.569 172.819 478.39 172.887 478.203 172.915C478.016 172.943 477.825 172.93 477.644 172.878C477.317 172.792 477.009 172.649 476.733 172.455C476.266 172.07 475.848 171.63 475.487 171.144C475.126 170.673 474.817 170.165 474.566 169.627C474.935 170.082 475.314 170.515 475.704 170.938C476.085 171.374 476.505 171.773 476.961 172.13C477.165 172.328 477.421 172.463 477.699 172.521C477.978 172.579 478.266 172.556 478.532 172.455C478.756 172.277 478.941 172.054 479.073 171.8C479.206 171.546 479.283 171.267 479.301 170.981L479.366 170.96Z" fill="#EC7165"/>
<path d="M477.372 172.012C477.47 172.367 477.47 172.741 477.372 173.095C477.322 173.309 477.226 173.509 477.091 173.681C476.988 173.785 476.862 173.863 476.722 173.908C476.617 173.944 476.508 173.969 476.397 173.984C475.993 174.023 475.587 173.944 475.227 173.756C475.051 173.67 474.881 173.572 474.718 173.464C474.561 173.325 474.449 173.145 474.393 172.944C474.623 173.211 474.943 173.384 475.292 173.431C475.62 173.556 475.97 173.614 476.321 173.605C476.491 173.605 476.655 173.548 476.787 173.442C476.906 173.315 477.001 173.169 477.069 173.009C477.219 172.689 477.307 172.343 477.329 171.99L477.372 172.012Z" fill="#EC7165"/>
<path d="M527.258 153.428C527.258 153.428 519.89 152.344 516.954 158.401C514.018 164.458 507.495 191.232 507.495 191.232L489.356 173.896L482.324 186.671C482.324 186.671 508.134 219.252 515.545 216.955C522.957 214.658 527.345 161.619 527.258 153.428Z" fill="#F85052"/>
<path d="M526.077 154.695C526.402 155.475 516.943 178.002 517.333 185.619C517.723 193.237 522.967 206.207 522.556 207.377C522.556 207.377 528.515 212.079 561.39 206.9C571.499 198.058 562.614 168.012 559.222 158.499C559.222 158.499 552.721 155.248 549.969 155.053C542.123 157.124 533.858 157 526.077 154.695V154.695Z" fill="#F85052"/>
<path d="M550.034 155.021L545.375 148.932C541.058 151.795 536.394 154.096 531.495 155.78L531.636 157.947C531.703 158.927 532.018 159.874 532.552 160.699C533.086 161.523 533.822 162.198 534.689 162.66C535.556 163.122 536.527 163.355 537.509 163.338C538.492 163.321 539.454 163.054 540.304 162.563C544.216 160.32 548.366 157.502 550.034 155.021Z" fill="#FFEBF1"/>
<path d="M530.39 148.596C530.39 148.596 529.003 153.873 531.614 155.888L530.867 157.719C530.68 158.252 530.317 158.706 529.838 159.004C529.359 159.303 528.792 159.43 528.231 159.363C527.67 159.296 527.149 159.039 526.753 158.636C526.358 158.233 526.112 157.707 526.056 157.145C525.953 156.232 525.975 155.31 526.121 154.403L530.39 148.596Z" fill="#FFEBF1"/>
<path d="M596.295 248.44L553.817 275.658L539.893 253.927C538.91 252.393 538.577 250.531 538.966 248.751C539.356 246.972 540.437 245.42 541.971 244.437L578.664 220.925L596.295 248.44Z" fill="#F85052"/>
<path opacity="0.6" d="M568.877 226.339C568.877 226.339 575.725 229.514 570.438 248.931C570.091 249.977 569.983 251.088 570.123 252.181L571.315 260.524C571.489 261.413 571.619 262.616 570.86 263.125C569.907 263.753 564.511 268.727 563.85 268.943C562.517 269.388 563.969 262.789 563.752 259.322C563.602 260.461 563.511 261.608 563.481 262.756L563.319 265.465C561.704 264.728 561.737 261.608 561.488 260.557C561.224 259.689 561.259 258.759 561.585 257.913C562.782 255.619 563.58 253.139 563.947 250.578C564.077 248.963 562.95 242.993 562.008 231.811L568.877 226.339Z" fill="#4E7A8F"/>
<path d="M569.754 179.098C582.442 249.961 574.218 263.462 573.373 264.047C572.29 264.74 566.406 270.18 565.691 270.429C564.228 270.917 565.821 263.689 565.583 259.886C565.419 261.134 565.322 262.389 565.29 263.646L565.106 266.615C563.34 265.802 563.372 262.389 563.09 261.197C562.801 260.244 562.839 259.222 563.199 258.293C564.511 255.779 565.386 253.061 565.788 250.254C565.929 248.487 553.87 190.908 551.789 182.446C548.918 170.95 552.537 157.741 556.578 157.297C561.606 156.777 568.703 173.225 569.754 179.098Z" fill="#F1ABA5"/>
<path d="M578.661 246.178C578.152 244.011 580.829 202.642 571.662 175.586C567.534 163.494 561.607 156.744 556.579 157.296C552.527 157.74 548.918 170.949 551.79 182.445C553.957 190.907 558.356 228.669 562.051 247.966L578.661 246.178Z" fill="#F85052"/>
<path d="M561.889 100.747L570.34 92.295H602.174C603.715 92.295 605.241 91.9914 606.665 91.4017C608.089 90.812 609.382 89.9476 610.472 88.8579C611.562 87.7683 612.426 86.4747 613.016 85.0509C613.606 83.6272 613.909 82.1013 613.909 80.5603V78.014C613.909 74.9017 612.673 71.917 610.472 69.7163C608.271 67.5156 605.287 66.2793 602.174 66.2793H573.623C570.511 66.2793 567.526 67.5156 565.326 69.7163C563.125 71.917 561.889 74.9017 561.889 78.014V100.747Z" fill="#F85052"/>
<path d="M599.931 81.8823C601.547 81.8823 602.857 80.5725 602.857 78.9568C602.857 77.3411 601.547 76.0312 599.931 76.0312C598.316 76.0312 597.006 77.3411 597.006 78.9568C597.006 80.5725 598.316 81.8823 599.931 81.8823Z" fill="#FAFAFA"/>
<path d="M589.204 81.8823C590.82 81.8823 592.129 80.5725 592.129 78.9568C592.129 77.3411 590.82 76.0312 589.204 76.0312C587.588 76.0312 586.278 77.3411 586.278 78.9568C586.278 80.5725 587.588 81.8823 589.204 81.8823Z" fill="#FAFAFA"/>
<path d="M578.467 81.8823C580.082 81.8823 581.392 80.5725 581.392 78.9568C581.392 77.3411 580.082 76.0312 578.467 76.0312C576.851 76.0312 575.541 77.3411 575.541 78.9568C575.541 80.5725 576.851 81.8823 578.467 81.8823Z" fill="#FAFAFA"/>
<path d="M112.46 391.643L110.369 387.525L97.9409 387.97L97.6592 391.643L103.499 401.785L114.021 393.669L112.46 391.643Z" fill="#F0A5A9"/>
<path d="M104.875 387.938L104.355 397.516C101.859 396.009 99.5147 394.264 97.3555 392.304L97.8756 386.887L104.875 387.938Z" fill="#E6777D"/>
<path d="M113.208 391.503C110.31 391.703 107.548 392.806 105.309 394.656C102.784 396.574 98.9596 392.619 97.7894 391.59C97.551 391.384 97.2259 391.59 97.1826 391.936L95.709 405.318H132.701C132.938 405.283 133.152 405.157 133.297 404.967C133.443 404.777 133.509 404.537 133.481 404.299V401.482C133.487 401.289 133.44 401.097 133.347 400.928C133.254 400.758 133.117 400.617 132.95 400.518L113.208 391.503Z" fill="#2D4773"/>
<path d="M115.288 392.207L109.328 395.653" stroke="white" stroke-width="0.48" stroke-miterlimit="10"/>
<path d="M117.877 393.54L111.929 396.986" stroke="white" stroke-width="0.48" stroke-miterlimit="10"/>
<path d="M52.1828 391.644L50.1024 387.526L38.6928 385.814L37.3926 391.644L43.2328 401.786L53.7431 393.67L52.1828 391.644Z" fill="#F0A5A9"/>
<path d="M43.3634 387.667L44.4469 396.714C41.9507 395.208 39.6065 393.462 37.4473 391.503L38.5308 386.876L43.3634 387.667Z" fill="#E6777D"/>
<path d="M52.9415 391.503C50.0437 391.703 47.2814 392.806 45.0425 394.656C42.5179 396.574 38.693 392.619 37.5228 391.59C37.2844 391.384 36.9593 391.59 36.916 391.936L35.4424 405.318H72.4342C72.6712 405.283 72.8852 405.157 73.0308 404.967C73.1765 404.777 73.2423 404.537 73.2144 404.299V401.482C73.2201 401.289 73.1739 401.097 73.0805 400.928C72.9871 400.758 72.85 400.617 72.6835 400.518L52.9415 391.503Z" fill="#2D4773"/>
<path d="M55.8559 392.478L49.8965 395.923" stroke="white" stroke-width="0.48" stroke-miterlimit="10"/>
<path d="M58.4457 393.799L52.4971 397.244" stroke="white" stroke-width="0.48" stroke-miterlimit="10"/>
<path d="M97.171 89.749C99.739 85.6532 100.584 79.5421 96.0874 76.8116C94.9291 76.1349 93.5899 75.8331 92.2533 75.9475C90.9167 76.062 89.6483 76.5871 88.6219 77.4509C87.6753 78.2666 86.8984 79.2607 86.3356 80.3764C85.915 79.7138 85.3341 79.1679 84.6466 78.7891C83.9591 78.4103 83.1873 78.2109 82.4024 78.2094C81.5665 78.3182 80.7633 78.6034 80.046 79.0461C79.3287 79.4888 78.7136 80.0789 78.2416 80.7773C76.8378 80.3384 75.3435 80.2749 73.9075 80.5931C70.7327 81.3949 70.1693 85.5665 71.9246 88.0153C69.66 91.0492 69.0208 95.2858 72.228 105.861V105.969L76.5622 108.321L76.6922 108.072L76.8222 107.822L76.4863 107.638L80.8204 93.5522C81.3839 93.1621 85.0029 90.7675 86.8991 92.2303C88.7953 93.693 91.0273 95.1667 92.761 94.4732C93.5628 94.069 94.2433 93.4596 94.733 92.707C95.8559 92.024 96.715 90.9816 97.171 89.749V89.749ZM95.2965 78.2635C96.05 78.7237 96.6685 79.3751 97.089 80.1515C97.5096 80.9279 97.7173 81.8017 97.6911 82.6843C97.5289 81.8906 97.2013 81.14 96.7296 80.4815C96.2578 79.8229 95.6526 79.2711 94.9533 78.8622C94.254 78.4533 93.4763 78.1963 92.6711 78.1081C91.8658 78.0199 91.0509 78.1024 90.2797 78.3502C91.0261 77.8732 91.8902 77.6126 92.7758 77.5973C93.6615 77.582 94.534 77.8126 95.2965 78.2635ZM73.7666 105.98C74.4929 106.211 75.1514 106.617 75.6845 107.161L74.731 106.652L73.7666 105.98Z" fill="#020F2B"/>
<path d="M110.152 229.677C110.152 229.677 114.908 286.584 115.352 302.274C115.797 317.963 112.644 388.089 112.644 388.089L92.8583 388.436C92.8583 388.436 79.0433 270.884 59.8105 232.96L110.152 229.677Z" fill="#263238"/>
<path d="M86.1406 232.623C86.1406 232.623 99.6306 298.415 99.6306 308.47C99.6306 318.526 101.624 387.926 101.624 387.926" stroke="white" stroke-width="0.48" stroke-miterlimit="10"/>
<path d="M91.8398 380.819H112.817" stroke="white" stroke-width="0.48" stroke-miterlimit="10"/>
<path d="M110.185 229.677C110.185 229.677 99.1869 277.114 88.0156 310.638C78.9898 337.727 58.9878 389.736 58.9878 389.736L36.7861 389.173L56.0622 311.484C57.0899 307.431 57.7392 303.293 58.0017 299.12C58.9877 283.366 55.7588 251.521 54.4044 231.118L110.185 229.677Z" fill="#263238"/>
<path d="M71.6436 230.555C71.6436 230.555 76.8446 292.045 72.1745 301.602C67.5045 311.159 44.7178 389.022 44.7178 389.022" stroke="#020F2B" stroke-width="0.48" stroke-miterlimit="10"/>
<path d="M39.0186 382.141H61.2852" stroke="#020F2B" stroke-width="0.48" stroke-miterlimit="10"/>
<path d="M90.291 230.023L73.7129 251.759" stroke="#020F2B" stroke-width="0.48" stroke-miterlimit="10"/>
<path d="M83.5943 140.144C83.5943 140.144 82.9658 135.041 87.69 134.293C92.4142 133.546 105.135 130.176 137.533 141.228C137.533 141.228 143.134 109.903 143.189 107.368C143.33 100.769 145.421 92.1981 150.524 87.6906C150.947 87.3222 151.25 104.041 151.434 112.969C151.434 112.969 155.768 157.904 150.492 162.422C145.215 166.94 78.3716 155.541 83.5943 140.144Z" fill="#F0A5A9"/>
<path d="M93.1296 132.375C93.1296 132.375 74.872 129.342 75.403 143.579C75.9339 157.817 111.517 167.482 121.182 165.174L118.192 133.546L93.1296 132.375Z" fill="#F85052"/>
<path d="M121.074 164.708C118.235 168.11 90.4533 160.969 87.4086 156.321C87.4086 156.321 86.9318 140.772 88.1129 140.447C100.173 137.186 121.074 164.708 121.074 164.708Z" fill="#020F2B" stroke="#020F2B" stroke-width="0.51" stroke-miterlimit="10"/>
<path d="M67.1795 130.772C67.1795 130.772 42.3341 133.307 40.7629 153.884C39.1918 174.46 52.0534 231.454 52.0534 231.454L114.302 229.471L110.9 158.749C110.652 153.519 109.038 148.446 106.219 144.034C103.619 139.982 100.574 135.366 98.8512 135.16L70.9827 127.998L67.1795 130.772Z" fill="#F85052"/>
<path d="M62.0546 138.509C46.961 132.452 41.5541 143.59 40.774 153.884C39.2137 174.471 52.0644 231.454 52.0644 231.454L114.313 229.471" fill="#F85052"/>
<path d="M94.5637 204.535C94.9195 204.487 95.0886 203.568 94.9415 202.483C94.7944 201.397 94.3868 200.557 94.031 200.605C93.6752 200.653 93.506 201.572 93.6531 202.657C93.8002 203.742 94.2079 204.583 94.5637 204.535Z" fill="white"/>
<path d="M75.0027 112.146L73.5508 126.134L87.9618 138.161L90.1289 131.92L89.0453 120.359L77.419 109.838C76.6816 110.335 76.0052 110.917 75.4036 111.572C75.2966 111.78 75.1618 111.973 75.0027 112.146Z" fill="#F0A5A9"/>
<path d="M77.3535 109.838L88.9798 120.359L89.8033 127.239C89.8033 127.239 79.2497 124.336 78.8813 115.613" fill="#020F2B" fill-opacity="0.1"/>
<path d="M89.7365 149.244C90.0923 149.196 90.2615 148.277 90.1144 147.192C89.9673 146.106 89.5596 145.266 89.2038 145.314C88.848 145.362 88.6788 146.281 88.8259 147.366C88.973 148.451 89.3807 149.292 89.7365 149.244Z" fill="white"/>
<path d="M90.6828 160.315C91.0386 160.267 91.2078 159.348 91.0607 158.263C90.9136 157.178 90.5059 156.337 90.1501 156.385C89.7943 156.434 89.6251 157.352 89.7722 158.438C89.9193 159.523 90.327 160.363 90.6828 160.315Z" fill="white"/>
<path d="M91.6711 171.352C92.0269 171.304 92.1961 170.385 92.049 169.3C91.9018 168.215 91.4942 167.374 91.1384 167.422C90.7826 167.471 90.6134 168.39 90.7605 169.475C90.9076 170.56 91.3153 171.401 91.6711 171.352Z" fill="white"/>
<path d="M92.6389 182.413C92.9947 182.365 93.1638 181.446 93.0167 180.361C92.8696 179.275 92.4619 178.435 92.1061 178.483C91.7504 178.531 91.5812 179.45 91.7283 180.535C91.8754 181.62 92.2831 182.461 92.6389 182.413Z" fill="white"/>
<path d="M93.5842 193.485C93.94 193.437 94.1092 192.518 93.962 191.433C93.8149 190.348 93.4073 189.507 93.0515 189.555C92.6957 189.603 92.5265 190.522 92.6736 191.607C92.8207 192.693 93.2284 193.533 93.5842 193.485Z" fill="white"/>
<path d="M95.5402 215.584C95.896 215.535 96.0652 214.617 95.9181 213.531C95.771 212.446 95.3633 211.606 95.0075 211.654C94.6517 211.702 94.4825 212.621 94.6296 213.706C94.7768 214.791 95.1844 215.632 95.5402 215.584Z" fill="white"/>
<path d="M95.0215 227.176C95.3769 227.129 95.5497 226.212 95.4073 225.128C95.265 224.044 94.8614 223.203 94.5059 223.25C94.1505 223.296 93.9777 224.213 94.1201 225.297C94.2624 226.381 94.666 227.222 95.0215 227.176Z" fill="white"/>
<path d="M73.1061 125.095L65.4238 128.681L84.6132 144.978L87.9722 138.162L73.1061 125.095Z" fill="white"/>
<path d="M90.0955 130.415C90.4314 130.534 93.4436 132.582 93.4436 132.582L93.552 142.876L87.9609 138.141L90.0955 130.415Z" fill="white"/>
<path d="M106.956 201.797L120.803 158.326C121.173 157.149 121.79 156.065 122.612 155.146C123.434 154.227 124.443 153.493 125.571 152.995L153.938 140.74C154.13 140.667 154.34 140.651 154.541 140.692C154.743 140.734 154.928 140.832 155.076 140.975C155.224 141.119 155.328 141.301 155.376 141.501C155.423 141.701 155.413 141.911 155.347 142.105L141.347 184.688C140.983 185.811 140.394 186.848 139.615 187.735C138.836 188.621 137.884 189.34 136.818 189.846L108.386 203.13C108.196 203.205 107.988 203.224 107.788 203.186C107.587 203.148 107.401 203.054 107.251 202.914C107.102 202.775 106.994 202.596 106.942 202.398C106.89 202.201 106.895 201.992 106.956 201.797V201.797Z" fill="#2D4773"/>
<path d="M109.383 204.343L123.23 160.872C123.6 159.695 124.216 158.611 125.039 157.692C125.861 156.772 126.87 156.039 127.998 155.541L156.365 143.286C156.557 143.213 156.766 143.197 156.968 143.238C157.169 143.28 157.355 143.378 157.503 143.521C157.65 143.665 157.754 143.847 157.802 144.047C157.85 144.247 157.84 144.457 157.773 144.651L143.774 187.234C143.41 188.357 142.821 189.394 142.042 190.28C141.263 191.167 140.311 191.886 139.245 192.392L110.813 205.676C110.623 205.751 110.415 205.77 110.214 205.732C110.013 205.694 109.827 205.6 109.678 205.46C109.528 205.321 109.421 205.142 109.369 204.944C109.317 204.747 109.321 204.538 109.383 204.343Z" fill="white"/>
<path d="M116.437 172.521L126.882 175.619L113.685 180.961L116.437 172.521Z" fill="#020F2B"/>
<path d="M128.713 163.235L153.266 152.735" stroke="#1D254A" stroke-width="0.51" stroke-miterlimit="10"/>
<path d="M128.713 167.862L148.986 159.486" stroke="#1D254A" stroke-width="0.51" stroke-miterlimit="10"/>
<path d="M117.715 193.996L143.98 182.489L142.268 187.994L115.526 199.988L117.715 193.996Z" fill="#F85052"/>
<path d="M126.99 180.171C125.462 181.547 97.9295 209.783 84.7321 222.504C83.9074 223.306 82.909 223.908 81.8144 224.262C80.7197 224.615 79.5583 224.712 78.4202 224.545C77.282 224.377 76.1979 223.949 75.2518 223.295C74.3057 222.64 73.5231 221.776 72.9649 220.771L49.7881 181.926L71.7513 164.882C71.903 165.12 83.3885 184.635 86.0323 194.419C86.8991 197.67 88.4052 197.388 91.0166 195.795L111.062 183.443C111.026 181.822 111.164 180.202 111.474 178.61C112.319 176.086 116.339 172.705 116.339 172.705L114.594 178.047C114.28 178.946 113.251 179.596 114.876 179.791L127.608 170.354C127.608 170.354 128.767 170.256 127.673 171.513C126.84 172.302 126.111 173.194 125.505 174.168C125.657 174.265 129.135 171.827 129.287 172.759C129.439 173.691 126.448 175.945 126.567 176.01C126.687 176.075 129.959 173.42 130.143 174.287C130.327 175.154 127.857 176.855 127.727 177.191C127.597 177.527 130.414 175.381 130.533 175.847C130.652 176.313 127.868 179.39 126.99 180.171Z" fill="#F0A5A9"/>
<path d="M65.9437 147.609C65.9437 147.609 59.6809 130.034 47.6212 137.435C35.5614 144.836 44.4897 180.906 51.1968 188.307L77.1258 170.277L65.9437 147.609Z" fill="#F85052"/>
<path d="M76.2269 105.937C76.1979 106.022 76.1477 106.099 76.081 106.16C76.0142 106.22 75.933 106.263 75.8452 106.284C75.7574 106.304 75.6658 106.302 75.579 106.278C75.4922 106.253 75.4131 106.207 75.3492 106.143C74.4065 105.211 72.5212 103.976 71.8386 107.638C70.9176 112.666 76.1727 111.799 76.5844 112.471C77.4296 113.847 80.1493 118.452 84.1692 120.24C85.6047 120.919 87.2097 121.156 88.7802 120.92C90.3507 120.685 91.8158 119.988 92.9891 118.918C95.6871 116.328 96.8899 118.105 95.763 90.4316C95.763 90.4316 94.5278 92.8154 92.7508 93.433C90.9738 94.0506 88.1241 91.5802 86.1087 91.0167C84.4617 90.5617 81.287 89.3589 79.3366 95.0692C78.4698 97.6913 77.0504 103.759 76.2269 105.937Z" fill="#F0A5A9"/>
<path d="M94.8638 104.28C94.8638 104.28 94.4195 101.95 93.4443 104.366" stroke="#1D254A" stroke-width="0.33" stroke-miterlimit="10"/>
<path d="M86.9432 104.42L74.4068 104.756C73.7651 104.68 73.1168 104.826 72.5692 105.169C72.0215 105.512 71.6071 106.031 71.3945 106.641" stroke="#1D254A" stroke-width="0.33" stroke-miterlimit="10"/>
<path d="M96.7384 107.617C97.8095 107.617 98.6779 105.623 98.6779 103.163C98.6779 100.704 97.8095 98.71 96.7384 98.71C95.6672 98.71 94.7988 100.704 94.7988 103.163C94.7988 105.623 95.6672 107.617 96.7384 107.617Z" stroke="#1D254A" stroke-width="0.34" stroke-miterlimit="10"/>
<path d="M90.1396 109.035C91.9528 109.035 93.4227 106.644 93.4227 103.693C93.4227 100.743 91.9528 98.3516 90.1396 98.3516C88.3263 98.3516 86.8564 100.743 86.8564 103.693C86.8564 106.644 88.3263 109.035 90.1396 109.035Z" stroke="#1D254A" stroke-width="0.33" stroke-miterlimit="10"/>
<path d="M95.6976 110.337C95.6976 110.337 94.0723 111.15 90.0957 110.77C90.0957 110.77 92.2628 113.663 93.8014 113.111C95.34 112.558 95.6976 110.337 95.6976 110.337Z" fill="white"/>
<path d="M72.6289 107.271L75.3919 109.362C75.3919 109.362 74.3626 104.302 72.6289 107.271Z" fill="#E6777D"/>
<path d="M91.9157 105.569C92.2089 105.569 92.4466 105.079 92.4466 104.474C92.4466 103.87 92.2089 103.38 91.9157 103.38C91.6225 103.38 91.3848 103.87 91.3848 104.474C91.3848 105.079 91.6225 105.569 91.9157 105.569Z" fill="#020F2B"/>
<path d="M95.3942 105.028C95.6874 105.028 95.9251 104.538 95.9251 103.933C95.9251 103.329 95.6874 102.839 95.3942 102.839C95.101 102.839 94.8633 103.329 94.8633 103.933C94.8633 104.538 95.101 105.028 95.3942 105.028Z" fill="#020F2B"/>
<path d="M87.9503 99.75C87.1593 100.303 88.3945 97.7996 89.478 97.5179C89.7142 97.4421 89.9631 97.4137 90.2103 97.4342C90.4575 97.4548 90.6982 97.5239 90.9186 97.6376C91.1391 97.7514 91.3349 97.9075 91.4949 98.0971C91.6549 98.2866 91.7759 98.5059 91.851 98.7423C90.4721 98.601 89.0882 98.9585 87.9503 99.75V99.75Z" fill="#020F2B"/>
<path d="M96.0988 99.4905C95.4533 99.3806 94.7939 99.3806 94.1484 99.4905C94.2442 99.0416 94.4935 98.6401 94.8535 98.3553C95.2135 98.0705 95.6615 97.9202 96.1205 97.9303" fill="#020F2B"/>
<path d="M94.2999 103.9L95.9252 108.538C95.932 108.555 95.9347 108.573 95.9332 108.592C95.9318 108.61 95.9261 108.628 95.9167 108.643C95.9072 108.659 95.8943 108.672 95.8788 108.682C95.8634 108.692 95.8459 108.698 95.8277 108.7L93.899 108.841C93.8824 108.841 93.8659 108.838 93.8507 108.831C93.8355 108.825 93.8218 108.815 93.8106 108.803C93.7994 108.79 93.7909 108.776 93.7855 108.76C93.7802 108.745 93.7783 108.728 93.7798 108.711L94.0723 103.933C94.0702 103.918 94.071 103.903 94.0748 103.888C94.0785 103.874 94.0851 103.86 94.0942 103.848C94.1125 103.823 94.1397 103.807 94.1699 103.803C94.2 103.799 94.2307 103.806 94.2551 103.825C94.2794 103.843 94.2956 103.87 94.2999 103.9V103.9Z" fill="#E6777D"/>
<path d="M60.9051 74.0497L52.4319 65.5765H20.5326C17.4203 65.5736 14.4361 64.3367 12.2343 62.137C10.0325 59.9372 8.79285 56.9541 8.78711 53.8418V51.2955C8.78569 49.7516 9.08836 48.2226 9.67786 46.7957C10.2674 45.3688 11.1321 44.072 12.2228 42.9793C13.3135 41.8866 14.6087 41.0195 16.0345 40.4274C17.4603 39.8352 18.9888 39.5297 20.5326 39.5283H49.1379C52.2559 39.5283 55.2462 40.7669 57.4509 42.9717C59.6557 45.1764 60.8943 48.1667 60.8943 51.2847L60.9051 74.0497Z" fill="#F85052"/>
<path d="M22.7977 55.1628C24.4194 55.1628 25.7341 53.8481 25.7341 52.2264C25.7341 50.6047 24.4194 49.29 22.7977 49.29C21.176 49.29 19.8613 50.6047 19.8613 52.2264C19.8613 53.8481 21.176 55.1628 22.7977 55.1628Z" fill="#FAFAFA"/>
<path d="M33.5458 55.1628C35.1675 55.1628 36.4821 53.8481 36.4821 52.2264C36.4821 50.6047 35.1675 49.29 33.5458 49.29C31.924 49.29 30.6094 50.6047 30.6094 52.2264C30.6094 53.8481 31.924 55.1628 33.5458 55.1628Z" fill="#FAFAFA"/>
<path d="M44.2948 55.1628C45.9165 55.1628 47.2312 53.8481 47.2312 52.2264C47.2312 50.6047 45.9165 49.29 44.2948 49.29C42.6731 49.29 41.3584 50.6047 41.3584 52.2264C41.3584 53.8481 42.6731 55.1628 44.2948 55.1628Z" fill="#FAFAFA"/>
</svg>
