<svg width="20" height="20" viewBox="0 0 20 20" fill="none" xmlns="http://www.w3.org/2000/svg">
<path d="M14.0421 0H5.95789C4.3784 0.00208882 2.8642 0.630465 1.74733 1.74733C0.630465 2.8642 0.00208882 4.3784 0 5.95789V14.0421C0.00208882 15.6216 0.630465 17.1358 1.74733 18.2527C2.8642 19.3695 4.3784 19.9979 5.95789 20H14.0421C15.6218 19.9986 17.1364 19.3705 18.2534 18.2534C19.3705 17.1364 19.9986 15.6218 20 14.0421V5.95789C19.9979 4.3784 19.3695 2.8642 18.2527 1.74733C17.1358 0.630465 15.6216 0.00208882 14.0421 0V0ZM17.9895 14.0421C17.9895 15.089 17.5736 16.093 16.8333 16.8333C16.093 17.5736 15.089 17.9895 14.0421 17.9895H5.95789C4.91099 17.9895 3.90696 17.5736 3.16668 16.8333C2.42641 16.093 2.01053 15.089 2.01053 14.0421V5.95789C2.01053 4.91099 2.42641 3.90696 3.16668 3.16668C3.90696 2.42641 4.91099 2.01053 5.95789 2.01053H14.0421C15.089 2.01053 16.093 2.42641 16.8333 3.16668C17.5736 3.90696 17.9895 4.91099 17.9895 5.95789V14.0421Z" fill="url(#paint0_linear_1_2822)"/>
<path d="M9.99956 4.83008C8.97608 4.82956 7.97544 5.13261 7.12423 5.70091C6.27302 6.2692 5.60948 7.07719 5.21757 8.02267C4.82566 8.96814 4.72298 10.0086 4.92253 11.0125C5.12207 12.0163 5.61487 12.9384 6.33858 13.6621C7.06229 14.3858 7.9844 14.8786 8.98824 15.0782C9.99208 15.2777 11.0326 15.175 11.978 14.7831C12.9235 14.3912 13.7315 13.7277 14.2998 12.8765C14.8681 12.0253 15.1711 11.0246 15.1706 10.0011C15.1692 8.63011 14.624 7.31564 13.6545 6.34619C12.6851 5.37673 11.3706 4.83147 9.99956 4.83008V4.83008ZM9.99956 13.159C9.37499 13.159 8.76444 12.9738 8.24513 12.6268C7.72582 12.2798 7.32106 11.7866 7.08205 11.2096C6.84303 10.6326 6.7805 9.99763 6.90234 9.38506C7.02419 8.77249 7.32495 8.2098 7.76659 7.76816C8.20823 7.32652 8.77091 7.02576 9.38349 6.90392C9.99606 6.78207 10.631 6.84461 11.208 7.08362C11.7851 7.32263 12.2783 7.72739 12.6253 8.2467C12.9723 8.76602 13.1575 9.37656 13.1575 10.0011C13.1575 10.8387 12.8248 11.6419 12.2325 12.2341C11.6403 12.8263 10.8371 13.159 9.99956 13.159Z" fill="url(#paint1_linear_1_2822)"/>
<path d="M15.2028 6.10868C15.9091 6.10868 16.4817 5.53607 16.4817 4.82973C16.4817 4.12338 15.9091 3.55078 15.2028 3.55078C14.4964 3.55078 13.9238 4.12338 13.9238 4.82973C13.9238 5.53607 14.4964 6.10868 15.2028 6.10868Z" fill="url(#paint2_linear_1_2822)"/>
<defs>
<linearGradient id="paint0_linear_1_2822" x1="10" y1="19.9079" x2="10" y2="1.35526" gradientUnits="userSpaceOnUse">
<stop stop-color="#E09B3D"/>
<stop offset="0.24" stop-color="#C74C4D"/>
<stop offset="0.65" stop-color="#C21975"/>
<stop offset="1" stop-color="#7024C4"/>
</linearGradient>
<linearGradient id="paint1_linear_1_2822" x1="9.99693" y1="15.1298" x2="9.99693" y2="5.53125" gradientUnits="userSpaceOnUse">
<stop stop-color="#E09B3D"/>
<stop offset="0.24" stop-color="#C74C4D"/>
<stop offset="0.65" stop-color="#C21975"/>
<stop offset="1" stop-color="#7024C4"/>
</linearGradient>
<linearGradient id="paint2_linear_1_2822" x1="15.2028" y1="6.0969" x2="15.2028" y2="3.72411" gradientUnits="userSpaceOnUse">
<stop stop-color="#E09B3D"/>
<stop offset="0.24" stop-color="#C74C4D"/>
<stop offset="0.65" stop-color="#C21975"/>
<stop offset="1" stop-color="#7024C4"/>
</linearGradient>
</defs>
</svg>
