<svg width="20" height="21" viewBox="0 0 20 21" fill="none" xmlns="http://www.w3.org/2000/svg">
<path d="M5.46316 2.72895C5.46368 3.26943 5.30385 3.79791 5.0039 4.24752C4.70395 4.69713 4.27737 5.04765 3.77813 5.25473C3.27889 5.4618 2.72944 5.51612 2.19932 5.4108C1.6692 5.30549 1.18224 5.04527 0.800063 4.6631C0.417886 4.28092 0.157674 3.79396 0.0523596 3.26384C-0.0529551 2.73372 0.00136103 2.18427 0.208434 1.68503C0.415507 1.1858 0.766029 0.759208 1.21564 0.459259C1.66525 0.159309 2.19373 -0.000519175 2.73421 1.26698e-06C3.45776 0.000697992 4.15148 0.288435 4.6631 0.800061C5.17473 1.31169 5.46246 2.0054 5.46316 2.72895V2.72895Z" fill="#0B69C7"/>
<path d="M4.17109 6.59375H1.29741C0.923891 6.59375 0.621094 6.89655 0.621094 7.27007V19.3201C0.621094 19.6936 0.923891 19.9964 1.29741 19.9964H4.17109C4.54461 19.9964 4.84741 19.6936 4.84741 19.3201V7.27007C4.84741 6.89655 4.54461 6.59375 4.17109 6.59375Z" fill="#0B69C7"/>
<path d="M19.8711 13.5461V19.3803C19.8711 19.545 19.8056 19.703 19.6892 19.8195C19.5727 19.9359 19.4147 20.0014 19.25 20.0014H16.1658C16.0011 20.0014 15.8431 19.9359 15.7266 19.8195C15.6102 19.703 15.5447 19.545 15.5447 19.3803V13.7277C15.5447 12.8829 15.7895 10.0435 13.3395 10.0435C11.4395 10.0435 11.0526 11.9961 10.9711 12.8724V19.3935C10.9676 19.555 10.9014 19.7088 10.7865 19.8223C10.6715 19.9358 10.5168 20 10.3553 20.0014H7.37106C7.2894 20.0017 7.20849 19.9859 7.13298 19.9548C7.05747 19.9237 6.98887 19.878 6.93113 19.8202C6.87339 19.7625 6.82766 19.6939 6.79657 19.6184C6.76548 19.5429 6.74966 19.462 6.75001 19.3803V7.22242C6.74966 7.14064 6.76547 7.0596 6.79652 6.98395C6.82758 6.90829 6.87327 6.83952 6.93097 6.78157C6.98868 6.72362 7.05726 6.67764 7.13278 6.64626C7.2083 6.61489 7.28928 6.59874 7.37106 6.59874H10.3553C10.4381 6.59734 10.5203 6.61244 10.5972 6.64316C10.6741 6.67387 10.7441 6.71959 10.8031 6.77765C10.8621 6.8357 10.909 6.90493 10.941 6.98129C10.973 7.05765 10.9895 7.13963 10.9895 7.22242V8.27505C11.6947 7.22242 12.7421 6.40137 14.9711 6.40137C19.9 6.39874 19.8711 11.0119 19.8711 13.5461Z" fill="#0B69C7"/>
</svg>
