<svg width="203" height="274" viewBox="0 0 203 274" fill="none" xmlns="http://www.w3.org/2000/svg">
<path d="M269.818 178.32C269.818 229.022 228.716 270.124 178.014 270.124C127.313 270.124 86.2109 229.022 86.2109 178.32C86.2109 127.618 127.313 86.5166 178.014 86.5166C228.716 86.5166 269.818 127.618 269.818 178.32Z" stroke="white"/>
<circle cx="170.727" cy="168.604" r="102.734" stroke="white"/>
<path d="M277.105 160.709C277.105 222.814 226.76 273.16 164.655 273.16C102.551 273.16 52.2051 222.814 52.2051 160.709C52.2051 98.6049 102.551 48.2593 164.655 48.2593C226.76 48.2593 277.105 98.6049 277.105 160.709Z" stroke="white"/>
<path d="M279.534 149.171C279.534 215.971 225.382 270.123 158.583 270.123C91.7828 270.123 37.6309 215.971 37.6309 149.171C37.6309 82.3716 91.7828 28.2197 158.583 28.2197C225.382 28.2197 279.534 82.3716 279.534 149.171Z" stroke="white"/>
<path d="M281.964 137.937C281.964 209.265 224.141 267.087 152.814 267.087C81.4864 267.087 23.6641 209.265 23.6641 137.937C23.6641 66.6099 81.4864 8.7876 152.814 8.7876C224.141 8.7876 281.964 66.6099 281.964 137.937Z" stroke="white"/>
<path d="M285 125.185C285 203.555 221.468 267.087 143.097 267.087C64.7271 267.087 1.19531 203.555 1.19531 125.185C1.19531 46.8144 64.7271 -16.7173 143.097 -16.7173C221.468 -16.7173 285 46.8144 285 125.185Z" stroke="white"/>
</svg>
