<svg width="114" height="114" viewBox="0 0 114 114" fill="none" xmlns="http://www.w3.org/2000/svg">
<rect x="1" y="1" width="112" height="112" rx="56" fill="white"/>
<rect x="0.5" y="0.5" width="113" height="113" rx="56.5" stroke="#455A64" stroke-opacity="0.4" stroke-dasharray="9 9"/>
<path fill-rule="evenodd" clip-rule="evenodd" d="M61.5629 43.6036H50.4746C47.0079 43.5902 44.1662 46.3536 44.0845 49.8186V67.6736C44.0079 71.1952 46.7996 74.1136 50.3212 74.1919C50.3729 74.1919 50.4229 74.1936 50.4746 74.1919H63.7896C67.2796 74.0502 70.0296 71.1669 70.0046 67.6736V52.3969L61.5629 43.6036Z" stroke="#F85052" stroke-width="2" stroke-linecap="round" stroke-linejoin="round"/>
<path d="M61.125 43.584V48.4323C61.125 50.799 63.0383 52.7173 65.405 52.724H69.9967" stroke="#F85052" stroke-width="2" stroke-linecap="round" stroke-linejoin="round"/>
<path d="M60.8135 64.599H51.8135" stroke="#F85052" stroke-width="2" stroke-linecap="round" stroke-linejoin="round"/>
<path d="M57.4049 58.3431H51.8115" stroke="#F85052" stroke-width="2" stroke-linecap="round" stroke-linejoin="round"/>
</svg>
