<svg width="39" height="38" viewBox="0 0 39 38" fill="none" xmlns="http://www.w3.org/2000/svg">
<path d="M19.5 8.98047C13.8298 8.98047 9.2168 13.4752 9.2168 19C9.2168 24.5284 13.8355 29.0195 19.5 29.0195C25.1693 29.0195 29.7832 24.5236 29.7832 19C29.7832 13.4752 25.1702 8.98047 19.5 8.98047ZM19.5 26.793C17.6339 26.793 15.9151 26.1669 14.5529 25.1192C15.564 23.4093 17.43 22.3398 19.5 22.3398C21.57 22.3398 23.436 23.4093 24.447 25.1192C23.0849 26.1669 21.3661 26.793 19.5 26.793ZM17.2148 17.8867C17.2148 16.659 18.24 15.6602 19.5 15.6602C20.76 15.6602 21.7852 16.659 21.7852 17.8867C21.7852 19.1144 20.76 20.1133 19.5 20.1133C18.24 20.1133 17.2148 19.1144 17.2148 17.8867ZM26.064 23.4472C25.2581 22.3164 24.167 21.4255 22.9075 20.8501C23.63 20.0623 24.0703 19.0238 24.0703 17.8867C24.0703 15.4313 22.0201 13.4336 19.5 13.4336C16.9799 13.4336 14.9297 15.4313 14.9297 17.8867C14.9297 19.0238 15.37 20.0623 16.0925 20.8501C14.8329 21.4255 13.7419 22.3164 12.936 23.4472C12.0327 22.1852 11.502 20.652 11.502 19C11.502 14.703 15.0899 11.207 19.5 11.207C23.9101 11.207 27.498 14.703 27.498 19C27.498 20.652 26.9674 22.1852 26.064 23.4472Z" fill="white"/>
<path d="M38.0416 15.6747L35.009 15.1921C34.6284 13.717 34.0309 12.315 33.226 11.0084L34.9724 8.62615C35.2971 8.18329 35.2455 7.5767 34.8505 7.19187L31.6189 4.04314C31.2239 3.65832 30.6014 3.60814 30.1468 3.92446L27.7019 5.62608C26.361 4.84181 24.9221 4.25964 23.4081 3.88869L22.9127 0.933895C22.8225 0.395363 22.345 0 21.7852 0H17.2148C16.6549 0 16.1775 0.395363 16.0872 0.93382L15.5919 3.88862C14.0779 4.25949 12.639 4.84166 11.2981 5.626L8.85308 3.92439C8.39856 3.60807 7.77601 3.65824 7.38105 4.04307L4.14946 7.1918C3.75451 7.57662 3.70302 8.18321 4.02759 8.62607L5.77398 11.0083C4.96907 12.3149 4.37158 13.7169 3.99087 15.1921L0.958318 15.6746C0.405768 15.7627 0 16.2279 0 16.7734V21.2266C0 21.7721 0.405768 22.2373 0.958395 22.3253L3.99095 22.8079C4.37166 24.2831 4.96915 25.685 5.77406 26.9916L4.02766 29.3739C3.70302 29.8167 3.75459 30.4233 4.14954 30.8081L7.38113 33.9569C7.77608 34.3418 8.39871 34.3919 8.85315 34.0756L11.2982 32.374C12.6391 33.1583 14.0779 33.7404 15.592 34.1114L16.0873 37.0662C16.1775 37.6046 16.6549 38 17.2148 38H21.7852C22.3451 38 22.8225 37.6046 22.9128 37.0662L23.4082 34.1114C24.9221 33.7405 26.361 33.1583 27.702 32.374L30.1469 34.0756C30.6017 34.392 31.2241 34.3418 31.6189 33.9569L34.8506 30.8081C35.2456 30.4233 35.2971 29.8167 34.9725 29.3739L33.2261 26.9916C34.0309 25.685 34.6285 24.283 35.0091 22.8079L38.0417 22.3253C38.5942 22.2373 39 21.7721 39 21.2266V16.7734C39 16.2279 38.5942 15.7627 38.0416 15.6747ZM36.7148 20.2803L33.88 20.7314C33.4098 20.8063 33.0367 21.1575 32.9436 21.6127C32.5918 23.3335 31.9041 24.9474 30.8997 26.4095C30.6351 26.7945 30.643 27.2988 30.9194 27.6759L32.5503 29.9007L30.6875 31.7157L28.4042 30.1266C28.0174 29.8574 27.4997 29.8496 27.1045 30.1074C25.6038 31.0862 23.9475 31.7561 22.1815 32.0989C21.7142 32.1896 21.3538 32.5532 21.277 33.0112L20.814 35.7734H18.186L17.7229 33.0112C17.6461 32.5532 17.2857 32.1895 16.8184 32.0989C15.0523 31.7561 13.396 31.0861 11.8955 30.1074C11.5004 29.8496 10.9828 29.8572 10.5958 30.1266L8.31248 31.7157L6.4497 29.9007L8.08062 27.6759C8.35697 27.2988 8.36481 26.7945 8.10035 26.4095C7.09579 24.9474 6.40819 23.3336 6.05643 21.6128C5.96334 21.1575 5.59018 20.8063 5.12005 20.7315L2.28516 20.2803V17.7197L5.12005 17.2686C5.59018 17.1937 5.96334 16.8425 6.05643 16.3873C6.40819 14.6665 7.09587 13.0527 8.10035 11.5906C8.36489 11.2056 8.35704 10.7012 8.08062 10.3242L6.4497 8.09942L8.31248 6.2844L10.5958 7.8735C10.9828 8.14276 11.5004 8.15048 11.8955 7.89272C13.396 6.914 15.0523 6.24395 16.8184 5.90121C17.2856 5.81051 17.6461 5.44691 17.7229 4.98884L18.186 2.22656H20.814L21.2771 4.98876C21.3539 5.44684 21.7143 5.81051 22.1816 5.90113C23.9476 6.24388 25.6039 6.91392 27.1045 7.89264C27.4996 8.15041 28.0172 8.14269 28.4043 7.87342L30.6876 6.28432L32.5504 8.09934L30.9195 10.3241C30.6431 10.7012 30.6353 11.2055 30.8997 11.5905C31.9042 13.0526 32.5919 14.6664 32.9437 16.3872C33.0367 16.8425 33.4099 17.1936 33.88 17.2685L36.7148 17.7197V20.2803Z" fill="white"/>
</svg>
