<svg width="75" height="75" viewBox="0 0 75 75" fill="none" xmlns="http://www.w3.org/2000/svg">
<g filter="url(#filter0_d_1_3743)">
<path fill-rule="evenodd" clip-rule="evenodd" d="M37.6035 62.2071C22.9107 62.2071 10.9999 50.2963 10.9999 35.6036C10.9999 20.9108 22.9107 9 37.6035 9C52.2962 9 64.207 20.9108 64.207 35.6036C64.207 50.2963 52.2962 62.2071 37.6035 62.2071Z" stroke="#F0F0F0"/>
<path fill-rule="evenodd" clip-rule="evenodd" d="M33.1128 34.9214H40.7323L38.0856 32.2747C37.8196 32.0087 37.8196 31.5721 38.0856 31.3061C38.3517 31.04 38.7814 31.04 39.0475 31.3061L42.8606 35.1192C43.1267 35.3853 43.1267 35.815 42.8606 36.0811L39.0543 39.9011C38.7882 40.1671 38.3585 40.1671 38.0925 39.9011C37.8264 39.635 37.8264 39.2053 38.0925 38.9392L40.7323 36.2857H33.1128C32.7376 36.2857 32.4307 35.9787 32.4307 35.6036C32.4307 35.2284 32.7376 34.9214 33.1128 34.9214Z" fill="#455A64"/>
</g>
<defs>
<filter id="filter0_d_1_3743" x="0.5" y="0.5" width="74.207" height="74.207" filterUnits="userSpaceOnUse" color-interpolation-filters="sRGB">
<feFlood flood-opacity="0" result="BackgroundImageFix"/>
<feColorMatrix in="SourceAlpha" type="matrix" values="0 0 0 0 0 0 0 0 0 0 0 0 0 0 0 0 0 0 127 0" result="hardAlpha"/>
<feOffset dy="2"/>
<feGaussianBlur stdDeviation="5"/>
<feColorMatrix type="matrix" values="0 0 0 0 0.229073 0 0 0 0 0.274695 0 0 0 0 0.365939 0 0 0 0.05 0"/>
<feBlend mode="normal" in2="BackgroundImageFix" result="effect1_dropShadow_1_3743"/>
<feBlend mode="normal" in="SourceGraphic" in2="effect1_dropShadow_1_3743" result="shape"/>
</filter>
</defs>
</svg>
