<svg width="75" height="75" viewBox="0 0 75 75" fill="none" xmlns="http://www.w3.org/2000/svg">
<g filter="url(#filter0_d_1_3739)">
<path fill-rule="evenodd" clip-rule="evenodd" d="M37.6036 62.2071C52.2963 62.2071 64.2071 50.2963 64.2071 35.6036C64.2071 20.9108 52.2963 9 37.6036 9C22.9108 9 11 20.9108 11 35.6036C11 50.2963 22.9108 62.2071 37.6036 62.2071Z" stroke="#F0F0F0"/>
<path fill-rule="evenodd" clip-rule="evenodd" d="M42.0942 34.9214H34.4747L37.1214 32.2747C37.3874 32.0087 37.3874 31.5721 37.1214 31.3061C36.8554 31.04 36.4256 31.04 36.1596 31.3061L32.3464 35.1192C32.0804 35.3853 32.0804 35.815 32.3464 36.0811L36.1528 39.9011C36.4188 40.1671 36.8485 40.1671 37.1146 39.9011C37.3806 39.635 37.3806 39.2053 37.1146 38.9392L34.4747 36.2857H42.0942C42.4694 36.2857 42.7764 35.9787 42.7764 35.6036C42.7764 35.2284 42.4694 34.9214 42.0942 34.9214Z" fill="#455A64"/>
</g>
<defs>
<filter id="filter0_d_1_3739" x="0.5" y="0.5" width="74.207" height="74.207" filterUnits="userSpaceOnUse" color-interpolation-filters="sRGB">
<feFlood flood-opacity="0" result="BackgroundImageFix"/>
<feColorMatrix in="SourceAlpha" type="matrix" values="0 0 0 0 0 0 0 0 0 0 0 0 0 0 0 0 0 0 127 0" result="hardAlpha"/>
<feOffset dy="2"/>
<feGaussianBlur stdDeviation="5"/>
<feColorMatrix type="matrix" values="0 0 0 0 0.229073 0 0 0 0 0.274695 0 0 0 0 0.365939 0 0 0 0.05 0"/>
<feBlend mode="normal" in2="BackgroundImageFix" result="effect1_dropShadow_1_3739"/>
<feBlend mode="normal" in="SourceGraphic" in2="effect1_dropShadow_1_3739" result="shape"/>
</filter>
</defs>
</svg>
