<svg width="360" height="397" viewBox="0 0 360 397" fill="none" xmlns="http://www.w3.org/2000/svg">
<path d="M238.787 389.377C242.736 389.377 245.938 386.176 245.938 382.227C245.938 378.278 242.736 375.076 238.787 375.076C234.838 375.076 231.637 378.278 231.637 382.227C231.637 386.176 234.838 389.377 238.787 389.377Z" fill="#00010D"/>
<path d="M238.788 357.309V376.642" stroke="#00010D" stroke-width="4.08" stroke-miterlimit="10"/>
<path d="M278.275 196.033H269.199V271.414H278.275V196.033Z" fill="#28313B"/>
<path d="M285.607 206.585C285.607 208.78 283.374 210.552 280.614 210.552H266.865C264.105 210.552 261.871 208.78 261.871 206.585C261.871 204.39 264.105 202.618 266.865 202.618H280.614C283.374 202.618 285.607 204.39 285.607 206.585Z" fill="#1B232D"/>
<path d="M285.607 216.855C285.607 219.051 283.374 220.822 280.614 220.822H266.865C264.105 220.822 261.871 219.051 261.871 216.855C261.871 214.66 264.105 212.889 266.865 212.889H280.614C283.374 212.889 285.607 214.66 285.607 216.855Z" fill="#1B232D"/>
<path d="M285.607 227.138C285.607 229.333 283.374 231.104 280.614 231.104H266.865C264.105 231.104 261.871 229.333 261.871 227.138C261.871 224.942 264.105 223.171 266.865 223.171H280.614C283.374 223.171 285.607 224.942 285.607 227.138Z" fill="#1B232D"/>
<path d="M285.607 237.317C285.607 239.513 283.374 241.284 280.614 241.284H266.865C264.105 241.284 261.871 239.5 261.871 237.317C261.871 235.122 264.105 233.351 266.865 233.351H280.614C283.374 233.351 285.607 235.122 285.607 237.317Z" fill="#1B232D"/>
<path d="M285.607 247.602C285.607 249.797 283.374 251.568 280.614 251.568H266.865C264.105 251.568 261.871 249.797 261.871 247.602C261.871 245.406 264.105 243.635 266.865 243.635H280.614C283.374 243.635 285.607 245.419 285.607 247.602Z" fill="#1B232D"/>
<path d="M285.607 257.024C285.607 259.22 283.374 260.991 280.614 260.991H266.865C264.105 260.991 261.871 259.22 261.871 257.024C261.871 254.829 264.105 253.058 266.865 253.058H280.614C283.374 253.058 285.607 254.842 285.607 257.024Z" fill="#1B232D"/>
<path d="M284.539 279.014C284.539 281.077 284.133 283.12 283.343 285.027C282.554 286.933 281.396 288.665 279.937 290.124C278.478 291.584 276.746 292.741 274.84 293.531C272.933 294.32 270.89 294.727 268.827 294.727H208.748C206.684 294.727 204.641 294.32 202.734 293.531C200.828 292.741 199.096 291.584 197.637 290.124C196.178 288.665 195.02 286.933 194.231 285.027C193.441 283.12 193.035 281.077 193.035 279.014C193.035 274.846 194.69 270.85 197.637 267.903C200.584 264.956 204.58 263.301 208.748 263.301H268.827C272.994 263.301 276.99 264.956 279.937 267.903C282.884 270.85 284.539 274.846 284.539 279.014V279.014Z" fill="#1F6A58"/>
<g style="mix-blend-mode:multiply">
<path d="M268.827 263.275H268.712C269.605 265.65 269.909 268.207 269.597 270.725C269.284 273.244 268.365 275.649 266.918 277.733C265.471 279.818 263.539 281.52 261.289 282.694C259.039 283.867 256.538 284.477 254 284.47H194.037C195.146 287.48 197.151 290.077 199.781 291.913C202.411 293.749 205.541 294.736 208.748 294.74H268.827C270.928 294.8 273.019 294.438 274.977 293.676C276.935 292.913 278.72 291.766 280.227 290.302C281.734 288.837 282.932 287.085 283.75 285.15C284.568 283.214 284.989 281.135 284.989 279.033C284.989 276.932 284.568 274.852 283.75 272.917C282.932 270.981 281.734 269.229 280.227 267.765C278.72 266.3 276.935 265.153 274.977 264.391C273.019 263.629 270.928 263.267 268.827 263.327V263.275Z" fill="white"/>
</g>
<path d="M285.644 138.482H243.139C231.576 138.482 222.202 147.857 222.202 159.42V180.358C222.202 191.922 231.576 201.296 243.139 201.296H285.644C297.208 201.296 306.582 191.922 306.582 180.358V159.42C306.582 147.857 297.208 138.482 285.644 138.482Z" fill="#1F6A58"/>
<g style="mix-blend-mode:multiply">
<path d="M287.904 138.599C290.881 142.064 292.516 146.482 292.512 151.051V170.23C292.512 172.75 292.016 175.245 291.051 177.572C290.087 179.9 288.673 182.015 286.89 183.796C285.108 185.577 282.992 186.99 280.664 187.953C278.336 188.916 275.84 189.411 273.321 189.409H234.385C230.216 189.422 226.158 188.069 222.831 185.558C223.987 190.053 226.604 194.035 230.272 196.88C233.939 199.724 238.447 201.269 243.088 201.271H285.58C291.133 201.271 296.459 199.065 300.385 195.138C304.312 191.212 306.518 185.886 306.518 180.333V159.408C306.518 154.257 304.62 149.287 301.186 145.448C297.752 141.609 293.023 139.17 287.904 138.599Z" fill="white"/>
</g>
<path d="M243.397 294.688H234.193V359.016H243.397V294.688Z" fill="#151D27"/>
<path d="M237.749 357.309L208.891 381.738" stroke="#151D27" stroke-width="4.08" stroke-miterlimit="10"/>
<path d="M240.573 357.309L269.419 381.738" stroke="#151D27" stroke-width="4.08" stroke-miterlimit="10"/>
<path d="M207.389 392.035C211.338 392.035 214.539 388.833 214.539 384.884C214.539 380.935 211.338 377.734 207.389 377.734C203.44 377.734 200.238 380.935 200.238 384.884C200.238 388.833 203.44 392.035 207.389 392.035Z" fill="#151D27"/>
<path d="M269.419 392.035C273.369 392.035 276.57 388.833 276.57 384.884C276.57 380.935 273.369 377.734 269.419 377.734C265.47 377.734 262.269 380.935 262.269 384.884C262.269 388.833 265.47 392.035 269.419 392.035Z" fill="#151D27"/>
<path d="M155.961 377.734H140.261C136.061 380.46 131.274 382.154 126.294 382.676C126.294 382.676 121.955 382.676 121.056 386.117C120.706 387.542 120.706 389.031 121.056 390.456C121.056 390.456 133.034 393.948 144.947 390.456C144.947 390.456 147.193 388.979 147.424 390.777H155.961C156.96 386.486 156.96 382.024 155.961 377.734V377.734Z" fill="#001123"/>
<path d="M193.381 377.734H177.694C173.494 380.46 168.707 382.154 163.727 382.676C163.727 382.676 159.388 382.676 158.489 386.117C158.138 387.542 158.138 389.031 158.489 390.456C158.489 390.456 170.467 393.948 182.38 390.456C182.38 390.456 184.626 388.979 184.857 390.777H193.394C194.387 386.485 194.383 382.023 193.381 377.734V377.734Z" fill="#001123"/>
<path d="M192.73 146.263C192.73 146.263 188.57 213.325 105.654 212.337Z" fill="#F85052"/>
<path d="M192.73 146.263C192.73 146.263 188.57 213.325 105.654 212.337" stroke="#F85052" stroke-width="16.31" stroke-miterlimit="10"/>
<path d="M90.5826 206.944C90.5826 206.944 87.8739 205.096 86.0638 205.545L77.3344 214.826L75.8068 216.11C76.7648 216.469 77.8072 216.538 78.8044 216.31C79.8017 216.082 80.71 215.566 81.4167 214.826C81.4167 214.826 87.9124 207.586 90.5826 206.944Z" fill="#F9A374"/>
<path d="M95.9341 206.944C95.9341 206.944 93.2254 205.096 91.4281 205.545L82.673 214.826L81.1454 216.11C82.1035 216.469 83.1458 216.538 84.143 216.31C85.1403 216.082 86.0486 215.566 86.7553 214.826C86.7553 214.826 93.2639 207.586 95.9341 206.944Z" fill="#F9A374"/>
<path d="M86.5491 205.712C86.5491 205.712 83.8405 203.863 82.0432 204.313L73.301 213.633L71.7733 214.916C72.7314 215.275 73.7737 215.345 74.771 215.116C75.7682 214.888 76.6765 214.372 77.3833 213.633C77.3833 213.633 83.879 206.354 86.5491 205.712Z" fill="#F9A374"/>
<path d="M105.742 214.081C105.742 214.081 99.4133 216.97 95.883 217.278C93.2858 218.315 90.865 219.748 88.7069 221.527C88.7069 221.527 86.0111 223.042 86.4219 218.677C86.4219 218.677 90.2731 214.223 94.0216 213.131C94.0216 213.131 87.4617 203.811 82.0443 204.363C82.0443 204.363 90.7481 202.258 94.9459 203.208C98.546 203.415 102.155 203.415 105.755 203.208L105.742 214.081Z" fill="#F9A374"/>
<path d="M228.505 125.747H209.853V111.485L228.505 103.32V125.747Z" fill="#F9A374"/>
<g style="mix-blend-mode:multiply">
<path d="M217.58 122.397C215.58 120.911 214.207 118.731 213.732 116.284C213.257 113.837 213.714 111.302 215.013 109.175L209.878 111.421V125.671H228.505V124.721C224.701 125.326 220.808 124.498 217.58 122.397Z" fill="#E6E7E8"/>
</g>
<path d="M260.818 240.924L265.273 137.802C264.066 121.922 253 120.471 253 120.471L226.722 117.698L217.736 123.668L209.456 118.327L187.966 132.448C187.966 132.448 184.705 135.016 182.292 146.056L187.94 240.976L260.818 240.924Z" fill="#E6E7E8"/>
<path d="M221.857 123.63H214.411L209.674 132.423L214.809 140.1L215.117 140.126H220.83L225.862 132.423L221.857 123.63Z" fill="#00B9C5"/>
<path d="M214.807 140.101L213.434 221.413L220.109 232.979L226.387 220.925L220.828 140.126L214.807 140.101Z" fill="#00858E"/>
<path d="M262.859 240.925L265.272 136.775C264.065 120.895 252.999 119.444 252.999 119.444L228.814 116.787L234.591 240.925H262.859Z" fill="#F85052"/>
<path d="M208.966 240.925L209.479 118.276L187.989 132.397C187.989 132.397 184.729 134.965 182.315 146.005L187.964 240.925H208.966Z" fill="#F85052"/>
<path d="M187.978 240.925H262.858C262.858 240.925 273.295 282.402 222.677 278.744C222.665 278.757 182.06 280.027 187.978 240.925Z" fill="#4E2609"/>
<path d="M187.978 240.925L126.461 251.849L140.287 377.733H156.051L154.28 272.466H199.596L187.978 240.925Z" fill="#1E2B31"/>
<path d="M206.386 120.305L209.955 116.095L217.76 123.63L203.716 136.853L206.386 120.305Z" fill="white"/>
<path d="M231.69 117.069L228.507 113.372L217.762 123.629L234.194 136.852L231.69 117.069Z" fill="white"/>
<path d="M238.777 77.8136C238.43 83.1283 240.857 87.6085 244.207 87.8139C247.558 88.0193 250.536 83.9627 250.87 78.5838C251.203 73.205 248.777 68.7889 245.439 68.5835C242.102 68.3781 239.162 72.5117 238.777 77.8136Z" fill="#F9A374"/>
<path d="M243.55 75.9269C243.563 75.6647 243.588 75.4034 243.627 75.1438C243.723 74.4731 243.904 73.8174 244.167 73.1925C244.487 72.4608 245.039 71.6007 245.861 71.4852C246.074 71.4529 246.29 71.4529 246.503 71.4852C246.503 71.4852 246.773 71.5493 246.837 71.5879C246.901 71.6264 246.991 71.652 247.093 71.7291C247.491 71.9987 247.814 72.3654 248.031 72.7946C248.53 73.6964 248.807 74.7041 248.839 75.7343C248.839 76.2607 248.839 76.7998 248.839 77.2748C248.839 77.7498 248.749 78.1991 248.698 78.5586C248.647 78.918 248.57 79.3673 248.518 79.7139C248.467 80.0605 248.39 80.3558 248.339 80.5997C248.236 81.0875 248.185 81.3828 248.185 81.3828C248.185 81.3828 248.326 81.126 248.531 80.6639C248.621 80.4328 248.775 80.1632 248.904 79.8166C249.032 79.47 249.16 79.1106 249.301 78.6869C249.443 78.2633 249.52 77.7883 249.635 77.2877C249.731 76.7742 249.795 76.2555 249.828 75.7343C249.873 75.1309 249.821 74.5241 249.674 73.9371C249.536 73.3321 249.316 72.749 249.019 72.2041C248.718 71.6284 248.277 71.1382 247.735 70.7791C247.577 70.6843 247.409 70.6069 247.235 70.548C247.079 70.5029 246.92 70.4686 246.76 70.4453C246.432 70.3932 246.099 70.3932 245.771 70.4453C245.162 70.6003 244.634 70.9812 244.295 71.5108C244.014 71.9292 243.809 72.3943 243.692 72.8844C243.527 73.5864 243.475 74.31 243.537 75.0283C243.511 75.3274 243.515 75.6286 243.55 75.9269V75.9269Z" fill="#C8825F"/>
<path d="M243.551 75.9264C243.551 75.9264 243.179 75.4 245.31 75.0791C245.31 75.0791 247.762 75.2332 246.696 77.9547C246.455 78.5341 246.291 79.1427 246.209 79.7648C246.106 80.6505 246.645 81.8059 246.209 82.6275C246.022 82.8533 245.78 83.0262 245.506 83.1288C245.232 83.2314 244.935 83.2601 244.647 83.2119C244.358 83.1638 244.087 83.0406 243.861 82.8546C243.635 82.6687 243.462 82.4265 243.359 82.1525C243.153 81.2924 244.065 79.6877 244.488 79.0202C244.665 78.7645 244.781 78.4723 244.829 78.1654C244.877 77.8586 244.855 77.5448 244.765 77.2475C244.675 76.9503 244.519 76.6771 244.309 76.4484C244.099 76.2196 243.84 76.0412 243.551 75.9264V75.9264Z" fill="#C8825F"/>
<path d="M243.319 82.0361C243.262 82.0811 243.21 82.1329 243.165 82.1902C243.047 82.3431 242.96 82.5175 242.909 82.7037C242.888 82.8312 242.888 82.9613 242.909 83.0888C242.88 83.2328 242.88 83.3812 242.909 83.5253C242.938 83.6814 242.977 83.8357 243.024 83.9874C243.09 84.1342 243.168 84.2759 243.255 84.4111C243.338 84.547 243.437 84.6721 243.55 84.7833C243.664 84.8809 243.784 84.971 243.91 85.0529C244.114 85.2189 244.357 85.3294 244.616 85.3739C244.863 85.4392 245.118 85.4652 245.373 85.4509C245.252 85.2367 245.11 85.0346 244.95 84.8475C244.885 84.7633 244.812 84.6859 244.732 84.6164C244.667 84.5266 244.616 84.4239 244.539 84.3469C244.473 84.2558 244.4 84.17 244.321 84.0901C244.249 84.0042 244.188 83.9093 244.141 83.8077C244.009 83.6369 243.897 83.4517 243.807 83.2557C243.757 83.1652 243.714 83.0708 243.679 82.9733C243.679 82.8706 243.589 82.7807 243.563 82.6908C243.396 82.3571 243.307 82.0361 243.319 82.0361Z" fill="#C8825F"/>
<path d="M182.831 58.9816C182.831 58.9816 178.979 98.893 198.556 111.461C198.556 111.461 208.313 121.063 220.046 112.655C220.046 112.655 237.441 103.271 240.316 96.1073C240.316 96.1073 255.336 31.2913 218.865 29.1988C218.865 29.1988 187.722 21.9842 182.831 58.9816Z" fill="#F9A374"/>
<g style="mix-blend-mode:multiply">
<path d="M218.864 29.1978C216.844 28.798 214.788 28.6087 212.728 28.6329C219.147 31.2004 224.141 36.5151 227.453 43.0621C232.307 52.7473 235.174 63.3057 235.887 74.1158C236.606 87.916 229.468 101.986 217.106 108.661C211.971 111.447 205.462 114.066 199.518 112.269C202.39 114.655 205.989 115.992 209.723 116.06C213.457 116.128 217.102 114.922 220.058 112.641C220.058 112.641 237.491 103.27 240.316 96.1062C240.316 96.1062 255.335 31.2517 218.864 29.1978Z" fill="#E6E7E8"/>
</g>
<path d="M222.871 71.9212C224.608 71.9212 226.016 70.513 226.016 68.776C226.016 67.039 224.608 65.6309 222.871 65.6309C221.134 65.6309 219.726 67.039 219.726 68.776C219.726 70.513 221.134 71.9212 222.871 71.9212Z" fill="#363436"/>
<path d="M225.239 68.5891C225.492 68.2381 225.128 67.5439 224.426 67.0385C223.724 66.5331 222.95 66.408 222.697 66.759C222.444 67.11 222.809 67.8042 223.511 68.3096C224.213 68.8149 224.986 68.9401 225.239 68.5891Z" fill="white"/>
<path d="M216.953 58.2107C216.538 58.3696 216.177 58.6414 215.909 58.9954C215.641 59.3494 215.478 59.7713 215.438 60.2133C215.438 60.2133 215.438 62.049 217.03 61.8821C217.03 61.8821 228.288 60.4315 232.64 63.1659C232.576 63.2557 232.049 54.9885 216.953 58.2107Z" fill="#472B1E"/>
<path d="M197.67 71.9212C199.407 71.9212 200.815 70.513 200.815 68.776C200.815 67.039 199.407 65.6309 197.67 65.6309C195.933 65.6309 194.525 67.039 194.525 68.776C194.525 70.513 195.933 71.9212 197.67 71.9212Z" fill="#363436"/>
<path d="M197.029 68.3023C197.731 67.797 198.095 67.1027 197.843 66.7518C197.59 66.4008 196.816 66.5259 196.114 67.0313C195.412 67.5366 195.048 68.2308 195.3 68.5818C195.553 68.9328 196.327 68.8077 197.029 68.3023Z" fill="white"/>
<path d="M203.665 58.2107C204.08 58.3696 204.441 58.6414 204.709 58.9954C204.977 59.3494 205.14 59.7713 205.18 60.2133C205.18 60.2133 205.18 62.049 203.588 61.8821C203.588 61.8821 192.33 60.4315 187.978 63.1659C187.978 63.2557 188.504 54.9885 203.665 58.2107Z" fill="#472B1E"/>
<path d="M207.967 75.9648C207.967 75.9648 207.569 77.2486 206.888 79.1228L205.72 82.2167L205.399 83.0768L205.232 83.5132V83.6288C205.232 83.4876 205.232 83.6288 205.232 83.6288V83.8085C205.102 84.3638 205.037 84.9326 205.04 85.503C205.041 86.0271 205.128 86.5474 205.297 87.0435C205.459 87.4826 205.739 87.8688 206.105 88.1604C206.924 88.7102 207.88 89.0213 208.865 89.059C209.648 89.1063 210.432 89.1063 211.215 89.059H212.139L211.292 89.4441C210.523 89.7535 209.722 89.9774 208.904 90.1116C207.632 90.3503 206.317 90.156 205.168 89.5596C204.467 89.1519 203.904 88.5439 203.551 87.8137C203.203 87.1058 203.014 86.3302 202.999 85.5415C202.97 84.8003 203.034 84.0584 203.191 83.3335L203.268 83.0382V82.9355V82.82L203.461 82.3579L203.846 81.4721C204.141 80.9072 204.424 80.3681 204.719 79.8674C205.014 79.3667 205.322 78.9174 205.63 78.5066C206.292 77.559 207.078 76.7042 207.967 75.9648V75.9648Z" fill="#D78E65"/>
<path d="M199.803 95.0535C199.803 95.0535 201.086 94.8866 203.128 94.7582C204.129 94.7582 205.284 94.6298 206.53 94.5913C207.775 94.5528 209.097 94.5913 210.381 94.5913C211.664 94.5913 213.038 94.5913 214.232 94.5913C215.426 94.5913 216.633 94.7069 217.634 94.7582C219.624 94.8866 220.959 95.0535 220.959 95.0535C220.959 95.0535 219.675 95.2204 217.634 95.3487C216.633 95.3487 215.477 95.49 214.232 95.5156C212.987 95.5413 211.664 95.5156 210.381 95.5156C209.097 95.5156 207.723 95.5156 206.53 95.5156C205.336 95.5156 204.129 95.4001 203.128 95.3487C201.138 95.2204 199.803 95.0535 199.803 95.0535Z" fill="#CD8861"/>
<path d="M238.776 22.9592C238.776 22.9592 247.839 24.7436 248.391 39.5707C248.821 49.3378 248.339 59.1237 246.953 68.8015C244.078 68.365 243.385 68.8015 243.385 68.8015L242.627 81.4463H240.753V67.6846C240.573 58.8012 234.116 58.7626 234.116 58.7626C235.198 56.45 235.759 53.928 235.759 51.3747C235.759 48.8215 235.198 46.2994 234.116 43.9868C231.42 37.4397 196.502 39.5322 196.502 39.5322C183.164 39.789 186.605 55.7972 186.605 55.7972C185.62 55.7956 184.672 56.1713 183.956 56.847C183.24 57.5227 182.809 58.4471 182.754 59.4302C182.41 62.5285 182.315 65.6495 182.471 68.763C182.471 68.763 174.512 42.1511 183.575 28.6846C183.575 28.6846 177.156 12.8048 200.777 0.442383C198.98 1.37951 202.061 6.45028 202.754 7.09215C207.042 11.0332 213.14 10.0704 218.442 9.73665C219.314 9.73665 220.162 9.65963 221.009 9.65963C225.091 9.65963 229.751 10.34 233.32 12.4197C233.371 12.4453 240.92 16.3222 238.776 22.9592Z" fill="#263238"/>
<path d="M235.681 95.0536C235.681 95.0536 227.978 105.324 222.843 96.0036C222.843 96.0036 221.02 88.3781 209.505 92.6915C209.505 92.6915 201.443 88.8403 197.631 95.0536C197.631 95.0536 193.779 103.321 190.198 98.1346C187.098 91.7753 184.709 85.0937 183.073 78.2109C184.357 90.2652 188.105 104.759 198.478 111.46C198.478 111.46 208.234 121.062 219.968 112.654C219.968 112.654 237.362 103.27 240.238 96.1063C240.238 96.1063 242.318 85.5539 242.561 81.446H240.687C240.687 81.446 239.609 89.6234 235.681 95.0536Z" fill="#263238"/>
<path d="M201.264 95.0547H218.8C218.8 95.0547 218.491 101.473 210.032 102.205C210.019 102.218 202.304 102.654 201.264 95.0547Z" fill="white"/>
<path d="M201.469 96.1574C201.54 96.4776 201.639 96.7912 201.764 97.0945C201.897 97.442 202.06 97.7771 202.252 98.0958C202.496 98.5034 202.78 98.886 203.099 99.2383C203.479 99.6478 203.91 100.006 204.383 100.304C204.627 100.458 204.909 100.586 205.166 100.74L206.026 101.1L206.963 101.369L207.952 101.549C208.633 101.641 209.319 101.688 210.006 101.69C211.359 101.676 212.7 101.433 213.972 100.971C215.084 100.581 216.093 99.9447 216.925 99.11C217.523 98.5031 218.021 97.8055 218.401 97.0431C218.684 96.4911 218.812 96.1445 218.812 96.1445V96.4013C218.774 96.6447 218.718 96.8849 218.645 97.1202C218.533 97.4905 218.392 97.8511 218.222 98.1985C218.011 98.6583 217.744 99.0896 217.426 99.4823C216.601 100.522 215.528 101.339 214.306 101.857C212.946 102.437 211.485 102.747 210.006 102.769C209.257 102.757 208.511 102.693 207.772 102.576C207.413 102.499 207.053 102.435 206.694 102.345L205.667 101.998C205.346 101.844 205.025 101.703 204.73 101.536C204.434 101.369 204.152 101.164 203.895 100.959C203.414 100.588 202.982 100.156 202.611 99.6748C202.084 98.9435 201.721 98.1072 201.546 97.2229C201.473 96.8726 201.447 96.5144 201.469 96.1574V96.1574Z" fill="#CD8861"/>
<path d="M203.716 98.1342C203.716 98.1342 204.499 98.0572 205.693 97.993C206.284 97.993 206.977 97.9289 207.709 97.916H210.019C211.598 97.916 213.177 97.916 214.358 98.0315C215.539 98.1471 216.335 98.1728 216.335 98.1728C216.335 98.1728 215.539 98.2626 214.358 98.314C213.177 98.3653 211.598 98.4167 210.019 98.4295H207.709C206.964 98.4295 206.284 98.4295 205.693 98.3525C204.499 98.2113 203.716 98.1342 203.716 98.1342Z" fill="#D1D3D4"/>
<path d="M207.374 96.1572C207.436 96.385 207.483 96.6166 207.515 96.8504C207.515 97.0558 207.592 97.2998 207.592 97.5565C207.592 97.8133 207.592 98.0957 207.592 98.3653C207.585 98.8721 207.546 99.378 207.476 99.8801C207.439 100.114 207.388 100.346 207.322 100.573C207.256 100.346 207.205 100.114 207.168 99.8801C207.098 99.378 207.06 98.8721 207.053 98.3653V97.5565C207.053 97.2998 207.053 97.0558 207.13 96.8504C207.196 96.6143 207.277 96.3827 207.374 96.1572Z" fill="#D1D3D4"/>
<path d="M211.624 96.1572C211.686 96.385 211.733 96.6166 211.765 96.8504C211.765 97.0558 211.83 97.2998 211.842 97.5565V98.3653C211.835 98.8721 211.797 99.378 211.727 99.8801C211.69 100.114 211.638 100.346 211.573 100.573C211.506 100.346 211.454 100.114 211.419 99.8801C211.349 99.378 211.31 98.8721 211.303 98.3653V97.5565C211.303 97.2998 211.303 97.0558 211.38 96.8504C211.447 96.6144 211.528 96.3829 211.624 96.1572V96.1572Z" fill="#D1D3D4"/>
<path d="M230.47 278.692H205.117L193.139 377.733H177.593L172.099 260.476L221.459 240.925H262.859C262.859 240.925 266.197 255.649 258.803 266.844C258.803 266.844 249.662 279.707 230.47 278.692Z" fill="#263238"/>
<path d="M29.2692 214.416L0 232.684V396.579L29.2692 379.133V214.416Z" fill="#E0E0E0"/>
<path d="M360 214.391L330.731 232.684V396.579L360 379.107V214.391Z" fill="#E0E0E0"/>
<path d="M330.73 232.684H0V244.391H330.73V232.684Z" fill="#BCBCBC"/>
<path d="M29.2436 214.416L0 232.684H330.73L359.986 214.416H29.2436Z" fill="#A8A6A6"/>
<path d="M330.741 232.684H326.325V396.579H330.741V232.684Z" fill="#A8A6A6"/>
<path d="M4.41606 232.684H0V396.579H4.41606V232.684Z" fill="#A8A6A6"/>
<path d="M99.1046 207.009L79.4634 219.281H189.326L208.98 207.009H99.1046Z" fill="#253C47"/>
<path d="M189.326 219.281H79.4634V221.785H189.326V219.281Z" fill="#1A2F39"/>
<path d="M189.327 219.281L208.981 207.009V209.679L189.327 221.785V219.281Z" fill="#021822"/>
<path d="M180.006 217.28C314.388 231.722 247.838 122.873 254.694 135.236Z" fill="#F85052"/>
<path d="M180.006 217.28C314.388 231.722 247.838 122.873 254.694 135.236" stroke="#F85052" stroke-width="16.94" stroke-miterlimit="10"/>
<path d="M172.138 208.408L165.128 206.996C165.128 206.996 155.937 209.204 154.512 210.398C153.087 211.592 154.743 213.107 154.743 213.107L156.63 212.452L162.959 210.68L167.888 211.656C167.888 211.656 172.138 211.926 172.138 208.408Z" fill="#E1956A"/>
<path d="M168.939 221.015C178.336 218.691 179.35 223.248 179.35 223.248L180.788 210.411C178.515 207.715 171.802 208.318 171.802 208.318L162.084 208.832C159.645 210.474 157.325 212.284 155.139 214.249C153.932 215.7 155.819 216.817 155.819 216.817L157.565 215.803L161.994 212.439L167.501 213.043L161.763 213.697L157.475 217.805C155.241 219.923 157.706 221.194 157.706 221.194L162.957 216.496L170.967 217.78C168.323 218.357 163.881 219.423 163.881 219.423C163.881 219.423 163.123 221.502 165.165 221.502L168.939 221.015Z" fill="#F9A374"/>
<path d="M250.946 155.66C250.946 155.66 251.356 156.456 251.934 157.907C253.864 162.794 254.987 167.962 255.259 173.209C255.341 174.96 255.303 176.714 255.143 178.459C254.98 180.273 254.676 182.072 254.232 183.838C253.762 185.606 253.126 187.325 252.332 188.973C251.557 190.572 250.619 192.086 249.533 193.492C248.969 194.134 248.442 194.776 247.865 195.405C247.287 196.034 246.696 196.547 246.093 197.061C245.49 197.574 244.886 198.036 244.296 198.473L242.499 199.615C241.435 200.241 240.333 200.798 239.199 201.284C238.172 201.682 237.312 202.08 236.542 202.273L234.18 202.94L236.388 201.888C237.094 201.592 237.89 201.053 238.84 200.604C239.336 200.332 239.816 200.032 240.278 199.705C240.766 199.359 241.318 199.063 241.831 198.653L243.436 197.369L245.04 195.918C245.58 195.405 246.055 194.814 246.594 194.262C247.133 193.71 247.556 192.978 248.057 192.414C248.558 191.849 248.956 191.13 249.341 190.36C249.726 189.589 250.162 188.922 250.483 188.139C251.201 186.595 251.772 184.988 252.191 183.338C252.629 181.682 252.938 179.996 253.115 178.292C253.299 176.634 253.393 174.967 253.398 173.299C253.398 171.668 253.398 170.089 253.192 168.587C252.987 167.085 252.897 165.673 252.704 164.364C252.298 161.429 251.711 158.522 250.946 155.66V155.66Z" fill="#D32224"/>
<path d="M168.145 113.707H34.6488V204.031H168.145V113.707Z" fill="#213742"/>
<path d="M157.078 128.675H45.7135V204.03H157.078V128.675Z" fill="#253C47"/>
<path d="M118.965 165.005C118.965 169.66 117.117 174.125 113.826 177.418C110.536 180.711 106.072 182.563 101.417 182.567C99.1083 182.57 96.8219 182.118 94.6883 181.237C92.5547 180.356 90.6157 179.063 88.9822 177.432C87.3487 175.801 86.0529 173.864 85.1687 171.732C84.2846 169.599 83.8295 167.313 83.8295 165.005V157.919C83.8312 155.612 84.2875 153.327 85.1724 151.196C86.0573 149.065 87.3534 147.13 88.9867 145.5C90.62 143.87 92.5585 142.579 94.6913 141.698C96.824 140.818 99.1094 140.367 101.417 140.37V140.37C106.074 140.37 110.541 142.22 113.835 145.514C117.128 148.807 118.978 153.274 118.978 157.932L118.965 165.005Z" fill="#1A2F39"/>
<path d="M115.537 225.096H87.2567L94.8564 157.776H107.938L115.537 225.096Z" fill="#061C25"/>
<path d="M122.211 220.963H80.5918V226.188H122.211V220.963Z" fill="#1A2F39"/>
<path d="M70.0018 18.8633C133.868 18.8633 134.33 40.0578 134.33 66.2076C134.33 85.7589 132.481 102.537 106.088 109.765C107.41 121.113 119.49 122.897 119.49 122.897C119.49 122.897 99.8487 125.272 89.3349 112.628C83.6351 113.192 77.2292 113.501 70.0018 113.501C8.98565 113.539 5.66077 92.3445 5.66077 66.1947C5.66077 40.045 6.13575 18.8633 70.0018 18.8633Z" fill="#F5F5F5"/>
<path d="M49.4204 31.8164L27.7565 65.1377L82.6031 100.796L104.267 67.4751L49.4204 31.8164Z" fill="#BD6B3C"/>
<path d="M27.7418 65.1432L82.5832 100.793L104.253 67.4668L64.2899 68.9303L49.4113 31.8174L27.7418 65.1432Z" fill="#F85052"/>
<g style="mix-blend-mode:multiply">
<path d="M61.2964 61.4443L62.9011 66.0273L70.5265 68.6975H72.5163L82.6322 100.791L27.7523 65.1415C27.7523 65.1415 53.594 62.2531 61.2964 61.4443Z" fill="#D7C2BF"/>
</g>
<path d="M70.9758 69.995L82.5295 100.805L27.7523 65.1425C27.7523 65.1425 55.0446 64.1027 61.3863 63.756C67.7279 63.4094 68.6009 63.679 70.9758 69.995Z" fill="#F85052"/>
<path d="M59.8875 64.3602L49.4122 31.8174L104.254 67.4668C104.254 67.4668 76.0113 69.9188 69.4771 70.5863C62.9428 71.2538 62.0442 71.0484 59.8875 64.3602Z" fill="#CF4243"/>
</svg>
