<svg width="40" height="40" viewBox="0 0 40 40" fill="none" xmlns="http://www.w3.org/2000/svg">
<path d="M23.3333 16.6667H31.2733C31.8414 16.6667 32.4001 16.8119 32.8963 17.0885C33.3925 17.3652 33.8098 17.764 34.1085 18.2473C34.4073 18.7305 34.5775 19.2821 34.6032 19.8496C34.6288 20.4171 34.5089 20.9818 34.255 21.49L28.4217 33.1567C28.1448 33.7108 27.719 34.1768 27.192 34.5024C26.665 34.828 26.0578 35.0003 25.4383 35H18.7433C18.4717 35 18.2 34.9667 17.935 34.9L11.6667 33.3333M23.3333 16.6667V8.33333C23.3333 7.44928 22.9821 6.60143 22.357 5.97631C21.7319 5.35119 20.8841 5 20 5H19.8417C19.0083 5 18.3333 5.675 18.3333 6.50833C18.3333 7.69833 17.9817 8.86167 17.32 9.85167L11.6667 18.3333V33.3333M23.3333 16.6667H20M11.6667 33.3333H8.33333C7.44928 33.3333 6.60143 32.9821 5.97631 32.357C5.35119 31.7319 5 30.8841 5 30V20C5 19.1159 5.35119 18.2681 5.97631 17.643C6.60143 17.0179 7.44928 16.6667 8.33333 16.6667H12.5" stroke="#F85052" stroke-width="2" stroke-linecap="round" stroke-linejoin="round"/>
</svg>
