<svg width="20" height="17" viewBox="0 0 20 17" fill="none" xmlns="http://www.w3.org/2000/svg">
<path d="M19.9599 2.26053C19.4871 2.97065 18.9095 3.60505 18.2467 4.14211C18.1631 4.21174 18.0962 4.29914 18.0506 4.39792C18.0051 4.49671 17.9822 4.6044 17.9835 4.71316V4.77895C17.9758 6.20511 17.7138 7.61847 17.2099 8.95264C16.6906 10.3529 15.9191 11.6462 14.9335 12.7684C13.6092 14.2761 11.9055 15.4019 9.99933 16.029C8.74678 16.4355 7.43724 16.6389 6.12039 16.6316C4.03127 16.6313 1.97941 16.0784 0.173019 15.029C0.108289 14.9921 0.0573335 14.9352 0.0278872 14.8668C-0.00155898 14.7985 -0.00788768 14.7223 0.0098618 14.65C0.0280759 14.5788 0.0695819 14.5158 0.127766 14.471C0.18595 14.4262 0.257464 14.4021 0.330914 14.4026H0.830914C2.41854 14.4065 3.97104 13.9355 5.28881 13.05C4.50348 12.9228 3.76851 12.5814 3.16487 12.0632C2.56124 11.545 2.11238 10.8702 1.86776 10.1132C1.85523 10.0752 1.85296 10.0347 1.86117 9.99563C1.86938 9.95655 1.88778 9.92035 1.9145 9.89068C1.94123 9.86102 1.97532 9.83895 2.01333 9.82672C2.05134 9.8145 2.09191 9.81254 2.13091 9.82106C2.3704 9.86612 2.61354 9.88902 2.85723 9.88948H2.94933C2.19033 9.54077 1.54857 8.97969 1.10164 8.27404C0.654717 7.56839 0.421753 6.74839 0.430914 5.91316C0.431185 5.87408 0.441573 5.83573 0.461065 5.80186C0.480557 5.76798 0.50849 5.73973 0.542142 5.71986C0.575795 5.69999 0.614021 5.68917 0.653098 5.68845C0.692174 5.68774 0.730769 5.69716 0.765125 5.71579C1.07384 5.88815 1.40511 6.01659 1.74934 6.09737C1.06895 5.42422 0.631305 4.54421 0.50509 3.59546C0.378875 2.6467 0.571228 1.68289 1.05197 0.855266C1.07015 0.823479 1.09578 0.79658 1.12666 0.776879C1.15753 0.757178 1.19272 0.745263 1.22921 0.742157C1.2657 0.739052 1.3024 0.744849 1.33616 0.759049C1.36991 0.77325 1.39972 0.795431 1.42302 0.823687C2.3735 2.00053 3.55064 2.97451 4.88463 3.68784C6.21862 4.40117 7.68229 4.83933 9.18881 4.97632H9.20986C9.23199 4.97568 9.25377 4.97054 9.27385 4.96121C9.29393 4.95189 9.31191 4.93857 9.32668 4.92208C9.34145 4.90558 9.35271 4.88625 9.35977 4.86526C9.36683 4.84428 9.36955 4.82207 9.36775 4.8C9.309 4.27188 9.34285 3.73755 9.46776 3.22106C9.63755 2.51899 9.98608 1.87278 10.4795 1.34526C10.9729 0.817729 11.5944 0.426822 12.2835 0.210529C12.7257 0.0724092 13.1861 0.00144334 13.6493 2.86523e-06C14.6997 -0.00120828 15.7142 0.381587 16.502 1.07632C16.604 1.16762 16.7361 1.2182 16.873 1.21842C16.9174 1.21747 16.9616 1.21129 17.0046 1.2C17.7448 1.01297 18.4539 0.719566 19.1099 0.32895C19.1491 0.304736 19.1949 0.293248 19.2409 0.296061C19.287 0.298873 19.331 0.315847 19.367 0.34466C19.403 0.373473 19.4293 0.412715 19.4421 0.457012C19.455 0.501309 19.4538 0.548495 19.4388 0.592108C19.2198 1.28101 18.8296 1.90306 18.3046 2.4C18.7775 2.28725 19.2391 2.13133 19.6835 1.93421C19.7274 1.91728 19.7755 1.91443 19.821 1.92606C19.8666 1.93768 19.9074 1.96321 19.9378 1.99909C19.9681 2.03498 19.9866 2.07943 19.9906 2.12628C19.9945 2.17313 19.9838 2.22006 19.9599 2.26053V2.26053Z" fill="#00A6DE"/>
</svg>
