<svg width="34" height="33" viewBox="0 0 34 33" fill="none" xmlns="http://www.w3.org/2000/svg">
<path fill-rule="evenodd" clip-rule="evenodd" d="M13.0143 22.3545C19.3383 22.3545 24.7434 23.3128 24.7434 27.1408C24.7434 30.9688 19.3743 31.9545 13.0143 31.9545C6.68858 31.9545 1.28516 31.0048 1.28516 27.1751C1.28516 23.3453 6.65258 22.3545 13.0143 22.3545Z" stroke="white" stroke-width="2" stroke-linecap="round" stroke-linejoin="round"/>
<path fill-rule="evenodd" clip-rule="evenodd" d="M13.014 16.8912C8.86197 16.8912 5.49512 13.5261 5.49512 9.37408C5.49512 5.22208 8.86197 1.85693 13.014 1.85693C17.1643 1.85693 20.5311 5.22208 20.5311 9.37408C20.5465 13.5106 17.2037 16.8758 13.0671 16.8912H13.014Z" stroke="white" stroke-width="2" stroke-linecap="round" stroke-linejoin="round"/>
<path d="M24.8281 14.9398C27.5727 14.5541 29.6864 12.1987 29.6916 9.34783C29.6916 6.53811 27.643 4.20668 24.9567 3.76611" stroke="white" stroke-width="2" stroke-linecap="round" stroke-linejoin="round"/>
<path d="M28.4492 21.541C31.1081 21.937 32.9646 22.8696 32.9646 24.7896C32.9646 26.1113 32.0904 26.9684 30.6778 27.505" stroke="white" stroke-width="2" stroke-linecap="round" stroke-linejoin="round"/>
</svg>
