<svg width="37" height="28" viewBox="0 0 37 28" fill="none" xmlns="http://www.w3.org/2000/svg">
<path d="M28.8125 12.1609C31.1375 11.8342 32.9275 9.84089 32.9325 7.42589C32.9325 5.04589 31.1975 3.07255 28.9225 2.69922" stroke="#F85052" stroke-width="2" stroke-linecap="round" stroke-linejoin="round"/>
<path d="M31.8799 17.7505C34.1315 18.0872 35.7032 18.8755 35.7032 20.5005C35.7032 21.6188 34.9632 22.3455 33.7665 22.8022" stroke="#F85052" stroke-width="2" stroke-linecap="round" stroke-linejoin="round"/>
<path fill-rule="evenodd" clip-rule="evenodd" d="M18.8106 18.4395C13.4539 18.4395 8.87891 19.2511 8.87891 22.4928C8.87891 25.7328 13.4256 26.5678 18.8106 26.5678C24.1672 26.5678 28.7406 25.7645 28.7406 22.5211C28.7406 19.2778 24.1956 18.4395 18.8106 18.4395Z" stroke="#F85052" stroke-width="2" stroke-linecap="round" stroke-linejoin="round"/>
<path fill-rule="evenodd" clip-rule="evenodd" d="M18.8104 13.813C22.3254 13.813 25.1754 10.9647 25.1754 7.44801C25.1754 3.93301 22.3254 1.08301 18.8104 1.08301C15.2954 1.08301 12.4454 3.93301 12.4454 7.44801C12.432 10.9513 15.2604 13.8013 18.7637 13.813H18.8104Z" stroke="#F85052" stroke-width="2" stroke-linecap="round" stroke-linejoin="round"/>
<path d="M8.8075 12.1609C6.48083 11.8342 4.6925 9.84089 4.6875 7.42589C4.6875 5.04589 6.4225 3.07255 8.6975 2.69922" stroke="#F85052" stroke-width="2" stroke-linecap="round" stroke-linejoin="round"/>
<path d="M5.73935 17.7505C3.48768 18.0872 1.91602 18.8755 1.91602 20.5005C1.91602 21.6188 2.65602 22.3455 3.85268 22.8022" stroke="#F85052" stroke-width="2" stroke-linecap="round" stroke-linejoin="round"/>
</svg>
