<svg width="21" height="15" viewBox="0 0 21 15" fill="none" xmlns="http://www.w3.org/2000/svg">
<path d="M19.5414 2.49671C19.1414 1.25461 17.8178 0.520399 16.5888 0.349346C12.2082 -0.116449 7.79049 -0.116449 3.40985 0.349346C2.19143 0.520399 0.867748 1.26514 0.467748 2.49671C-0.155916 5.6743 -0.155916 8.94282 0.467748 12.1204C0.878274 13.3599 2.20196 14.0967 3.43091 14.2678C7.81168 14.7309 12.2291 14.7309 16.6099 14.2678C17.8283 14.0967 19.152 13.3493 19.552 12.1204C20.1722 8.94213 20.1686 5.67361 19.5414 2.49671V2.49671ZM7.61775 11.1388V3.47566L13.8572 7.30724C11.7546 8.59935 9.71249 9.85724 7.61775 11.1388Z" fill="#F20000"/>
</svg>
